<?xml version="1.0" encoding="utf-8"?>
<!-- Generator: Adobe Illustrator 28.1.0, SVG Export Plug-In . SVG Version: 6.00 Build 0)  -->
<svg version="1.1" id="图层_1" xmlns="http://www.w3.org/2000/svg" xmlns:xlink="http://www.w3.org/1999/xlink" x="0px" y="0px"
	 viewBox="0 0 1500 285" style="enable-background:new 0 0 1500 285;" xml:space="preserve">
<style type="text/css">
	.st0{enable-background:new    ;}
	.st1{fill:#689F38;}
	.st2{fill:none;stroke:#689F38;stroke-width:3;}
	.st3{fill-rule:evenodd;clip-rule:evenodd;fill:#5FCB5C;}
	.st4{fill-rule:evenodd;clip-rule:evenodd;fill:#689F38;}
	.st5{fill:#FFFFFF;}
	.st6{fill:#82D2FF;}
	.st7{fill:#3BA738;}
	.st8{fill:#5FCB5C;}
	.st9{fill:#76E572;}
	.st10{fill:#8AF686;}
	.st11{fill:#BDFFBA;}
	.st12{filter:url(#Adobe_OpacityMaskFilter);}
	.st13{fill-rule:evenodd;clip-rule:evenodd;fill:#FFFFFF;}
	.st14{mask:url(#mask-2_00000034054737146700211420000000931139322920371590_);fill:#83F17F;}
	.st15{filter:url(#Adobe_OpacityMaskFilter_00000124841036037188999190000004430982502462616486_);}
	.st16{mask:url(#mask-2_00000006690610094330642670000009714022487001873078_);fill:#FFFFFF;}
	.st17{filter:url(#Adobe_OpacityMaskFilter_00000025419359647899209380000016798200709437064103_);}
	.st18{mask:url(#mask-2_00000059992516161090213370000007495813435673644214_);fill:#51B9F9;}
</style>
<g id="BEEBD文字改色">
	<g class="st0">
		<path class="st1" d="M368.59,196.59h-19.22c-26.25,0-45-5.62-56.25-16.88c-6.56,7.19-14.53,12.66-23.91,16.41
			c-0.94,0-1.41-0.16-1.41-0.47c-0.31-0.31,0-0.63,0.94-0.94c8.12-5.32,14.37-12.5,18.75-21.56c-5.62-7.81-9.84-18.75-12.66-32.81
			c0.31-0.62,0.94-0.78,1.88-0.47c3.12,10.94,7.81,19.53,14.06,25.78c3.12-9.38,4.53-19.22,4.22-29.53h-8.91
			c-1.57,1.88-2.97,2.81-4.22,2.81c-0.63,0.31-1.25,0.16-1.88-0.47c-4.06-2.81-6.88-5.16-8.44-7.03c-0.63-0.62-0.63-1.25,0-1.88
			c0.62,0,2.18-0.78,4.69-2.34l12.19-30h-9.38c-2.5,0.31-4.85,0.47-7.03,0.47l-3.28-3.28c1.25,0.31,2.65,0.47,4.22,0.47h15.47
			c0.31-0.31,0.62-0.94,0.94-1.88c0.31-0.94,0.78-1.71,1.41-2.34c0.62-0.31,1.25-0.62,1.88-0.94c4.37,2.19,8.28,4.22,11.72,6.09
			c0.62,0.63,0.62,1.41,0,2.34c-2.19,1.57-3.6,2.5-4.22,2.81l-14.06,32.81h7.5c1.25-1.88,2.97-3.59,5.16-5.16
			c0.31,0,0.94,0.16,1.88,0.47c-0.63-0.62-0.47-0.62,0.47,0c2.5,1.25,5.31,2.97,8.44,5.16c0.31,0.94,0.31,1.72,0,2.34
			c-0.31,0.63-0.78,1.25-1.41,1.88c-0.94,0.94-1.57,1.72-1.88,2.34c-0.94,13.12-3.75,23.6-8.44,31.41
			c10,7.19,23.28,10.78,39.84,10.78h18.75c8.44,0,16.71-1.09,24.84-3.28c0.62,0.31,0.78,0.94,0.47,1.88
			c-4.69,1.56-6.88,5.78-6.56,12.66c-0.31,0.31-0.63,0.78-0.94,1.41C372.34,196.28,370.47,196.59,368.59,196.59z M328.75,178.31
			v-12.19h-13.12c-0.63,0.31-3.13,0.47-7.5,0.47l-2.81-3.28c1.25,0.31,2.5,0.47,3.75,0.47h19.69v-14.06h-8.44
			c-2.5,0.31-4.85,0.47-7.03,0.47l-3.28-3.28c1.25,0.31,2.65,0.47,4.22,0.47h14.53v-15h-9.38c-0.63,0.31-3.13,0.47-7.5,0.47
			l-2.81-3.28c1.25,0.31,2.5,0.47,3.75,0.47h15.94v-11.25h-16.88c-2.81,0-5.32,0-7.5,0l-2.81-3.28c1.25,0.31,2.5,0.47,3.75,0.47
			h23.44v-12.19h-10.78h-6.56l-2.34-3.28c1.25,0.31,2.5,0.47,3.75,0.47h15.94V85.03c6.87,0,11.25,0.31,13.12,0.94
			c0.94,0.94,0.94,1.72,0,2.34c-0.63,0.94-1.25,1.41-1.88,1.41v11.25h11.25c0.31-0.31,0.94-1.09,1.88-2.34
			c1.25-1.56,2.18-2.34,2.81-2.34c4.06,0.94,8.12,3.13,12.19,6.56c0,0.63-0.78,1.57-2.34,2.81l-0.47,0.47v9.84h2.34
			c1.56-2.18,3.59-4.53,6.09-7.03c0.31-0.31,0.78-0.31,1.41,0c4.37,3.75,7.19,6.56,8.44,8.44c-0.31,0.63-0.63,1.1-0.94,1.41h-17.34
			v17.34c-0.31,1.25-1.57,2.19-3.75,2.81c5,3.75,8.44,6.72,10.31,8.91c0.31,1.25,0.15,1.88-0.47,1.88H340v14.06h16.41
			c2.18-3.44,4.53-6.25,7.03-8.44c0.31-0.31,0.78-0.31,1.41,0c4.06,2.5,7.65,5.47,10.78,8.91c0.31,0.94,0.15,1.57-0.47,1.88H340
			v9.84C335.62,180.66,331.87,181.44,328.75,178.31z M340,103.78v12.19h12.66v-12.19H340z M340,118.78v11.25h12.66v-11.25H340z
			 M340,132.38v15h12.66c0.94-1.88,3.12-4.53,6.56-7.97c-4.38,0.63-6.56-0.47-6.56-3.28v-3.75H340z"/>
		<path class="st1" d="M406.56,169.41v-34.69h-4.69c-0.63,0.31-3.28,0.47-7.97,0.47l-2.34-3.28c1.25,0.31,2.5,0.47,3.75,0.47h23.44
			c2.81-3.44,4.84-5.93,6.09-7.5c0.62,0,1.09,0,1.41,0c3.75,3.13,6.56,5.94,8.44,8.44c0,0.94-0.31,1.41-0.94,1.41h-12.66
			c0,0.63-0.31,1.1-0.94,1.41c-0.31,0.31-0.94,0.78-1.88,1.41l-0.94,0.94v29.06c1.25,0,2.5-0.15,3.75-0.47
			c5-1.25,8.75-2.03,11.25-2.34c0.31,0,0.62,0.31,0.94,0.94c0,0.63-0.16,1.1-0.47,1.41c-5.94,3.44-18.6,10.31-37.97,20.62
			c-0.94,0.31-1.57,0.31-1.88,0c-0.31-0.94-1.25-2.66-2.81-5.16c-1.25-3.12-2.19-5.78-2.81-7.97c-0.31-0.94,0-1.71,0.94-2.34
			C390.16,171.91,396.25,170.97,406.56,169.41z M413.59,106.12h-5.16c-5,7.19-10.94,14.38-17.81,21.56
			c-1.25,0.31-1.72-0.15-1.41-1.41c7.19-12.5,12.03-26.4,14.53-41.72c0-0.31,0.47-0.62,1.41-0.94c4.06,1.25,9.21,3.13,15.47,5.62
			c0.31,0.63,0.31,1.1,0,1.41c-0.94,0.94-2.19,1.72-3.75,2.34c-1.88,3.44-4.22,7.03-7.03,10.78h17.34c0.31,0,1.71-1.56,4.22-4.69
			c1.25-1.88,2.18-3.12,2.81-3.75h0.94c0.31,0,0.62,0,0.94,0c5,3.75,8.44,6.72,10.31,8.91c0.31,1.25,0.15,1.88-0.47,1.88h-26.72
			c4.69,1.88,7.65,4.69,8.91,8.44c0.94,4.06-0.31,7.03-3.75,8.91c-3.75,1.25-6.25,0-7.5-3.75c-0.63-1.56-0.63-3.12,0-4.69
			c0-0.31,0-0.62,0-0.94C417.18,112.53,416.09,109.88,413.59,106.12z M448.75,148.31v8.91c0.31,18.75-10.47,31.88-32.34,39.38
			c-1.57-0.63-1.88-1.57-0.94-2.81c14.37-7.81,21.72-20,22.03-36.56v-30.94c4.06,1.25,7.81,2.81,11.25,4.69h17.34
			c2.18-3.12,3.9-4.69,5.16-4.69c4.37,1.25,8.59,3.44,12.66,6.56c0,0.63-0.78,1.57-2.34,2.81l-1.41,1.88v41.25
			c0.31,2.81,1.56,4.22,3.75,4.22h4.22c3.75,0,7.5-6.25,11.25-18.75c0.62-0.94,1.56-0.78,2.81,0.47
			c-2.81,10.94-3.13,17.66-0.94,20.16c0.62,0.94,0.94,2.03,0.94,3.28c-0.31,3.75-3.91,5.78-10.78,6.09h-14.06
			c-5.32-0.94-8.13-3.44-8.44-7.5v-52.97h-20.16v14.06c0.31-0.31,0.62-0.62,0.94-0.94c9.06,3.75,14.22,9.38,15.47,16.88
			c0,3.75-1.88,6.25-5.62,7.5c-4.06,0.31-6.41-1.41-7.03-5.16c0-0.31,0-0.94,0-1.88c0.31-0.94,0.47-1.88,0.47-2.81
			c0-4.37-1.25-8.59-3.75-12.66C448.9,148.78,448.75,148.63,448.75,148.31z M463.75,104.72H460c-3.75,5.94-9.38,12.35-16.88,19.22
			c-1.25,0.31-1.72-0.15-1.41-1.41c7.5-15,11.87-27.81,13.12-38.44c0-0.31,0.47-0.62,1.41-0.94c4.06,1.25,9.21,3.13,15.47,5.62
			c0.31,0.63,0.31,1.1,0,1.41c-0.94,0.94-2.19,1.72-3.75,2.34c-1.88,3.44-3.91,6.72-6.09,9.84h18.75c2.81-3.44,5.16-6.25,7.03-8.44
			c0.31-0.31,0.78-0.31,1.41,0c3.75,1.57,7.81,4.53,12.19,8.91c0.31,0.63,0.47,1.1,0.47,1.41c-0.31,0.31-0.63,0.47-0.94,0.47h-32.81
			c5.93,2.81,9.53,6.25,10.78,10.31c0.31,4.38-1.41,7.19-5.16,8.44c-4.06,0.94-6.41-0.62-7.03-4.69c-0.31-0.31-0.31-0.94,0-1.88
			c0.31-0.94,0.47-1.88,0.47-2.81C467.03,111.6,465.93,108.47,463.75,104.72z"/>
		<path class="st1" d="M573.91,117.38v-11.25h-21.09v13.59c-7.5,4.06-11.72,3.75-12.66-0.94v-12.66h-21.09
			c-2.5,0.31-5,0.47-7.5,0.47l-2.81-3.28c1.25,0.31,2.65,0.47,4.22,0.47h27.19V83.62c7.81,0.63,13.12,1.57,15.94,2.81
			c0.94,0.63,0.94,1.41,0,2.34c-1.25,1.25-2.34,2.04-3.28,2.34v12.66h21.09V83.62c7.81,0.63,13.12,1.57,15.94,2.81
			c0.94,0.63,0.94,1.41,0,2.34c-1.25,1.25-2.34,2.04-3.28,2.34v12.66h12.19c2.81-4.06,5.62-7.81,8.44-11.25c0.62,0,1.25,0,1.88,0
			c5.62,4.06,10.31,7.66,14.06,10.78c0.62,1.57,0.47,2.5-0.47,2.81h-36.09v12.66c-2.19,1.88-5.16,2.81-8.91,2.81
			C575.15,121.29,573.91,119.88,573.91,117.38z M564.06,193.31c-0.63,1.88-3.44,3.12-8.44,3.75c-4.06,0.31-6.09-0.63-6.09-2.81
			l0.47-55.78v-9.84h-27.19h-7.97l-2.81-2.81c1.25,0.31,3.28,0.47,6.09,0.47H595l0.47-0.94c2.5-3.75,4.06-5.62,4.69-5.62
			c5.62,2.19,10.62,4.85,15,7.97c0,0.94-0.94,2.19-2.81,3.75c-0.94,0.63-1.25,0.94-0.94,0.94v23.91
			c0.94,17.5-4.38,26.41-15.94,26.72c-0.31,0-1.1,0-2.34,0c-0.63-6.25-6.09-10.94-16.41-14.06c-1.25-1.25-1.1-2.18,0.47-2.81
			c14.37,3.75,21.09,0.78,20.16-8.91v-28.59h-30.47c0,0.94-1.1,2.19-3.28,3.75v6.09L564.06,193.31z"/>
		<path class="st1" d="M662.5,92.53l-18.75,18.75c2.18,0.31,6.25,0.63,12.19,0.94c5.93,0,10.94,0,15,0
			c-0.63-5.31-2.34-9.06-5.16-11.25c-0.63-0.62-0.47-1.09,0.47-1.41c10.62,1.57,17.18,5.79,19.69,12.66c0.62,5-0.78,8.75-4.22,11.25
			c-4.06,2.19-7.19,1.25-9.38-2.81c-0.63-0.62-1.1-2.03-1.41-4.22c0-0.94,0-1.71,0-2.34c-16.25,4.69-27.97,8.13-35.16,10.31
			c-1.25,0.63-2.04,0.31-2.34-0.94c-0.31-0.31-0.63-0.78-0.94-1.41c-2.19-4.69-3.28-7.81-3.28-9.38c-0.63-0.62-0.31-1.25,0.94-1.88
			c8.44-1.88,14.53-10.62,18.28-26.25c0-0.31,0.78-0.62,2.34-0.94c8.12,2.5,13.59,4.22,16.41,5.16c0,0.31,0.15,0.78,0.47,1.41
			c-0.94,0.63-1.72,1.1-2.34,1.41C663.75,91.91,662.81,92.22,662.5,92.53z M637.66,180.66v-42.19l-0.47-10.78
			c-0.31,0-0.16-0.15,0.47-0.47c5.62,2.5,9.38,4.22,11.25,5.16h15c1.25-1.56,2.81-3.12,4.69-4.69c0.62-0.31,1.25-0.31,1.88,0
			c1.88,0.63,5.16,2.34,9.84,5.16c-0.31-0.31,0.15-0.15,1.41,0.47c0.62,0.31,0.78,0.94,0.47,1.88c-0.31,0.31-0.78,0.78-1.41,1.41
			c-0.94,1.25-1.57,1.88-1.88,1.88l0.94,50.62c0,4.37-4.22,7.19-12.66,8.44c-0.94-0.31-1.41-0.78-1.41-1.41
			c-0.94-5.94-4.53-9.69-10.78-11.25c-0.63-1.25-0.47-1.88,0.47-1.88c7.81,0.62,11.87,0.47,12.19-0.47v-15h-18.75v24.38
			c-3.13,4.06-7.03,5.16-11.72,3.28c-0.31-1.25-0.31-3.6,0-7.03C637.19,185.65,637.34,183.15,637.66,180.66z M648.91,134.72v14.06
			h18.75v-14.06H648.91z M648.91,151.12v13.59h18.75v-13.59H648.91z M701.41,110.34v7.03c-0.63,4.38,1.88,6.41,7.5,6.09h7.97
			c10.94,1.57,17.34-3.9,19.22-16.41c0.31-0.62,0.78-0.62,1.41,0c-1.25,6.56-0.94,11.41,0.94,14.53c0.94,1.88,1.41,3.44,1.41,4.69
			c-0.31,5.62-6.56,8.44-18.75,8.44h-15c-11.25,0.63-16.57-3.12-15.94-11.25V92.53l-0.47-7.5l0.94-0.47
			c5.93,0.94,10.47,2.19,13.59,3.75c0.31,0.63,0.31,1.25,0,1.88c-0.31,0.63-0.94,1.1-1.88,1.41c-0.31,0.31-0.63,0.63-0.94,0.94v15
			c5.93-3.75,12.5-9.06,19.69-15.94c0.31-0.31,0.94-0.31,1.88,0c6.25,5,10.15,8.13,11.72,9.38c0,0.31,0.15,0.78,0.47,1.41
			c-2.81,0-4.69,0.16-5.62,0.47c-4.69,1.57-11.56,3.44-20.62,5.62C705.46,109.41,702.97,110.04,701.41,110.34z M732.81,154.41
			l-29.06,9.84v11.72c-0.31,4.69,2.18,6.88,7.5,6.56h8.91c7.81,0.62,13.75-5.31,17.81-17.81c0.31-0.94,0.62-0.94,0.94,0
			c-1.88,6.88-1.57,12.5,0.94,16.88c0.62,0.94,1.09,1.41,1.41,1.41c-0.94,5.93-5.94,9.21-15,9.84h-16.41
			c-11.88,0-17.66-3.91-17.34-11.72v-43.59c2.5,0.31,5.31,0.63,8.44,0.94c2.81,0.63,4.69,1.1,5.62,1.41c0.31,0.63,0.31,1.41,0,2.34
			c-0.31,0.63-1.1,1.41-2.34,2.34l-0.47,0.47v16.88c4.69-4.37,11.25-11.09,19.69-20.16c0.62-0.62,1.25-0.78,1.88-0.47
			c0.62,0.63,2.34,2.19,5.16,4.69c3.44,3.13,6.09,5.16,7.97,6.09c0.31,0.94,0.31,1.57,0,1.88c-0.94,0.31-1.88,0.47-2.81,0.47
			C734.37,154.41,733.44,154.41,732.81,154.41z"/>
		<path class="st1" d="M821.41,145.97h-30.94c1.25,0.63,2.34,1.1,3.28,1.41c-0.31,0.31-0.47,0.94-0.47,1.88l-4.22,1.88
			c-9.69,12.5-23.6,22.97-41.72,31.41c-0.63,0.31-0.94-0.15-0.94-1.41c12.81-8.75,22.65-20.46,29.53-35.16h-19.22
			c-2.81,0-5.47,0-7.97,0l-2.34-3.28c1.25,0.31,2.65,0.47,4.22,0.47h26.72v-37.03h-15.47c-0.63,0.31-3.28,0.47-7.97,0.47l-2.34-3.28
			c1.25,0.31,2.5,0.47,3.75,0.47h22.03V92.53l-0.47-6.09l0.47-0.47c3.12,0.31,5.93,0.63,8.44,0.94c2.5,0.31,4.53,0.63,6.09,0.94
			c0.31,0.31,0.31,0.94,0,1.88l-0.47,0.47c-0.94,1.25-1.88,2.04-2.81,2.34v11.25h27.66V92.53l-0.47-6.09l0.47-0.47
			c2.81,0.31,5.46,0.63,7.97,0.94c2.5,0.31,4.69,0.63,6.56,0.94c0.31,0.31,0.31,0.94,0,1.88c-1.25,1.25-2.34,2.19-3.28,2.81v11.25
			h8.91c2.18-3.44,4.53-6.25,7.03-8.44c0.31-0.31,0.78-0.31,1.41,0c4.06,2.5,7.65,5.47,10.78,8.91c0.31,0.94,0.15,1.57-0.47,1.88
			H827.5v37.03h13.59c0.31-0.31,1.56-1.71,3.75-4.22c1.88-2.18,3.12-3.59,3.75-4.22c-0.31,0,0.15,0,1.41,0
			c5.31,3.13,9.38,6.09,12.19,8.91c0.62,1.25,0.31,2.04-0.94,2.34h-37.97c7.5,11.56,20.31,17.34,38.44,17.34
			c0.62,0.63,0.78,1.1,0.47,1.41c-5.94,3.13-9.69,7.03-11.25,11.72c-0.63,0.63-1.1,0.94-1.41,0.94
			C834.84,171.44,825.46,160.97,821.41,145.97z M797.5,191.44v-17.81h-13.12c-0.63,0.31-3.28,0.47-7.97,0.47l-2.34-3.28
			c1.25,0.31,2.5,0.47,3.75,0.47h19.69v-16.41l-0.47-6.09l0.47-0.47c1.25,0.31,2.5,0.47,3.75,0.47c5.31,0.31,8.91,0.78,10.78,1.41
			c0.31,0.63,0.31,1.25,0,1.88c-0.63,0.94-1.72,1.88-3.28,2.81v16.41h9.84c0-0.31,0.31-0.62,0.94-0.94c2.5-3.44,4.37-5.62,5.62-6.56
			c0.31,0,0.62,0,0.94,0c3.75,3.13,6.56,5.94,8.44,8.44c0.31,0.94,0,1.41-0.94,1.41h-24.84v17.81h21.09
			c3.12-4.38,5.62-7.19,7.5-8.44c-0.31,0,0.15,0,1.41,0c4.37,2.81,7.81,5.78,10.31,8.91c0.62,0.94,0.47,1.56-0.47,1.88h-82.97
			c-0.63,0-3.28,0.15-7.97,0.47l-2.34-3.28c1.25,0,2.5,0.15,3.75,0.47H797.5z M816.25,116.91v-10.78h-27.66v10.78H816.25z
			 M816.25,130.03v-10.78h-27.66v10.78H816.25z M816.25,143.16v-10.78h-27.66v10.78H816.25z"/>
		<path class="st1" d="M886.56,132.38H895c1.25-1.88,2.34-3.12,3.28-3.75c0.31-0.31,0.78-0.31,1.41,0c3.44,1.88,6.56,3.91,9.38,6.09
			c0,0.31,0,0.63,0,0.94c0,0.31-0.63,0.78-1.88,1.41l-0.94,0.47l1.41,43.59c-6.25,3.44-10,3.44-11.25,0v-8.91h-9.84v11.72
			c-3.44,5.31-6.88,5.78-10.31,1.41l1.41-46.41c-2.81,4.06-5.79,7.66-8.91,10.78c-0.94,0.94-1.57,0.63-1.88-0.94
			c6.87-11.56,12.5-27.5,16.88-47.81h-5.62c-0.63,0.31-3.28,0.47-7.97,0.47l-2.34-3.28c1.25,0.31,2.5,0.47,3.75,0.47h22.03
			c3.12-4.06,5.62-6.87,7.5-8.44c-0.31,0,0.15,0,1.41,0c3.75,2.19,7.19,5.16,10.31,8.91c0.62,1.25,0.47,1.88-0.47,1.88h-12.19
			c0.31,1.57-0.94,2.97-3.75,4.22c-4.06,8.75-8.6,17.34-13.59,25.78C883.75,131.6,885,132.07,886.56,132.38z M886.56,134.72v35.16
			h9.84v-35.16H886.56z M940.47,189.09v-49.22H925c-0.63,1.25-1.25,2.04-1.88,2.34c-0.94,0.63-1.57,0.63-1.88,0
			c-0.63,0-2.04-0.94-4.22-2.81c-2.5-1.88-3.91-2.97-4.22-3.28c-0.31-0.94-0.31-1.56,0-1.88l3.28-3.28v-27.19l-0.47-7.5l0.47-0.47
			c4.69,0.63,8.91,1.57,12.66,2.81c0.31,0.63,0.31,1.1,0,1.41c-0.31,0.63-0.78,1.25-1.41,1.88l-0.94,0.47v35.16h14.06v-45l-0.94-7.5
			l0.47-0.47c5.31,0.31,9.53,1.1,12.66,2.34c0.62,0.31,0.78,0.94,0.47,1.88c-0.94,0.94-1.88,1.72-2.81,2.34v46.41h14.53v-35.16
			l-0.47-5.62c0-0.31,0.31-0.47,0.94-0.47c3.44,0.63,7.97,1.88,13.59,3.75c0,0.31,0,0.63,0,0.94c-0.31,0.31-1.25,1.1-2.81,2.34
			l0.94,36.56c-5.94,5-10,5-12.19,0h-14.53v49.22h17.34v-34.22c-0.31-0.31-0.63-1.09-0.94-2.34c-0.31-0.94-0.47-1.71-0.47-2.34
			c0-0.62,0.47-1.09,1.41-1.41c4.06,0.63,8.28,1.41,12.66,2.34c0.62,0.63,0.78,1.1,0.47,1.41c-0.31,0.63-0.78,1.1-1.41,1.41
			c-0.63,0.63-0.78,1.41-0.47,2.34l0.94,35.16c-0.94,1.88-3.6,2.97-7.97,3.28c-2.81,0-4.22-1.1-4.22-3.28h-45
			c-0.63,0.94-1.25,1.88-1.88,2.81c-0.94,0.62-1.72,0.62-2.34,0l-8.44-6.09c-0.31-0.31-0.47-0.78-0.47-1.41
			c0-0.31,0.15-0.47,0.47-0.47l3.75-2.34v-27.66l-0.47-7.5c-0.31,0-0.16-0.15,0.47-0.47c4.69,0.63,8.91,1.57,12.66,2.81v1.41
			c-0.31,0.63-1.1,1.41-2.34,2.34h-0.47v34.22H940.47z"/>
		<path class="st1" d="M1000.94,153.47h-2.81c-0.63,0.31-3.28,0.47-7.97,0.47l-2.34-3.28c1.25,0.31,2.5,0.47,3.75,0.47h10.31
			c3.44-6.56,5.78-11.25,7.03-14.06c0.31-0.62,1.09-0.78,2.34-0.47c0.94,0.63,2.18,1.1,3.75,1.41c-0.94-0.31-1.25-0.94-0.94-1.88
			v-11.25c-10,9.38-18.28,15.78-24.84,19.22c-0.94-0.31-1.25-0.78-0.94-1.41c7.19-7.19,13.43-16.41,18.75-27.66h-7.97
			c-2.5,0-5,0-7.5,0l-2.34-3.28c-0.31,0.31,0.94,0.47,3.75,0.47h21.09V83.62c0.31-0.31,0.62-0.62,0.94-0.94
			c7.81,1.57,12.34,2.66,13.59,3.28c0.31,0.31,0.31,0.94,0,1.88c-1.25,0.63-2.34,1.41-3.28,2.34v22.03h10.78
			c0.62-0.62,1.41-1.41,2.34-2.34c1.88-2.5,3.28-4.06,4.22-4.69c0.31-0.31,0.62-0.31,0.94,0c3.75,3.13,6.4,5.79,7.97,7.97
			c0,0.31,0,0.63,0,0.94c0,0.63-0.16,0.94-0.47,0.94h-25.78v19.69c-1.88,2.81-5,4.06-9.38,3.75c2.18,0.94,4.22,1.88,6.09,2.81
			c0.31,0.63,0.47,1.1,0.47,1.41c-0.31,0.63-0.94,1.1-1.88,1.41c-1.25,0.31-1.88,0.63-1.88,0.94l-3.28,6.09h13.12
			c0.31-1.25,1.25-2.65,2.81-4.22c0.62,0,1.09,0,1.41,0c5.31,2.81,9.06,5.16,11.25,7.03c0,0.31,0.15,0.94,0.47,1.88
			c-0.63,0-1.88,0.63-3.75,1.88h-0.47c-1.88,4.69-4.69,9.07-8.44,13.12c1.25,0.31,2.34,0.63,3.28,0.94
			c7.19,4.06,9.06,8.6,5.62,13.59c-4.06,3.44-8.91,2.03-14.53-4.22c-0.31-0.31-1.1-1.09-2.34-2.34c-9.69,7.19-21.09,12.19-34.22,15
			c-0.31-0.31-0.47-0.63-0.47-0.94c10.62-5.32,19.84-11.72,27.66-19.22c-3.13-1.25-6.72-2.5-10.78-3.75
			c-5.62,2.19-9.54,1.88-11.72-0.94c-0.63-0.94-0.78-1.56-0.47-1.88C996.09,162.38,998.43,157.85,1000.94,153.47z M996.25,88.78
			c6.25,1.57,10.62,4.85,13.12,9.84c1.88,5,1.09,8.6-2.34,10.78c-4.38,1.25-6.88-0.78-7.5-6.09c-0.31-2.5-0.63-5-0.94-7.5
			c-0.94-2.18-2.04-4.06-3.28-5.62C995,89.88,995.31,89.41,996.25,88.78z M1029.53,153.47h-15.47l-7.5,14.53c5-0.31,10-0.15,15,0.47
			C1024.68,163.78,1027.34,158.79,1029.53,153.47z M1044.06,124.41c4.37,3.75,5.16,7.5,2.34,11.25c-4.38,3.13-7.81,2.04-10.31-3.28
			c-0.31-0.31-0.63-0.78-0.94-1.41c-0.63-1.88-1.1-3.28-1.41-4.22c-1.88-2.18-4.22-4.06-7.03-5.62c-0.63-0.31-0.63-0.78,0-1.41
			C1033.28,119.72,1039.06,121.29,1044.06,124.41z M1036.56,86.44c6.56,2.81,10.31,4.69,11.25,5.62c0,1.25-0.16,1.72-0.47,1.41
			c-0.63,0.63-1.72,0.94-3.28,0.94c-3.13,2.81-8.13,8.13-15,15.94c-0.63,0.63-1.25,0.78-1.88,0.47c-0.63,0-0.63-0.47,0-1.41
			c0.62-2.5,3.28-10.15,7.97-22.97C1035.78,86.44,1036.25,86.44,1036.56,86.44z M1075,167.53h-0.47c5,5.32,13.75,10,26.25,14.06
			c0.31,0.63,0.31,1.1,0,1.41c-4.69,1.56-8.44,5-11.25,10.31c-0.63,0.62-1.25,0.78-1.88,0.47c-8.13-5.32-14.53-11.09-19.22-17.34
			c-9.07,10-21.25,16.88-36.56,20.62c-1.25-0.31-1.57-0.94-0.94-1.88c14.06-5.32,24.84-14.22,32.34-26.72
			c-5-9.68-7.66-21.4-7.97-35.16c-3.13,5.32-6.25,10-9.38,14.06c-1.25,0-1.72-0.47-1.41-1.41c8.12-15.31,13.12-35.78,15-61.41
			c0.31-0.62,0.78-0.94,1.41-0.94c5.93,1.57,11.4,3.28,16.41,5.16c0.62,1.25,0.78,1.88,0.47,1.88c-0.94,0.94-2.34,1.88-4.22,2.81
			c-3.13,8.75-6.41,16.72-9.84,23.91h21.09c3.44-4.37,5.93-7.19,7.5-8.44c0.31,0,0.78,0,1.41,0c5.62,4.38,9.06,7.35,10.31,8.91v1.88
			h-23.44c5.62,1.88,9.21,3.28,10.78,4.22c0.31,0.63,0.31,1.25,0,1.88c-1.25,0.31-2.5,1.1-3.75,2.34
			C1084.84,144.09,1080.62,157.22,1075,167.53z M1056.72,130.5h0.47c2.18,12.5,5.62,22.19,10.31,29.06
			c4.37-10.62,7.19-23.91,8.44-39.84h-13.59C1060.78,123.47,1058.9,127.06,1056.72,130.5z"/>
		<path class="st1" d="M1147.19,134.72c-1.88,1.25-3.75,2.34-5.62,3.28c-3.44,2.19-5.94,3.75-7.5,4.69l0.94,39.84
			c0.62,8.12-3.91,12.96-13.59,14.53c-1.25-0.63-1.88-1.1-1.88-1.41c-0.31-6.25-4.22-10.47-11.72-12.66
			c-1.25-0.62-1.1-1.41,0.47-2.34c10,1.57,14.84,0.63,14.53-2.81v-27.66c-3.44,2.5-6.72,4.69-9.84,6.56c-1.25,0.94-1.88,0.94-1.88,0
			c-1.25-4.37-2.5-8.91-3.75-13.59c0-0.62,0.47-1.09,1.41-1.41c4.06-0.94,8.75-1.88,14.06-2.81v-20.16h-4.69c-3.13,0-5.79,0-7.97,0
			l-2.34-3.28c1.25,0.31,2.5,0.47,3.75,0.47h11.25V91.12l-0.94-6.09c0,0.31,0.15,0.16,0.47-0.47c5.62,0.94,10.31,2.04,14.06,3.28
			c0.31,0.31,0.31,0.94,0,1.88c-0.31,0.31-1.25,0.78-2.81,1.41v24.84c0.31-0.31,0.78-0.78,1.41-1.41c1.88-2.5,3.28-4.06,4.22-4.69
			c0.31-0.31,0.78-0.31,1.41,0c1.56,1.57,4.22,3.91,7.97,7.03c0.31,0.94,0,1.57-0.94,1.88h-14.06v4.69l0.47,13.12
			c4.06-1.25,8.28-2.34,12.66-3.28C1147.34,133.94,1147.5,134.41,1147.19,134.72z M1160.78,192.84l0.47-30.47v-7.5
			c4.37,1.25,8.12,2.97,11.25,5.16h6.09c0-1.88,0-4.22,0-7.03c0.31-2.5,0.47-6.09,0.47-10.78h-15h-3.28
			c-2.19,21.25-10.16,38.91-23.91,52.97c-0.63,0.31-1.25,0.31-1.88,0c-0.31-0.31-0.31-0.78,0-1.41
			c9.68-12.5,14.37-33.12,14.06-61.88V98.62c-0.31-3.12-0.78-5.78-1.41-7.97c-0.31-1.88-0.31-2.97,0-3.28
			c3.12,0.94,7.65,2.97,13.59,6.09h36.09c0.31,0,1.09-0.78,2.34-2.34c0.94-1.56,1.71-2.5,2.34-2.81c0.62,0,1.25,0,1.88,0
			c3.75,1.88,7.5,4.38,11.25,7.5c0.31,0.31,0.31,0.78,0,1.41l-3.75,2.81l0.47,19.69c-6.56,6.25-10.94,6.41-13.12,0.47v-0.47h-37.5
			v11.25c0,3.44-0.16,6.41-0.47,8.91h18.28c0-3.12,0-7.34,0-12.66c0-1.88,0-3.59,0-5.16c-0.31-0.31,0-0.78,0.94-1.41
			c4.37,0.94,8.75,2.19,13.12,3.75c0.62,1.25,0.78,2.04,0.47,2.34c-0.63,0.63-1.41,1.25-2.34,1.88l-0.94,0.47
			c-0.63,3.75-0.78,7.35-0.47,10.78h12.66c2.81-3.75,5.16-6.56,7.03-8.44h0.94c0.31,0,0.62,0,0.94,0c4.06,2.81,7.5,5.79,10.31,8.91
			c0.31,1.25,0.15,1.88-0.47,1.88h-31.41c0,5.94,0,11.88,0,17.81h8.91c1.25-1.88,2.65-3.59,4.22-5.16c0.31-0.31,0.78-0.47,1.41-0.47
			c1.88,1.25,4.84,3.28,8.91,6.09c0.62,0.63,1.41,1.1,2.34,1.41c0.31,0.31,0.31,0.78,0,1.41c-0.63,0.63-1.41,1.25-2.34,1.88
			l-0.94,0.47l0.94,25.78c-0.63,2.5-3.28,4.22-7.97,5.16c-3.44,0.31-5.16-0.94-5.16-3.75v-5.16h-27.66v3.75
			c-0.63,2.5-2.97,4.22-7.03,5.16C1162.03,196.9,1160.47,195.66,1160.78,192.84z M1161.25,96.28v21.09h37.5V96.28H1161.25z
			 M1172.5,162.38v22.97h27.66v-22.97H1172.5z"/>
		<path class="st1" d="M1276.09,173.16v-19.69h-37.97c-0.63,0.31-3.28,0.47-7.97,0.47l-2.34-3.28c1.25,0.31,2.5,0.47,3.75,0.47
			h44.53V97.22h-31.88c-2.81,0.31-5.47,0.47-7.97,0.47l-2.34-3.28c1.25,0.31,2.65,0.47,4.22,0.47h73.59v-0.47
			c3.75-5,6.4-8.12,7.97-9.38c0.31,0,0.78,0,1.41,0c7.81,4.69,12.34,8.13,13.59,10.31c0.31,1.25,0,1.88-0.94,1.88h-40.78
			c-0.31,1.57-1.25,2.81-2.81,3.75v50.16h30.47v-0.47c3.75-5,6.4-8.12,7.97-9.38h1.41c7.81,4.69,12.34,8.13,13.59,10.31
			c0.31,1.25,0,1.88-0.94,1.88h-52.5v16.88c0,5.94,0,13.12,0,21.56c-0.31,1.56-2.34,2.81-6.09,3.75c-4.69,0.94-7.35,0.94-7.97,0
			c-0.63-1.57-0.78-5.79-0.47-12.66C1275.62,180.5,1275.78,177.22,1276.09,173.16z M1243.75,112.22
			c12.5,4.06,19.53,10.47,21.09,19.22c0.31,5-1.72,8.6-6.09,10.78c-5,1.88-8.44,0.63-10.31-3.75c-0.94-0.94-1.1-3.28-0.47-7.03
			c0.62-7.5-0.94-13.43-4.69-17.81C1242.65,113.32,1242.81,112.85,1243.75,112.22z M1314.53,110.34c2.81,1.57,7.97,4.38,15.47,8.44
			c0,0.31,0,0.78,0,1.41c-0.63,0.31-1.57,0.63-2.81,0.94c-1.25,0.31-2.04,0.47-2.34,0.47c-10.94,10-20,17.81-27.19,23.44
			c-0.94-0.31-1.25-0.62-0.94-0.94c6.56-11.87,11.72-23.12,15.47-33.75C1312.5,110.04,1313.28,110.04,1314.53,110.34z"/>
		<path class="st1" d="M1372.66,123.47l63.75-4.22c-2.81-3.44-7.5-7.03-14.06-10.78c-0.94,0-1.41-0.47-1.41-1.41
			c0.31-0.62,1.09-0.94,2.34-0.94c12.5,1.88,22.34,5.62,29.53,11.25c6.56,6.56,7.19,12.97,1.88,19.22
			c-5.94,3.75-10.63,0.78-14.06-8.91c-0.31,0-0.63-0.31-0.94-0.94c-0.31-1.56-0.63-2.65-0.94-3.28c-3.13,0.63-6.09,1.25-8.91,1.88
			c-31.57,5.32-54.69,9.84-69.38,13.59c-1.25,0.63-1.88,0.31-1.88-0.94c-0.63-0.94-1.57-2.65-2.81-5.16
			c-2.19-4.69-3.44-7.65-3.75-8.91c-0.31-0.94-0.16-1.56,0.47-1.88c12.5-1.56,25.78-14.53,39.84-38.91
			c0.31-0.62,0.78-0.94,1.41-0.94c4.06,1.88,10.15,4.69,18.28,8.44c0.31,0.94,0.31,1.72,0,2.34c-1.57,0.63-2.97,1.1-4.22,1.41
			c-2.19,0.31-3.6,0.63-4.22,0.94C1389.22,109.72,1378.9,119.1,1372.66,123.47z M1368.91,194.25v-40.78c0-0.62-0.16-1.71-0.47-3.28
			c0-1.88,0-3.44,0-4.69c0-0.31,0.47-0.62,1.41-0.94c0.31,0.31,0.78,0.63,1.41,0.94c3.12,1.88,5.93,3.28,8.44,4.22h45.47
			c1.88-2.18,3.28-3.75,4.22-4.69c0.31-0.31,0.94-0.31,1.88,0c3.12,1.57,7.19,3.91,12.19,7.03c0.31,0.31,0.78,0.47,1.41,0.47
			c0,0.94,0.15,1.41,0.47,1.41c-0.63,0.63-1.57,1.25-2.81,1.88c-0.63,0.31-1.1,0.47-1.41,0.47l0.94,37.97
			c-8.75,4.69-13.59,4.69-14.53,0v-7.97h-45.94v6.56c-1.25,1.88-4.06,3.12-8.44,3.75C1370.31,196.9,1368.91,196.12,1368.91,194.25z
			 M1381.56,152.53v31.41h45.94v-31.41H1381.56z"/>
	</g>
	<g class="st0">
		<path class="st2" d="M368.59,196.59h-19.22c-26.25,0-45-5.62-56.25-16.88c-6.56,7.19-14.53,12.66-23.91,16.41
			c-0.94,0-1.41-0.16-1.41-0.47c-0.31-0.31,0-0.63,0.94-0.94c8.12-5.32,14.37-12.5,18.75-21.56c-5.62-7.81-9.84-18.75-12.66-32.81
			c0.31-0.62,0.94-0.78,1.88-0.47c3.12,10.94,7.81,19.53,14.06,25.78c3.12-9.38,4.53-19.22,4.22-29.53h-8.91
			c-1.57,1.88-2.97,2.81-4.22,2.81c-0.63,0.31-1.25,0.16-1.88-0.47c-4.06-2.81-6.88-5.16-8.44-7.03c-0.63-0.62-0.63-1.25,0-1.88
			c0.62,0,2.18-0.78,4.69-2.34l12.19-30h-9.38c-2.5,0.31-4.85,0.47-7.03,0.47l-3.28-3.28c1.25,0.31,2.65,0.47,4.22,0.47h15.47
			c0.31-0.31,0.62-0.94,0.94-1.88c0.31-0.94,0.78-1.71,1.41-2.34c0.62-0.31,1.25-0.62,1.88-0.94c4.37,2.19,8.28,4.22,11.72,6.09
			c0.62,0.63,0.62,1.41,0,2.34c-2.19,1.57-3.6,2.5-4.22,2.81l-14.06,32.81h7.5c1.25-1.88,2.97-3.59,5.16-5.16
			c0.31,0,0.94,0.16,1.88,0.47c-0.63-0.62-0.47-0.62,0.47,0c2.5,1.25,5.31,2.97,8.44,5.16c0.31,0.94,0.31,1.72,0,2.34
			c-0.31,0.63-0.78,1.25-1.41,1.88c-0.94,0.94-1.57,1.72-1.88,2.34c-0.94,13.12-3.75,23.6-8.44,31.41
			c10,7.19,23.28,10.78,39.84,10.78h18.75c8.44,0,16.71-1.09,24.84-3.28c0.62,0.31,0.78,0.94,0.47,1.88
			c-4.69,1.56-6.88,5.78-6.56,12.66c-0.31,0.31-0.63,0.78-0.94,1.41C372.34,196.28,370.47,196.59,368.59,196.59z M328.75,178.31
			v-12.19h-13.12c-0.63,0.31-3.13,0.47-7.5,0.47l-2.81-3.28c1.25,0.31,2.5,0.47,3.75,0.47h19.69v-14.06h-8.44
			c-2.5,0.31-4.85,0.47-7.03,0.47l-3.28-3.28c1.25,0.31,2.65,0.47,4.22,0.47h14.53v-15h-9.38c-0.63,0.31-3.13,0.47-7.5,0.47
			l-2.81-3.28c1.25,0.31,2.5,0.47,3.75,0.47h15.94v-11.25h-16.88c-2.81,0-5.32,0-7.5,0l-2.81-3.28c1.25,0.31,2.5,0.47,3.75,0.47
			h23.44v-12.19h-10.78h-6.56l-2.34-3.28c1.25,0.31,2.5,0.47,3.75,0.47h15.94V85.03c6.87,0,11.25,0.31,13.12,0.94
			c0.94,0.94,0.94,1.72,0,2.34c-0.63,0.94-1.25,1.41-1.88,1.41v11.25h11.25c0.31-0.31,0.94-1.09,1.88-2.34
			c1.25-1.56,2.18-2.34,2.81-2.34c4.06,0.94,8.12,3.13,12.19,6.56c0,0.63-0.78,1.57-2.34,2.81l-0.47,0.47v9.84h2.34
			c1.56-2.18,3.59-4.53,6.09-7.03c0.31-0.31,0.78-0.31,1.41,0c4.37,3.75,7.19,6.56,8.44,8.44c-0.31,0.63-0.63,1.1-0.94,1.41h-17.34
			v17.34c-0.31,1.25-1.57,2.19-3.75,2.81c5,3.75,8.44,6.72,10.31,8.91c0.31,1.25,0.15,1.88-0.47,1.88H340v14.06h16.41
			c2.18-3.44,4.53-6.25,7.03-8.44c0.31-0.31,0.78-0.31,1.41,0c4.06,2.5,7.65,5.47,10.78,8.91c0.31,0.94,0.15,1.57-0.47,1.88H340
			v9.84C335.62,180.66,331.87,181.44,328.75,178.31z M340,103.78v12.19h12.66v-12.19H340z M340,118.78v11.25h12.66v-11.25H340z
			 M340,132.38v15h12.66c0.94-1.88,3.12-4.53,6.56-7.97c-4.38,0.63-6.56-0.47-6.56-3.28v-3.75H340z"/>
		<path class="st2" d="M406.56,169.41v-34.69h-4.69c-0.63,0.31-3.28,0.47-7.97,0.47l-2.34-3.28c1.25,0.31,2.5,0.47,3.75,0.47h23.44
			c2.81-3.44,4.84-5.93,6.09-7.5c0.62,0,1.09,0,1.41,0c3.75,3.13,6.56,5.94,8.44,8.44c0,0.94-0.31,1.41-0.94,1.41h-12.66
			c0,0.63-0.31,1.1-0.94,1.41c-0.31,0.31-0.94,0.78-1.88,1.41l-0.94,0.94v29.06c1.25,0,2.5-0.15,3.75-0.47
			c5-1.25,8.75-2.03,11.25-2.34c0.31,0,0.62,0.31,0.94,0.94c0,0.63-0.16,1.1-0.47,1.41c-5.94,3.44-18.6,10.31-37.97,20.62
			c-0.94,0.31-1.57,0.31-1.88,0c-0.31-0.94-1.25-2.66-2.81-5.16c-1.25-3.12-2.19-5.78-2.81-7.97c-0.31-0.94,0-1.71,0.94-2.34
			C390.16,171.91,396.25,170.97,406.56,169.41z M413.59,106.12h-5.16c-5,7.19-10.94,14.38-17.81,21.56
			c-1.25,0.31-1.72-0.15-1.41-1.41c7.19-12.5,12.03-26.4,14.53-41.72c0-0.31,0.47-0.62,1.41-0.94c4.06,1.25,9.21,3.13,15.47,5.62
			c0.31,0.63,0.31,1.1,0,1.41c-0.94,0.94-2.19,1.72-3.75,2.34c-1.88,3.44-4.22,7.03-7.03,10.78h17.34c0.31,0,1.71-1.56,4.22-4.69
			c1.25-1.88,2.18-3.12,2.81-3.75h0.94c0.31,0,0.62,0,0.94,0c5,3.75,8.44,6.72,10.31,8.91c0.31,1.25,0.15,1.88-0.47,1.88h-26.72
			c4.69,1.88,7.65,4.69,8.91,8.44c0.94,4.06-0.31,7.03-3.75,8.91c-3.75,1.25-6.25,0-7.5-3.75c-0.63-1.56-0.63-3.12,0-4.69
			c0-0.31,0-0.62,0-0.94C417.18,112.53,416.09,109.88,413.59,106.12z M448.75,148.31v8.91c0.31,18.75-10.47,31.88-32.34,39.38
			c-1.57-0.63-1.88-1.57-0.94-2.81c14.37-7.81,21.72-20,22.03-36.56v-30.94c4.06,1.25,7.81,2.81,11.25,4.69h17.34
			c2.18-3.12,3.9-4.69,5.16-4.69c4.37,1.25,8.59,3.44,12.66,6.56c0,0.63-0.78,1.57-2.34,2.81l-1.41,1.88v41.25
			c0.31,2.81,1.56,4.22,3.75,4.22h4.22c3.75,0,7.5-6.25,11.25-18.75c0.62-0.94,1.56-0.78,2.81,0.47
			c-2.81,10.94-3.13,17.66-0.94,20.16c0.62,0.94,0.94,2.03,0.94,3.28c-0.31,3.75-3.91,5.78-10.78,6.09h-14.06
			c-5.32-0.94-8.13-3.44-8.44-7.5v-52.97h-20.16v14.06c0.31-0.31,0.62-0.62,0.94-0.94c9.06,3.75,14.22,9.38,15.47,16.88
			c0,3.75-1.88,6.25-5.62,7.5c-4.06,0.31-6.41-1.41-7.03-5.16c0-0.31,0-0.94,0-1.88c0.31-0.94,0.47-1.88,0.47-2.81
			c0-4.37-1.25-8.59-3.75-12.66C448.9,148.78,448.75,148.63,448.75,148.31z M463.75,104.72H460c-3.75,5.94-9.38,12.35-16.88,19.22
			c-1.25,0.31-1.72-0.15-1.41-1.41c7.5-15,11.87-27.81,13.12-38.44c0-0.31,0.47-0.62,1.41-0.94c4.06,1.25,9.21,3.13,15.47,5.62
			c0.31,0.63,0.31,1.1,0,1.41c-0.94,0.94-2.19,1.72-3.75,2.34c-1.88,3.44-3.91,6.72-6.09,9.84h18.75c2.81-3.44,5.16-6.25,7.03-8.44
			c0.31-0.31,0.78-0.31,1.41,0c3.75,1.57,7.81,4.53,12.19,8.91c0.31,0.63,0.47,1.1,0.47,1.41c-0.31,0.31-0.63,0.47-0.94,0.47h-32.81
			c5.93,2.81,9.53,6.25,10.78,10.31c0.31,4.38-1.41,7.19-5.16,8.44c-4.06,0.94-6.41-0.62-7.03-4.69c-0.31-0.31-0.31-0.94,0-1.88
			c0.31-0.94,0.47-1.88,0.47-2.81C467.03,111.6,465.93,108.47,463.75,104.72z"/>
		<path class="st2" d="M573.91,117.38v-11.25h-21.09v13.59c-7.5,4.06-11.72,3.75-12.66-0.94v-12.66h-21.09
			c-2.5,0.31-5,0.47-7.5,0.47l-2.81-3.28c1.25,0.31,2.65,0.47,4.22,0.47h27.19V83.62c7.81,0.63,13.12,1.57,15.94,2.81
			c0.94,0.63,0.94,1.41,0,2.34c-1.25,1.25-2.34,2.04-3.28,2.34v12.66h21.09V83.62c7.81,0.63,13.12,1.57,15.94,2.81
			c0.94,0.63,0.94,1.41,0,2.34c-1.25,1.25-2.34,2.04-3.28,2.34v12.66h12.19c2.81-4.06,5.62-7.81,8.44-11.25c0.62,0,1.25,0,1.88,0
			c5.62,4.06,10.31,7.66,14.06,10.78c0.62,1.57,0.47,2.5-0.47,2.81h-36.09v12.66c-2.19,1.88-5.16,2.81-8.91,2.81
			C575.15,121.29,573.91,119.88,573.91,117.38z M564.06,193.31c-0.63,1.88-3.44,3.12-8.44,3.75c-4.06,0.31-6.09-0.63-6.09-2.81
			l0.47-55.78v-9.84h-27.19h-7.97l-2.81-2.81c1.25,0.31,3.28,0.47,6.09,0.47H595l0.47-0.94c2.5-3.75,4.06-5.62,4.69-5.62
			c5.62,2.19,10.62,4.85,15,7.97c0,0.94-0.94,2.19-2.81,3.75c-0.94,0.63-1.25,0.94-0.94,0.94v23.91
			c0.94,17.5-4.38,26.41-15.94,26.72c-0.31,0-1.1,0-2.34,0c-0.63-6.25-6.09-10.94-16.41-14.06c-1.25-1.25-1.1-2.18,0.47-2.81
			c14.37,3.75,21.09,0.78,20.16-8.91v-28.59h-30.47c0,0.94-1.1,2.19-3.28,3.75v6.09L564.06,193.31z"/>
		<path class="st2" d="M662.5,92.53l-18.75,18.75c2.18,0.31,6.25,0.63,12.19,0.94c5.93,0,10.94,0,15,0
			c-0.63-5.31-2.34-9.06-5.16-11.25c-0.63-0.62-0.47-1.09,0.47-1.41c10.62,1.57,17.18,5.79,19.69,12.66c0.62,5-0.78,8.75-4.22,11.25
			c-4.06,2.19-7.19,1.25-9.38-2.81c-0.63-0.62-1.1-2.03-1.41-4.22c0-0.94,0-1.71,0-2.34c-16.25,4.69-27.97,8.13-35.16,10.31
			c-1.25,0.63-2.04,0.31-2.34-0.94c-0.31-0.31-0.63-0.78-0.94-1.41c-2.19-4.69-3.28-7.81-3.28-9.38c-0.63-0.62-0.31-1.25,0.94-1.88
			c8.44-1.88,14.53-10.62,18.28-26.25c0-0.31,0.78-0.62,2.34-0.94c8.12,2.5,13.59,4.22,16.41,5.16c0,0.31,0.15,0.78,0.47,1.41
			c-0.94,0.63-1.72,1.1-2.34,1.41C663.75,91.91,662.81,92.22,662.5,92.53z M637.66,180.66v-42.19l-0.47-10.78
			c-0.31,0-0.16-0.15,0.47-0.47c5.62,2.5,9.38,4.22,11.25,5.16h15c1.25-1.56,2.81-3.12,4.69-4.69c0.62-0.31,1.25-0.31,1.88,0
			c1.88,0.63,5.16,2.34,9.84,5.16c-0.31-0.31,0.15-0.15,1.41,0.47c0.62,0.31,0.78,0.94,0.47,1.88c-0.31,0.31-0.78,0.78-1.41,1.41
			c-0.94,1.25-1.57,1.88-1.88,1.88l0.94,50.62c0,4.37-4.22,7.19-12.66,8.44c-0.94-0.31-1.41-0.78-1.41-1.41
			c-0.94-5.94-4.53-9.69-10.78-11.25c-0.63-1.25-0.47-1.88,0.47-1.88c7.81,0.62,11.87,0.47,12.19-0.47v-15h-18.75v24.38
			c-3.13,4.06-7.03,5.16-11.72,3.28c-0.31-1.25-0.31-3.6,0-7.03C637.19,185.65,637.34,183.15,637.66,180.66z M648.91,134.72v14.06
			h18.75v-14.06H648.91z M648.91,151.12v13.59h18.75v-13.59H648.91z M701.41,110.34v7.03c-0.63,4.38,1.88,6.41,7.5,6.09h7.97
			c10.94,1.57,17.34-3.9,19.22-16.41c0.31-0.62,0.78-0.62,1.41,0c-1.25,6.56-0.94,11.41,0.94,14.53c0.94,1.88,1.41,3.44,1.41,4.69
			c-0.31,5.62-6.56,8.44-18.75,8.44h-15c-11.25,0.63-16.57-3.12-15.94-11.25V92.53l-0.47-7.5l0.94-0.47
			c5.93,0.94,10.47,2.19,13.59,3.75c0.31,0.63,0.31,1.25,0,1.88c-0.31,0.63-0.94,1.1-1.88,1.41c-0.31,0.31-0.63,0.63-0.94,0.94v15
			c5.93-3.75,12.5-9.06,19.69-15.94c0.31-0.31,0.94-0.31,1.88,0c6.25,5,10.15,8.13,11.72,9.38c0,0.31,0.15,0.78,0.47,1.41
			c-2.81,0-4.69,0.16-5.62,0.47c-4.69,1.57-11.56,3.44-20.62,5.62C705.46,109.41,702.97,110.04,701.41,110.34z M732.81,154.41
			l-29.06,9.84v11.72c-0.31,4.69,2.18,6.88,7.5,6.56h8.91c7.81,0.62,13.75-5.31,17.81-17.81c0.31-0.94,0.62-0.94,0.94,0
			c-1.88,6.88-1.57,12.5,0.94,16.88c0.62,0.94,1.09,1.41,1.41,1.41c-0.94,5.93-5.94,9.21-15,9.84h-16.41
			c-11.88,0-17.66-3.91-17.34-11.72v-43.59c2.5,0.31,5.31,0.63,8.44,0.94c2.81,0.63,4.69,1.1,5.62,1.41c0.31,0.63,0.31,1.41,0,2.34
			c-0.31,0.63-1.1,1.41-2.34,2.34l-0.47,0.47v16.88c4.69-4.37,11.25-11.09,19.69-20.16c0.62-0.62,1.25-0.78,1.88-0.47
			c0.62,0.63,2.34,2.19,5.16,4.69c3.44,3.13,6.09,5.16,7.97,6.09c0.31,0.94,0.31,1.57,0,1.88c-0.94,0.31-1.88,0.47-2.81,0.47
			C734.37,154.41,733.44,154.41,732.81,154.41z"/>
		<path class="st2" d="M821.41,145.97h-30.94c1.25,0.63,2.34,1.1,3.28,1.41c-0.31,0.31-0.47,0.94-0.47,1.88l-4.22,1.88
			c-9.69,12.5-23.6,22.97-41.72,31.41c-0.63,0.31-0.94-0.15-0.94-1.41c12.81-8.75,22.65-20.46,29.53-35.16h-19.22
			c-2.81,0-5.47,0-7.97,0l-2.34-3.28c1.25,0.31,2.65,0.47,4.22,0.47h26.72v-37.03h-15.47c-0.63,0.31-3.28,0.47-7.97,0.47l-2.34-3.28
			c1.25,0.31,2.5,0.47,3.75,0.47h22.03V92.53l-0.47-6.09l0.47-0.47c3.12,0.31,5.93,0.63,8.44,0.94c2.5,0.31,4.53,0.63,6.09,0.94
			c0.31,0.31,0.31,0.94,0,1.88l-0.47,0.47c-0.94,1.25-1.88,2.04-2.81,2.34v11.25h27.66V92.53l-0.47-6.09l0.47-0.47
			c2.81,0.31,5.46,0.63,7.97,0.94c2.5,0.31,4.69,0.63,6.56,0.94c0.31,0.31,0.31,0.94,0,1.88c-1.25,1.25-2.34,2.19-3.28,2.81v11.25
			h8.91c2.18-3.44,4.53-6.25,7.03-8.44c0.31-0.31,0.78-0.31,1.41,0c4.06,2.5,7.65,5.47,10.78,8.91c0.31,0.94,0.15,1.57-0.47,1.88
			H827.5v37.03h13.59c0.31-0.31,1.56-1.71,3.75-4.22c1.88-2.18,3.12-3.59,3.75-4.22c-0.31,0,0.15,0,1.41,0
			c5.31,3.13,9.38,6.09,12.19,8.91c0.62,1.25,0.31,2.04-0.94,2.34h-37.97c7.5,11.56,20.31,17.34,38.44,17.34
			c0.62,0.63,0.78,1.1,0.47,1.41c-5.94,3.13-9.69,7.03-11.25,11.72c-0.63,0.63-1.1,0.94-1.41,0.94
			C834.84,171.44,825.46,160.97,821.41,145.97z M797.5,191.44v-17.81h-13.12c-0.63,0.31-3.28,0.47-7.97,0.47l-2.34-3.28
			c1.25,0.31,2.5,0.47,3.75,0.47h19.69v-16.41l-0.47-6.09l0.47-0.47c1.25,0.31,2.5,0.47,3.75,0.47c5.31,0.31,8.91,0.78,10.78,1.41
			c0.31,0.63,0.31,1.25,0,1.88c-0.63,0.94-1.72,1.88-3.28,2.81v16.41h9.84c0-0.31,0.31-0.62,0.94-0.94c2.5-3.44,4.37-5.62,5.62-6.56
			c0.31,0,0.62,0,0.94,0c3.75,3.13,6.56,5.94,8.44,8.44c0.31,0.94,0,1.41-0.94,1.41h-24.84v17.81h21.09
			c3.12-4.38,5.62-7.19,7.5-8.44c-0.31,0,0.15,0,1.41,0c4.37,2.81,7.81,5.78,10.31,8.91c0.62,0.94,0.47,1.56-0.47,1.88h-82.97
			c-0.63,0-3.28,0.15-7.97,0.47l-2.34-3.28c1.25,0,2.5,0.15,3.75,0.47H797.5z M816.25,116.91v-10.78h-27.66v10.78H816.25z
			 M816.25,130.03v-10.78h-27.66v10.78H816.25z M816.25,143.16v-10.78h-27.66v10.78H816.25z"/>
		<path class="st2" d="M886.56,132.38H895c1.25-1.88,2.34-3.12,3.28-3.75c0.31-0.31,0.78-0.31,1.41,0c3.44,1.88,6.56,3.91,9.38,6.09
			c0,0.31,0,0.63,0,0.94c0,0.31-0.63,0.78-1.88,1.41l-0.94,0.47l1.41,43.59c-6.25,3.44-10,3.44-11.25,0v-8.91h-9.84v11.72
			c-3.44,5.31-6.88,5.78-10.31,1.41l1.41-46.41c-2.81,4.06-5.79,7.66-8.91,10.78c-0.94,0.94-1.57,0.63-1.88-0.94
			c6.87-11.56,12.5-27.5,16.88-47.81h-5.62c-0.63,0.31-3.28,0.47-7.97,0.47l-2.34-3.28c1.25,0.31,2.5,0.47,3.75,0.47h22.03
			c3.12-4.06,5.62-6.87,7.5-8.44c-0.31,0,0.15,0,1.41,0c3.75,2.19,7.19,5.16,10.31,8.91c0.62,1.25,0.47,1.88-0.47,1.88h-12.19
			c0.31,1.57-0.94,2.97-3.75,4.22c-4.06,8.75-8.6,17.34-13.59,25.78C883.75,131.6,885,132.07,886.56,132.38z M886.56,134.72v35.16
			h9.84v-35.16H886.56z M940.47,189.09v-49.22H925c-0.63,1.25-1.25,2.04-1.88,2.34c-0.94,0.63-1.57,0.63-1.88,0
			c-0.63,0-2.04-0.94-4.22-2.81c-2.5-1.88-3.91-2.97-4.22-3.28c-0.31-0.94-0.31-1.56,0-1.88l3.28-3.28v-27.19l-0.47-7.5l0.47-0.47
			c4.69,0.63,8.91,1.57,12.66,2.81c0.31,0.63,0.31,1.1,0,1.41c-0.31,0.63-0.78,1.25-1.41,1.88l-0.94,0.47v35.16h14.06v-45l-0.94-7.5
			l0.47-0.47c5.31,0.31,9.53,1.1,12.66,2.34c0.62,0.31,0.78,0.94,0.47,1.88c-0.94,0.94-1.88,1.72-2.81,2.34v46.41h14.53v-35.16
			l-0.47-5.62c0-0.31,0.31-0.47,0.94-0.47c3.44,0.63,7.97,1.88,13.59,3.75c0,0.31,0,0.63,0,0.94c-0.31,0.31-1.25,1.1-2.81,2.34
			l0.94,36.56c-5.94,5-10,5-12.19,0h-14.53v49.22h17.34v-34.22c-0.31-0.31-0.63-1.09-0.94-2.34c-0.31-0.94-0.47-1.71-0.47-2.34
			c0-0.62,0.47-1.09,1.41-1.41c4.06,0.63,8.28,1.41,12.66,2.34c0.62,0.63,0.78,1.1,0.47,1.41c-0.31,0.63-0.78,1.1-1.41,1.41
			c-0.63,0.63-0.78,1.41-0.47,2.34l0.94,35.16c-0.94,1.88-3.6,2.97-7.97,3.28c-2.81,0-4.22-1.1-4.22-3.28h-45
			c-0.63,0.94-1.25,1.88-1.88,2.81c-0.94,0.62-1.72,0.62-2.34,0l-8.44-6.09c-0.31-0.31-0.47-0.78-0.47-1.41
			c0-0.31,0.15-0.47,0.47-0.47l3.75-2.34v-27.66l-0.47-7.5c-0.31,0-0.16-0.15,0.47-0.47c4.69,0.63,8.91,1.57,12.66,2.81v1.41
			c-0.31,0.63-1.1,1.41-2.34,2.34h-0.47v34.22H940.47z"/>
		<path class="st2" d="M1000.94,153.47h-2.81c-0.63,0.31-3.28,0.47-7.97,0.47l-2.34-3.28c1.25,0.31,2.5,0.47,3.75,0.47h10.31
			c3.44-6.56,5.78-11.25,7.03-14.06c0.31-0.62,1.09-0.78,2.34-0.47c0.94,0.63,2.18,1.1,3.75,1.41c-0.94-0.31-1.25-0.94-0.94-1.88
			v-11.25c-10,9.38-18.28,15.78-24.84,19.22c-0.94-0.31-1.25-0.78-0.94-1.41c7.19-7.19,13.43-16.41,18.75-27.66h-7.97
			c-2.5,0-5,0-7.5,0l-2.34-3.28c-0.31,0.31,0.94,0.47,3.75,0.47h21.09V83.62c0.31-0.31,0.62-0.62,0.94-0.94
			c7.81,1.57,12.34,2.66,13.59,3.28c0.31,0.31,0.31,0.94,0,1.88c-1.25,0.63-2.34,1.41-3.28,2.34v22.03h10.78
			c0.62-0.62,1.41-1.41,2.34-2.34c1.88-2.5,3.28-4.06,4.22-4.69c0.31-0.31,0.62-0.31,0.94,0c3.75,3.13,6.4,5.79,7.97,7.97
			c0,0.31,0,0.63,0,0.94c0,0.63-0.16,0.94-0.47,0.94h-25.78v19.69c-1.88,2.81-5,4.06-9.38,3.75c2.18,0.94,4.22,1.88,6.09,2.81
			c0.31,0.63,0.47,1.1,0.47,1.41c-0.31,0.63-0.94,1.1-1.88,1.41c-1.25,0.31-1.88,0.63-1.88,0.94l-3.28,6.09h13.12
			c0.31-1.25,1.25-2.65,2.81-4.22c0.62,0,1.09,0,1.41,0c5.31,2.81,9.06,5.16,11.25,7.03c0,0.31,0.15,0.94,0.47,1.88
			c-0.63,0-1.88,0.63-3.75,1.88h-0.47c-1.88,4.69-4.69,9.07-8.44,13.12c1.25,0.31,2.34,0.63,3.28,0.94
			c7.19,4.06,9.06,8.6,5.62,13.59c-4.06,3.44-8.91,2.03-14.53-4.22c-0.31-0.31-1.1-1.09-2.34-2.34c-9.69,7.19-21.09,12.19-34.22,15
			c-0.31-0.31-0.47-0.63-0.47-0.94c10.62-5.32,19.84-11.72,27.66-19.22c-3.13-1.25-6.72-2.5-10.78-3.75
			c-5.62,2.19-9.54,1.88-11.72-0.94c-0.63-0.94-0.78-1.56-0.47-1.88C996.09,162.38,998.43,157.85,1000.94,153.47z M996.25,88.78
			c6.25,1.57,10.62,4.85,13.12,9.84c1.88,5,1.09,8.6-2.34,10.78c-4.38,1.25-6.88-0.78-7.5-6.09c-0.31-2.5-0.63-5-0.94-7.5
			c-0.94-2.18-2.04-4.06-3.28-5.62C995,89.88,995.31,89.41,996.25,88.78z M1029.53,153.47h-15.47l-7.5,14.53c5-0.31,10-0.15,15,0.47
			C1024.68,163.78,1027.34,158.79,1029.53,153.47z M1044.06,124.41c4.37,3.75,5.16,7.5,2.34,11.25c-4.38,3.13-7.81,2.04-10.31-3.28
			c-0.31-0.31-0.63-0.78-0.94-1.41c-0.63-1.88-1.1-3.28-1.41-4.22c-1.88-2.18-4.22-4.06-7.03-5.62c-0.63-0.31-0.63-0.78,0-1.41
			C1033.28,119.72,1039.06,121.29,1044.06,124.41z M1036.56,86.44c6.56,2.81,10.31,4.69,11.25,5.62c0,1.25-0.16,1.72-0.47,1.41
			c-0.63,0.63-1.72,0.94-3.28,0.94c-3.13,2.81-8.13,8.13-15,15.94c-0.63,0.63-1.25,0.78-1.88,0.47c-0.63,0-0.63-0.47,0-1.41
			c0.62-2.5,3.28-10.15,7.97-22.97C1035.78,86.44,1036.25,86.44,1036.56,86.44z M1075,167.53h-0.47c5,5.32,13.75,10,26.25,14.06
			c0.31,0.63,0.31,1.1,0,1.41c-4.69,1.56-8.44,5-11.25,10.31c-0.63,0.62-1.25,0.78-1.88,0.47c-8.13-5.32-14.53-11.09-19.22-17.34
			c-9.07,10-21.25,16.88-36.56,20.62c-1.25-0.31-1.57-0.94-0.94-1.88c14.06-5.32,24.84-14.22,32.34-26.72
			c-5-9.68-7.66-21.4-7.97-35.16c-3.13,5.32-6.25,10-9.38,14.06c-1.25,0-1.72-0.47-1.41-1.41c8.12-15.31,13.12-35.78,15-61.41
			c0.31-0.62,0.78-0.94,1.41-0.94c5.93,1.57,11.4,3.28,16.41,5.16c0.62,1.25,0.78,1.88,0.47,1.88c-0.94,0.94-2.34,1.88-4.22,2.81
			c-3.13,8.75-6.41,16.72-9.84,23.91h21.09c3.44-4.37,5.93-7.19,7.5-8.44c0.31,0,0.78,0,1.41,0c5.62,4.38,9.06,7.35,10.31,8.91v1.88
			h-23.44c5.62,1.88,9.21,3.28,10.78,4.22c0.31,0.63,0.31,1.25,0,1.88c-1.25,0.31-2.5,1.1-3.75,2.34
			C1084.84,144.09,1080.62,157.22,1075,167.53z M1056.72,130.5h0.47c2.18,12.5,5.62,22.19,10.31,29.06
			c4.37-10.62,7.19-23.91,8.44-39.84h-13.59C1060.78,123.47,1058.9,127.06,1056.72,130.5z"/>
		<path class="st2" d="M1147.19,134.72c-1.88,1.25-3.75,2.34-5.62,3.28c-3.44,2.19-5.94,3.75-7.5,4.69l0.94,39.84
			c0.62,8.12-3.91,12.96-13.59,14.53c-1.25-0.63-1.88-1.1-1.88-1.41c-0.31-6.25-4.22-10.47-11.72-12.66
			c-1.25-0.62-1.1-1.41,0.47-2.34c10,1.57,14.84,0.63,14.53-2.81v-27.66c-3.44,2.5-6.72,4.69-9.84,6.56c-1.25,0.94-1.88,0.94-1.88,0
			c-1.25-4.37-2.5-8.91-3.75-13.59c0-0.62,0.47-1.09,1.41-1.41c4.06-0.94,8.75-1.88,14.06-2.81v-20.16h-4.69c-3.13,0-5.79,0-7.97,0
			l-2.34-3.28c1.25,0.31,2.5,0.47,3.75,0.47h11.25V91.12l-0.94-6.09c0,0.31,0.15,0.16,0.47-0.47c5.62,0.94,10.31,2.04,14.06,3.28
			c0.31,0.31,0.31,0.94,0,1.88c-0.31,0.31-1.25,0.78-2.81,1.41v24.84c0.31-0.31,0.78-0.78,1.41-1.41c1.88-2.5,3.28-4.06,4.22-4.69
			c0.31-0.31,0.78-0.31,1.41,0c1.56,1.57,4.22,3.91,7.97,7.03c0.31,0.94,0,1.57-0.94,1.88h-14.06v4.69l0.47,13.12
			c4.06-1.25,8.28-2.34,12.66-3.28C1147.34,133.94,1147.5,134.41,1147.19,134.72z M1160.78,192.84l0.47-30.47v-7.5
			c4.37,1.25,8.12,2.97,11.25,5.16h6.09c0-1.88,0-4.22,0-7.03c0.31-2.5,0.47-6.09,0.47-10.78h-15h-3.28
			c-2.19,21.25-10.16,38.91-23.91,52.97c-0.63,0.31-1.25,0.31-1.88,0c-0.31-0.31-0.31-0.78,0-1.41
			c9.68-12.5,14.37-33.12,14.06-61.88V98.62c-0.31-3.12-0.78-5.78-1.41-7.97c-0.31-1.88-0.31-2.97,0-3.28
			c3.12,0.94,7.65,2.97,13.59,6.09h36.09c0.31,0,1.09-0.78,2.34-2.34c0.94-1.56,1.71-2.5,2.34-2.81c0.62,0,1.25,0,1.88,0
			c3.75,1.88,7.5,4.38,11.25,7.5c0.31,0.31,0.31,0.78,0,1.41l-3.75,2.81l0.47,19.69c-6.56,6.25-10.94,6.41-13.12,0.47v-0.47h-37.5
			v11.25c0,3.44-0.16,6.41-0.47,8.91h18.28c0-3.12,0-7.34,0-12.66c0-1.88,0-3.59,0-5.16c-0.31-0.31,0-0.78,0.94-1.41
			c4.37,0.94,8.75,2.19,13.12,3.75c0.62,1.25,0.78,2.04,0.47,2.34c-0.63,0.63-1.41,1.25-2.34,1.88l-0.94,0.47
			c-0.63,3.75-0.78,7.35-0.47,10.78h12.66c2.81-3.75,5.16-6.56,7.03-8.44h0.94c0.31,0,0.62,0,0.94,0c4.06,2.81,7.5,5.79,10.31,8.91
			c0.31,1.25,0.15,1.88-0.47,1.88h-31.41c0,5.94,0,11.88,0,17.81h8.91c1.25-1.88,2.65-3.59,4.22-5.16c0.31-0.31,0.78-0.47,1.41-0.47
			c1.88,1.25,4.84,3.28,8.91,6.09c0.62,0.63,1.41,1.1,2.34,1.41c0.31,0.31,0.31,0.78,0,1.41c-0.63,0.63-1.41,1.25-2.34,1.88
			l-0.94,0.47l0.94,25.78c-0.63,2.5-3.28,4.22-7.97,5.16c-3.44,0.31-5.16-0.94-5.16-3.75v-5.16h-27.66v3.75
			c-0.63,2.5-2.97,4.22-7.03,5.16C1162.03,196.9,1160.47,195.66,1160.78,192.84z M1161.25,96.28v21.09h37.5V96.28H1161.25z
			 M1172.5,162.38v22.97h27.66v-22.97H1172.5z"/>
		<path class="st2" d="M1276.09,173.16v-19.69h-37.97c-0.63,0.31-3.28,0.47-7.97,0.47l-2.34-3.28c1.25,0.31,2.5,0.47,3.75,0.47
			h44.53V97.22h-31.88c-2.81,0.31-5.47,0.47-7.97,0.47l-2.34-3.28c1.25,0.31,2.65,0.47,4.22,0.47h73.59v-0.47
			c3.75-5,6.4-8.12,7.97-9.38c0.31,0,0.78,0,1.41,0c7.81,4.69,12.34,8.13,13.59,10.31c0.31,1.25,0,1.88-0.94,1.88h-40.78
			c-0.31,1.57-1.25,2.81-2.81,3.75v50.16h30.47v-0.47c3.75-5,6.4-8.12,7.97-9.38h1.41c7.81,4.69,12.34,8.13,13.59,10.31
			c0.31,1.25,0,1.88-0.94,1.88h-52.5v16.88c0,5.94,0,13.12,0,21.56c-0.31,1.56-2.34,2.81-6.09,3.75c-4.69,0.94-7.35,0.94-7.97,0
			c-0.63-1.57-0.78-5.79-0.47-12.66C1275.62,180.5,1275.78,177.22,1276.09,173.16z M1243.75,112.22
			c12.5,4.06,19.53,10.47,21.09,19.22c0.31,5-1.72,8.6-6.09,10.78c-5,1.88-8.44,0.63-10.31-3.75c-0.94-0.94-1.1-3.28-0.47-7.03
			c0.62-7.5-0.94-13.43-4.69-17.81C1242.65,113.32,1242.81,112.85,1243.75,112.22z M1314.53,110.34c2.81,1.57,7.97,4.38,15.47,8.44
			c0,0.31,0,0.78,0,1.41c-0.63,0.31-1.57,0.63-2.81,0.94c-1.25,0.31-2.04,0.47-2.34,0.47c-10.94,10-20,17.81-27.19,23.44
			c-0.94-0.31-1.25-0.62-0.94-0.94c6.56-11.87,11.72-23.12,15.47-33.75C1312.5,110.04,1313.28,110.04,1314.53,110.34z"/>
		<path class="st2" d="M1372.66,123.47l63.75-4.22c-2.81-3.44-7.5-7.03-14.06-10.78c-0.94,0-1.41-0.47-1.41-1.41
			c0.31-0.62,1.09-0.94,2.34-0.94c12.5,1.88,22.34,5.62,29.53,11.25c6.56,6.56,7.19,12.97,1.88,19.22
			c-5.94,3.75-10.63,0.78-14.06-8.91c-0.31,0-0.63-0.31-0.94-0.94c-0.31-1.56-0.63-2.65-0.94-3.28c-3.13,0.63-6.09,1.25-8.91,1.88
			c-31.57,5.32-54.69,9.84-69.38,13.59c-1.25,0.63-1.88,0.31-1.88-0.94c-0.63-0.94-1.57-2.65-2.81-5.16
			c-2.19-4.69-3.44-7.65-3.75-8.91c-0.31-0.94-0.16-1.56,0.47-1.88c12.5-1.56,25.78-14.53,39.84-38.91
			c0.31-0.62,0.78-0.94,1.41-0.94c4.06,1.88,10.15,4.69,18.28,8.44c0.31,0.94,0.31,1.72,0,2.34c-1.57,0.63-2.97,1.1-4.22,1.41
			c-2.19,0.31-3.6,0.63-4.22,0.94C1389.22,109.72,1378.9,119.1,1372.66,123.47z M1368.91,194.25v-40.78c0-0.62-0.16-1.71-0.47-3.28
			c0-1.88,0-3.44,0-4.69c0-0.31,0.47-0.62,1.41-0.94c0.31,0.31,0.78,0.63,1.41,0.94c3.12,1.88,5.93,3.28,8.44,4.22h45.47
			c1.88-2.18,3.28-3.75,4.22-4.69c0.31-0.31,0.94-0.31,1.88,0c3.12,1.57,7.19,3.91,12.19,7.03c0.31,0.31,0.78,0.47,1.41,0.47
			c0,0.94,0.15,1.41,0.47,1.41c-0.63,0.63-1.57,1.25-2.81,1.88c-0.63,0.31-1.1,0.47-1.41,0.47l0.94,37.97
			c-8.75,4.69-13.59,4.69-14.53,0v-7.97h-45.94v6.56c-1.25,1.88-4.06,3.12-8.44,3.75C1370.31,196.9,1368.91,196.12,1368.91,194.25z
			 M1381.56,152.53v31.41h45.94v-31.41H1381.56z"/>
	</g>
	<g id="Words" transform="translate(40, 240)">
		<path id="B" class="st3" d="M22,23h-2.81l0,0L5.62,23v-5.75h13.57v-3.83l-13.57,0V8.62h13.57V5.27l-13.57,0V0H22V23z M0,0h5.62v23
			H0V0z"/>
		<path id="E" class="st3" d="M62,0v5.27l-17.32,0v3.36h9.36v4.79l-9.36,0v3.83H62V23H40V0H62z"/>
		<path id="E_00000144336145869073908350000010501375103361320116_" class="st3" d="M102,0v5.27l-17.32,0v3.36h9.36v4.79l-9.36,0
			v3.83H102V23l-17.32,0L80,23V0H102z"/>
		<path id="B_00000157304247338944239800000011865531908933439388_" class="st4" d="M142,23h-2.81l0,0l-13.57,0v-5.75h13.57v-3.83
			l-13.57,0V8.62h13.57V5.27l-13.57,0V0H142V23z M120,0h5.62v23H120V0z"/>
		<path id="D" class="st4" d="M165.62,23v-5.75h13.57V5.27l-13.57,0V0H182v23H165.62z M160,0h5.62v23H160V0z"/>
	</g>
	<g id="Logo" transform="translate(35, 15)">
		<polygon id="六边形白边" class="st5" points="190,163.5 190,54.5 95,0 0,54.5 0,163.5 95,218 		"/>
		<polygon id="深色" class="st6" points="142.76,137.17 180,158.67 94.5,208 9,158.67 9,60 46.24,81.5 46.24,137.17 94.5,165.01 
					"/>
		<polygon id="右下" class="st7" points="180,158.55 95,208 95,164.91 142.98,137 		"/>
		<polygon id="左下" class="st8" points="95,164.91 95,208 10,158.55 47.02,137 		"/>
		<polygon id="右" class="st8" points="180,60 180,159 143,137.43 143,81.57 		"/>
		<polygon id="左" class="st9" points="47,81.57 47,137.43 10,159 10,60 		"/>
		<polygon id="右上" class="st9" points="142.98,82 95,54.09 95,11 180,60.45 		"/>
		<polygon id="左上" class="st10" points="95,11 95,54.09 47.02,82 10,60.45 		"/>
		<g id="六边形">
			<polygon id="path-1_00000007399736933339694870000016052429723734253231_" class="st11" points="143,138 143,82 94.5,54 46,82 
				46,138 94.5,166 			"/>
		</g>
		<defs>
			<filter id="Adobe_OpacityMaskFilter" filterUnits="userSpaceOnUse" x="95" y="53" width="48" height="112">
				<feColorMatrix  type="matrix" values="1 0 0 0 0  0 1 0 0 0  0 0 1 0 0  0 0 0 1 0"/>
			</filter>
		</defs>
		
			<mask maskUnits="userSpaceOnUse" x="95" y="53" width="48" height="112" id="mask-2_00000034054737146700211420000000931139322920371590_">
			<g class="st12">
				<polygon id="path-1_00000014624685431784798130000003721431050766138797_" class="st13" points="143,138 143,82 94.5,54 46,82 
					46,138 94.5,166 				"/>
			</g>
		</mask>
		<polygon id="深色_00000080914969900000286870000011276295320582483849_" class="st14" points="143,137 143,81 95,53 95,165 		
			"/>
		<defs>
			
				<filter id="Adobe_OpacityMaskFilter_00000091014005457406910680000004652505532344027778_" filterUnits="userSpaceOnUse" x="71" y="86" width="49" height="80">
				<feColorMatrix  type="matrix" values="1 0 0 0 0  0 1 0 0 0  0 0 1 0 0  0 0 0 1 0"/>
			</filter>
		</defs>
		
			<mask maskUnits="userSpaceOnUse" x="71" y="86" width="49" height="80" id="mask-2_00000006690610094330642670000009714022487001873078_">
			<g style="filter:url(#Adobe_OpacityMaskFilter_00000091014005457406910680000004652505532344027778_);">
				<polygon id="path-1_00000155858493929898939590000002868740257798309535_" class="st13" points="143,138 143,82 94.5,54 46,82 
					46,138 94.5,166 				"/>
			</g>
		</mask>
		<path id="节能标志" class="st16" d="M88.15,162.72c-3.03-4.1-5.69-7.91-7.98-11.44c-6.64-9.95-9.32-19.4-9.17-28.68
			c0.1-6.38,1.66-12.7,4.76-18.94c2.21-4.47,5.63-8.31,9.14-11.87c4.23-4.3,7.74-5.79,10.51-5.79c2.5,0,7.07,2.35,11.32,6.46
			c4.07,3.93,7.75,9.89,9.69,13.99c1.96,4.11,3.24,8.57,3.49,13.27c0.22,3.98-0.04,5.97-0.54,9.97c-0.15,1.22-1.1,5.19-1.72,7.37
			c-0.49,1.73-1.52,4.95-3.07,9.67l-5.65-1.66c0.57-2.15,1.47-5.05,2.71-8.71c0.11-0.33,0.48-1.67,0.55-1.96
			c0.46-1.85,0.94-3.84,1.21-5.79c0.4-2.95,0.35-5.76,0.35-7.39c-0.07-2.94-0.71-6.87-2.11-10.47c-2.17-5.58-5.62-10.67-9.24-14
			c-2.54-2.33-4.94-3.17-6.99-3.01c-1.16,0.09-1.91,0.5-3.21,1.16c-2.94,1.3-7.01,5.64-9.81,11.54c-2.7,5.7-3.83,12.66-3.83,17.42
			c0,4.48,0.97,9.78,2.94,14.79c3,7.63,8.45,14.08,15,18.6c2.2,1.61,3.84,2.7,4.92,3.28c1.19,0.64,2.97,1.37,5.32,2.19L95.5,166
			L88.15,162.72z"/>
		<defs>
			
				<filter id="Adobe_OpacityMaskFilter_00000183947880495898037100000012844591622914451092_" filterUnits="userSpaceOnUse" x="95" y="86" width="25" height="61">
				<feColorMatrix  type="matrix" values="1 0 0 0 0  0 1 0 0 0  0 0 1 0 0  0 0 0 1 0"/>
			</filter>
		</defs>
		
			<mask maskUnits="userSpaceOnUse" x="95" y="86" width="25" height="61" id="mask-2_00000059992516161090213370000007495813435673644214_">
			<g style="filter:url(#Adobe_OpacityMaskFilter_00000183947880495898037100000012844591622914451092_);">
				<polygon id="path-1_00000138553198369362026010000012128640138472286872_" class="st13" points="143,138 143,82 94.5,54 46,82 
					46,138 94.5,166 				"/>
			</g>
		</mask>
		<path id="节能标志颜色" class="st18" d="M95.04,86L95,86c2.54,0,7.19,2.36,11.51,6.49c4.14,3.95,7.88,9.93,9.86,14.05
			c1.99,4.13,3.29,8.61,3.55,13.32c0.22,4-0.04,5.99-0.55,10.02c-0.15,1.22-1.12,5.22-1.75,7.41c-0.5,1.74-1.54,4.97-3.12,9.71
			l-5.75-1.67c0.58-2.16,1.49-5.07,2.75-8.75c0.11-0.33,0.49-1.68,0.56-1.97c0.47-1.86,0.96-3.86,1.23-5.81
			c0.31-2.26,0.35-4.43,0.36-6.06l0-0.86c0-0.18,0-0.34,0-0.5c-0.07-2.95-0.72-6.9-2.14-10.52c-2.21-5.6-5.71-10.71-9.4-14.06
			c-2.57-2.33-5-3.18-7.07-3.02L95.04,86z"/>
	</g>
</g>
</svg>
