<?xml version="1.0" encoding="utf-8"?>
<!-- Generator: Adobe Illustrator 28.1.0, SVG Export Plug-In . SVG Version: 6.00 Build 0)  -->
<svg version="1.1" id="图层_1" xmlns="http://www.w3.org/2000/svg" xmlns:xlink="http://www.w3.org/1999/xlink" x="0px" y="0px"
	 viewBox="0 0 200 200" style="enable-background:new 0 0 200 200;" xml:space="preserve">
<style type="text/css">
	.st0{fill-rule:evenodd;clip-rule:evenodd;fill:url(#path-2_00000093157300053244068780000015244761179806102167_);}
	.st1{filter:url(#Adobe_OpacityMaskFilter);}
	.st2{fill-rule:evenodd;clip-rule:evenodd;fill:#FFFFFF;}
	.st3{mask:url(#mask-3_00000170964939103208517460000005887242679917360272_);}
	.st4{fill-rule:evenodd;clip-rule:evenodd;fill:#5FCB5C;}
	.st5{fill-rule:evenodd;clip-rule:evenodd;fill:#689F38;}
	.st6{fill:#FFFFFF;}
	.st7{fill:#82D2FF;}
	.st8{fill:#3BA738;}
	.st9{fill:#5FCB5C;}
	.st10{fill:#76E572;}
	.st11{fill:#8AF686;}
	.st12{fill:#BDFFBA;}
	.st13{filter:url(#Adobe_OpacityMaskFilter_00000038383135818261543780000012747258531510232485_);}
	.st14{mask:url(#mask-5_00000147178754782220965360000013520149062695663798_);fill:#83F17F;}
	.st15{filter:url(#Adobe_OpacityMaskFilter_00000124841185750145353670000006481213697652827827_);}
	.st16{mask:url(#mask-5_00000178890289205727074920000005510338291912687784_);fill:#FFFFFF;}
	.st17{filter:url(#Adobe_OpacityMaskFilter_00000065782464203411475400000011482916590209453961_);}
	.st18{mask:url(#mask-5_00000106107591106180601220000011629907710172345504_);fill:#51B9F9;}
</style>
<g id="主页面">
	<g id="LEB圆形图标" transform="translate(-350, -200)">
		<g id="改色" transform="translate(350, 200)">
			<g id="iconbase" transform="translate(100, 100) scale(-1, -1) translate(-100, -100)">
				
					<linearGradient id="path-2_00000095314270620735129520000015172024496095233718_" gradientUnits="userSpaceOnUse" x1="-862.795" y1="642.195" x2="-862.795" y2="643.195" gradientTransform="matrix(199.9999 0 0 -200 172658.9531 128639)">
					<stop  offset="0" style="stop-color:#FFFFFF"/>
					<stop  offset="1" style="stop-color:#CFFFD9"/>
				</linearGradient>
				
					<path id="path-2_00000101094201526903759650000010985599204649904297_" style="fill-rule:evenodd;clip-rule:evenodd;fill:url(#path-2_00000095314270620735129520000015172024496095233718_);" d="
					M100,0c54.68,0,99.1,43.88,99.99,98.35l0.01,1.77C199.94,155.29,155.19,200,100,200h-0.12C44.71,199.94,0,155.19,0,100
					C0,44.77,44.77,0,100,0z"/>
			</g>
			<defs>
				<filter id="Adobe_OpacityMaskFilter" filterUnits="userSpaceOnUse" x="40" y="20" width="119.16" height="160">
					<feColorMatrix  type="matrix" values="1 0 0 0 0  0 1 0 0 0  0 0 1 0 0  0 0 0 1 0"/>
				</filter>
			</defs>
			
				<mask maskUnits="userSpaceOnUse" x="40" y="20" width="119.16" height="160" id="mask-3_00000170964939103208517460000005887242679917360272_">
				<g transform="translate(100, 100) scale(-1, -1) translate(-100, -100)" class="st1">
					<path id="path-2_00000023257477983642186120000017652807132527706545_" class="st2" d="M100,200
						c-54.68,0-99.1-43.88-99.99-98.35L0,99.88C0.06,44.71,44.81,0,100,0h0.12C155.29,0.06,200,44.81,200,100
						C200,155.23,155.23,200,100,200z"/>
				</g>
			</mask>
			<g id="Logo" class="st3">
				<g transform="translate(40, 20)">
					<g id="Words" transform="translate(5.362, 146.5614)">
						<path id="B" class="st4" d="M3.36,13.44v-3.36l8.12,0V7.84l-8.12,0v-2.8l8.12,0V3.08l-8.12,0V0h9.8v13.44H3.36z M0,0h3.36
							v13.44H0V0z"/>
						<path id="E" class="st4" d="M36.94,0v3.08l-10.32,0v1.96l5.58,0v2.8l-5.58,0v2.24l10.32,0v3.36H23.83V0H36.94z"/>
						<path id="E_00000166667866573752356550000013391392849188082069_" class="st4" d="M60.82,0v3.08l-10.36,0v1.96l5.6,0v2.8
							l-5.6,0v2.24l10.36,0v3.36H47.66V0H60.82z"/>
						<path id="B_00000179635896415928317980000008544143265283066260_" class="st5" d="M74.85,13.44v-3.36l8.12,0V7.84l-8.12,0
							v-2.8l8.12,0V3.08l-8.12,0V0h9.8v13.44H74.85z M71.49,0h3.36v13.44h-3.36V0z"/>
						<path id="D" class="st5" d="M98.68,13.44v-3.36l8.12,0v-7l-8.12,0V0h9.8v13.44H98.68z M95.32,0h3.36v13.44h-3.36V0z"/>
					</g>
					<polygon id="六边形白边" class="st6" points="119.16,102.77 119.16,34.26 59.58,0 0,34.26 0,102.77 59.58,137.03 					"/>
					<polygon id="深色" class="st7" points="89.85,85.84 113.2,99.3 59.58,130.18 5.96,99.3 5.96,37.53 29.31,50.99 29.31,85.84 
						59.58,103.27 					"/>
					<polygon id="右下" class="st8" points="113.2,99.35 59.58,130.48 59.58,103.35 89.85,85.79 					"/>
					<polygon id="左下" class="st9" points="59.58,103.35 59.58,130.48 5.96,99.35 29.31,85.79 					"/>
					<polygon id="右" class="st9" points="113.2,37.53 113.2,99.49 89.96,86 89.96,51.03 					"/>
					<polygon id="左" class="st10" points="29.19,51.03 29.19,86 5.96,99.49 5.96,37.53 					"/>
					<polygon id="右上" class="st10" points="89.85,51.24 59.58,33.67 59.58,6.55 113.2,37.68 					"/>
					<polygon id="左上" class="st11" points="59.58,6.55 59.58,33.67 29.31,51.24 5.96,37.68 					"/>
					<g id="六边形">
						<polygon id="path-4_00000096031820267521374730000009826605270700429997_" class="st12" points="89.96,86.39 89.96,51.24 
							59.58,33.66 29.19,51.24 29.19,86.39 59.58,103.96 						"/>
					</g>
					<defs>
						
							<filter id="Adobe_OpacityMaskFilter_00000062870892893968666750000008229138452435198873_" filterUnits="userSpaceOnUse" x="59.58" y="33.66" width="30.38" height="70">
							<feColorMatrix  type="matrix" values="1 0 0 0 0  0 1 0 0 0  0 0 1 0 0  0 0 0 1 0"/>
						</filter>
					</defs>
					
						<mask maskUnits="userSpaceOnUse" x="59.58" y="33.66" width="30.38" height="70" id="mask-5_00000147178754782220965360000013520149062695663798_">
						<g style="filter:url(#Adobe_OpacityMaskFilter_00000062870892893968666750000008229138452435198873_);">
							<polygon id="path-4_00000145032143023116467790000004719231333185772928_" class="st2" points="89.96,86.39 89.96,51.24 
								59.58,33.66 29.19,51.24 29.19,86.39 59.58,103.96 							"/>
						</g>
					</mask>
					<polygon id="深色_00000097471939128081906970000003940721078958366134_" class="st14" points="89.96,86.16 89.96,51.16 
						59.58,33.66 59.58,103.67 					"/>
					<defs>
						
							<filter id="Adobe_OpacityMaskFilter_00000036963559706255741970000007055245012196908471_" filterUnits="userSpaceOnUse" x="44.14" y="53.95" width="30.95" height="50.01">
							<feColorMatrix  type="matrix" values="1 0 0 0 0  0 1 0 0 0  0 0 1 0 0  0 0 0 1 0"/>
						</filter>
					</defs>
					
						<mask maskUnits="userSpaceOnUse" x="44.14" y="53.95" width="30.95" height="50.01" id="mask-5_00000178890289205727074920000005510338291912687784_">
						<g style="filter:url(#Adobe_OpacityMaskFilter_00000036963559706255741970000007055245012196908471_);">
							<polygon id="path-4_00000039099239610933251950000009627055066603946113_" class="st2" points="89.96,86.39 89.96,51.24 
								59.58,33.66 29.19,51.24 29.19,86.39 59.58,103.96 							"/>
						</g>
					</mask>
					<path id="节能标志" class="st16" d="M54.97,101.91c-1.91-2.56-3.59-4.94-5.04-7.15c-4.2-6.22-5.88-12.13-5.79-17.93
						c0.07-3.99,1.05-7.94,3.01-11.84c1.4-2.79,3.56-5.2,5.77-7.42c2.67-2.69,4.89-3.62,6.64-3.62c1.58,0,4.47,1.47,7.15,4.04
						c2.57,2.46,4.89,6.18,6.12,8.75c1.24,2.57,2.04,5.36,2.21,8.29c0.14,2.49-0.03,3.73-0.34,6.23c-0.1,0.76-0.69,3.25-1.09,4.61
						c-0.31,1.08-0.96,3.09-1.94,6.04l-3.57-1.04c0.36-1.34,0.93-3.16,1.71-5.45c0.07-0.2,0.3-1.05,0.35-1.23
						c0.29-1.16,0.6-2.4,0.76-3.62c0.25-1.85,0.22-3.6,0.22-4.62c-0.04-1.84-0.45-4.29-1.33-6.54c-1.37-3.49-3.55-6.67-5.84-8.75
						c-1.61-1.46-3.12-1.98-4.41-1.88c-0.73,0.06-1.2,0.32-2.03,0.73c-1.86,0.81-4.43,3.53-6.2,7.21
						c-1.71,3.56-2.42,7.91-2.42,10.89c0,2.8,0.61,6.11,1.86,9.24c1.9,4.77,5.33,8.8,9.47,11.63c1.39,1.01,2.42,1.69,3.11,2.05
						c0.75,0.4,1.87,0.85,3.36,1.37l-7.1,2.05L54.97,101.91z"/>
					<defs>
						
							<filter id="Adobe_OpacityMaskFilter_00000057118766144657378320000010203599284130380693_" filterUnits="userSpaceOnUse" x="59.56" y="53.95" width="15.53" height="37.97">
							<feColorMatrix  type="matrix" values="1 0 0 0 0  0 1 0 0 0  0 0 1 0 0  0 0 0 1 0"/>
						</filter>
					</defs>
					
						<mask maskUnits="userSpaceOnUse" x="59.56" y="53.95" width="15.53" height="37.97" id="mask-5_00000106107591106180601220000011629907710172345504_">
						<g style="filter:url(#Adobe_OpacityMaskFilter_00000057118766144657378320000010203599284130380693_);">
							<polygon id="path-4_00000173137074001993886610000015265402062130885266_" class="st2" points="89.96,86.39 89.96,51.24 
								59.58,33.66 29.19,51.24 29.19,86.39 59.58,103.96 							"/>
						</g>
					</mask>
					<path id="节能标志颜色" class="st18" d="M59.58,53.95l-0.02,0c1.58,0,4.47,1.47,7.15,4.04c2.57,2.46,4.89,6.18,6.12,8.75
						c1.24,2.57,2.04,5.36,2.21,8.29c0.14,2.49-0.03,3.73-0.34,6.23c-0.1,0.76-0.69,3.25-1.09,4.61c-0.31,1.08-0.96,3.09-1.94,6.04
						l-3.57-1.04c0.36-1.34,0.93-3.16,1.71-5.45c0.07-0.2,0.3-1.05,0.35-1.23c0.29-1.16,0.6-2.4,0.76-3.62
						c0.18-1.35,0.22-2.66,0.22-3.66l0-0.75c0-0.07,0-0.15,0-0.21c-0.04-1.84-0.45-4.29-1.33-6.54c-1.37-3.49-3.55-6.67-5.84-8.75
						c-1.6-1.45-3.11-1.98-4.39-1.88L59.58,53.95z"/>
				</g>
			</g>
		</g>
	</g>
</g>
</svg>
