<?xml version="1.0" encoding="utf-8"?>
<!-- Generator: Adobe Illustrator 28.1.0, SVG Export Plug-In . SVG Version: 6.00 Build 0)  -->
<svg version="1.1" id="图层_1" xmlns="http://www.w3.org/2000/svg" xmlns:xlink="http://www.w3.org/1999/xlink" x="0px" y="0px"
	 viewBox="0 0 200 200" style="enable-background:new 0 0 200 200;" xml:space="preserve">
<style type="text/css">
	.st0{fill-rule:evenodd;clip-rule:evenodd;fill:url(#path-2_00000110443992358597899830000003346981451053786535_);}
	.st1{filter:url(#Adobe_OpacityMaskFilter);}
	.st2{fill-rule:evenodd;clip-rule:evenodd;fill:#FFFFFF;}
	.st3{mask:url(#mask-3_00000094587354561595414730000013844464749768558503_);}
	.st4{fill-rule:evenodd;clip-rule:evenodd;fill:#5FCB5C;}
	.st5{fill-rule:evenodd;clip-rule:evenodd;fill:#689F38;}
	.st6{fill:#FFFFFF;}
	.st7{fill:#82D2FF;}
	.st8{fill:#3BA738;}
	.st9{fill:#5FCB5C;}
	.st10{fill:#76E572;}
	.st11{fill:#8AF686;}
	.st12{fill:#BDFFBA;}
	.st13{filter:url(#Adobe_OpacityMaskFilter_00000059280148179320495280000012985114067454294677_);}
	.st14{mask:url(#mask-5_00000162347807308602473650000010753151928217538955_);fill:#83F17F;}
	.st15{filter:url(#Adobe_OpacityMaskFilter_00000020377119006153340030000011538647623807155841_);}
	.st16{mask:url(#mask-5_00000014628822758076815020000006312708445760872632_);fill:#FFFFFF;}
	.st17{filter:url(#Adobe_OpacityMaskFilter_00000025419578454233661720000002416496972314386840_);}
	.st18{mask:url(#mask-5_00000082354526535778140860000005103211729207394705_);fill:#51B9F9;}
</style>
<g id="主页面">
	<g id="BEEBD方形图标" transform="translate(-350, -200)">
		<g id="改色" transform="translate(350, 200)">
			<g id="iconbase" transform="translate(100, 100) scale(-1, -1) translate(-100, -100)">
				
					<linearGradient id="path-2_00000090977409823758896190000011382628151232854918_" gradientUnits="userSpaceOnUse" x1="-862.795" y1="642.195" x2="-862.795" y2="643.195" gradientTransform="matrix(200 0 0 -200 172659 128639)">
					<stop  offset="0" style="stop-color:#FFFFFF"/>
					<stop  offset="1" style="stop-color:#CFFFD9"/>
				</linearGradient>
				
					<path id="path-2_00000090277308516870279820000015882973988126387329_" style="fill-rule:evenodd;clip-rule:evenodd;fill:url(#path-2_00000090977409823758896190000011382628151232854918_);" d="
					M68,0C45.8,0,38.8,0,28.8,3.3C17,7.5,7.5,17,3.3,28.8C0,38.8,0,45.8,0,68c0,42.7,0,64,0,64c0,22.2,0,29.2,3.3,39.2
					C7.5,183,17,192.5,28.8,196.7c10,3.3,17.1,3.3,39.2,3.3h64c22.2,0,29.2,0,39.2-3.3c11.8-4.2,21.2-13.6,25.4-25.4
					c3.3-10,3.3-17.1,3.3-39.2V68c0-22.2,0-29.2-3.3-39.2c-4.2-11.7-13.8-21.2-25.4-25.4C161.2,0,154.2,0,132,0
					C139.8,0,118.4,0,68,0z"/>
			</g>
			<defs>
				<filter id="Adobe_OpacityMaskFilter" filterUnits="userSpaceOnUse" x="33" y="10" width="134.1" height="180">
					<feColorMatrix  type="matrix" values="1 0 0 0 0  0 1 0 0 0  0 0 1 0 0  0 0 0 1 0"/>
				</filter>
			</defs>
			
				<mask maskUnits="userSpaceOnUse" x="33" y="10" width="134.1" height="180" id="mask-3_00000094587354561595414730000013844464749768558503_">
				<g transform="translate(100, 100) scale(-1, -1) translate(-100, -100)" class="st1">
					<path id="path-2_00000103967765378773912870000004818426592188958628_" class="st2" d="M132,200c22.2,0,29.2,0,39.2-3.3
						c11.8-4.2,21.2-13.6,25.4-25.4c3.3-10,3.3-17.1,3.3-39.2c0-42.7,0-64,0-64c0-22.2,0-29.2-3.3-39.2C192.5,17,183,7.5,171.2,3.3
						C161.2,0,154.2,0,132,0H68C45.8,0,38.8,0,28.8,3.3C17,7.5,7.5,17,3.3,28.8C0,38.8,0,45.8,0,68v64c0,22.2,0,29.2,3.3,39.2
						c4.2,11.7,13.8,21.2,25.4,25.4c10,3.3,17.1,3.3,39.2,3.3C60.2,200,81.6,200,132,200z"/>
				</g>
			</mask>
			<g id="Logo" class="st3">
				<g transform="translate(33, 10)">
					<g id="Words" transform="translate(6.0323, 164.8816)">
						<path id="B" class="st4" d="M3.8,15.1v-3.8l9.1,0V8.8l-9.1,0V5.7l9.1,0V3.5l-9.1,0V0h11v15.1H3.8z M0,0h3.8v15.1H0V0z"/>
						<path id="E" class="st4" d="M41.6,0v3.5l-11.6,0v2.2l6.3,0v3.1l-6.3,0v2.5l11.6,0v3.8H26.8V0H41.6z"/>
						<path id="E_00000042698661698171226100000005738634657777659069_" class="st4" d="M68.4,0v3.5l-11.7,0v2.2l6.3,0v3.1l-6.3,0
							v2.5l11.7,0v3.8H53.6V0H68.4z"/>
						<path id="B_00000173120583521053418260000003799413118191940024_" class="st5" d="M84.2,15.1v-3.8l9.1,0V8.8l-9.1,0V5.7l9.1,0
							V3.5l-9.1,0V0h11v15.1H84.2z M80.4,0h3.8v15.1h-3.8V0z"/>
						<path id="D" class="st5" d="M111,15.1v-3.8l9.1,0V3.5l-9.1,0V0h11v15.1H111z M107.2,0h3.8v15.1h-3.8V0z"/>
					</g>
					<polygon id="六边形白边" class="st6" points="134.1,115.6 134.1,38.5 67,0 0,38.5 0,115.6 67,154.2 					"/>
					<polygon id="深色" class="st7" points="101.1,96.6 127.3,111.7 67,146.4 6.7,111.7 6.7,42.2 33,57.4 33,96.6 67,116.2 					
						"/>
					<polygon id="右下" class="st8" points="127.3,111.8 67,146.8 67,116.3 101.1,96.5 					"/>
					<polygon id="左下" class="st9" points="67,116.3 67,146.8 6.7,111.8 33,96.5 					"/>
					<polygon id="右" class="st9" points="127.3,42.2 127.3,111.9 101.2,96.7 101.2,57.4 					"/>
					<polygon id="左" class="st10" points="32.8,57.4 32.8,96.7 6.7,111.9 6.7,42.2 					"/>
					<polygon id="右上" class="st10" points="101.1,57.6 67,37.9 67,7.4 127.3,42.4 					"/>
					<polygon id="左上" class="st11" points="67,7.4 67,37.9 33,57.6 6.7,42.4 					"/>
					<g id="六边形">
						<polygon id="path-4_00000178181800402298237630000006065700380862022064_" class="st12" points="101.2,97.2 101.2,57.6 
							67,37.9 32.8,57.6 32.8,97.2 67,117 						"/>
					</g>
					<defs>
						
							<filter id="Adobe_OpacityMaskFilter_00000056429378546486798980000017485113063244160677_" filterUnits="userSpaceOnUse" x="67" y="37.9" width="34.2" height="78.8">
							<feColorMatrix  type="matrix" values="1 0 0 0 0  0 1 0 0 0  0 0 1 0 0  0 0 0 1 0"/>
						</filter>
					</defs>
					
						<mask maskUnits="userSpaceOnUse" x="67" y="37.9" width="34.2" height="78.8" id="mask-5_00000162347807308602473650000010753151928217538955_">
						<g style="filter:url(#Adobe_OpacityMaskFilter_00000056429378546486798980000017485113063244160677_);">
							<polygon id="path-4_00000154423890242110093610000000357203559058728344_" class="st2" points="101.2,97.2 101.2,57.6 
								67,37.9 32.8,57.6 32.8,97.2 67,117 							"/>
						</g>
					</mask>
					<polygon id="深色_00000120556355780833882670000002427686586661947797_" class="st14" points="101.2,96.9 101.2,57.6 
						67,37.9 67,116.6 					"/>
					<defs>
						
							<filter id="Adobe_OpacityMaskFilter_00000116921842840418282860000011259682430356532657_" filterUnits="userSpaceOnUse" x="49.7" y="60.7" width="34.8" height="56.3">
							<feColorMatrix  type="matrix" values="1 0 0 0 0  0 1 0 0 0  0 0 1 0 0  0 0 0 1 0"/>
						</filter>
					</defs>
					
						<mask maskUnits="userSpaceOnUse" x="49.7" y="60.7" width="34.8" height="56.3" id="mask-5_00000014628822758076815020000006312708445760872632_">
						<g style="filter:url(#Adobe_OpacityMaskFilter_00000116921842840418282860000011259682430356532657_);">
							<polygon id="path-4_00000064349042919526344310000011772962100875904901_" class="st2" points="101.2,97.2 101.2,57.6 
								67,37.9 32.8,57.6 32.8,97.2 67,117 							"/>
						</g>
					</mask>
					<path id="节能标志" class="st16" d="M61.8,114.7c-2.2-2.9-4-5.6-5.7-8c-4.7-7-6.6-13.6-6.5-20.2c0.1-4.5,1.2-8.9,3.4-13.3
						c1.6-3.1,4-5.8,6.5-8.4c3-3,5.5-4.1,7.5-4.1c1.8,0,5,1.7,8,4.5c2.9,2.8,5.5,7,6.9,9.8c1.4,2.9,2.3,6,2.5,9.3
						c0.2,2.8,0,4.2-0.4,7c-0.1,0.9-0.8,3.7-1.2,5.2c-0.4,1.2-1.1,3.5-2.2,6.8l-4-1.2c0.4-1.5,1-3.6,1.9-6.1
						c0.1-0.2,0.3-1.2,0.4-1.4c0.3-1.3,0.7-2.7,0.9-4.1c0.3-2.1,0.2-4,0.2-5.2c-0.1-2.1-0.5-4.8-1.5-7.4c-1.5-3.9-4-7.5-6.6-9.8
						c-1.8-1.6-3.5-2.2-5-2.1c-0.8,0.1-1.4,0.4-2.3,0.8c-2.1,0.9-5,4-7,8.1c-1.9,4-2.7,8.9-2.7,12.2c0,3.2,0.7,6.9,2.1,10.4
						c2.1,5.4,6,9.9,10.7,13.1c1.6,1.1,2.7,1.9,3.5,2.3c0.8,0.4,2.1,1,3.8,1.5l-8,2.3L61.8,114.7z"/>
					<defs>
						
							<filter id="Adobe_OpacityMaskFilter_00000105389504824920814240000012273647347300644757_" filterUnits="userSpaceOnUse" x="67" y="60.7" width="17.5" height="42.7">
							<feColorMatrix  type="matrix" values="1 0 0 0 0  0 1 0 0 0  0 0 1 0 0  0 0 0 1 0"/>
						</filter>
					</defs>
					
						<mask maskUnits="userSpaceOnUse" x="67" y="60.7" width="17.5" height="42.7" id="mask-5_00000082354526535778140860000005103211729207394705_">
						<g style="filter:url(#Adobe_OpacityMaskFilter_00000105389504824920814240000012273647347300644757_);">
							<polygon id="path-4_00000115475461755046884340000014181501320820810139_" class="st2" points="101.2,97.2 101.2,57.6 
								67,37.9 32.8,57.6 32.8,97.2 67,117 							"/>
						</g>
					</mask>
					<path id="节能标志颜色" class="st18" d="M67,60.7L67,60.7c1.7,0,5,1.7,8,4.5c2.9,2.8,5.5,7,6.9,9.8
						c1.4,2.9,2.3,6,2.5,9.3c0.2,2.8,0,4.2-0.4,7c-0.1,0.9-0.8,3.7-1.2,5.2c-0.4,1.2-1.1,3.5-2.2,6.8l-4-1.2c0.4-1.5,1-3.6,1.9-6.1
						c0.1-0.2,0.3-1.2,0.4-1.4c0.3-1.3,0.7-2.7,0.9-4.1c0.2-1.6,0.2-3.1,0.3-4.2l0-0.8c0-0.1,0-0.2,0-0.2c-0.1-2.1-0.5-4.8-1.5-7.4
						c-1.5-3.9-4-7.5-6.6-9.8c-1.8-1.6-3.5-2.2-4.9-2.1L67,60.7z"/>
				</g>
			</g>
		</g>
	</g>
</g>
</svg>
