<?xml version="1.0" encoding="utf-8"?>
<!-- Generator: Adobe Illustrator 28.1.0, SVG Export Plug-In . SVG Version: 6.00 Build 0)  -->
<svg version="1.1" id="图层_1" xmlns="http://www.w3.org/2000/svg" xmlns:xlink="http://www.w3.org/1999/xlink" x="0px" y="0px"
	 viewBox="0 0 400 538" style="enable-background:new 0 0 400 538;" xml:space="preserve">
<style type="text/css">
	.st0{fill-rule:evenodd;clip-rule:evenodd;fill:#5FCB5C;}
	.st1{fill-rule:evenodd;clip-rule:evenodd;fill:#689F38;}
	.st2{fill:#FFFFFF;}
	.st3{fill:#82D2FF;}
	.st4{fill:#3BA738;}
	.st5{fill:#5FCB5C;}
	.st6{fill:#76E572;}
	.st7{fill:#8AF686;}
	.st8{fill:#BDFFBA;}
	.st9{filter:url(#Adobe_OpacityMaskFilter);}
	.st10{fill-rule:evenodd;clip-rule:evenodd;fill:#FFFFFF;}
	.st11{mask:url(#mask-2_00000010277835442183246300000004901477266144582585_);fill:#83F17F;}
	.st12{filter:url(#Adobe_OpacityMaskFilter_00000034774155464675732980000007390259352114166704_);}
	.st13{mask:url(#mask-2_00000179636482511085636030000014264082503715604659_);fill:#FFFFFF;}
	.st14{filter:url(#Adobe_OpacityMaskFilter_00000047052814958274204490000012717205767494324390_);}
	.st15{mask:url(#mask-2_00000057109512209299704280000001166393983348910216_);fill:#51B9F9;}
</style>
<g id="主页面">
	<g id="BEEBD改色" transform="translate(-100, -28)">
		<g id="Logo" transform="translate(100, 28)">
			<g id="Words" transform="translate(18, 492)">
				<path id="B" class="st0" d="M0,45.1V0h44.2v45.1H0z M11.3,33.8l27.3,0v-7.5l-27.3,0V33.8z M11.3,16.9l27.3,0v-6.6l-27.3,0V16.9z
					"/>
				<path id="E" class="st0" d="M124,0v10.3l-34.6,0v6.6l18.7,0v9.4l-18.7,0v7.5l34.6,0v11.3H80V0H124z"/>
				<path id="E_00000163063518040763655310000002167651933372378503_" class="st0" d="M204.2,0v10.3l-34.8,0v6.6l18.8,0v9.4l-18.8,0
					v7.5l34.8,0v11.3H160V0H204.2z"/>
				<path id="B_00000137126271576947575780000007290789064770506885_" class="st1" d="M240,45.1V0h44.2v45.1H240z M251.3,33.8
					l27.3,0v-7.5l-27.3,0V33.8z M251.3,16.9l27.3,0v-6.6l-27.3,0V16.9z"/>
				<path id="D" class="st1" d="M331.3,45.1V33.8l27.3,0V10.3l-27.3,0V0h32.9v45.1H331.3z M320,0h11.3v45.1H320V0z"/>
			</g>
			<polygon id="六边形白边" class="st2" points="400,345 400,115 200,0 0,115 0,345 200,460 			"/>
			<polygon id="深色" class="st3" points="301.6,288.2 380,333.3 200,437 20,333.3 20,126 98.4,171.2 98.4,288.2 200,346.7 			"/>
			<polygon id="右下" class="st4" points="380,333.5 200,438 200,347 301.6,288 			"/>
			<polygon id="左下" class="st5" points="200,347 200,438 20,333.5 98.4,288 			"/>
			<polygon id="右" class="st5" points="380,126 380,334 302,288.7 302,171.3 			"/>
			<polygon id="左" class="st6" points="98,171.3 98,288.7 20,334 20,126 			"/>
			<polygon id="右上" class="st6" points="301.6,172 200,113 200,22 380,126.5 			"/>
			<polygon id="左上" class="st7" points="200,22 200,113 98.4,172 20,126.5 			"/>
			<g id="六边形">
				<polygon id="path-1_00000007426911803985623410000009356489109406322319_" class="st8" points="302,290 302,172 200,113 98,172 
					98,290 200,349 				"/>
			</g>
			<defs>
				<filter id="Adobe_OpacityMaskFilter" filterUnits="userSpaceOnUse" x="200" y="113" width="102" height="235">
					<feColorMatrix  type="matrix" values="1 0 0 0 0  0 1 0 0 0  0 0 1 0 0  0 0 0 1 0"/>
				</filter>
			</defs>
			
				<mask maskUnits="userSpaceOnUse" x="200" y="113" width="102" height="235" id="mask-2_00000010277835442183246300000004901477266144582585_">
				<g class="st9">
					<polygon id="path-1_00000008128177139809796810000010174471616195859646_" class="st10" points="302,290 302,172 200,113 
						98,172 98,290 200,349 					"/>
				</g>
			</mask>
			<polygon id="深色_00000080189586661312071370000017909520821301254284_" class="st11" points="302,289.2 302,171.8 200,113 
				200,348 			"/>
			<defs>
				
					<filter id="Adobe_OpacityMaskFilter_00000180347815025885583400000002503137876282781882_" filterUnits="userSpaceOnUse" x="148.2" y="181.1" width="103.9" height="167.9">
					<feColorMatrix  type="matrix" values="1 0 0 0 0  0 1 0 0 0  0 0 1 0 0  0 0 0 1 0"/>
				</filter>
			</defs>
			
				<mask maskUnits="userSpaceOnUse" x="148.2" y="181.1" width="103.9" height="167.9" id="mask-2_00000179636482511085636030000014264082503715604659_">
				<g style="filter:url(#Adobe_OpacityMaskFilter_00000180347815025885583400000002503137876282781882_);">
					<polygon id="path-1_00000036252666927009452930000006168591556684550317_" class="st10" points="302,290 302,172 200,113 
						98,172 98,290 200,349 					"/>
				</g>
			</mask>
			<path id="节能标志" class="st13" d="M184.5,342.1c-6.4-8.6-12.1-16.6-16.9-24c-14.1-20.9-19.8-40.7-19.4-60.2
				c0.2-13.4,3.5-26.6,10.1-39.8c4.7-9.4,11.9-17.4,19.4-24.9c9-9,16.4-12.1,22.3-12.1c5.3,0,15,4.9,24,13.6
				c8.6,8.3,16.4,20.8,20.6,29.4c4.1,8.6,6.9,18,7.4,27.8c0.5,8.4-0.1,12.5-1.1,20.9c-0.3,2.6-2.3,10.9-3.6,15.5
				c-1,3.6-3.2,10.4-6.5,20.3l-12-3.5c1.2-4.5,3.1-10.6,5.7-18.3c0.2-0.7,1-3.5,1.2-4.1c1-3.9,2-8.1,2.6-12.1
				c0.8-6.2,0.7-12.1,0.7-15.5c-0.2-6.2-1.5-14.4-4.5-22c-4.6-11.7-11.9-22.4-19.6-29.4c-5.4-4.9-10.5-6.7-14.8-6.3
				c-2.4,0.2-4,1.1-6.8,2.4c-6.2,2.7-14.9,11.8-20.8,24.2c-5.7,12-8.1,26.6-8.1,36.5c0,9.4,2.1,20.5,6.2,31
				c6.4,16,17.9,29.5,31.8,39c4.7,3.4,8.1,5.7,10.4,6.9c2.5,1.3,6.3,2.9,11.3,4.6l-23.8,6.9L184.5,342.1z"/>
			<defs>
				
					<filter id="Adobe_OpacityMaskFilter_00000183222703093563996090000004264211095350883209_" filterUnits="userSpaceOnUse" x="199.9" y="181.1" width="52.1" height="127.4">
					<feColorMatrix  type="matrix" values="1 0 0 0 0  0 1 0 0 0  0 0 1 0 0  0 0 0 1 0"/>
				</filter>
			</defs>
			
				<mask maskUnits="userSpaceOnUse" x="199.9" y="181.1" width="52.1" height="127.4" id="mask-2_00000057109512209299704280000001166393983348910216_">
				<g style="filter:url(#Adobe_OpacityMaskFilter_00000183222703093563996090000004264211095350883209_);">
					<polygon id="path-1_00000168831553750212436390000001501069272565413796_" class="st10" points="302,290 302,172 200,113 
						98,172 98,290 200,349 					"/>
				</g>
			</mask>
			<path id="节能标志颜色" class="st15" d="M200,181.1L200,181.1c5.2,0,14.9,4.9,23.9,13.6c8.6,8.3,16.4,20.8,20.6,29.4
				c4.1,8.6,6.9,18,7.4,27.8c0.5,8.4-0.1,12.5-1.1,20.9c-0.2,1.4-0.8,4.4-1.6,7.6l-0.2,0.8l-0.2,0.8c-0.6,2.3-1.1,4.5-1.6,6.2
				c-1,3.6-3.2,10.4-6.5,20.3l-12-3.5c1.2-4.5,3.1-10.6,5.7-18.3c0.2-0.7,1-3.5,1.2-4.1c1-3.9,2-8.1,2.6-12.1
				c0.7-4.8,0.7-9.5,0.7-12.9l0-0.8c0-0.6,0-1.2,0-1.8c-0.2-6.2-1.5-14.4-4.5-22c-4.6-11.7-11.9-22.4-19.6-29.4
				c-5.4-4.9-10.4-6.6-14.7-6.3L200,181.1z"/>
		</g>
	</g>
</g>
</svg>
