<?xml version="1.0" encoding="utf-8"?>
<!-- Generator: Adobe Illustrator 28.1.0, SVG Export Plug-In . SVG Version: 6.00 Build 0)  -->
<svg version="1.1" id="图层_1" xmlns="http://www.w3.org/2000/svg" xmlns:xlink="http://www.w3.org/1999/xlink" x="0px" y="0px"
	 viewBox="0 0 1500 285" style="enable-background:new 0 0 1500 285;" xml:space="preserve">
<style type="text/css">
	.st0{fill:#0091EA;stroke:#0091EA;stroke-width:3;}
	.st1{fill-rule:evenodd;clip-rule:evenodd;fill:#0091EA;}
	.st2{fill-rule:evenodd;clip-rule:evenodd;fill:#063C7C;}
	.st3{fill:#FFFFFF;}
	.st4{fill:#82D2FF;}
	.st5{fill:#0091EA;}
	.st6{fill:#00A7F7;}
	.st7{fill:#51B9F9;}
	.st8{fill:#83CAFA;}
	.st9{fill:#B0DBFA;}
	.st10{filter:url(#Adobe_OpacityMaskFilter);}
	.st11{fill-rule:evenodd;clip-rule:evenodd;fill:#FFFFFF;}
	.st12{mask:url(#mask-2_00000079459605497847434610000006538142175012597182_);fill:#83CAFA;}
	.st13{filter:url(#Adobe_OpacityMaskFilter_00000126300755268590063800000005851089051254699914_);}
	.st14{mask:url(#mask-2_00000177475879996833435450000002376652449524726963_);fill:#FFFFFF;}
	.st15{filter:url(#Adobe_OpacityMaskFilter_00000065051182843359925880000005522984646366513069_);}
	.st16{mask:url(#mask-2_00000034808310854795375430000012427678316060759203_);fill:#BDF280;}
</style>
<g id="BEEBD文字">
	<g id="建筑节能基础数据平台" transform="translate(267.6953, 82.2188)">
		<path id="形状" class="st0" d="M72.3,50.16v15h12.66c0.94-1.88,3.12-4.53,6.56-7.97c-4.38,0.62-6.56-0.47-6.56-3.28v-3.75H72.3z
			 M72.3,36.56v11.25h12.66V36.56H72.3z M72.3,21.56v12.19h12.66V21.56H72.3z M61.05,96.09V83.91H47.93
			c-0.62,0.31-3.12,0.47-7.5,0.47l-2.81-3.28c1.25,0.31,2.5,0.47,3.75,0.47h19.69V67.5h-8.44c-2.5,0.31-4.84,0.47-7.03,0.47
			l-3.28-3.28c1.25,0.31,2.66,0.47,4.22,0.47h14.53v-15h-9.38c-0.62,0.31-3.12,0.47-7.5,0.47l-2.81-3.28
			c1.25,0.31,2.5,0.47,3.75,0.47h15.94V36.56H44.18c-2.81,0-5.31,0-7.5,0l-2.81-3.28c1.25,0.31,2.5,0.47,3.75,0.47h23.44V21.56
			H50.27h-6.56l-2.34-3.28c1.25,0.31,2.5,0.47,3.75,0.47h15.94V2.81c6.88,0,11.25,0.31,13.12,0.94c0.94,0.94,0.94,1.72,0,2.34
			C73.55,7.03,72.93,7.5,72.3,7.5v11.25h11.25c0.31-0.31,0.94-1.09,1.88-2.34c1.25-1.56,2.19-2.34,2.81-2.34
			c4.06,0.94,8.12,3.12,12.19,6.56c0,0.62-0.78,1.56-2.34,2.81c-0.31,0.31-0.47,0.47-0.47,0.47v9.84h2.34
			c1.56-2.19,3.59-4.53,6.09-7.03c0.31-0.31,0.78-0.31,1.41,0c4.38,3.75,7.19,6.56,8.44,8.44c-0.31,0.62-0.62,1.09-0.94,1.41H97.62
			v17.34c-0.31,1.25-1.56,2.19-3.75,2.81c5,3.75,8.44,6.72,10.31,8.91c0.31,1.25,0.16,1.88-0.47,1.88H72.3v14.06h16.41
			c2.19-3.44,4.53-6.25,7.03-8.44c0.31-0.31,0.78-0.31,1.41,0c4.06,2.5,7.66,5.47,10.78,8.91c0.31,0.94,0.16,1.56-0.47,1.88H72.3
			v9.84C67.93,98.44,64.18,99.22,61.05,96.09z M100.9,114.38H81.68c-26.25,0-45-5.62-56.25-16.88
			c-6.56,7.19-14.53,12.66-23.91,16.41c-0.94,0-1.41-0.16-1.41-0.47c-0.31-0.31,0-0.62,0.94-0.94c8.12-5.31,14.38-12.5,18.75-21.56
			c-5.62-7.81-9.84-18.75-12.66-32.81c0.31-0.62,0.94-0.78,1.88-0.47c3.12,10.94,7.81,19.53,14.06,25.78
			c3.12-9.38,4.53-19.22,4.22-29.53H18.4c-1.56,1.88-2.97,2.81-4.22,2.81c-0.62,0.31-1.25,0.16-1.88-0.47
			c-4.06-2.81-6.88-5.16-8.44-7.03c-0.62-0.62-0.62-1.25,0-1.88c0.62,0,2.19-0.78,4.69-2.34l12.19-30h-9.37
			c-2.5,0.31-4.84,0.47-7.03,0.47l-3.28-3.28c1.25,0.31,2.66,0.47,4.22,0.47h15.47c0.31-0.31,0.62-0.94,0.94-1.88
			s0.78-1.72,1.41-2.34c0.62-0.31,1.25-0.62,1.88-0.94c4.38,2.19,8.28,4.22,11.72,6.09c0.62,0.62,0.62,1.41,0,2.34
			c-2.19,1.56-3.59,2.5-4.22,2.81L18.4,51.56h7.5c1.25-1.88,2.97-3.59,5.16-5.16c0.31,0,0.94,0.16,1.88,0.47
			c-0.62-0.62-0.47-0.62,0.47,0c2.5,1.25,5.31,2.97,8.44,5.16c0.31,0.94,0.31,1.72,0,2.34s-0.78,1.25-1.41,1.88
			c-0.94,0.94-1.56,1.72-1.88,2.34C37.62,71.72,34.8,82.19,30.12,90c10,7.19,23.28,10.78,39.84,10.78h18.75
			c8.44,0,16.72-1.09,24.84-3.28c0.62,0.31,0.78,0.94,0.47,1.88c-4.69,1.56-6.88,5.78-6.56,12.66c-0.31,0.31-0.62,0.78-0.94,1.41
			C104.65,114.06,102.77,114.38,100.9,114.38z"/>
		<path id="形状_00000142175733512723238130000000440767374106935464_" class="st0" d="M138.87,87.19V52.5h-4.69
			c-0.62,0.31-3.28,0.47-7.97,0.47l-2.34-3.28c1.25,0.31,2.5,0.47,3.75,0.47h23.44c2.81-3.44,4.84-5.94,6.09-7.5
			c0.62,0,1.09,0,1.41,0c3.75,3.12,6.56,5.94,8.44,8.44c0,0.94-0.31,1.41-0.94,1.41H153.4c0,0.62-0.31,1.09-0.94,1.41
			c-0.31,0.31-0.94,0.78-1.88,1.41c-0.62,0.62-0.94,0.94-0.94,0.94v29.06c1.25,0,2.5-0.16,3.75-0.47c5-1.25,8.75-2.03,11.25-2.34
			c0.31,0,0.62,0.31,0.94,0.94c0,0.62-0.16,1.09-0.47,1.41c-5.94,3.44-18.59,10.31-37.97,20.62c-0.94,0.31-1.56,0.31-1.88,0
			c-0.31-0.94-1.25-2.66-2.81-5.16c-1.25-3.12-2.19-5.78-2.81-7.97c-0.31-0.94,0-1.72,0.94-2.34
			C122.46,89.69,128.55,88.75,138.87,87.19z M181.05,66.09V75c0.31,18.75-10.47,31.88-32.34,39.38c-1.56-0.62-1.88-1.56-0.94-2.81
			c14.38-7.81,21.72-20,22.03-36.56V44.06c4.06,1.25,7.81,2.81,11.25,4.69h17.34c2.19-3.12,3.91-4.69,5.16-4.69
			c4.38,1.25,8.59,3.44,12.66,6.56c0,0.62-0.78,1.56-2.34,2.81c-0.94,1.25-1.41,1.88-1.41,1.88v41.25c0.31,2.81,1.56,4.22,3.75,4.22
			h4.22c3.75,0,7.5-6.25,11.25-18.75c0.62-0.94,1.56-0.78,2.81,0.47c-2.81,10.94-3.12,17.66-0.94,20.16
			c0.62,0.94,0.94,2.03,0.94,3.28c-0.31,3.75-3.91,5.78-10.78,6.09h-14.06c-5.31-0.94-8.12-3.44-8.44-7.5V51.56h-20.16v14.06
			c0.31-0.31,0.62-0.62,0.94-0.94c9.06,3.75,14.22,9.38,15.47,16.88c0,3.75-1.88,6.25-5.62,7.5c-4.06,0.31-6.41-1.41-7.03-5.16
			c0-0.31,0-0.94,0-1.88c0.31-0.94,0.47-1.88,0.47-2.81c0-4.38-1.25-8.59-3.75-12.66C181.21,66.56,181.05,66.41,181.05,66.09z
			 M145.9,23.91h-5.16c-5,7.19-10.94,14.38-17.81,21.56c-1.25,0.31-1.72-0.16-1.41-1.41c7.19-12.5,12.03-26.41,14.53-41.72
			c0-0.31,0.47-0.63,1.41-0.94c4.06,1.25,9.22,3.12,15.47,5.62c0.31,0.62,0.31,1.09,0,1.41c-0.94,0.94-2.19,1.72-3.75,2.34
			c-1.88,3.44-4.22,7.03-7.03,10.78h17.34c0.31,0,1.72-1.56,4.22-4.69c1.25-1.88,2.19-3.12,2.81-3.75c0,0,0.31,0,0.94,0
			c0.31,0,0.62,0,0.94,0c5,3.75,8.44,6.72,10.31,8.91c0.31,1.25,0.16,1.88-0.47,1.88h-26.72c4.69,1.88,7.66,4.69,8.91,8.44
			c0.94,4.06-0.31,7.03-3.75,8.91c-3.75,1.25-6.25,0-7.5-3.75c-0.62-1.56-0.62-3.12,0-4.69c0-0.31,0-0.62,0-0.94
			C149.49,30.31,148.4,27.66,145.9,23.91z M196.05,22.5h-3.75c-3.75,5.94-9.38,12.34-16.88,19.22c-1.25,0.31-1.72-0.16-1.41-1.41
			c7.5-15,11.88-27.81,13.12-38.44c0-0.31,0.47-0.62,1.41-0.94c4.06,1.25,9.22,3.12,15.47,5.62c0.31,0.62,0.31,1.09,0,1.41
			c-0.94,0.94-2.19,1.72-3.75,2.34c-1.88,3.44-3.91,6.72-6.09,9.84h18.75c2.81-3.44,5.16-6.25,7.03-8.44c0.31-0.31,0.78-0.31,1.41,0
			c3.75,1.56,7.81,4.53,12.19,8.91c0.31,0.62,0.47,1.09,0.47,1.41c-0.31,0.31-0.62,0.47-0.94,0.47h-32.81
			c5.94,2.81,9.53,6.25,10.78,10.31c0.31,4.38-1.41,7.19-5.16,8.44c-4.06,0.94-6.41-0.62-7.03-4.69c-0.31-0.31-0.31-0.94,0-1.88
			s0.47-1.88,0.47-2.81C199.34,29.38,198.24,26.25,196.05,22.5z"/>
		<path id="形状_00000061456220109282498860000004089666461937215882_" class="st0" d="M306.21,35.16V23.91h-21.09V37.5
			c-7.5,4.06-11.72,3.75-12.66-0.94V23.91h-21.09c-2.5,0.31-5,0.47-7.5,0.47l-2.81-3.28c1.25,0.31,2.66,0.47,4.22,0.47h27.19V1.41
			c7.81,0.63,13.12,1.56,15.94,2.81c0.94,0.62,0.94,1.41,0,2.34c-1.25,1.25-2.34,2.03-3.28,2.34v12.66h21.09V1.41
			c7.81,0.63,13.12,1.56,15.94,2.81c0.94,0.62,0.94,1.41,0,2.34c-1.25,1.25-2.34,2.03-3.28,2.34v12.66h12.19
			c2.81-4.06,5.62-7.81,8.44-11.25c0.62,0,1.25,0,1.88,0c5.62,4.06,10.31,7.66,14.06,10.78c0.62,1.56,0.47,2.5-0.47,2.81h-36.09
			v12.66c-2.19,1.88-5.16,2.81-8.91,2.81C307.46,39.06,306.21,37.66,306.21,35.16z M296.37,111.09c-0.62,1.88-3.44,3.12-8.44,3.75
			c-4.06,0.31-6.09-0.62-6.09-2.81l0.47-55.78v-9.84h-27.19h-7.97l-2.81-2.81c1.25,0.31,3.28,0.47,6.09,0.47h76.88
			c0,0,0.16-0.31,0.47-0.94c2.5-3.75,4.06-5.62,4.69-5.62c5.62,2.19,10.62,4.84,15,7.97c0,0.94-0.94,2.19-2.81,3.75
			c-0.94,0.62-1.25,0.94-0.94,0.94v23.91c0.94,17.5-4.38,26.41-15.94,26.72c-0.31,0-1.09,0-2.34,0
			c-0.62-6.25-6.09-10.94-16.41-14.06c-1.25-1.25-1.09-2.19,0.47-2.81c14.38,3.75,21.09,0.78,20.16-8.91V46.41h-30.47
			c0,0.94-1.09,2.19-3.28,3.75v6.09L296.37,111.09z"/>
		<path id="形状_00000130618494826622460330000009329957853227449268_" class="st0" d="M381.21,68.91V82.5h18.75V68.91H381.21z
			 M381.21,52.5v14.06h18.75V52.5H381.21z M369.96,98.44V56.25l-0.47-10.78c-0.31,0-0.16-0.16,0.47-0.47
			c5.62,2.5,9.38,4.22,11.25,5.16h15c1.25-1.56,2.81-3.12,4.69-4.69c0.62-0.31,1.25-0.31,1.88,0c1.88,0.62,5.16,2.34,9.84,5.16
			c-0.31-0.31,0.16-0.16,1.41,0.47c0.62,0.31,0.78,0.94,0.47,1.88c-0.31,0.31-0.78,0.78-1.41,1.41c-0.94,1.25-1.56,1.88-1.88,1.88
			l0.94,50.62c0,4.38-4.22,7.19-12.66,8.44c-0.94-0.31-1.41-0.78-1.41-1.41c-0.94-5.94-4.53-9.69-10.78-11.25
			c-0.62-1.25-0.47-1.88,0.47-1.88c7.81,0.62,11.88,0.47,12.19-0.47v-15h-18.75v24.38c-3.12,4.06-7.03,5.16-11.72,3.28
			c-0.31-1.25-0.31-3.59,0-7.03C369.49,103.44,369.65,100.94,369.96,98.44z M394.8,10.31l-18.75,18.75
			c2.19,0.31,6.25,0.62,12.19,0.94c5.94,0,10.94,0,15,0c-0.62-5.31-2.34-9.06-5.16-11.25c-0.62-0.62-0.47-1.09,0.47-1.41
			c10.62,1.56,17.19,5.78,19.69,12.66c0.62,5-0.78,8.75-4.22,11.25c-4.06,2.19-7.19,1.25-9.38-2.81c-0.62-0.62-1.09-2.03-1.41-4.22
			c0-0.94,0-1.72,0-2.34c-16.25,4.69-27.97,8.12-35.16,10.31c-1.25,0.62-2.03,0.31-2.34-0.94c-0.31-0.31-0.62-0.78-0.94-1.41
			c-2.19-4.69-3.28-7.81-3.28-9.38c-0.62-0.62-0.31-1.25,0.94-1.88c8.44-1.88,14.53-10.62,18.28-26.25c0-0.31,0.78-0.63,2.34-0.94
			c8.12,2.5,13.59,4.22,16.41,5.16c0,0.31,0.16,0.78,0.47,1.41c-0.94,0.62-1.72,1.09-2.34,1.41C396.05,9.69,395.12,10,394.8,10.31z
			 M433.71,28.12v7.03c-0.62,4.38,1.88,6.41,7.5,6.09h7.97c10.94,1.56,17.34-3.91,19.22-16.41c0.31-0.62,0.78-0.62,1.41,0
			c-1.25,6.56-0.94,11.41,0.94,14.53c0.94,1.88,1.41,3.44,1.41,4.69c-0.31,5.62-6.56,8.44-18.75,8.44h-15
			c-11.25,0.62-16.56-3.12-15.94-11.25V10.31l-0.47-7.5c0,0,0.31-0.16,0.94-0.47c5.94,0.94,10.47,2.19,13.59,3.75
			c0.31,0.62,0.31,1.25,0,1.88s-0.94,1.09-1.88,1.41c-0.31,0.31-0.62,0.62-0.94,0.94v15c5.94-3.75,12.5-9.06,19.69-15.94
			c0.31-0.31,0.94-0.31,1.88,0c6.25,5,10.16,8.12,11.72,9.38c0,0.31,0.16,0.78,0.47,1.41c-2.81,0-4.69,0.16-5.62,0.47
			c-4.69,1.56-11.56,3.44-20.62,5.62C437.77,27.19,435.27,27.81,433.71,28.12z M465.12,72.19l-29.06,9.84v11.72
			c-0.31,4.69,2.19,6.88,7.5,6.56h8.91c7.81,0.62,13.75-5.31,17.81-17.81c0.31-0.94,0.62-0.94,0.94,0
			c-1.88,6.88-1.56,12.5,0.94,16.88c0.62,0.94,1.09,1.41,1.41,1.41c-0.94,5.94-5.94,9.22-15,9.84h-16.41
			c-11.88,0-17.66-3.91-17.34-11.72V55.31c2.5,0.31,5.31,0.62,8.44,0.94c2.81,0.62,4.69,1.09,5.62,1.41c0.31,0.62,0.31,1.41,0,2.34
			c-0.31,0.62-1.09,1.41-2.34,2.34c-0.31,0.31-0.47,0.47-0.47,0.47v16.88c4.69-4.38,11.25-11.09,19.69-20.16
			c0.62-0.62,1.25-0.78,1.88-0.47c0.62,0.62,2.34,2.19,5.16,4.69c3.44,3.12,6.09,5.16,7.97,6.09c0.31,0.94,0.31,1.56,0,1.88
			c-0.94,0.31-1.88,0.47-2.81,0.47C466.68,72.19,465.74,72.19,465.12,72.19z"/>
		<path id="形状_00000165936196200650221020000015163807074557399681_" class="st0" d="M548.55,34.69V23.91H520.9v10.78H548.55z
			 M548.55,47.81V37.03H520.9v10.78H548.55z M548.55,60.94V50.16H520.9v10.78H548.55z M553.71,63.75h-30.94
			c1.25,0.62,2.34,1.09,3.28,1.41c-0.31,0.31-0.47,0.94-0.47,1.88l-4.22,1.88c-9.69,12.5-23.59,22.97-41.72,31.41
			c-0.62,0.31-0.94-0.16-0.94-1.41c12.81-8.75,22.66-20.47,29.53-35.16h-19.22c-2.81,0-5.47,0-7.97,0l-2.34-3.28
			c1.25,0.31,2.66,0.47,4.22,0.47h26.72V23.91h-15.47c-0.62,0.31-3.28,0.47-7.97,0.47l-2.34-3.28c1.25,0.31,2.5,0.47,3.75,0.47
			h22.03V10.31l-0.47-6.09c0,0,0.16-0.16,0.47-0.47c3.12,0.31,5.94,0.62,8.44,0.94s4.53,0.62,6.09,0.94c0.31,0.31,0.31,0.94,0,1.88
			c-0.31,0.31-0.47,0.47-0.47,0.47c-0.94,1.25-1.88,2.03-2.81,2.34v11.25h27.66V10.31l-0.47-6.09c0,0,0.16-0.16,0.47-0.47
			c2.81,0.31,5.47,0.62,7.97,0.94s4.69,0.62,6.56,0.94c0.31,0.31,0.31,0.94,0,1.88c-1.25,1.25-2.34,2.19-3.28,2.81v11.25h8.91
			c2.19-3.44,4.53-6.25,7.03-8.44c0.31-0.31,0.78-0.31,1.41,0c4.06,2.5,7.66,5.47,10.78,8.91c0.31,0.94,0.16,1.56-0.47,1.88H559.8
			v37.03h13.59c0.31-0.31,1.56-1.72,3.75-4.22c1.88-2.19,3.12-3.59,3.75-4.22c-0.31,0,0.16,0,1.41,0c5.31,3.12,9.38,6.09,12.19,8.91
			c0.62,1.25,0.31,2.03-0.94,2.34h-37.97c7.5,11.56,20.31,17.34,38.44,17.34c0.62,0.62,0.78,1.09,0.47,1.41
			c-5.94,3.12-9.69,7.03-11.25,11.72c-0.62,0.62-1.09,0.94-1.41,0.94C567.15,89.22,557.77,78.75,553.71,63.75z M529.8,109.22V91.41
			h-13.12c-0.62,0.31-3.28,0.47-7.97,0.47l-2.34-3.28c1.25,0.31,2.5,0.47,3.75,0.47h19.69V72.66l-0.47-6.09c0,0,0.16-0.16,0.47-0.47
			c1.25,0.31,2.5,0.47,3.75,0.47c5.31,0.31,8.91,0.78,10.78,1.41c0.31,0.62,0.31,1.25,0,1.88c-0.62,0.94-1.72,1.88-3.28,2.81v16.41
			h9.84c0-0.31,0.31-0.62,0.94-0.94c2.5-3.44,4.38-5.62,5.62-6.56c0.31,0,0.62,0,0.94,0c3.75,3.12,6.56,5.94,8.44,8.44
			c0.31,0.94,0,1.41-0.94,1.41h-24.84v17.81h21.09c3.12-4.38,5.62-7.19,7.5-8.44c-0.31,0,0.16,0,1.41,0
			c4.38,2.81,7.81,5.78,10.31,8.91c0.62,0.94,0.47,1.56-0.47,1.88h-82.97c-0.62,0-3.28,0.16-7.97,0.47l-2.34-3.28
			c1.25,0,2.5,0.16,3.75,0.47H529.8z"/>
		<path id="形状_00000134249125798419655020000014795200749923998114_" class="st0" d="M618.87,52.5v35.16h9.84V52.5H618.87z
			 M618.87,50.16h8.44c1.25-1.88,2.34-3.12,3.28-3.75c0.31-0.31,0.78-0.31,1.41,0c3.44,1.88,6.56,3.91,9.38,6.09
			c0,0.31,0,0.62,0,0.94s-0.62,0.78-1.88,1.41c-0.62,0.31-0.94,0.47-0.94,0.47l1.41,43.59c-6.25,3.44-10,3.44-11.25,0V90h-9.84
			v11.72c-3.44,5.31-6.88,5.78-10.31,1.41l1.41-46.41c-2.81,4.06-5.78,7.66-8.91,10.78c-0.94,0.94-1.56,0.62-1.88-0.94
			c6.88-11.56,12.5-27.5,16.88-47.81h-5.62c-0.62,0.31-3.28,0.47-7.97,0.47l-2.34-3.28c1.25,0.31,2.5,0.47,3.75,0.47h22.03
			c3.12-4.06,5.62-6.88,7.5-8.44c-0.31,0,0.16,0,1.41,0c3.75,2.19,7.19,5.16,10.31,8.91c0.62,1.25,0.47,1.88-0.47,1.88h-12.19
			c0.31,1.56-0.94,2.97-3.75,4.22c-4.06,8.75-8.59,17.34-13.59,25.78C616.05,49.38,617.3,49.84,618.87,50.16z M672.77,106.88V57.66
			H657.3c-0.62,1.25-1.25,2.03-1.88,2.34c-0.94,0.62-1.56,0.62-1.88,0c-0.62,0-2.03-0.94-4.22-2.81c-2.5-1.88-3.91-2.97-4.22-3.28
			c-0.31-0.94-0.31-1.56,0-1.88l3.28-3.28V21.56l-0.47-7.5c0,0,0.16-0.16,0.47-0.47c4.69,0.62,8.91,1.56,12.66,2.81
			c0.31,0.62,0.31,1.09,0,1.41c-0.31,0.62-0.78,1.25-1.41,1.88c-0.62,0.31-0.94,0.47-0.94,0.47v35.16h14.06v-45l-0.94-7.5
			c0,0,0.16-0.16,0.47-0.47c5.31,0.31,9.53,1.09,12.66,2.34c0.62,0.31,0.78,0.94,0.47,1.88c-0.94,0.94-1.88,1.72-2.81,2.34v46.41
			h14.53V20.16l-0.47-5.62c0-0.31,0.31-0.47,0.94-0.47c3.44,0.62,7.97,1.88,13.59,3.75c0,0.31,0,0.62,0,0.94
			c-0.31,0.31-1.25,1.09-2.81,2.34l0.94,36.56c-5.94,5-10,5-12.19,0h-14.53v49.22h17.34V72.66c-0.31-0.31-0.62-1.09-0.94-2.34
			c-0.31-0.94-0.47-1.72-0.47-2.34s0.47-1.09,1.41-1.41c4.06,0.62,8.28,1.41,12.66,2.34c0.62,0.62,0.78,1.09,0.47,1.41
			c-0.31,0.62-0.78,1.09-1.41,1.41c-0.62,0.62-0.78,1.41-0.47,2.34l0.94,35.16c-0.94,1.88-3.59,2.97-7.97,3.28
			c-2.81,0-4.22-1.09-4.22-3.28h-45c-0.62,0.94-1.25,1.88-1.88,2.81c-0.94,0.62-1.72,0.62-2.34,0l-8.44-6.09
			c-0.31-0.31-0.47-0.78-0.47-1.41c0-0.31,0.16-0.47,0.47-0.47l3.75-2.34V74.06l-0.47-7.5c-0.31,0-0.16-0.16,0.47-0.47
			c4.69,0.62,8.91,1.56,12.66,2.81c0,0.94,0,1.41,0,1.41c-0.31,0.62-1.09,1.41-2.34,2.34c-0.31,0-0.47,0-0.47,0v34.22H672.77z"/>
		<path id="形状_00000183230223157636559110000014297269853352286356_" class="st0" d="M761.84,71.25h-15.47l-7.5,14.53
			c5-0.31,10-0.16,15,0.47C756.99,81.56,759.65,76.56,761.84,71.25z M733.24,71.25h-2.81c-0.62,0.31-3.28,0.47-7.97,0.47l-2.34-3.28
			c1.25,0.31,2.5,0.47,3.75,0.47h10.31c3.44-6.56,5.78-11.25,7.03-14.06c0.31-0.62,1.09-0.78,2.34-0.47
			c0.94,0.62,2.19,1.09,3.75,1.41c-0.94-0.31-1.25-0.94-0.94-1.88V42.66c-10,9.38-18.28,15.78-24.84,19.22
			c-0.94-0.31-1.25-0.78-0.94-1.41c7.19-7.19,13.44-16.41,18.75-27.66h-7.97c-2.5,0-5,0-7.5,0l-2.34-3.28
			c-0.31,0.31,0.94,0.47,3.75,0.47h21.09V1.41c0.31-0.31,0.62-0.62,0.94-0.94c7.81,1.56,12.34,2.66,13.59,3.28
			c0.31,0.31,0.31,0.94,0,1.88c-1.25,0.62-2.34,1.41-3.28,2.34V30h10.78c0.62-0.62,1.41-1.41,2.34-2.34
			c1.88-2.5,3.28-4.06,4.22-4.69c0.31-0.31,0.62-0.31,0.94,0c3.75,3.12,6.41,5.78,7.97,7.97c0,0.31,0,0.62,0,0.94
			c0,0.62-0.16,0.94-0.47,0.94h-25.78V52.5c-1.88,2.81-5,4.06-9.38,3.75c2.19,0.94,4.22,1.88,6.09,2.81
			c0.31,0.62,0.47,1.09,0.47,1.41c-0.31,0.62-0.94,1.09-1.88,1.41c-1.25,0.31-1.88,0.62-1.88,0.94l-3.28,6.09h13.12
			c0.31-1.25,1.25-2.66,2.81-4.22c0.62,0,1.09,0,1.41,0c5.31,2.81,9.06,5.16,11.25,7.03c0,0.31,0.16,0.94,0.47,1.88
			c-0.62,0-1.88,0.62-3.75,1.88c-0.31,0-0.47,0-0.47,0c-1.88,4.69-4.69,9.06-8.44,13.12c1.25,0.31,2.34,0.62,3.28,0.94
			c7.19,4.06,9.06,8.59,5.62,13.59c-4.06,3.44-8.91,2.03-14.53-4.22c-0.31-0.31-1.09-1.09-2.34-2.34
			c-9.69,7.19-21.09,12.19-34.22,15c-0.31-0.31-0.47-0.62-0.47-0.94c10.62-5.31,19.84-11.72,27.66-19.22
			c-3.12-1.25-6.72-2.5-10.78-3.75c-5.62,2.19-9.53,1.88-11.72-0.94c-0.62-0.94-0.78-1.56-0.47-1.88
			C728.4,80.16,730.74,75.62,733.24,71.25z M728.55,6.56c6.25,1.56,10.62,4.84,13.12,9.84c1.88,5,1.09,8.59-2.34,10.78
			c-4.38,1.25-6.88-0.78-7.5-6.09c-0.31-2.5-0.62-5-0.94-7.5c-0.94-2.19-2.03-4.06-3.28-5.62C727.3,7.66,727.62,7.19,728.55,6.56z
			 M768.87,4.22c6.56,2.81,10.31,4.69,11.25,5.62c0,1.25-0.16,1.72-0.47,1.41c-0.62,0.62-1.72,0.94-3.28,0.94
			c-3.12,2.81-8.12,8.12-15,15.94c-0.62,0.62-1.25,0.78-1.88,0.47c-0.62,0-0.62-0.47,0-1.41c0.62-2.5,3.28-10.16,7.97-22.97
			C768.09,4.22,768.55,4.22,768.87,4.22z M776.37,42.19c4.38,3.75,5.16,7.5,2.34,11.25c-4.38,3.12-7.81,2.03-10.31-3.28
			c-0.31-0.31-0.62-0.78-0.94-1.41c-0.62-1.88-1.09-3.28-1.41-4.22c-1.88-2.19-4.22-4.06-7.03-5.62c-0.62-0.31-0.62-0.78,0-1.41
			C765.59,37.5,771.37,39.06,776.37,42.19z M807.3,85.31h-0.47c5,5.31,13.75,10,26.25,14.06c0.31,0.62,0.31,1.09,0,1.41
			c-4.69,1.56-8.44,5-11.25,10.31c-0.62,0.62-1.25,0.78-1.88,0.47c-8.12-5.31-14.53-11.09-19.22-17.34
			c-9.06,10-21.25,16.88-36.56,20.62c-1.25-0.31-1.56-0.94-0.94-1.88c14.06-5.31,24.84-14.22,32.34-26.72
			c-5-9.69-7.66-21.41-7.97-35.16c-3.12,5.31-6.25,10-9.38,14.06c-1.25,0-1.72-0.47-1.41-1.41c8.12-15.31,13.12-35.78,15-61.41
			c0.31-0.63,0.78-0.94,1.41-0.94c5.94,1.56,11.41,3.28,16.41,5.16c0.62,1.25,0.78,1.87,0.47,1.87c-0.94,0.94-2.34,1.88-4.22,2.81
			c-3.12,8.75-6.41,16.72-9.84,23.91h21.09c3.44-4.38,5.94-7.19,7.5-8.44c0.31,0,0.78,0,1.41,0c5.62,4.38,9.06,7.34,10.31,8.91v1.88
			h-23.44c5.62,1.88,9.22,3.28,10.78,4.22c0.31,0.62,0.31,1.25,0,1.88c-1.25,0.31-2.5,1.09-3.75,2.34
			C817.15,61.88,812.93,75,807.3,85.31z M789.02,48.28h0.47c2.19,12.5,5.62,22.19,10.31,29.06c4.38-10.62,7.19-23.91,8.44-39.84
			h-13.59C793.09,41.25,791.21,44.84,789.02,48.28z"/>
		<path id="形状_00000155132937525712437300000007629840754740327595_" class="st0" d="M893.55,14.06v21.09h37.5V14.06H893.55z
			 M904.8,80.16v22.97h27.66V80.16H904.8z M893.09,110.62l0.47-30.47v-7.5c4.38,1.25,8.12,2.97,11.25,5.16h6.09
			c0-1.88,0-4.22,0-7.03c0.31-2.5,0.47-6.09,0.47-10.78h-15h-3.28c-2.19,21.25-10.16,38.91-23.91,52.97c-0.62,0.31-1.25,0.31-1.88,0
			c-0.31-0.31-0.31-0.78,0-1.41c9.69-12.5,14.38-33.12,14.06-61.88V16.41c-0.31-3.12-0.78-5.78-1.41-7.97
			c-0.31-1.87-0.31-2.97,0-3.28c3.12,0.94,7.66,2.97,13.59,6.09h36.09c0.31,0,1.09-0.78,2.34-2.34c0.94-1.56,1.72-2.5,2.34-2.81
			c0.62,0,1.25,0,1.88,0c3.75,1.88,7.5,4.37,11.25,7.5c0.31,0.31,0.31,0.78,0,1.41l-3.75,2.81l0.47,19.69
			c-6.56,6.25-10.94,6.41-13.12,0.47V37.5h-37.5v11.25c0,3.44-0.16,6.41-0.47,8.91h18.28c0-3.12,0-7.34,0-12.66
			c0-1.88,0-3.59,0-5.16c-0.31-0.31,0-0.78,0.94-1.41c4.38,0.94,8.75,2.19,13.12,3.75c0.62,1.25,0.78,2.03,0.47,2.34
			c-0.62,0.62-1.41,1.25-2.34,1.88c-0.62,0.31-0.94,0.47-0.94,0.47c-0.62,3.75-0.78,7.34-0.47,10.78h12.66
			c2.81-3.75,5.16-6.56,7.03-8.44c0,0,0.31,0,0.94,0c0.31,0,0.62,0,0.94,0c4.06,2.81,7.5,5.78,10.31,8.91
			c0.31,1.25,0.16,1.88-0.47,1.88h-31.41c0,5.94,0,11.88,0,17.81h8.91c1.25-1.88,2.66-3.59,4.22-5.16c0.31-0.31,0.78-0.47,1.41-0.47
			c1.88,1.25,4.84,3.28,8.91,6.09c0.62,0.62,1.41,1.09,2.34,1.41c0.31,0.31,0.31,0.78,0,1.41c-0.62,0.62-1.41,1.25-2.34,1.88
			c-0.62,0.31-0.94,0.47-0.94,0.47l0.94,25.78c-0.62,2.5-3.28,4.22-7.97,5.16c-3.44,0.31-5.16-0.94-5.16-3.75v-5.16H904.8v3.75
			c-0.62,2.5-2.97,4.22-7.03,5.16C894.34,114.69,892.77,113.44,893.09,110.62z M879.49,52.5c-1.88,1.25-3.75,2.34-5.62,3.28
			c-3.44,2.19-5.94,3.75-7.5,4.69l0.94,39.84c0.62,8.12-3.91,12.97-13.59,14.53c-1.25-0.62-1.88-1.09-1.88-1.41
			c-0.31-6.25-4.22-10.47-11.72-12.66c-1.25-0.62-1.09-1.41,0.47-2.34c10,1.56,14.84,0.62,14.53-2.81V67.97
			c-3.44,2.5-6.72,4.69-9.84,6.56c-1.25,0.94-1.88,0.94-1.88,0c-1.25-4.38-2.5-8.91-3.75-13.59c0-0.62,0.47-1.09,1.41-1.41
			c4.06-0.94,8.75-1.88,14.06-2.81V36.56h-4.69c-3.12,0-5.78,0-7.97,0l-2.34-3.28c1.25,0.31,2.5,0.47,3.75,0.47h11.25V8.91
			l-0.94-6.09l0,0c0,0.31,0.16,0.16,0.47-0.47c5.62,0.94,10.31,2.03,14.06,3.28c0.31,0.31,0.31,0.94,0,1.88
			c-0.31,0.31-1.25,0.78-2.81,1.41v24.84c0.31-0.31,0.78-0.78,1.41-1.41c1.88-2.5,3.28-4.06,4.22-4.69c0.31-0.31,0.78-0.31,1.41,0
			c1.56,1.56,4.22,3.91,7.97,7.03c0.31,0.94,0,1.56-0.94,1.88H865.9v4.69l0.47,13.12c4.06-1.25,8.28-2.34,12.66-3.28
			C879.65,51.72,879.8,52.19,879.49,52.5z"/>
		<path id="形状_00000052826982765562944470000001746136640923359105_" class="st0" d="M1008.4,90.94V71.25h-37.97
			c-0.62,0.31-3.28,0.47-7.97,0.47l-2.34-3.28c1.25,0.31,2.5,0.47,3.75,0.47h44.53V15h-31.88c-2.81,0.31-5.47,0.47-7.97,0.47
			l-2.34-3.28c1.25,0.31,2.66,0.47,4.22,0.47h73.59c0,0,0-0.16,0-0.47c3.75-5,6.41-8.12,7.97-9.38c0.31,0,0.78,0,1.41,0
			c7.81,4.69,12.34,8.12,13.59,10.31c0.31,1.25,0,1.88-0.94,1.88h-40.78c-0.31,1.56-1.25,2.81-2.81,3.75v50.16h30.47
			c0,0,0-0.16,0-0.47c3.75-5,6.41-8.12,7.97-9.38c0,0,0.47,0,1.41,0c7.81,4.69,12.34,8.12,13.59,10.31c0.31,1.25,0,1.88-0.94,1.88
			h-52.5v16.88c0,5.94,0,13.12,0,21.56c-0.31,1.56-2.34,2.81-6.09,3.75c-4.69,0.94-7.34,0.94-7.97,0
			c-0.62-1.56-0.78-5.78-0.47-12.66C1007.93,98.28,1008.09,95,1008.4,90.94z M976.05,30c12.5,4.06,19.53,10.47,21.09,19.22
			c0.31,5-1.72,8.59-6.09,10.78c-5,1.88-8.44,0.62-10.31-3.75c-0.94-0.94-1.09-3.28-0.47-7.03c0.62-7.5-0.94-13.44-4.69-17.81
			C974.96,31.09,975.12,30.62,976.05,30z M1046.84,28.12c2.81,1.56,7.97,4.38,15.47,8.44c0,0.31,0,0.78,0,1.41
			c-0.62,0.31-1.56,0.62-2.81,0.94s-2.03,0.47-2.34,0.47c-10.94,10-20,17.81-27.19,23.44c-0.94-0.31-1.25-0.62-0.94-0.94
			c6.56-11.88,11.72-23.12,15.47-33.75C1044.8,27.81,1045.59,27.81,1046.84,28.12z"/>
		<path id="形状_00000075140050945464441760000016731962235592071349_" class="st0" d="M1113.87,70.31v31.41h45.94V70.31H1113.87z
			 M1101.21,112.03V71.25c0-0.62-0.16-1.72-0.47-3.28c0-1.88,0-3.44,0-4.69c0-0.31,0.47-0.62,1.41-0.94
			c0.31,0.31,0.78,0.62,1.41,0.94c3.12,1.88,5.94,3.28,8.44,4.22h45.47c1.88-2.19,3.28-3.75,4.22-4.69c0.31-0.31,0.94-0.31,1.88,0
			c3.12,1.56,7.19,3.91,12.19,7.03c0.31,0.31,0.78,0.47,1.41,0.47c0,0.94,0.16,1.41,0.47,1.41c-0.62,0.62-1.56,1.25-2.81,1.88
			c-0.62,0.31-1.09,0.47-1.41,0.47l0.94,37.97c-8.75,4.69-13.59,4.69-14.53,0v-7.97h-45.94v6.56c-1.25,1.88-4.06,3.12-8.44,3.75
			C1102.62,114.69,1101.21,113.91,1101.21,112.03z M1104.96,41.25l63.75-4.22c-2.81-3.44-7.5-7.03-14.06-10.78
			c-0.94,0-1.41-0.47-1.41-1.41c0.31-0.62,1.09-0.94,2.34-0.94c12.5,1.88,22.34,5.62,29.53,11.25c6.56,6.56,7.19,12.97,1.88,19.22
			c-5.94,3.75-10.62,0.78-14.06-8.91c-0.31,0-0.62-0.31-0.94-0.94c-0.31-1.56-0.62-2.66-0.94-3.28c-3.12,0.62-6.09,1.25-8.91,1.88
			c-31.56,5.31-54.69,9.84-69.38,13.59c-1.25,0.62-1.88,0.31-1.88-0.94c-0.62-0.94-1.56-2.66-2.81-5.16
			c-2.19-4.69-3.44-7.66-3.75-8.91c-0.31-0.94-0.16-1.56,0.47-1.88c12.5-1.56,25.78-14.53,39.84-38.91
			c0.31-0.62,0.78-0.94,1.41-0.94c4.06,1.88,10.16,4.69,18.28,8.44c0.31,0.94,0.31,1.72,0,2.34c-1.56,0.62-2.97,1.09-4.22,1.41
			c-2.19,0.31-3.59,0.62-4.22,0.94C1121.52,27.5,1111.21,36.88,1104.96,41.25z"/>
	</g>
	<g id="Words" transform="translate(40, 240)">
		<path id="B" class="st1" d="M22,23h-2.81l0,0L5.62,23v-5.75h13.57v-3.83l-13.57,0V8.62h13.57V5.27l-13.57,0V0H22V23z M0,0h5.62v23
			H0V0z"/>
		<path id="E" class="st1" d="M62,0v5.27l-17.32,0v3.36h9.36v4.79l-9.36,0v3.83H62V23H40V0H62z"/>
		<path id="E_00000183241002437396398540000001610511148230602675_" class="st1" d="M102,0v5.27l-17.32,0v3.36h9.36v4.79l-9.36,0
			v3.83H102V23l-17.32,0L80,23V0H102z"/>
		<path id="B_00000141453703417262801570000010070465519175260812_" class="st2" d="M142,23h-2.81l0,0l-13.57,0v-5.75h13.57v-3.83
			l-13.57,0V8.62h13.57V5.27l-13.57,0V0H142V23z M120,0h5.62v23H120V0z"/>
		<path id="D" class="st2" d="M165.62,23v-5.75h13.57V5.27l-13.57,0V0H182v23H165.62z M160,0h5.62v23H160V0z"/>
	</g>
	<g id="Logo" transform="translate(35, 15)">
		<polygon id="六边形白边" class="st3" points="190,163.5 190,54.5 95,0 0,54.5 0,163.5 95,218 		"/>
		<polygon id="深色" class="st4" points="143.26,136.81 180.5,158.29 95,207.57 9.5,158.29 9.5,59.71 46.74,81.19 46.74,136.81 
			95,164.62 		"/>
		<polygon id="右下" class="st5" points="180.5,158.06 95,207.57 95,164.43 143.26,136.49 		"/>
		<polygon id="左下" class="st6" points="95,164.43 95,207.57 9.5,158.06 46.74,136.49 		"/>
		<polygon id="右" class="st6" points="180.5,59.71 180.5,158.29 143.45,136.81 143.45,81.19 		"/>
		<polygon id="左" class="st7" points="46.55,81.19 46.55,136.81 9.5,158.29 9.5,59.71 		"/>
		<polygon id="右上" class="st7" points="143.26,81.51 95,53.57 95,10.43 180.5,59.94 		"/>
		<polygon id="左上" class="st8" points="95,10.43 95,53.57 46.74,81.51 9.5,59.94 		"/>
		<g id="六边形">
			<polygon id="path-1_00000059273887200840990040000006125089445873300645_" class="st9" points="143.45,136.96 143.45,81.04 
				95,53.08 46.55,81.04 46.55,136.96 95,164.92 			"/>
		</g>
		<defs>
			<filter id="Adobe_OpacityMaskFilter" filterUnits="userSpaceOnUse" x="95" y="54.03" width="48.45" height="111.84">
				<feColorMatrix  type="matrix" values="1 0 0 0 0  0 1 0 0 0  0 0 1 0 0  0 0 0 1 0"/>
			</filter>
		</defs>
		
			<mask maskUnits="userSpaceOnUse" x="95" y="54.03" width="48.45" height="111.84" id="mask-2_00000079459605497847434610000006538142175012597182_">
			<g class="st10">
				<polygon id="path-1_00000038408300144489467180000011460486721360635279_" class="st11" points="143.45,136.96 143.45,81.04 
					95,53.08 46.55,81.04 46.55,136.96 95,164.92 				"/>
			</g>
		</mask>
		<polygon id="深色_00000067207319867124249600000017418954184137960894_" class="st12" points="143.45,137.91 143.45,81.99 
			95,54.03 95,165.87 		"/>
		<defs>
			
				<filter id="Adobe_OpacityMaskFilter_00000087398487888032856830000005120365434602182274_" filterUnits="userSpaceOnUse" x="70.3" y="86.25" width="49.4" height="79.62">
				<feColorMatrix  type="matrix" values="1 0 0 0 0  0 1 0 0 0  0 0 1 0 0  0 0 0 1 0"/>
			</filter>
		</defs>
		
			<mask maskUnits="userSpaceOnUse" x="70.3" y="86.25" width="49.4" height="79.62" id="mask-2_00000177475879996833435450000002376652449524726963_">
			<g style="filter:url(#Adobe_OpacityMaskFilter_00000087398487888032856830000005120365434602182274_);">
				<polygon id="path-1_00000128454613882521772380000005406099609321720469_" class="st11" points="143.45,136.96 143.45,81.04 
					95,53.08 46.55,81.04 46.55,136.96 95,164.92 				"/>
			</g>
		</mask>
		<path id="节能标志" class="st14" d="M87.59,162.61c-3.05-4.08-5.73-7.87-8.04-11.38c-6.7-9.9-9.39-19.31-9.24-28.54
			c0.1-6.35,1.68-12.64,4.8-18.85c2.23-4.45,5.68-8.27,9.22-11.82c4.27-4.28,7.8-5.76,10.59-5.76c2.52,0,7.13,2.34,11.42,6.43
			c4.1,3.92,7.81,9.84,9.77,13.93c1.97,4.09,3.26,8.53,3.52,13.2c0.22,3.96-0.04,5.94-0.54,9.92c-0.15,1.21-1.11,5.17-1.73,7.34
			c-0.5,1.72-1.53,4.93-3.1,9.62l-5.7-1.66c0.57-2.14,1.48-5.03,2.73-8.67c0.11-0.33,0.48-1.67,0.56-1.95
			c0.46-1.84,0.95-3.82,1.22-5.76c0.4-2.94,0.35-5.73,0.35-7.35c-0.07-2.92-0.71-6.84-2.13-10.42c-2.19-5.55-5.66-10.62-9.32-13.93
			c-2.56-2.32-4.98-3.16-7.04-2.99c-1.16,0.09-1.92,0.5-3.24,1.16c-2.97,1.29-7.07,5.62-9.89,11.48c-2.73,5.67-3.86,12.6-3.86,17.33
			c0,4.46,0.98,9.73,2.96,14.71c3.03,7.59,8.51,14.01,15.12,18.51c2.22,1.6,3.87,2.69,4.96,3.26c1.2,0.63,2.99,1.36,5.36,2.18
			L95,165.87L87.59,162.61z"/>
		<defs>
			
				<filter id="Adobe_OpacityMaskFilter_00000003789641035632857910000001679787636966073227_" filterUnits="userSpaceOnUse" x="95" y="86.25" width="24.7" height="60.66">
				<feColorMatrix  type="matrix" values="1 0 0 0 0  0 1 0 0 0  0 0 1 0 0  0 0 0 1 0"/>
			</filter>
		</defs>
		
			<mask maskUnits="userSpaceOnUse" x="95" y="86.25" width="24.7" height="60.66" id="mask-2_00000034808310854795375430000012427678316060759203_">
			<g style="filter:url(#Adobe_OpacityMaskFilter_00000003789641035632857910000001679787636966073227_);">
				<polygon id="path-1_00000069360948239170070090000004369500224951178155_" class="st11" points="143.45,136.96 143.45,81.04 
					95,53.08 46.55,81.04 46.55,136.96 95,164.92 				"/>
			</g>
		</mask>
		<path id="节能标志颜色" class="st16" d="M95.04,86.25l-0.04,0c2.51,0,7.1,2.34,11.38,6.45c4.09,3.93,7.78,9.88,9.74,13.98
			c1.96,4.1,3.25,8.56,3.51,13.25c0.22,3.98-0.04,5.96-0.54,9.96c-0.15,1.22-1.1,5.19-1.73,7.37c-0.5,1.73-1.53,4.94-3.09,9.66
			l-5.68-1.66c0.57-2.14,1.47-5.04,2.72-8.7c0.11-0.33,0.48-1.67,0.55-1.96c0.46-1.85,0.95-3.83,1.21-5.78
			c0.4-2.95,0.35-5.75,0.35-7.38c-0.07-2.93-0.71-6.86-2.12-10.46c-2.18-5.57-5.64-10.65-9.29-13.98c-2.54-2.32-4.94-3.16-6.98-3
			L95.04,86.25z"/>
	</g>
</g>
</svg>
