<?xml version="1.0" encoding="utf-8"?>
<!-- Generator: Adobe Illustrator 28.1.0, SVG Export Plug-In . SVG Version: 6.00 Build 0)  -->
<svg version="1.1" id="图层_1" xmlns="http://www.w3.org/2000/svg" xmlns:xlink="http://www.w3.org/1999/xlink" x="0px" y="0px"
	 viewBox="0 0 200 200" style="enable-background:new 0 0 200 200;" xml:space="preserve">
<style type="text/css">
	.st0{fill-rule:evenodd;clip-rule:evenodd;fill:url(#path-2_00000057141529162823386200000012023228589838750654_);}
	.st1{filter:url(#Adobe_OpacityMaskFilter);}
	.st2{fill-rule:evenodd;clip-rule:evenodd;fill:#FFFFFF;}
	.st3{mask:url(#mask-3_00000132058115552258674270000010390581197127074202_);}
	.st4{fill-rule:evenodd;clip-rule:evenodd;fill:#0091EA;}
	.st5{fill-rule:evenodd;clip-rule:evenodd;fill:#063C7C;}
	.st6{fill:#FFFFFF;}
	.st7{fill:#82D2FF;}
	.st8{fill:#0091EA;}
	.st9{fill:#00A7F7;}
	.st10{fill:#51B9F9;}
	.st11{fill:#83CAFA;}
	.st12{fill:#B0DBFA;}
	.st13{filter:url(#Adobe_OpacityMaskFilter_00000036236516831120453590000008750786444573138335_);}
	.st14{mask:url(#mask-5_00000000907907691811161700000005404503837050224534_);fill:#83CAFA;}
	.st15{filter:url(#Adobe_OpacityMaskFilter_00000104675609810526869060000002455083721656023195_);}
	.st16{mask:url(#mask-5_00000036235956642684394790000013963903374855387830_);fill:#FFFFFF;}
	.st17{filter:url(#Adobe_OpacityMaskFilter_00000032609267352501225720000004932015115989748917_);}
	.st18{mask:url(#mask-5_00000178181395852108310990000017888814184600653491_);fill:#BDF280;}
</style>
<g id="主页面">
	<g id="BEEFD方形图标" transform="translate(-50, -200)">
		<g id="原版" transform="translate(50, 200)">
			<g id="iconbase" transform="translate(100, 100) scale(-1, -1) translate(-100, -100)">
				
					<linearGradient id="path-2_00000144328775160040821770000013421329390821353918_" gradientUnits="userSpaceOnUse" x1="-862.795" y1="642.195" x2="-862.795" y2="643.195" gradientTransform="matrix(200 0 0 -200 172659 128639)">
					<stop  offset="0" style="stop-color:#FFFFFF"/>
					<stop  offset="1" style="stop-color:#D1EAFF"/>
				</linearGradient>
				
					<path id="path-2_00000052792324940894079160000018343264899419808662_" style="fill-rule:evenodd;clip-rule:evenodd;fill:url(#path-2_00000144328775160040821770000013421329390821353918_);" d="
					M68,0C45.83,0,38.75,0,28.75,3.33C16.97,7.5,7.5,16.97,3.33,28.75C0,38.75,0,45.83,0,68c0,42.67,0,64,0,64
					c0,22.17,0,29.25,3.33,39.25c4.17,11.78,13.63,21.25,25.42,25.42C38.75,200,45.83,200,68,200h64c22.17,0,29.25,0,39.25-3.33
					c11.78-4.17,21.25-13.63,25.42-25.42c3.33-10,3.33-17.08,3.33-39.25V68c0-22.17,0-29.25-3.33-39.25
					C192.5,17.08,182.9,7.5,171.23,3.33C161.23,0,154.17,0,132,0H68z"/>
			</g>
			<defs>
				<filter id="Adobe_OpacityMaskFilter" filterUnits="userSpaceOnUse" x="33" y="10" width="134.05" height="180">
					<feColorMatrix  type="matrix" values="1 0 0 0 0  0 1 0 0 0  0 0 1 0 0  0 0 0 1 0"/>
				</filter>
			</defs>
			
				<mask maskUnits="userSpaceOnUse" x="33" y="10" width="134.05" height="180" id="mask-3_00000132058115552258674270000010390581197127074202_">
				<g transform="translate(100, 100) scale(-1, -1) translate(-100, -100)" class="st1">
					<path id="path-2_00000017494270704237919260000016619104898549821113_" class="st2" d="M132,200c22.17,0,29.25,0,39.25-3.33
						c11.78-4.17,21.25-13.63,25.42-25.42c3.33-10,3.33-17.08,3.33-39.25c0-42.67,0-64,0-64c0-22.17,0-29.25-3.33-39.25
						c-4.17-11.78-13.63-21.25-25.42-25.42C161.25,0,154.17,0,132,0H68C45.83,0,38.75,0,28.75,3.33C16.97,7.5,7.5,16.97,3.33,28.75
						C0,38.75,0,45.83,0,68v64c0,22.17,0,29.25,3.33,39.25c4.17,11.67,13.77,21.25,25.43,25.42C38.77,200,45.83,200,68,200H132z"/>
				</g>
			</mask>
			<g id="Logo" class="st3">
				<g transform="translate(33, 10)">
					<g id="Words" transform="translate(6.0323, 164.8816)">
						<path id="B" class="st4" d="M3.78,15.12v-3.78l9.13,0V8.82l-9.13,0V5.67l9.13,0V3.46l-9.13,0V0H14.8v15.12H3.78z M0,0h3.78
							v15.12H0V0z"/>
						<path id="E" class="st4" d="M41.56,0v3.46l-11.61,0v2.21l6.28,0v3.15l-6.28,0v2.52l11.61,0v3.78H26.81V0H41.56z"/>
						<path id="E_00000053513291841136615640000001882708042313463993_" class="st4" d="M68.42,0v3.46l-11.65,0v2.21l6.3,0v3.15
							l-6.3,0v2.52l11.65,0v3.78h-14.8V0H68.42z"/>
						<path id="F" class="st5" d="M84.2096422,5.66941038 L95.2334957,5.66941038 L95.2334957,8.81908282 L84.2096422,8.81908282 Z M80.4300353,0 L84.2096422,0 L84.2096422,15.1184277 L80.4300353,15.1184277 Z M84.2096422,0 L95.2334957,0 L95.2334957,3.46463968 L84.2096422,3.46463968 Z"></path>
						<path id="D" class="st5" d="M111.02,15.12v-3.78l9.13,0V3.46l-9.13,0V0h11.02v15.12H111.02z M107.24,0h3.78v15.12h-3.78V0z"/>
					</g>
					<polygon id="六边形白边" class="st6" points="134.05,115.62 134.05,38.54 67.03,0 0,38.54 0,115.62 67.03,154.16 					"/>
					<polygon id="深色" class="st7" points="101.08,96.57 127.35,111.71 67.03,146.45 6.7,111.71 6.7,42.23 32.97,57.36 
						32.97,96.57 67.03,116.18 					"/>
					<polygon id="右下" class="st8" points="127.35,111.77 67.03,146.78 67.03,116.27 101.08,96.52 					"/>
					<polygon id="左下" class="st9" points="67.03,116.27 67.03,146.78 6.7,111.77 32.97,96.52 					"/>
					<polygon id="右" class="st9" points="127.35,42.23 127.35,111.93 101.21,96.75 101.21,57.41 					"/>
					<polygon id="左" class="st10" points="32.84,57.41 32.84,96.75 6.7,111.93 6.7,42.23 					"/>
					<polygon id="右上" class="st10" points="101.08,57.64 67.03,37.88 67.03,7.37 127.35,42.39 					"/>
					<polygon id="左上" class="st11" points="67.03,7.37 67.03,37.88 32.97,57.64 6.7,42.39 					"/>
					<g id="六边形">
						<polygon id="path-4_00000059299537150322105300000011012211139649180039_" class="st12" points="101.21,97.19 101.21,57.64 
							67.03,37.87 32.84,57.64 32.84,97.19 67.03,116.96 						"/>
					</g>
					<defs>
						
							<filter id="Adobe_OpacityMaskFilter_00000040567426917608469590000007231713347504367747_" filterUnits="userSpaceOnUse" x="67.03" y="37.87" width="34.18" height="78.75">
							<feColorMatrix  type="matrix" values="1 0 0 0 0  0 1 0 0 0  0 0 1 0 0  0 0 0 1 0"/>
						</filter>
					</defs>
					
						<mask maskUnits="userSpaceOnUse" x="67.03" y="37.87" width="34.18" height="78.75" id="mask-5_00000000907907691811161700000005404503837050224534_">
						<g style="filter:url(#Adobe_OpacityMaskFilter_00000040567426917608469590000007231713347504367747_);">
							<polygon id="path-4_00000169544197967394000180000005913526103856084393_" class="st2" points="101.21,97.19 101.21,57.64 
								67.03,37.87 32.84,57.64 32.84,97.19 67.03,116.96 							"/>
						</g>
					</mask>
					<polygon id="深色_00000151505954941558440400000012805182409883523217_" class="st14" points="101.21,96.93 101.21,57.56 
						67.03,37.87 67.03,116.62 					"/>
					<defs>
						
							<filter id="Adobe_OpacityMaskFilter_00000019653975082662749200000002071696735472074909_" filterUnits="userSpaceOnUse" x="49.65" y="60.7" width="34.82" height="56.26">
							<feColorMatrix  type="matrix" values="1 0 0 0 0  0 1 0 0 0  0 0 1 0 0  0 0 0 1 0"/>
						</filter>
					</defs>
					
						<mask maskUnits="userSpaceOnUse" x="49.65" y="60.7" width="34.82" height="56.26" id="mask-5_00000036235956642684394790000013963903374855387830_">
						<g style="filter:url(#Adobe_OpacityMaskFilter_00000019653975082662749200000002071696735472074909_);">
							<polygon id="path-4_00000168814063540538971610000003469792495075037063_" class="st2" points="101.21,97.19 101.21,57.64 
								67.03,37.87 32.84,57.64 32.84,97.19 67.03,116.96 							"/>
						</g>
					</mask>
					<path id="节能标志" class="st16" d="M61.84,114.65c-2.15-2.88-4.04-5.56-5.67-8.04c-4.72-7-6.62-13.65-6.51-20.17
						c0.07-4.49,1.18-8.93,3.38-13.32c1.57-3.14,4-5.84,6.5-8.35c3.01-3.02,5.5-4.07,7.47-4.07c1.77,0,5.02,1.65,8.05,4.54
						c2.89,2.77,5.51,6.95,6.89,9.84c1.39,2.89,2.3,6.03,2.48,9.33c0.15,2.8-0.03,4.2-0.38,7.01c-0.11,0.86-0.78,3.65-1.22,5.19
						c-0.35,1.21-1.08,3.48-2.18,6.8l-4.02-1.17c0.4-1.51,1.04-3.55,1.92-6.13c0.08-0.23,0.34-1.18,0.39-1.38
						c0.33-1.3,0.67-2.7,0.86-4.07c0.28-2.08,0.25-4.05,0.25-5.2c-0.05-2.06-0.5-4.83-1.5-7.36c-1.54-3.92-3.99-7.5-6.57-9.84
						c-1.81-1.64-3.51-2.23-4.96-2.11c-0.82,0.07-1.36,0.35-2.28,0.82c-2.09,0.91-4.98,3.97-6.97,8.11
						c-1.92,4.01-2.72,8.9-2.72,12.25c0,3.15,0.69,6.88,2.09,10.4c2.13,5.37,6,9.9,10.66,13.08c1.56,1.13,2.73,1.9,3.5,2.31
						c0.85,0.45,2.11,0.96,3.78,1.54l-7.99,2.31L61.84,114.65z"/>
					<defs>
						
							<filter id="Adobe_OpacityMaskFilter_00000025410558356385319880000003626257898150143914_" filterUnits="userSpaceOnUse" x="67" y="60.7" width="17.47" height="42.71">
							<feColorMatrix  type="matrix" values="1 0 0 0 0  0 1 0 0 0  0 0 1 0 0  0 0 0 1 0"/>
						</filter>
					</defs>
					
						<mask maskUnits="userSpaceOnUse" x="67" y="60.7" width="17.47" height="42.71" id="mask-5_00000178181395852108310990000017888814184600653491_">
						<g style="filter:url(#Adobe_OpacityMaskFilter_00000025410558356385319880000003626257898150143914_);">
							<polygon id="path-4_00000088110109891294938190000018099347790569530033_" class="st2" points="101.21,97.19 101.21,57.64 
								67.03,37.87 32.84,57.64 32.84,97.19 67.03,116.96 							"/>
						</g>
					</mask>
					<path id="节能标志颜色" class="st18" d="M67.02,60.7l-0.03,0c1.77,0,5.02,1.65,8.05,4.54c2.89,2.77,5.51,6.95,6.89,9.84
						c1.39,2.89,2.3,6.03,2.48,9.33c0.15,2.8-0.03,4.2-0.38,7.01c-0.11,0.86-0.78,3.65-1.22,5.19c-0.35,1.21-1.08,3.48-2.18,6.8
						l-4.02-1.17c0.4-1.51,1.04-3.55,1.92-6.13c0.08-0.23,0.34-1.18,0.39-1.38c0.33-1.3,0.67-2.7,0.86-4.07
						c0.21-1.56,0.25-3.06,0.25-4.19l0-0.78c0-0.08,0-0.15,0-0.22c-0.05-2.06-0.5-4.83-1.5-7.36c-1.54-3.92-3.99-7.5-6.57-9.84
						c-1.8-1.63-3.49-2.22-4.94-2.12L67.02,60.7z"/>
				</g>
			</g>
		</g>
	</g>
</g>
</svg>
