<?xml version="1.0" encoding="utf-8"?>
<!-- Generator: Adobe Illustrator 28.1.0, SVG Export Plug-In . SVG Version: 6.00 Build 0)  -->
<svg version="1.1" id="图层_1" xmlns="http://www.w3.org/2000/svg" xmlns:xlink="http://www.w3.org/1999/xlink" x="0px" y="0px"
	 viewBox="0 0 1500 285" style="enable-background:new 0 0 1500 285;" xml:space="preserve">
<style type="text/css">
	.st0{fill:#0091EA;stroke:#0091EA;stroke-width:3;}
	.st1{fill-rule:evenodd;clip-rule:evenodd;fill:#0091EA;}
	.st2{fill-rule:evenodd;clip-rule:evenodd;fill:#063C7C;}
	.st3{fill:#FFFFFF;}
	.st4{fill:#82D2FF;}
	.st5{fill:#0091EA;}
	.st6{fill:#00A7F7;}
	.st7{fill:#51B9F9;}
	.st8{fill:#83CAFA;}
	.st9{fill:#B0DBFA;}
	.st10{filter:url(#Adobe_OpacityMaskFilter);}
	.st11{fill-rule:evenodd;clip-rule:evenodd;fill:#FFFFFF;}
	.st12{mask:url(#mask-2_00000076568356338112172000000011879234831757933956_);fill:#83CAFA;}
	.st13{filter:url(#Adobe_OpacityMaskFilter_00000125589801296709233560000010816736257575422393_);}
	.st14{mask:url(#mask-2_00000172412419847966788590000009246759556466878380_);fill:#FFFFFF;}
	.st15{filter:url(#Adobe_OpacityMaskFilter_00000018940535240207090780000013287422665873951632_);}
	.st16{mask:url(#mask-2_00000145037975880392681550000003341942849238656907_);fill:#BDF280;}
</style>
<g id="BEEFD文字">
	<g id="建筑节能基础数据平台" transform="translate(267.8125, 81.75)">
		<path id="形状" class="st0" d="M72.19,50.62v15h12.66c1.88-3.12,4.06-5.78,6.56-7.97c-4.06,0.31-6.25-0.78-6.56-3.28v-3.75
			H72.19z M72.19,36.56v11.25h12.66V36.56H72.19z M72.19,21.56v12.66h12.66V21.56H72.19z M72.19,94.22
			c-0.31,1.88-2.34,3.28-6.09,4.22c-3.44,0.62-5.16,0-5.16-1.88V84.38H47.81c-2.81,0-5.31,0-7.5,0l-2.81-3.28
			c1.25,0,2.5,0.16,3.75,0.47h19.69V67.97H52.5c-2.19,0-4.53,0.16-7.03,0.47l-3.28-3.28c1.56,0,2.97,0.16,4.22,0.47h14.53v-15h-9.38
			c-2.81,0-5.31,0-7.5,0l-2.81-3.28c1.25,0,2.5,0.16,3.75,0.47h15.94V36.56H44.06c-0.31,0-2.81,0.16-7.5,0.47l-2.81-3.28
			c1.25,0,2.5,0.16,3.75,0.47h23.44V21.56H50.16l-6.56,0.47l-2.34-3.28c1.25,0,2.5,0.16,3.75,0.47h15.94V2.81
			c0.62,0,2.19,0.16,4.69,0.47c4.69,0.31,7.5,0.62,8.44,0.94c1.25,0.62,1.25,1.41,0,2.34c-0.62,0.94-1.25,1.41-1.88,1.41v11.25
			h11.25c0.62-0.62,1.41-1.72,2.34-3.28c1.25-1.25,2.03-1.88,2.34-1.88c4.06,0.62,8.12,2.97,12.19,7.03c0,0.62-0.62,1.41-1.88,2.34
			c-0.62,0.62-0.94,0.94-0.94,0.94v9.84h2.34c3.12-4.06,5.16-6.41,6.09-7.03c0.62-0.31,1.09-0.47,1.41-0.47
			c4.06,3.12,6.88,5.94,8.44,8.44c0,0.94-0.31,1.41-0.94,1.41H97.5v17.81c0,0.62-1.25,1.56-3.75,2.81c4.06,2.5,7.5,5.47,10.31,8.91
			c0.31,0.94,0.16,1.56-0.47,1.88H72.19v13.59h16.41c2.81-3.75,5.16-6.56,7.03-8.44c0.62,0,1.09,0,1.41,0
			c4.69,3.12,8.28,6.25,10.78,9.38c0.31,0.94,0.16,1.56-0.47,1.88H72.19V94.22z M113.91,99.38c-4.38,2.19-6.56,6.41-6.56,12.66
			c0,0.94-0.31,1.41-0.94,1.41c-0.31,0-0.62,0.16-0.94,0.47c-1.56,0.62-3.12,0.94-4.69,0.94H81.56c-26.25,0-45-5.62-56.25-16.88
			c-6.56,7.19-14.53,12.66-23.91,16.41c-0.62,0.31-1.09,0.16-1.41-0.47c0-0.31,0.31-0.62,0.94-0.94c8.12-5,14.38-12.34,18.75-22.03
			c-5.31-7.19-9.53-17.97-12.66-32.34c0.31-0.94,0.94-1.09,1.88-0.47c3.44,10.62,8.12,19.22,14.06,25.78
			c3.12-9.38,4.53-19.22,4.22-29.53h-8.91c-0.94,0.94-2.34,1.72-4.22,2.34c-0.31,0.31-0.78,0.31-1.41,0c-0.31,0-0.47,0-0.47,0
			c-3.75-2.81-6.56-5.16-8.44-7.03c-0.31-0.62-0.31-1.25,0-1.88c0.94-0.62,2.5-1.41,4.69-2.34l12.19-30h-9.38
			c-2.19,0-4.53,0.16-7.03,0.47l-3.28-3.28c1.56,0,2.97,0.16,4.22,0.47h15.47c0.94-1.56,1.72-3.12,2.34-4.69
			c0.31,0,0.62-0.16,0.94-0.47c0.62,0,0.94,0,0.94,0c2.19,0.62,5.31,2.19,9.38,4.69c1.25,0.62,2.03,1.09,2.34,1.41
			c0.62,0.62,0.62,1.41,0,2.34c-2.19,1.25-3.59,2.19-4.22,2.81L18.28,51.56h7.5c1.56-1.56,3.28-3.12,5.16-4.69
			c0.31-0.31,0.78-0.31,1.41,0c0.31,0,0.62,0,0.94,0c1.88,0.62,4.69,2.5,8.44,5.62c0.62,0.62,0.62,1.41,0,2.34
			c-0.31,0.31-0.78,0.78-1.41,1.41c-0.94,1.25-1.56,2.19-1.88,2.81C37.5,71.56,34.69,82.03,30,90.47
			c9.69,7.19,22.97,10.78,39.84,10.78h18.75c7.81,0,16.09-1.09,24.84-3.28C114.38,98.28,114.53,98.75,113.91,99.38z"/>
		<path id="形状_00000008838589629116119650000008307953956256339352_" class="st0" d="M201.56,19.22
			c4.06,1.56,6.72,3.91,7.97,7.03c0.94,3.75-0.62,6.41-4.69,7.97c4.69,1.56,8.44,3.91,11.25,7.03c0,0.62-0.94,1.72-2.81,3.28
			c-0.62,0.62-0.94,0.94-0.94,0.94v7.5c0.31,2.19,1.41,3.44,3.28,3.75c5.31,0.62,8.75-4.06,10.31-14.06
			c0.62-0.94,1.25-0.78,1.88,0.47c-0.94,5.31-0.31,9.69,1.88,13.12c0.94,1.88,1.41,3.28,1.41,4.22c-0.94,3.75-4.38,5.78-10.31,6.09
			h-13.59c-3.75-0.31-5.78-2.81-6.09-7.5V41.72h-12.66c0.62,1.25,0.62,2.81,0,4.69c5.31,1.25,8.91,3.91,10.78,7.97
			c1.25,3.44,0.16,5.94-3.28,7.5c-3.75,1.56-6.25,0.78-7.5-2.34c0-0.62,0-1.56,0-2.81c0.62-3.12,0.47-5.62-0.47-7.5
			c-1.56,6.56-5.94,12.03-13.12,16.41c4.06,0.94,7.03,2.03,8.91,3.28c0.62,0.31,0.62,0.94,0,1.88c-0.31,0.62-0.94,1.25-1.88,1.88
			c0.94-0.62,0.62-0.47-0.94,0.47v4.69h30c0.62-0.62,1.88-2.19,3.75-4.69c1.56-1.88,2.66-3.12,3.28-3.75c0.62,0,1.25,0,1.88,0
			c4.69,3.44,8.12,6.56,10.31,9.38c0.62,0.94,0.47,1.56-0.47,1.88h-44.06c12.81,12.19,28.28,18.75,46.41,19.69
			c0.62,0.31,0.78,0.62,0.47,0.94c-6.25,2.5-9.84,6.09-10.78,10.78c0,0-0.16,0.16-0.47,0.47c-0.62,0.94-1.25,1.25-1.88,0.94
			c-16.88-5.31-29.22-16.25-37.03-32.81h-1.41v34.22c-1.25,1.56-3.75,2.34-7.5,2.34c-2.5-0.31-3.75-1.56-3.75-3.75V86.72
			c-17.19,11.56-33.75,20.47-49.69,26.72c-0.94-0.62-1.09-1.25-0.47-1.88c13.44-6.88,25.31-17.19,35.62-30.94h-23.91
			c-2.5,0-5,0-7.5,0l-2.81-3.28c1.56,0,2.97,0.16,4.22,0.47h44.53v-4.69v-5.16c-2.19,0.94-4.53,1.72-7.03,2.34
			c-0.94-0.31-1.09-0.78-0.47-1.41c10.94-5,15.94-16.41,15-34.22c0-0.62,0.47-0.94,1.41-0.94c1.56,0.94,4.84,2.81,9.84,5.62h11.25
			c2.5-3.12,4.06-4.84,4.69-5.16c-3.12,0.94-5-0.16-5.62-3.28c-0.31-0.62-0.31-1.72,0-3.28c0.62-2.81-0.31-5.62-2.81-8.44h-7.5
			c-4.69,5.62-10.94,10.78-18.75,15.47c0.62,0.62,1.41,1.56,2.34,2.81c1.25,1.56,2.03,2.5,2.34,2.81c0,0.94-0.31,1.41-0.94,1.41
			h-16.41c0.31,0.31,0,0.78-0.94,1.41c-0.31,0.31-0.78,0.78-1.41,1.41c-0.94,0.31-1.41,0.62-1.41,0.94v10.31
			c2.19-0.31,5.47-0.62,9.84-0.94c3.44-0.62,6.09-0.94,7.97-0.94c0.62,0.31,0.78,0.62,0.47,0.94c-12.81,5-26.56,11.09-41.25,18.28
			c-1.25,0-1.88-0.16-1.88-0.47c-0.94-4.06-2.19-8.59-3.75-13.59c0-0.62,0.47-0.94,1.41-0.94c1.88-0.31,4.53-0.62,7.97-0.94
			c3.75-0.31,6.41-0.47,7.97-0.47v-15h-5.62c-2.5,0-5.16,0.16-7.97,0.47l-2.34-3.28c1.56,0,2.97,0.16,4.22,0.47h28.12
			c1.25-2.19,3.28-4.69,6.09-7.5c0.62,0,1.09,0,1.41,0c0,0,0.31,0.16,0.94,0.47c0.62,0.62,1.09,1.09,1.41,1.41
			c7.19-7.81,12.34-18.28,15.47-31.41c0-0.62,0.47-0.94,1.41-0.94c5,1.25,9.84,2.97,14.53,5.16c0,0.62,0,1.25,0,1.88
			c-1.56,0.31-2.81,0.78-3.75,1.41c-0.62,0.94-1.56,2.03-2.81,3.28c-0.94,1.56-1.72,2.81-2.34,3.75h23.91
			c1.56-2.19,3.91-5,7.03-8.44c0.62-0.62,1.25-0.62,1.88,0c4.06,2.5,7.5,5.47,10.31,8.91c0.62,0.94,0.47,1.56-0.47,1.88H201.56z
			 M153.28,19.22c3.44,1.25,5.94,3.59,7.5,7.03c1.25,3.44,0.16,5.94-3.28,7.5c-3.75,1.56-6.25,0.78-7.5-2.34
			c-0.31-0.62-0.31-1.72,0-3.28c0.62-3.75,0.16-6.72-1.41-8.91h-5.62c-5,5.94-11.88,11.88-20.62,17.81c-0.62,0-0.94-0.31-0.94-0.94
			c7.19-8.75,12.5-19.84,15.94-33.28c0.31-0.94,0.94-1.25,1.88-0.94c2.81,0.62,7.66,2.19,14.53,4.69c0.31,0,0.31,0.62,0,1.88
			c0,0.31,0,0.47,0,0.47c-0.31,0-0.62,0.16-0.94,0.47c-1.56,0.62-2.5,1.09-2.81,1.41c-0.94,0.94-2.03,2.34-3.28,4.22
			c-0.62,0.94-1.09,1.56-1.41,1.88h15.47c0.31-0.31,0.62-0.78,0.94-1.41c2.81-3.44,4.69-5.47,5.62-6.09c0.31,0,0.62,0,0.94,0
			c4.06,3.12,6.88,5.94,8.44,8.44c0.31,0.62,0,1.09-0.94,1.41H153.28z"/>
		<path id="形状_00000179631203879031432660000017342037934747443361_" class="st0" d="M252.19,93.75V45.47l-0.47-10.78
			c0.31-0.31,0.47-0.47,0.47-0.47c6.56,1.88,11.25,3.75,14.06,5.62c0.31,0,0.31,0.47,0,1.41c0,0.31,0,0.47,0,0.47h13.59
			c1.25-1.88,2.81-3.44,4.69-4.69c0.62-0.62,1.41-0.62,2.34,0c2.19,0.94,5,2.66,8.44,5.16c0.62,0.94,0.78,1.72,0.47,2.34
			c0,0-0.16,0.16-0.47,0.47c-0.62,0.94-1.09,1.41-1.41,1.41l0.94,31.88c-0.31,2.19-2.5,3.75-6.56,4.69
			c-3.44,0.94-5.31,0.31-5.62-1.88v-5.62h-19.22v21.09c5.62-1.56,11.09-2.97,16.41-4.22c-0.94-2.5-2.81-5.16-5.62-7.97
			c-0.31-0.62-0.16-1.09,0.47-1.41c11.25,3.12,18.12,8.12,20.62,15c1.25,3.75,0.47,6.88-2.34,9.38c-3.44,2.5-6.41,2.19-8.91-0.94
			c-0.62-0.94-1.09-2.66-1.41-5.16c-0.31-1.88-0.62-3.59-0.94-5.16c-10.31,5.62-18.28,11.25-23.91,16.88
			c-0.94,0.62-1.72,0.62-2.34,0c-2.81-4.06-5.16-7.81-7.03-11.25c-0.62-0.62-0.47-1.09,0.47-1.41
			C251.09,98.44,252.19,96.25,252.19,93.75z M333.75,88.12V44.06h-17.34v67.03c-3.44,4.06-7.34,5-11.72,2.81
			c-0.31-1.25-0.31-3.28,0-6.09c0.31-4.38,0.47-8.12,0.47-11.25V46.41l-0.94-10.31c0-0.62,0.31-0.78,0.94-0.47
			c5,1.56,9.69,3.28,14.06,5.16c0,0.31,0,0.62,0,0.94h13.59c2.19-3.44,3.75-5.16,4.69-5.16c3.12,0.62,7.19,2.81,12.19,6.56
			c0,0.94-0.78,1.88-2.34,2.81c-0.62,0.31-0.94,0.47-0.94,0.47v45.47c0,5.31-5,8.28-15,8.91c-0.94,0-1.41-0.31-1.41-0.94
			c-1.88-5.62-5.16-9.22-9.84-10.78c-0.31,0-0.47-0.31-0.47-0.94c0-0.31,0.16-0.47,0.47-0.47C327.97,89.84,332.5,90,333.75,88.12z
			 M298.59,18.75h-24.84c5.62,2.5,8.91,5.62,9.84,9.38c-1.56,8.12-5.47,10.16-11.72,6.09c-0.62-0.94-0.78-2.5-0.47-4.69
			c0-4.06-0.78-7.66-2.34-10.78h-3.28c-7.19,8.44-15.31,15.47-24.38,21.09c-0.62,0-0.94-0.31-0.94-0.94
			c9.06-10.94,15.78-23.59,20.16-37.97c0.31-0.31,1.09-0.47,2.34-0.47c3.75,1.25,8.44,3.12,14.06,5.62
			c0.31,0.31,0.47,0.94,0.47,1.88c-0.31,0.31-0.94,0.47-1.88,0.47c-1.25,0.31-2.03,0.78-2.34,1.41s-0.94,1.41-1.88,2.34
			c-0.31,0.94-1.41,2.34-3.28,4.22h11.72c3.12-4.06,5.62-6.88,7.5-8.44c0-0.31,0.31-0.31,0.94,0c0.31,0,0.47,0,0.47,0
			c3.75,1.88,7.19,4.84,10.31,8.91C300,17.81,299.84,18.44,298.59,18.75z M314.53,16.41h22.03c1.88-3.12,4.22-5.94,7.03-8.44
			c0.31-0.31,0.62-0.31,0.94,0c0.31,0,0.47,0,0.47,0c4.38,2.19,7.97,5.16,10.78,8.91c0.31,0.94,0.16,1.56-0.47,1.88h-30.94
			c5.62,2.5,8.44,5.62,8.44,9.38c-1.56,8.12-5.47,10-11.72,5.62c-0.62-0.94-0.94-2.66-0.94-5.16c0-4.06-0.94-7.34-2.81-9.84h-1.88
			l-3.28,0.47c-6.88,7.5-13.28,13.12-19.22,16.88c-0.94,0.31-1.25,0-0.94-0.94c6.88-10,12.34-21.41,16.41-34.22
			c0-0.62,0.47-0.94,1.41-0.94c6.56,2.5,11.25,4.69,14.06,6.56c0.62,0.31,0.62,0.78,0,1.41c-0.31,0-1.41,0.47-3.28,1.41
			c-0.62,0.62-1.56,1.72-2.81,3.28C316.25,14.22,315.16,15.47,314.53,16.41z M263.44,59.06v14.06h19.22V59.06H263.44z M263.44,44.06
			v12.66h19.22V44.06H263.44z"/>
		<path id="形状_00000007395897719444625550000017910257679990479287_" class="st0" d="M381.09,69.38v13.59h18.75V69.38H381.09z
			 M381.09,52.97v13.59h18.75V52.97H381.09z M381.09,110.16c0,1.56-1.72,2.81-5.16,3.75c-3.75,0.94-5.94,0.78-6.56-0.47
			c-0.31-1.25-0.31-3.75,0-7.5c0.31-3.12,0.47-5.47,0.47-7.03V56.72l-0.47-10.78c0-0.62,0.16-0.78,0.47-0.47
			c4.06,1.25,7.81,2.97,11.25,5.16h15c1.25-1.88,2.81-3.44,4.69-4.69c0.94-0.31,1.56-0.47,1.88-0.47c1.88,0.62,5,2.34,9.38,5.16
			c0.94,0.31,1.56,0.62,1.88,0.94c0.62,0,0.78,0.62,0.47,1.88c-0.94,0.94-2.03,2.03-3.28,3.28l0.94,50.62
			c0,4.38-4.22,7.03-12.66,7.97c-0.62,0.31-1.09,0-1.41-0.94c-0.62-5.62-4.22-9.53-10.78-11.72c-0.62-0.94-0.47-1.41,0.47-1.41
			c8.12,0.62,12.19,0.47,12.19-0.47V85.31h-18.75V110.16z M398.44,17.81c10.62,1.56,17.19,5.78,19.69,12.66
			c0.94,4.69-0.31,8.28-3.75,10.78c-4.38,2.19-7.66,1.41-9.84-2.34c-0.31-0.94-0.62-2.34-0.94-4.22c-0.31-0.94-0.47-1.72-0.47-2.34
			c-14.38,3.44-26.09,6.88-35.16,10.31c-1.25,0.62-2.03,0.31-2.34-0.94c-0.31-0.94-0.94-2.5-1.88-4.69
			c-1.25-3.12-2.03-5.16-2.34-6.09s0-1.56,0.94-1.88c8.44-2.19,14.53-10.94,18.28-26.25c0.31-0.94,1.09-1.25,2.34-0.94
			c8.12,2.5,13.59,4.22,16.41,5.16c0.31,0,0.47,0.47,0.47,1.41c-0.62,0.31-1.41,0.62-2.34,0.94c-1.25,0.62-2.19,1.09-2.81,1.41
			l-18.75,18.28c10.94,0.94,20,1.41,27.19,1.41c-0.31-5.31-2.03-9.22-5.16-11.72C397.34,18.44,397.5,18.12,398.44,17.81z
			 M455.16,9.38c0.62,0.62,2.66,2.19,6.09,4.69c3.12,2.81,5,4.53,5.62,5.16c0.31,0,0.47,0.47,0.47,1.41c-2.81,0-4.69,0.16-5.62,0.47
			c-3.75,0.94-9.53,2.5-17.34,4.69c-5,1.25-8.59,2.19-10.78,2.81v7.03c-0.31,4.06,2.19,6.09,7.5,6.09h7.97
			c10.94,1.25,17.34-4.22,19.22-16.41c0.62-0.62,1.09-0.62,1.41,0c-1.25,6.25-0.94,10.94,0.94,14.06c0.94,1.88,1.41,3.44,1.41,4.69
			c-0.31,5.62-6.56,8.59-18.75,8.91h-15c-10.94,0.31-16.25-3.44-15.94-11.25V10.31l-0.47-7.03c0-0.31,0.31-0.47,0.94-0.47
			c5,0.31,9.53,1.56,13.59,3.75c0.62,0,0.62,0.62,0,1.88c-0.31,0.31-0.78,0.62-1.41,0.94s-1.09,0.62-1.41,0.94v15.47
			c7.81-5.31,14.38-10.78,19.69-16.41C453.59,9.38,454.22,9.38,455.16,9.38z M470.62,72.19c-0.62,0-1.56,0-2.81,0
			s-2.19,0.16-2.81,0.47l-29.06,9.84v11.72c-0.31,4.38,2.19,6.41,7.5,6.09h8.91c8.12,0.94,14.06-4.84,17.81-17.34
			c0.62-0.94,0.94-0.94,0.94,0c-1.88,6.88-1.41,12.5,1.41,16.88c0.62,0.62,0.94,1.09,0.94,1.41c-0.94,5.94-5.94,9.22-15,9.84h-16.41
			c-11.56,0-17.34-3.91-17.34-11.72V55.31c0.31,0,0.94,0,1.88,0c6.88,0.94,10.94,1.88,12.19,2.81c0.62,0.31,0.62,1.09,0,2.34
			s-1.56,2.03-2.81,2.34v17.34c9.06-8.75,15.62-15.62,19.69-20.62c0,0,0.16,0,0.47,0c0.62-0.31,1.09-0.31,1.41,0
			s0.78,0.62,1.41,0.94c6.56,5.31,10.47,8.59,11.72,9.84C471.25,71.25,471.25,71.88,470.62,72.19z"/>
		<path id="形状_00000114052311166131834550000002587999916639915664_" class="st0" d="M548.44,35.16V24.38h-27.66v10.78H548.44z
			 M548.44,48.28V37.5h-27.66v10.78H548.44z M548.44,61.41V50.62h-27.66v10.78H548.44z M555.47,63.75
			c8.12,11.56,20.94,17.5,38.44,17.81c0.62,0.31,0.78,0.78,0.47,1.41c-5.62,2.81-9.38,6.72-11.25,11.72c0,0-0.16,0-0.47,0
			c-0.31,0.31-0.62,0.47-0.94,0.47c-14.38-5.62-23.75-16.09-28.12-31.41h-30.94c1.25,0.94,2.34,1.56,3.28,1.88
			c0,0.62-0.16,1.25-0.47,1.88l-4.22,1.88c-9.38,12.5-23.28,22.97-41.72,31.41c-0.31,0.31-0.62-0.16-0.94-1.41
			c13.12-9.06,22.97-20.94,29.53-35.62h-19.22c-2.5,0-5.16,0.16-7.97,0.47l-2.34-3.28c1.56,0,2.97,0.16,4.22,0.47h26.72V24.38
			h-15.47c-2.81,0-5.47,0-7.97,0l-2.34-3.28c1.25,0,2.5,0.16,3.75,0.47h22.03V10.31l-0.47-6.09c0,0.31,0.16,0.16,0.47-0.47
			c0.62,0,1.56,0.16,2.81,0.47c5.94,0.31,9.84,0.78,11.72,1.41c0.62,0.62,0.62,1.25,0,1.88c-0.62,1.56-1.72,2.5-3.28,2.81v11.25
			h27.66V10.31l-0.47-6.09c0,0.31,0.16,0.16,0.47-0.47c0.62,0,1.41,0,2.34,0c5.94,0.62,10,1.25,12.19,1.88
			c0.62,0.62,0.62,1.25,0,1.88c-0.94,1.25-2.03,2.19-3.28,2.81v11.25h8.91c2.81-3.75,5.16-6.56,7.03-8.44c0.62,0,1.09,0,1.41,0
			c4.69,3.12,8.28,6.25,10.78,9.38c0.31,0.94,0.16,1.56-0.47,1.88h-27.66v37.03h13.59c0.62-0.62,1.56-1.72,2.81-3.28
			c2.5-2.81,4.06-4.53,4.69-5.16c0.31-0.62,0.78-0.62,1.41,0c4.38,1.88,8.44,4.84,12.19,8.91c0.31,0.62,0.47,1.09,0.47,1.41
			c-0.31,0.31-0.78,0.47-1.41,0.47H555.47z M529.69,109.69V91.88h-13.12c-2.81,0-5.47,0-7.97,0l-2.34-3.28
			c1.25,0,2.5,0.16,3.75,0.47h19.69V73.12l-0.47-6.09c0.31-0.31,0.47-0.47,0.47-0.47c6.25,0,11.09,0.62,14.53,1.88
			c0.62,0,0.62,0.62,0,1.88c-1.25,1.25-2.34,2.19-3.28,2.81v15.94h9.84c0.62-0.62,1.41-1.56,2.34-2.81
			c2.19-2.19,3.59-3.59,4.22-4.22c0.31-0.62,0.62-0.62,0.94,0c4.69,3.44,7.5,6.25,8.44,8.44c0.31,0.31,0,0.78-0.94,1.41h-24.84
			v17.81h21.09c3.12-4.06,5.62-6.88,7.5-8.44c0,0,0.31,0,0.94,0c0.31,0,0.47,0,0.47,0c3.75,1.88,7.19,4.84,10.31,8.91
			c0.94,1.25,0.78,1.88-0.47,1.88h-82.97c-0.31,0-2.97,0.16-7.97,0.47l-2.34-3.28c1.25,0.31,2.5,0.47,3.75,0.47H529.69z"/>
		<path id="形状_00000084526800645457203870000005911819815915517572_" class="st0" d="M655.31,82.97
			c3.44,5.62,8.28,10,14.53,13.12V58.12H652.5c-2.5,0-5,0-7.5,0l-2.81-3.28c1.56,0,2.97,0.16,4.22,0.47h48.28
			c0.62-1.56,1.56-2.97,2.81-4.22c0.31-0.31,1.09-0.47,2.34-0.47c5.62,2.5,10,5.31,13.12,8.44c1.25,2.19,0.62,3.44-1.88,3.75
			c0,0-0.16,0-0.47,0c-2.5-0.62-5-0.47-7.5,0.47c-2.5,1.25-5.78,3.44-9.84,6.56c-0.62,0.31-0.94,0.47-0.94,0.47
			c-1.25,0.31-1.72-0.16-1.41-1.41c0.94-2.5,2.81-6.09,5.62-10.78h-13.59c-0.31,0.94-1.41,2.19-3.28,3.75v15h11.25
			c1.88-2.81,3.59-5,5.16-6.56c0.62-0.62,1.09-0.62,1.41,0c2.81,1.88,5.47,4.22,7.97,7.03c0.62,0.94,0.31,1.56-0.94,1.88h-24.84
			v20.62c11.25,1.88,22.5,1.41,33.75-1.41c0.94,0.31,1.09,0.94,0.47,1.88c-3.75,2.19-6.56,6.56-8.44,13.12
			c-0.31,0-0.78,0.16-1.41,0.47c-27.81,0-44.53-9.38-50.16-28.12c-6.25,11.88-14.53,22.03-24.84,30.47c-1.25,0-1.88-0.62-1.88-1.88
			c10.31-13.12,17.03-29.06,20.16-47.81c0-0.62,0.47-0.94,1.41-0.94c5.31,0.62,10.16,1.88,14.53,3.75c0.94,0.62,0.94,1.41,0,2.34
			c-0.62,0.62-1.41,1.25-2.34,1.88c-0.94,0.31-1.56,0.62-1.88,0.94C658.12,77.34,656.88,80.16,655.31,82.97z M625.78,85.31V52.97
			h-6.56c-0.31,0.31-0.94,0.78-1.88,1.41v30.94H625.78z M598.59,70.31c2.81-5.62,5.47-12.97,7.97-22.03v-2.34
			c0-0.31,0.16-0.47,0.47-0.47h0.47c2.5-10.62,4.06-19.38,4.69-26.25h-0.94c-2.5,0-5,0.16-7.5,0.47l-2.81-3.28
			c1.56,0,2.97,0.16,4.22,0.47h22.03c1.25-2.19,3.28-4.69,6.09-7.5c0.62,0,1.09,0,1.41,0c4.06,3.12,6.88,5.94,8.44,8.44
			c0,0.94-0.31,1.41-0.94,1.41h-14.06c0.94,0.94-0.16,2.34-3.28,4.22c-2.81,8.44-6.09,16.56-9.84,24.38
			c0.62,0.31,1.56,0.78,2.81,1.41c1.25,0.31,2.19,0.62,2.81,0.94c0,0,0,0.16,0,0.47h2.81c1.56-2.5,2.97-3.91,4.22-4.22
			c4.38,0.94,8.12,3.28,11.25,7.03c0,0.31-0.62,1.09-1.88,2.34c-0.62,0.62-0.94,0.94-0.94,0.94v38.91c-5.31,3.44-8.75,3.44-10.31,0
			v-7.5h-8.44v12.19c-5.31,3.12-8.75,3.12-10.31,0V61.88c-1.88,3.12-4.06,6.41-6.56,9.84C599.22,71.72,598.59,71.25,598.59,70.31z
			 M700.78,41.25h-0.47c-1.56-4.38-3.91-7.81-7.03-10.31v19.69c-5,3.44-8.28,3.44-9.84,0V38.91c-4.38,3.44-10,7.03-16.88,10.78
			c-0.62,0-0.78-0.31-0.47-0.94c7.81-8.44,13.59-16.25,17.34-23.44v-0.94h-2.34l-2.34-3.28c1.25,0,2.5,0.16,3.75,0.47h0.94V1.88
			c4.69,0.31,8.91,1.25,12.66,2.81c0.31,0,0.47,0.47,0.47,1.41c-0.62,0.94-1.72,1.56-3.28,1.88v13.59h5.16
			c0.31-0.31,1.25-1.41,2.81-3.28c1.25-1.56,2.03-2.5,2.34-2.81c0.62-0.62,1.09-0.62,1.41,0c2.81,1.88,5.47,4.22,7.97,7.03
			c0.62,0.94,0.31,1.56-0.94,1.88h-18.75v4.22c9.38,0.31,15.16,2.81,17.34,7.5c1.56,3.44,0.94,6.09-1.88,7.97
			C705.31,45.62,702.66,44.69,700.78,41.25z M666.56,36.09c-0.62-0.62-1.09-1.41-1.41-2.34c-0.31-1.25-1.25-2.66-2.81-4.22v21.09
			c-5.31,3.44-8.75,3.44-10.31,0V37.97c-4.06,4.06-9.69,7.5-16.88,10.31c-0.62-0.31-0.78-0.78-0.47-1.41
			c5.62-4.69,10.94-12.19,15.94-22.5h-7.03l-2.34-3.28c1.25,0,2.5,0.16,3.75,0.47h7.03V1.88c5,0.31,9.22,1.25,12.66,2.81
			c0.31,0,0.47,0.47,0.47,1.41c-0.31,0.62-1.09,1.09-2.34,1.41c-0.31,0.31-0.47,0.47-0.47,0.47v13.59h3.75
			c1.25-2.5,2.66-4.06,4.22-4.69c0-0.62,0.31-0.62,0.94,0c4.06,2.81,6.41,4.69,7.03,5.62c0.31,0.94,0,1.56-0.94,1.88h-15v2.34
			c5.94,0,9.84,1.41,11.72,4.22c1.56,2.5,1.25,4.69-0.94,6.56C670.62,39.06,668.44,38.59,666.56,36.09z"/>
		<path id="形状_00000001637225409274584450000005650740106510655654_" class="st0" d="M738.28,29.06v10.31h8.91V29.06H738.28z
			 M747.19,52.97h-7.97c-0.31,0.31-0.94,0.78-1.88,1.41v8.44h9.84V52.97z M769.69,62.81v-9.84h-11.25v9.84H769.69z M747.19,17.81
			h-6.56c-0.62,0.31-1.41,0.78-2.34,1.41v7.5h8.91V17.81z M768.28,26.72v-8.91h-9.84v8.91H768.28z M768.28,39.38V29.06h-9.84v10.31
			H768.28z M756.09,90.47c3.12-3.44,5.62-7.19,7.5-11.25l-14.06,0.47l-8.44,11.72C745.78,90.78,750.78,90.47,756.09,90.47z
			 M763.59,76.88c1.25-1.88,2.34-3.12,3.28-3.75c0.62-0.62,1.41-0.62,2.34,0c5,2.5,8.59,4.53,10.78,6.09c0,0.62,0,1.09,0,1.41
			c-0.62,0.31-1.25,0.47-1.88,0.47c-1.25,0.31-2.19,0.94-2.81,1.88c-1.88,3.12-4.06,6.09-6.56,8.91c2.5,0.62,4.69,1.41,6.56,2.34
			c5,2.81,7.19,6.09,6.56,9.84c-1.25,5-4.06,6.41-8.44,4.22c-0.31-0.31-1.09-0.78-2.34-1.41c-4.06-3.12-7.97-5.31-11.72-6.56
			c-10.31,7.81-23.28,12.34-38.91,13.59c-0.31-0.31-0.31-0.78,0-1.41c12.5-3.75,22.81-9.22,30.94-16.41
			c-3.75-1.56-7.66-2.66-11.72-3.28c-2.81,1.88-6.09,1.56-9.84-0.94c-0.31-0.31-0.31-0.78,0-1.41c0.94-1.25,2.19-2.97,3.75-5.16
			c1.56-2.5,2.66-4.22,3.28-5.16h-7.97l-6.09,0.94l-3.28-3.75l4.22,0.47l14.53-0.47c0.31-0.62,0.78-1.41,1.41-2.34
			c2.81-4.06,4.69-7.19,5.62-9.38h-7.97v3.75c-5.31,3.44-8.75,3.44-10.31,0V52.97l-0.47-7.03c0-0.31,0.16-0.47,0.47-0.47
			c5.31,0.94,9.84,2.5,13.59,4.69c0,0,0,0.16,0,0.47h6.56v-8.91h-8.91v1.41c-5,3.44-8.28,3.44-9.84,0V29.06l-7.5,0.47l-2.34-3.28
			c1.56,0,2.97,0.16,4.22,0.47h5.62v-8.91l-0.94-7.03c0.31-0.31,0.47-0.47,0.47-0.47c5,0.94,9.69,2.66,14.06,5.16h5.16v-7.5
			l-0.47-5.62c0-0.31,0.16-0.47,0.47-0.47c4.38,0.62,9.06,1.56,14.06,2.81c0,0.31,0,0.94,0,1.88c-0.31,0.31-0.94,0.62-1.88,0.94
			c-0.31,0.31-0.62,0.47-0.94,0.47v7.5h8.91c1.56-2.19,2.81-3.28,3.75-3.28c4.06,1.25,7.34,2.97,9.84,5.16
			c0.31,0.62-0.16,1.25-1.41,1.88c-0.62,0.62-0.94,1.09-0.94,1.41v6.09h3.75c1.25-2.19,2.66-3.91,4.22-5.16c0,0,0.31,0,0.94,0
			c3.44,2.5,5.78,4.53,7.03,6.09c0.31,0.94,0,1.41-0.94,1.41h-15v14.06c-5.31,3.44-8.75,3.44-10.31,0v-1.41h-9.84v8.91h9.84
			c1.56-2.5,2.81-3.75,3.75-3.75c4.69,1.25,8.12,3.12,10.31,5.62c0,0.31-0.47,0.78-1.41,1.41s-1.41,1.09-1.41,1.41v12.66
			c-5,3.44-8.28,3.44-9.84,0v-2.34h-16.41c2.19,0.31,4.22,1.25,6.09,2.81c0,0.31,0,0.62,0,0.94c-0.31,0.31-0.94,0.62-1.88,0.94
			s-1.56,0.62-1.88,0.94l-4.22,5.62H763.59z M812.81,84.38h0.47c6.88,9.06,14.22,15,22.03,17.81c0.31,0.62,0.16,1.25-0.47,1.88
			c-5,0.31-8.91,2.81-11.72,7.5c-0.62,0.62-1.41,0.78-2.34,0.47c-5.31-4.38-10-10-14.06-16.88c-7.5,9.69-16.09,16.25-25.78,19.69
			c-0.62-0.31-0.78-0.78-0.47-1.41c8.75-6.56,15.94-15.94,21.56-28.12c-4.38-11.25-6.72-22.81-7.03-34.69
			c-3.12,4.69-6.41,9.22-9.84,13.59c-0.62,0.31-1.09,0.16-1.41-0.47c8.12-17.81,12.97-38.12,14.53-60.94
			c0.31-0.62,0.78-1.09,1.41-1.41c7.81,1.56,13.28,2.81,16.41,3.75c0,1.25-0.16,1.88-0.47,1.88s-0.94,0.47-1.88,1.41
			c-1.25,0.94-2.03,1.41-2.34,1.41c-1.88,7.5-4.53,15.62-7.97,24.38h15c3.12-4.06,5.16-6.41,6.09-7.03
			c0.31-0.31,0.78-0.47,1.41-0.47c4.06,3.12,6.88,5.94,8.44,8.44c0.31,0.94,0,1.41-0.94,1.41H817.5c3.12,0.94,5.62,2.19,7.5,3.75
			c0,0.31,0,0.78,0,1.41c-0.62,0-1.56,0.47-2.81,1.41C821.88,59.06,818.75,72.81,812.81,84.38z M797.81,45.94
			c0.94,9.06,3.75,18.44,8.44,28.12c3.44-11.25,5-23.75,4.69-37.5h-8.91c-0.31,0.94-0.94,2.5-1.88,4.69
			C799.22,43.12,798.44,44.69,797.81,45.94z"/>
		<path id="形状_00000146499607288384617980000004887350171498121601_" class="st0" d="M919.69,37.97l5.62-0.47
			c1.25-2.19,2.19-3.59,2.81-4.22c0.62-0.31,1.09-0.47,1.41-0.47c4.06,2.5,6.41,4.38,7.03,5.62c0.62-2.19,1.72-5.16,3.28-8.91v-0.47
			h-30c6.25,0.94,10.47,1.88,12.66,2.81c0.31,0.62,0.31,1.09,0,1.41s-0.78,0.78-1.41,1.41c-0.62,0.31-1.09,0.62-1.41,0.94V37.97z
			 M942.66,107.34c-5.94-6.88-9.38-15.47-10.31-25.78c-0.62,0.31-1.41,0.78-2.34,1.41c-1.25,0.62-2.19,1.09-2.81,1.41
			c5.31,18.44,1.25,28.75-12.19,30.94c-0.62,0-1.09-0.31-1.41-0.94c-0.62-4.69-3.91-7.97-9.84-9.84c-0.31-0.31-0.31-0.78,0-1.41
			c5.31,1.25,9.22,0.94,11.72-0.94c3.12-1.56,4.69-4.69,4.69-9.38c-10,6.25-22.81,11.25-38.44,15c-0.94,0-1.09-0.47-0.47-1.41
			c14.38-5.94,26.72-13.75,37.03-23.44c0-0.31-0.16-0.62-0.47-0.94c0-0.62-0.16-0.94-0.47-0.94c-7.19,3.75-16.25,7.03-27.19,9.84
			c-0.31,0-0.31-0.31,0-0.94c9.38-5,16.88-10.47,22.5-16.41c-0.62-0.62-0.94-1.09-0.94-1.41c-5.62,2.5-11.41,4.69-17.34,6.56
			c-0.62-0.62-0.78-0.94-0.47-0.94c7.19-4.38,13.44-9.69,18.75-15.94h-19.22v3.75c0.31,19.38-7.34,35.31-22.97,47.81
			c-0.94,0.31-1.41,0-1.41-0.94c8.75-11.88,13.12-27.5,13.12-46.88V32.81v-2.34h-16.41v22.5c1.25-0.31,3.12-0.78,5.62-1.41
			c3.44-0.94,5.94-1.72,7.5-2.34c0.62,0.31,0.62,0.78,0,1.41c-3.44,2.81-7.81,5.94-13.12,9.38v44.06c0,5.94-4.53,9.38-13.59,10.31
			c-0.62,0-0.94-0.31-0.94-0.94c-2.19-6.56-6.56-10.62-13.12-12.19c0-0.62,0.16-0.94,0.47-0.94c10.31,0.94,15.62,0.47,15.94-1.41
			V68.44c-0.94,0.94-2.5,2.03-4.69,3.28c-3.12,2.5-5,4.06-5.62,4.69c-0.62,0.31-0.94,0.16-0.94-0.47
			c-1.88-7.81-3.44-13.12-4.69-15.94c0-0.31,0.16-0.62,0.47-0.94c0-0.31,0-0.47,0-0.47c2.19-0.31,5.62-0.94,10.31-1.88
			c2.19-0.31,3.91-0.62,5.16-0.94V30.47h-5.62c-2.5,0-5.16,0.16-7.97,0.47l-2.34-3.28c1.56,0,2.97,0.16,4.22,0.47h11.72V6.56
			l-0.47-5.62l0,0c0.31-0.31,0.47-0.47,0.47-0.47c4.38,0.62,9.06,1.56,14.06,2.81c0.62,0.31,0.62,0.94,0,1.88
			c-0.31,0.31-0.94,0.62-1.88,0.94c-0.31,0.31-0.62,0.47-0.94,0.47v21.56h2.81c1.25-2.5,2.97-4.69,5.16-6.56
			c0.62-0.62,1.09-0.62,1.41,0c0.94,0.31,3.12,2.19,6.56,5.62v-5.16c0-0.31,0.16-0.47,0.47-0.47c5,1.88,8.75,3.59,11.25,5.16h16.41
			V7.97l-0.47-5.62V1.88c0,0.31,0,0.47,0,0.47c0-0.31,0.16-0.47,0.47-0.47c5,0.62,9.53,1.56,13.59,2.81c0.62,0.31,0.62,0.94,0,1.88
			c-0.62,0.31-1.41,0.78-2.34,1.41v6.09h15c1.88-2.81,3.59-4.84,5.16-6.09c0.62-0.62,1.09-0.62,1.41,0
			c3.75,2.81,6.41,5.16,7.97,7.03c0.62,0.94,0.31,1.56-0.94,1.88h-28.59v9.84h15.94l3.75-5.62c0.94-0.62,1.72-0.62,2.34,0
			c4.38,2.19,8.59,5.16,12.66,8.91c0,0.31-0.31,1.25-0.94,2.81c-6.88,0.31-12.5,2.97-16.88,7.97c-0.62,0.62-1.25,0.78-1.88,0.47
			c-0.31-0.62-0.31-1.25,0-1.88l-16.41,1.41v1.88c0,1.88,0.94,2.81,2.81,2.81h12.19c5.31,0.31,8.28-2.5,8.91-8.44
			c0.31-0.31,0.78-0.47,1.41-0.47c0.31,0.31,0.31,0.62,0,0.94c0,0.31,0,1.25,0,2.81c-0.31,2.5,0,4.22,0.94,5.16
			c2.5,4.06,1.72,6.56-2.34,7.5c-2.19,0.94-5.62,1.41-10.31,1.41h-17.34c-4.06,0-6.09-2.34-6.09-7.03v-5.62l-4.22,0.47l-5.16,0.94
			l-3.28-2.81h3.28l9.38-0.94V29.06h-16.41v30h46.41c1.88-2.81,3.59-4.84,5.16-6.09c0.62-0.62,1.09-0.62,1.41,0
			c3.75,2.81,6.41,5.16,7.97,7.03c0.62,0.94,0.31,1.56-0.94,1.88h-30.47c2.5,0.62,4.38,1.41,5.62,2.34c0,0.31,0,0.78,0,1.41
			c-1.25,0-2.66,0.31-4.22,0.94c-0.94,0.31-2.34,0.94-4.22,1.88c-2.5,1.25-4.53,2.19-6.09,2.81c5,1.88,8.91,5.47,11.72,10.78
			c3.75-5.31,7.5-11.09,11.25-17.34c0.62-0.31,1.25-0.31,1.88,0c3.12,1.56,6.41,3.91,9.84,7.03c0.31,0.31,0.31,0.78,0,1.41
			c0,0.31,0,0.47,0,0.47c-0.31,0-0.78,0-1.41,0s-1.56,0.16-2.81,0.47c-0.94,0.94-2.97,2.34-6.09,4.22
			c-1.56,0.94-2.66,1.56-3.28,1.88c5.31,8.75,12.19,14.38,20.62,16.88c0.31,0.94,0.31,1.56,0,1.88c-4.69,0.62-8.59,3.28-11.72,7.97
			c0,0-0.31,0.16-0.94,0.47C942.81,107.66,942.66,107.66,942.66,107.34z"/>
		<path id="形状_00000183955820872229750930000016842062890808278667_" class="st0" d="M1022.34,110.16
			c0,1.56-2.03,2.81-6.09,3.75c-4.38,0.94-7.03,0.78-7.97-0.47c-0.62-1.25-0.78-5.16-0.47-11.72c0.31-4.38,0.47-7.81,0.47-10.31
			V71.72h-37.97c-0.31,0-2.97,0.16-7.97,0.47L960,68.91c1.25,0,2.5,0.16,3.75,0.47h44.53V15.47h-31.88c-2.5,0-5.16,0.16-7.97,0.47
			l-2.34-3.28c1.56,0,2.97,0.16,4.22,0.47h73.59c0,0,0.16-0.16,0.47-0.47c3.44-5,5.94-8.12,7.5-9.38c0.62-0.62,1.09-0.62,1.41,0
			c8.12,4.69,12.66,8.12,13.59,10.31c0.31,0.94,0,1.56-0.94,1.88h-40.78c0,0.94-0.94,2.19-2.81,3.75v50.16h30.47
			c0,0,0.16-0.16,0.47-0.47c3.44-5,5.94-8.12,7.5-9.38c0.31-0.62,0.78-0.62,1.41,0c8.12,4.69,12.66,8.12,13.59,10.31
			c0.31,0.94,0,1.56-0.94,1.88h-52.5v16.88C1022.34,94.53,1022.34,101.72,1022.34,110.16z M975.94,30.47
			c12.5,3.44,19.53,9.84,21.09,19.22c0.62,4.69-1.25,8.12-5.62,10.31c-5,1.88-8.59,0.78-10.78-3.28c-0.62-1.25-0.78-3.59-0.47-7.03
			c0.94-7.81-0.62-13.75-4.69-17.81C975.16,31.25,975.31,30.78,975.94,30.47z M1046.72,28.12c8.75,5,13.91,7.97,15.47,8.91
			c0.31,0,0.31,0.47,0,1.41c-0.62,0-2.03,0.31-4.22,0.94c-0.31,0.31-0.62,0.47-0.94,0.47c-2.19,1.56-5.47,4.38-9.84,8.44
			c-8.12,7.19-13.91,12.03-17.34,14.53c-0.31,0.31-0.62,0.16-0.94-0.47c6.56-11.88,11.72-23.12,15.47-33.75
			C1045,27.97,1045.78,27.81,1046.72,28.12z"/>
		<path id="形状_00000061443341955154770840000000158016845507723452_" class="st0" d="M1158.75,86.72c0-0.31-0.16-0.94-0.47-1.88
			c-0.31-0.62-0.62-1.09-0.94-1.41c-1.88,0.31-5.31,0.78-10.31,1.41c-6.56,0.62-11.72,1.25-15.47,1.88
			c4.38,0.62,8.75,1.56,13.12,2.81c0.62,0.31,0.62,0.94,0,1.88c-0.31,0.31-0.78,0.62-1.41,0.94c-0.31,0.31-0.62,0.47-0.94,0.47v5.16
			h22.5c2.19-3.12,3.91-5.31,5.16-6.56c0.62,0,1.09,0,1.41,0c4.06,3.12,6.72,5.62,7.97,7.5c0.31,0.31,0.47,0.78,0.47,1.41
			c-0.31,0.31-0.78,0.31-1.41,0h-36.09v11.72h33.75c1.88-2.5,3.91-4.84,6.09-7.03c0.62-0.31,1.09-0.31,1.41,0
			c4.69,3.44,7.5,6.25,8.44,8.44c0,0.62-0.31,1.09-0.94,1.41H1095c-2.5,0-5,0-7.5,0l-2.81-3.28c1.56,0.31,2.97,0.47,4.22,0.47h42.19
			v-11.72h-24.84c-2.5,0-5,0.16-7.5,0.47l-2.81-3.28c1.56,0,2.97,0.16,4.22,0.47h30.94v-5.16l-0.47-6.09
			c-7.81,1.25-15.78,2.66-23.91,4.22c-1.25,0-1.88-0.31-1.88-0.94c-0.31-0.62-0.62-1.56-0.94-2.81c-1.56-3.44-2.5-5.62-2.81-6.56
			c0-0.31,0.16-0.78,0.47-1.41c6.88,0,13.75-3.75,20.62-11.25h-9.38c-0.31,0-2.97,0.16-7.97,0.47l-2.34-3.28
			c1.25,0,2.5,0.16,3.75,0.47h47.34c1.25-2.5,2.97-4.69,5.16-6.56c0.62-0.62,1.09-0.62,1.41,0c3.75,2.81,6.41,5.16,7.97,7.03
			c0.62,0.94,0.31,1.56-0.94,1.88h-29.06c0.62,1.25-0.94,2.19-4.69,2.81c-4.69,3.75-9.53,6.72-14.53,8.91l37.03-0.47
			c-1.88-3.12-4.69-5.78-8.44-7.97c-0.31-0.62-0.16-1.09,0.47-1.41c10.62,0,17.81,2.97,21.56,8.91c1.88,4.06,1.25,7.34-1.88,9.84
			C1164.84,90.47,1161.88,89.84,1158.75,86.72z M1158.28,49.22h-42.19c0,2.19-1.72,3.75-5.16,4.69c-4.06,0.62-6.09-0.16-6.09-2.34
			l0.94-15.94c0-1.88-0.31-3.75-0.94-5.62c0-0.31,0.16-0.47,0.47-0.47h-4.22l-2.34-3.28c1.25,0,2.5,0.16,3.75,0.47h28.59v-9.84
			h-33.28c-2.81,0-5.47,0-7.97,0l-2.34-3.28c1.25,0,2.5,0.16,3.75,0.47h39.84V7.97l-0.47-5.62V1.88c0,0.31,0,0.47,0,0.47
			c0-0.31,0.16-0.47,0.47-0.47c5,0.62,9.53,1.56,13.59,2.81c0.62,0.31,0.62,0.94,0,1.88c-0.62,0.31-1.41,0.78-2.34,1.41v6.09h32.34
			c1.88-2.5,3.91-4.84,6.09-7.03c0.62-0.62,1.09-0.62,1.41,0c4.69,3.44,7.5,6.25,8.44,8.44c0.31,0.31,0,0.78-0.94,1.41h-47.34v9.84
			h21.09c3.12-4.06,5.16-6.41,6.09-7.03c0.31-0.31,0.78-0.47,1.41-0.47c4.06,3.12,6.88,5.94,8.44,8.44c0.31,0.94,0,1.41-0.94,1.41
			h-69.38l-2.34,0.47c6.25,1.88,10,3.44,11.25,4.69h40.31c0.31-0.31,0.78-0.94,1.41-1.88c0.62-0.62,1.09-1.09,1.41-1.41
			c0.62,0,0.94,0,0.94,0c3.75,0.94,7.03,2.66,9.84,5.16c0.62,0.31,0.62,0.78,0,1.41c-0.31,0.31-0.78,0.78-1.41,1.41
			c-0.62,0.31-0.94,0.47-0.94,0.47v12.19c-5.62,3.75-9.38,3.75-11.25,0V49.22z M1116.09,46.88h42.19V36.56h-40.31
			c-0.31,0.31-0.94,0.78-1.88,1.41V46.88z M1178.91,49.22c5.31,3.44,10.62,7.03,15.94,10.78c0.31,1.56,0,2.5-0.94,2.81
			c-10.62,0.31-18.28,2.97-22.97,7.97c-0.62,0.31-1.09,0-1.41-0.94c0.94-2.19,2.66-6.09,5.16-11.72h-78.75
			c0.62,3.44,0.16,6.56-1.41,9.38c-2.19,3.75-5.16,5-8.91,3.75c-3.75-2.19-5-5.16-3.75-8.91c0.62-1.25,1.72-2.34,3.28-3.28
			c3.12-1.56,4.69-5.31,4.69-11.25c0.31-0.62,0.78-0.78,1.41-0.47c1.88,2.81,3.28,5.47,4.22,7.97h78.28
			c1.88-3.12,2.97-5.16,3.28-6.09c0,0,0.16,0,0.47,0C1178.44,48.91,1178.91,48.91,1178.91,49.22z"/>
	</g>
	<g id="Words" transform="translate(40, 240)">
		<path id="B" class="st1" d="M22,23h-2.81l0,0L5.62,23v-5.75h13.57v-3.83l-13.57,0V8.62h13.57V5.27l-13.57,0V0H22V23z M0,0h5.62v23
			H0V0z"/>
		<path id="E" class="st1" d="M62,0v5.27l-17.32,0v3.36h9.36v4.79l-9.36,0v3.83H62V23H40V0H62z"/>
		<path id="E_00000054986494311968664120000009126775021814444938_" class="st1" d="M102,0v5.27l-17.32,0v3.36h9.36v4.79l-9.36,0
			v3.83H102V23l-17.32,0L80,23V0H102z"/>
		<path id="F" class="st2" d="M125.617021,8.625 L142,8.625 L142,13.4166667 L125.617021,13.4166667 Z M120,0 L125.617021,0 L125.617021,23 L120,23 Z M125.617021,0 L142,0 L142,5.27083333 L125.617021,5.27083333 Z"></path>
		<path id="D" class="st2" d="M165.62,23v-5.75h13.57V5.27l-13.57,0V0H182v23H165.62z M160,0h5.62v23H160V0z"/>
	</g>
	<g id="Logo" transform="translate(35, 15)">
		<polygon id="六边形白边" class="st3" points="190,163.5 190,54.5 95,0 0,54.5 0,163.5 95,218 		"/>
		<polygon id="深色" class="st4" points="143.26,136.81 180.5,158.29 95,207.57 9.5,158.29 9.5,59.71 46.74,81.19 46.74,136.81 
			95,164.62 		"/>
		<polygon id="右下" class="st5" points="180.5,158.06 95,207.57 95,164.43 143.26,136.49 		"/>
		<polygon id="左下" class="st6" points="95,164.43 95,207.57 9.5,158.06 46.74,136.49 		"/>
		<polygon id="右" class="st6" points="180.5,59.71 180.5,158.29 143.45,136.81 143.45,81.19 		"/>
		<polygon id="左" class="st7" points="46.55,81.19 46.55,136.81 9.5,158.29 9.5,59.71 		"/>
		<polygon id="右上" class="st7" points="143.26,81.51 95,53.57 95,10.43 180.5,59.94 		"/>
		<polygon id="左上" class="st8" points="95,10.43 95,53.57 46.74,81.51 9.5,59.94 		"/>
		<g id="六边形">
			<polygon id="path-1_00000175320348882955626600000016458512184527013779_" class="st9" points="143.45,136.96 143.45,81.04 
				95,53.08 46.55,81.04 46.55,136.96 95,164.92 			"/>
		</g>
		<defs>
			<filter id="Adobe_OpacityMaskFilter" filterUnits="userSpaceOnUse" x="95" y="54.03" width="48.45" height="111.84">
				<feColorMatrix  type="matrix" values="1 0 0 0 0  0 1 0 0 0  0 0 1 0 0  0 0 0 1 0"/>
			</filter>
		</defs>
		
			<mask maskUnits="userSpaceOnUse" x="95" y="54.03" width="48.45" height="111.84" id="mask-2_00000076568356338112172000000011879234831757933956_">
			<g class="st10">
				<polygon id="path-1_00000044140327811985007020000012303559033159106747_" class="st11" points="143.45,136.96 143.45,81.04 
					95,53.08 46.55,81.04 46.55,136.96 95,164.92 				"/>
			</g>
		</mask>
		<polygon id="深色_00000032633000334764797930000003321413733411115930_" class="st12" points="143.45,137.91 143.45,81.99 
			95,54.03 95,165.87 		"/>
		<defs>
			
				<filter id="Adobe_OpacityMaskFilter_00000166655213280316848020000015048454842951893150_" filterUnits="userSpaceOnUse" x="70.3" y="86.25" width="49.4" height="79.62">
				<feColorMatrix  type="matrix" values="1 0 0 0 0  0 1 0 0 0  0 0 1 0 0  0 0 0 1 0"/>
			</filter>
		</defs>
		
			<mask maskUnits="userSpaceOnUse" x="70.3" y="86.25" width="49.4" height="79.62" id="mask-2_00000172412419847966788590000009246759556466878380_">
			<g style="filter:url(#Adobe_OpacityMaskFilter_00000166655213280316848020000015048454842951893150_);">
				<polygon id="path-1_00000034063528773719978340000002847119680347595710_" class="st11" points="143.45,136.96 143.45,81.04 
					95,53.08 46.55,81.04 46.55,136.96 95,164.92 				"/>
			</g>
		</mask>
		<path id="节能标志" class="st14" d="M87.59,162.61c-3.05-4.08-5.73-7.87-8.04-11.38c-6.7-9.9-9.39-19.31-9.24-28.54
			c0.1-6.35,1.68-12.64,4.8-18.85c2.23-4.45,5.68-8.27,9.22-11.82c4.27-4.28,7.8-5.76,10.59-5.76c2.52,0,7.13,2.34,11.42,6.43
			c4.1,3.92,7.81,9.84,9.77,13.93c1.97,4.09,3.26,8.53,3.52,13.2c0.22,3.96-0.04,5.94-0.54,9.92c-0.15,1.21-1.11,5.17-1.73,7.34
			c-0.5,1.72-1.53,4.93-3.1,9.62l-5.7-1.66c0.57-2.14,1.48-5.03,2.73-8.67c0.11-0.33,0.48-1.67,0.56-1.95
			c0.46-1.84,0.95-3.82,1.22-5.76c0.4-2.94,0.35-5.73,0.35-7.35c-0.07-2.92-0.71-6.84-2.13-10.42c-2.19-5.55-5.66-10.62-9.32-13.93
			c-2.56-2.32-4.98-3.16-7.04-2.99c-1.16,0.09-1.92,0.5-3.24,1.16c-2.97,1.29-7.07,5.62-9.89,11.48c-2.73,5.67-3.86,12.6-3.86,17.33
			c0,4.46,0.98,9.73,2.96,14.71c3.03,7.59,8.51,14.01,15.12,18.51c2.22,1.6,3.87,2.69,4.96,3.26c1.2,0.63,2.99,1.36,5.36,2.18
			L95,165.87L87.59,162.61z"/>
		<defs>
			
				<filter id="Adobe_OpacityMaskFilter_00000100352468914007019660000000202092333175472811_" filterUnits="userSpaceOnUse" x="95" y="86.25" width="24.7" height="60.66">
				<feColorMatrix  type="matrix" values="1 0 0 0 0  0 1 0 0 0  0 0 1 0 0  0 0 0 1 0"/>
			</filter>
		</defs>
		
			<mask maskUnits="userSpaceOnUse" x="95" y="86.25" width="24.7" height="60.66" id="mask-2_00000145037975880392681550000003341942849238656907_">
			<g style="filter:url(#Adobe_OpacityMaskFilter_00000100352468914007019660000000202092333175472811_);">
				<polygon id="path-1_00000003076452752019933570000004734527920674000512_" class="st11" points="143.45,136.96 143.45,81.04 
					95,53.08 46.55,81.04 46.55,136.96 95,164.92 				"/>
			</g>
		</mask>
		<path id="节能标志颜色" class="st16" d="M95.04,86.25l-0.04,0c2.51,0,7.1,2.34,11.38,6.45c4.09,3.93,7.78,9.88,9.74,13.98
			c1.96,4.1,3.25,8.56,3.51,13.25c0.22,3.98-0.04,5.96-0.54,9.96c-0.15,1.22-1.1,5.19-1.73,7.37c-0.5,1.73-1.53,4.94-3.09,9.66
			l-5.68-1.66c0.57-2.14,1.47-5.04,2.72-8.7c0.11-0.33,0.48-1.67,0.55-1.96c0.46-1.85,0.95-3.83,1.21-5.78
			c0.4-2.95,0.35-5.75,0.35-7.38c-0.07-2.93-0.71-6.86-2.12-10.46c-2.18-5.57-5.64-10.65-9.29-13.98c-2.54-2.32-4.94-3.16-6.98-3
			L95.04,86.25z"/>
	</g>
</g>
</svg>
