<?xml version="1.0" encoding="utf-8"?>
<!-- Generator: Adobe Illustrator 28.1.0, SVG Export Plug-In . SVG Version: 6.00 Build 0)  -->
<svg version="1.1" id="图层_1" xmlns="http://www.w3.org/2000/svg" xmlns:xlink="http://www.w3.org/1999/xlink" x="0px" y="0px"
	 viewBox="0 0 1200 285" style="enable-background:new 0 0 1200 285;" xml:space="preserve">
<style type="text/css">
	.st0{fill:#0091EA;stroke:#0091EA;stroke-width:3;}
	.st1{fill-rule:evenodd;clip-rule:evenodd;fill:#0091EA;}
	.st2{fill-rule:evenodd;clip-rule:evenodd;fill:#063C7C;}
	.st3{fill:#FFFFFF;}
	.st4{fill:#82D2FF;}
	.st5{fill:#0091EA;}
	.st6{fill:#00A7F7;}
	.st7{fill:#51B9F9;}
	.st8{fill:#83CAFA;}
	.st9{fill:#B0DBFA;}
	.st10{filter:url(#Adobe_OpacityMaskFilter);}
	.st11{fill-rule:evenodd;clip-rule:evenodd;fill:#FFFFFF;}
	.st12{mask:url(#mask-2_00000085956125814603016950000000649177525503972007_);fill:#83CAFA;}
	.st13{filter:url(#Adobe_OpacityMaskFilter_00000179631119476848733810000012056206419786607033_);}
	.st14{mask:url(#mask-2_00000082345836433256537120000008847055305226186409_);fill:#FFFFFF;}
	.st15{filter:url(#Adobe_OpacityMaskFilter_00000024693395082883610850000003498856820567589267_);}
	.st16{mask:url(#mask-2_00000142864133861257174590000016078244892633574539_);fill:#BDF280;}
</style>
<g id="BEEFD文字">
	<g id="BEEFD-Platform" transform="translate(266.875, 100.0236)">
		<path id="形状" class="st0" d="M30,41.73v30c-0.31,5.31,2.03,7.81,7.03,7.5c9.69,0.31,14.53-5.78,14.53-18.28
			s-6.09-18.91-18.28-19.22H30z M30,11.26v27.19c13.44,0.94,19.69-4.84,18.75-17.34c0-10-4.22-15.16-12.66-15.47
			C31.41,5.63,29.38,7.51,30,11.26z M0,82.98v-2.81c7.5,0,11.09-2.97,10.78-8.91V13.6C11.09,7.66,7.5,4.7,0,4.7V1.88h37.03
			C57.66,2.2,68.12,8.6,68.44,21.1c0,9.06-6.25,15-18.75,17.81v0.47c14.38,2.81,21.88,9.84,22.5,21.09
			c-0.94,14.38-12.03,21.88-33.28,22.5H0z"/>
		<path id="路径" class="st0" d="M79.69,4.7V1.88h69.38v23.91h-3.28c-1.25-14.06-10.31-20.62-27.19-19.69
			c-6.56-0.31-9.53,1.56-8.91,5.63v27.66c12.19,1.25,18.75-4.69,19.69-17.81h2.81v40.31h-2.81c-1.25-12.81-7.81-18.91-19.69-18.28
			v29.06c-0.62,5,2.81,7.19,10.31,6.56c15,0.62,25.47-6.41,31.41-21.09h3.28L150,82.98H79.69v-2.81c7.81,0,11.41-2.97,10.78-8.91
			V13.6C90.78,7.66,87.19,4.7,79.69,4.7z"/>
		<path id="路径_00000177476803728094623680000014011925999434939533_" class="st0" d="M159.38,4.7V1.88h69.38v23.91h-3.28
			c-1.25-14.06-10.31-20.62-27.19-19.69c-6.56-0.31-9.53,1.56-8.91,5.63v27.66c12.19,1.25,18.75-4.69,19.69-17.81h2.81v40.31h-2.81
			c-1.25-12.81-7.81-18.91-19.69-18.28v29.06c-0.62,5,2.81,7.19,10.31,6.56c15,0.62,25.47-6.41,31.41-21.09h3.28l-4.69,24.84h-70.31
			v-2.81c7.81,0,11.41-2.97,10.78-8.91V13.6C170.47,7.66,166.88,4.7,159.38,4.7z"/>
		<path id="路径" class="st0" d="M239.0625,4.69518443 L239.0625,1.88268443 L307.03125,1.88268443 L307.03125,25.7889344 L304.21875,25.7889344 
			C302.65625,12.0389344 293.90625,5.47643443 277.96875,6.10143443 C271.40625,5.78893443 268.4375,7.66393443 269.0625,11.7264344 
			L269.0625,39.3826844 C280.3125,40.3201844 286.40625,34.3826844 287.34375,21.5701844 L290.625,21.5701844 L290.625,61.8826844 
			L287.34375,61.8826844 C286.40625,49.3826844 280.3125,43.2889344 269.0625,43.6014344 L269.0625,71.2576844 C268.125,77.5076844 
			272.5,80.4764344 282.1875,80.1639344 L282.1875,82.9764344 L239.0625,82.9764344 L239.0625,80.1639344 C246.875,80.1639344 250.46875,77.1951844 249.84375,71.2576844 L249.84375,13.6014344 C250.15625,7.66393443 246.5625,4.69518443 239.0625,4.69518443 Z"></path>
		<path id="形状_00000027575567641837887290000000494521573813853327_" class="st0" d="M347.81,11.73v60
			c-0.31,5,2.03,7.34,7.03,7.03c15.94,0.62,23.91-11.56,23.91-36.56C377.81,18.76,370,6.73,355.31,6.1
			C349.69,6.1,347.19,7.98,347.81,11.73z M318.75,82.98v-2.81c6.25,0,9.53-2.66,9.84-7.97V12.66c0-5-3.28-7.66-9.84-7.97V1.88h36.56
			c28.12,0.94,42.97,14.06,44.53,39.38c-1.25,26.56-15.78,40.47-43.59,41.72H318.75z"/>
		<path id="形状_00000042728910305015888350000012126447741898794932_" class="st0" d="M435,82.98v-2.81
			c3.44-0.31,5.62-0.78,6.56-1.41c0,0,0.16-0.16,0.47-0.47c2.19-1.25,3.28-4.38,3.28-9.38V15.95C445.94,8.45,442.5,4.7,435,4.7V1.88
			h38.91c20.62,0.62,31.09,7.97,31.41,22.03c-0.31,8.12-4.06,14.22-11.25,18.28c-4.38,3.44-14.22,4.84-29.53,4.22v22.5
			c-1.25,7.81,2.34,11.56,10.78,11.25v2.81H435z M464.53,10.32V42.2c14.06,1.56,20.78-4.38,20.16-17.81
			c0-12.5-4.84-18.59-14.53-18.28C466.41,6.1,464.53,7.51,464.53,10.32z"/>
		<path id="路径_00000164503945368022428260000004761630170018420405_" class="st0" d="M536.72,80.16v2.81h-28.59v-2.81
			c3.75,0,5.78-2.5,6.09-7.5V11.73c-0.31-4.38-2.34-6.72-6.09-7.03V1.88h22.97v70.78C530.78,77.98,532.66,80.48,536.72,80.16z"/>
		<path id="形状_00000128466937666629563670000000819784968855777704_" class="st0" d="M574.69,70.79V53.45
			c-9.69,3.12-14.53,7.97-14.53,14.53c0,5.31,2.03,7.97,6.09,7.97c2.19,0,4.69-1.41,7.5-4.22C574.06,71.41,574.38,71.1,574.69,70.79
			z M596.25,75.48l1.88,2.34c-4.06,3.75-8.44,5.78-13.12,6.09c-6.25,0-9.69-2.5-10.31-7.5c-5.62,4.38-11.88,6.88-18.75,7.5
			c-9.06-0.62-13.59-4.69-13.59-12.19c-0.94-8.75,9.84-16.25,32.34-22.5v-8.44c0.31-7.19-3.12-10.78-10.31-10.78
			c-4.38,0.31-6.72,1.72-7.03,4.22c0,0.94,0.31,2.03,0.94,3.28c1.25,1.88,2.03,3.59,2.34,5.16c-0.94,4.38-3.59,6.56-7.97,6.56
			c-5.31,0-7.97-2.66-7.97-7.97c0.94-9.37,8.44-14.37,22.5-15c15.31,0.62,23.28,6.09,23.91,16.41v31.41c0,1.88,0.94,2.81,2.81,2.81
			c0.31,0.31,0.78,0.16,1.41-0.47L596.25,75.48z"/>
		<path id="路径_00000150087755743613009730000005858560052094279316_" class="st0" d="M636.09,27.66v5.16h-11.25v36.09
			c-0.31,4.69,1.25,7.03,4.69,7.03c2.19,0.31,4.53-1.72,7.03-6.09l2.81,0.94c-4.06,8.44-10,12.66-17.81,12.66
			c-8.12,0-12.66-3.59-13.59-10.78c0-0.31,0-0.62,0-0.94V32.82h-6.09v-3.28c6.25-4.69,12.97-12.03,20.16-22.03h2.81v20.16H636.09z"
			/>
		<path id="路径_00000150809616524405910280000015006541524522108606_" class="st0" d="M641.25,82.98v-2.81
			c4.38,0,6.56-2.5,6.56-7.5V32.82h-6.56v-5.16h6.56c-1.56-18.75,5.78-27.97,22.03-27.66c10.31,0.94,15.78,5,16.41,12.19
			c-0.31,5-2.97,7.5-7.97,7.5c-4.06,0-6.41-2.19-7.03-6.56c0-0.94,0.47-2.34,1.41-4.22c0.94-1.25,1.41-2.19,1.41-2.81
			c-0.31-1.25-1.56-2.03-3.75-2.34c-4.06,0-5.94,3.12-5.62,9.38v14.53H675v5.16h-10.31v37.97c-0.94,6.88,2.34,10,9.84,9.38v2.81
			H641.25z"/>
		<path id="形状_00000062871414603046530190000009819759327297383348_" class="st0" d="M699.84,55.32
			c-0.94,18.12,2.34,26.72,9.84,25.78c6.25,0.94,9.22-7.66,8.91-25.78c0.31-17.81-2.81-26.25-9.38-25.31
			C702.34,29.38,699.22,37.82,699.84,55.32z M682.03,55.32c1.25-17.81,10.31-27.5,27.19-29.06c16.56,1.56,25.62,11.25,27.19,29.06
			c-1.56,18.44-10.62,27.97-27.19,28.59C692.34,83.29,683.28,73.76,682.03,55.32z"/>
		<path id="路径_00000168081399006943858010000011671170637051194027_" class="st0" d="M774.84,80.16v2.81H742.5v-2.81
			c4.69-0.31,6.88-2.81,6.56-7.5V37.51c0-4.38-2.19-6.72-6.56-7.03v-2.81h22.97v9.37c5-7.19,10.31-10.78,15.94-10.78
			c5.62,0.31,8.91,3.44,9.84,9.37c-0.31,5.31-2.81,7.97-7.5,7.97c-2.81,0-5.31-1.41-7.5-4.22c-1.25-1.88-2.34-2.81-3.28-2.81
			c-4.69,1.25-7.03,5-7.03,11.25v22.97C765,77.35,767.97,80.48,774.84,80.16z"/>
		<path id="路径_00000116214839667699595360000012073865703520864703_" class="st0" d="M889.69,80.16v2.81h-28.59v-2.81
			c4.38,0,6.41-2.34,6.09-7.03V44.07c0-6.56-2.19-9.84-6.56-9.84c-4.06,0.62-7.34,2.97-9.84,7.03v31.88
			c-0.31,4.69,1.56,7.03,5.62,7.03v2.81h-28.12v-2.81c4.06,0,5.94-2.34,5.62-7.03V44.07c0-6.56-2.19-9.84-6.56-9.84
			c-4.06,0.62-7.34,2.97-9.84,7.03v31.88c-0.31,4.69,1.56,7.03,5.62,7.03v2.81h-29.06v-2.81c4.69-0.31,6.88-2.81,6.56-7.5V37.51
			c0-4.38-2.19-6.72-6.56-7.03v-2.81h22.97v8.44h0.47c3.75-6.25,9.38-9.53,16.88-9.84c7.81,0.31,12.97,3.75,15.47,10.31
			c5.31-6.87,11.25-10.31,17.81-10.31c10.62,0.94,16.09,6.56,16.41,16.87v30C883.44,78.13,885.31,80.48,889.69,80.16z"/>
	</g>
	<g id="Words" transform="translate(40, 240)">
		<path id="B" class="st1" d="M22,23h-2.81l0,0L5.62,23v-5.75h13.57v-3.83l-13.57,0V8.62h13.57V5.27l-13.57,0V0H22V23z M0,0h5.62v23
			H0V0z"/>
		<path id="E" class="st1" d="M62,0v5.27l-17.32,0v3.36h9.36v4.79l-9.36,0v3.83H62V23H40V0H62z"/>
		<path id="E_00000107557168865362674530000004159501192655368350_" class="st1" d="M102,0v5.27l-17.32,0v3.36h9.36v4.79l-9.36,0
			v3.83H102V23l-17.32,0L80,23V0H102z"/>
		<path id="F" class="st2" d="M125.617021,8.625 L142,8.625 L142,13.4166667 L125.617021,13.4166667 Z M120,0 L125.617021,0 L125.617021,23 L120,23 Z M125.617021,0 L142,0 L142,5.27083333 L125.617021,5.27083333 Z"></path>
		<path id="D" class="st2" d="M165.62,23v-5.75h13.57V5.27l-13.57,0V0H182v23H165.62z M160,0h5.62v23H160V0z"/>
	</g>
	<g id="Logo" transform="translate(35, 15)">
		<polygon id="六边形白边" class="st3" points="190,163.5 190,54.5 95,0 0,54.5 0,163.5 95,218 		"/>
		<polygon id="深色" class="st4" points="143.26,136.81 180.5,158.29 95,207.57 9.5,158.29 9.5,59.71 46.74,81.19 46.74,136.81 
			95,164.62 		"/>
		<polygon id="右下" class="st5" points="180.5,158.06 95,207.57 95,164.43 143.26,136.49 		"/>
		<polygon id="左下" class="st6" points="95,164.43 95,207.57 9.5,158.06 46.74,136.49 		"/>
		<polygon id="右" class="st6" points="180.5,59.71 180.5,158.29 143.45,136.81 143.45,81.19 		"/>
		<polygon id="左" class="st7" points="46.55,81.19 46.55,136.81 9.5,158.29 9.5,59.71 		"/>
		<polygon id="右上" class="st7" points="143.26,81.51 95,53.57 95,10.43 180.5,59.94 		"/>
		<polygon id="左上" class="st8" points="95,10.43 95,53.57 46.74,81.51 9.5,59.94 		"/>
		<g id="六边形">
			<polygon id="path-1_00000174592066064588961910000013314268247822278292_" class="st9" points="143.45,136.96 143.45,81.04 
				95,53.08 46.55,81.04 46.55,136.96 95,164.92 			"/>
		</g>
		<defs>
			<filter id="Adobe_OpacityMaskFilter" filterUnits="userSpaceOnUse" x="95" y="54.03" width="48.45" height="111.84">
				<feColorMatrix  type="matrix" values="1 0 0 0 0  0 1 0 0 0  0 0 1 0 0  0 0 0 1 0"/>
			</filter>
		</defs>
		
			<mask maskUnits="userSpaceOnUse" x="95" y="54.03" width="48.45" height="111.84" id="mask-2_00000085956125814603016950000000649177525503972007_">
			<g class="st10">
				<polygon id="path-1_00000036217875359495543490000016629633359329478573_" class="st11" points="143.45,136.96 143.45,81.04 
					95,53.08 46.55,81.04 46.55,136.96 95,164.92 				"/>
			</g>
		</mask>
		<polygon id="深色_00000131351054006039175720000003344579137061616543_" class="st12" points="143.45,137.91 143.45,81.99 
			95,54.03 95,165.87 		"/>
		<defs>
			
				<filter id="Adobe_OpacityMaskFilter_00000129175228149309641950000001027970335216777635_" filterUnits="userSpaceOnUse" x="70.3" y="86.25" width="49.4" height="79.62">
				<feColorMatrix  type="matrix" values="1 0 0 0 0  0 1 0 0 0  0 0 1 0 0  0 0 0 1 0"/>
			</filter>
		</defs>
		
			<mask maskUnits="userSpaceOnUse" x="70.3" y="86.25" width="49.4" height="79.62" id="mask-2_00000082345836433256537120000008847055305226186409_">
			<g style="filter:url(#Adobe_OpacityMaskFilter_00000129175228149309641950000001027970335216777635_);">
				<polygon id="path-1_00000146481453747937262360000013716109352182304946_" class="st11" points="143.45,136.96 143.45,81.04 
					95,53.08 46.55,81.04 46.55,136.96 95,164.92 				"/>
			</g>
		</mask>
		<path id="节能标志" class="st14" d="M87.59,162.61c-3.05-4.08-5.73-7.87-8.04-11.38c-6.7-9.9-9.39-19.31-9.24-28.54
			c0.1-6.35,1.68-12.64,4.8-18.85c2.23-4.45,5.68-8.27,9.22-11.82c4.27-4.28,7.8-5.76,10.59-5.76c2.52,0,7.13,2.34,11.42,6.43
			c4.1,3.92,7.81,9.84,9.77,13.93c1.97,4.09,3.26,8.53,3.52,13.2c0.22,3.96-0.04,5.94-0.54,9.92c-0.15,1.21-1.11,5.17-1.73,7.34
			c-0.5,1.72-1.53,4.93-3.1,9.62l-5.7-1.66c0.57-2.14,1.48-5.03,2.73-8.67c0.11-0.33,0.48-1.67,0.56-1.95
			c0.46-1.84,0.95-3.82,1.22-5.76c0.4-2.94,0.35-5.73,0.35-7.35c-0.07-2.92-0.71-6.84-2.13-10.42c-2.19-5.55-5.66-10.62-9.32-13.93
			c-2.56-2.32-4.98-3.16-7.04-2.99c-1.16,0.09-1.92,0.5-3.24,1.16c-2.97,1.29-7.07,5.62-9.89,11.48c-2.73,5.67-3.86,12.6-3.86,17.33
			c0,4.46,0.98,9.73,2.96,14.71c3.03,7.59,8.51,14.01,15.12,18.51c2.22,1.6,3.87,2.69,4.96,3.26c1.2,0.63,2.99,1.36,5.36,2.18
			L95,165.87L87.59,162.61z"/>
		<defs>
			
				<filter id="Adobe_OpacityMaskFilter_00000137123350047911145390000005452629033902636986_" filterUnits="userSpaceOnUse" x="95" y="86.25" width="24.7" height="60.66">
				<feColorMatrix  type="matrix" values="1 0 0 0 0  0 1 0 0 0  0 0 1 0 0  0 0 0 1 0"/>
			</filter>
		</defs>
		
			<mask maskUnits="userSpaceOnUse" x="95" y="86.25" width="24.7" height="60.66" id="mask-2_00000142864133861257174590000016078244892633574539_">
			<g style="filter:url(#Adobe_OpacityMaskFilter_00000137123350047911145390000005452629033902636986_);">
				<polygon id="path-1_00000043417483371946878650000001288006230148176564_" class="st11" points="143.45,136.96 143.45,81.04 
					95,53.08 46.55,81.04 46.55,136.96 95,164.92 				"/>
			</g>
		</mask>
		<path id="节能标志颜色" class="st16" d="M95.04,86.25l-0.04,0c2.51,0,7.1,2.34,11.38,6.45c4.09,3.93,7.78,9.88,9.74,13.98
			c1.96,4.1,3.25,8.56,3.51,13.25c0.22,3.98-0.04,5.96-0.54,9.96c-0.15,1.22-1.1,5.19-1.73,7.37c-0.5,1.73-1.53,4.94-3.09,9.66
			l-5.68-1.66c0.57-2.14,1.47-5.04,2.72-8.7c0.11-0.33,0.48-1.67,0.55-1.96c0.46-1.85,0.95-3.83,1.21-5.78
			c0.4-2.95,0.35-5.75,0.35-7.38c-0.07-2.93-0.71-6.86-2.12-10.46c-2.18-5.57-5.64-10.65-9.29-13.98c-2.54-2.32-4.94-3.16-6.98-3
			L95.04,86.25z"/>
	</g>
</g>
</svg>
