<?xml version="1.0" encoding="UTF-8"?>
<svg width="200px" height="200px" viewBox="0 0 200 200" version="1.1" xmlns="http://www.w3.org/2000/svg" xmlns:xlink="http://www.w3.org/1999/xlink">
    <title>改色</title>
    <defs>
        <linearGradient x1="50%" y1="100%" x2="50%" y2="0%" id="linearGradient-1">
            <stop stop-color="#FFFFFF" offset="0%"></stop>
            <stop stop-color="#CFFFD9" offset="100%"></stop>
        </linearGradient>
        <path d="M68,0 C45.8333333,0 38.75,0 28.75,3.33333333 C16.9666672,7.5 7.5,16.9666672 3.33333333,28.75 C0,38.75 0,45.8333333 0,68 C0,110.666667 0,132 0,132 C0,154.166667 0,161.25 3.33333333,171.25 C7.50773112,183.033333 16.9666672,192.5 28.75,196.666667 C38.75,200 45.8333333,200 68,200 L132,200 C154.166667,200 161.25,200 171.25,196.666667 C183.033333,192.5 192.5,183.033333 196.666667,171.25 C200,161.25 200,154.166667 200,132 L200,68 C200,45.8333333 200,38.75 196.666667,28.75 C192.5,17.0833333 182.899996,7.5 171.23333,3.33333333 C161.23333,0 154.166667,0 132,0 C139.777774,0 118.444441,0 68,0 Z" id="path-2"></path>
    </defs>
    <g id="主页面" stroke="none" stroke-width="1" fill="none" fill-rule="evenodd">
        <g id="UCDT方形图标" transform="translate(-350, -200)">
            <g id="改色" transform="translate(350, 200)">
                <mask id="mask-3" fill="white">
                    <use xlink:href="#path-2" transform="translate(100, 100) scale(-1, -1) translate(-100, -100)"></use>
                </mask>
                <use id="iconbase" fill="url(#linearGradient-1)" transform="translate(100, 100) scale(-1, -1) translate(-100, -100)" xlink:href="#path-2"></use>
                <g id="Logo" mask="url(#mask-3)">
                    <g transform="translate(33, 20)">
                        <path d="M116.377945,145.710033 L116.377945,148.984817 L110.68937,148.984033 L110.689729,160 L107.125684,160 L107.12537,148.984033 L101.20937,148.984817 L101.20937,145.710033 L116.377945,145.710033 Z" id="T" fill="#689F38"></path>
                        <path d="M75.5244865,160 L75.5244865,145.710033 L89.4836622,145.710033 L89.4836622,160 L75.5244865,160 Z M79.0885314,156.427508 L87.7014865,156.427033 L87.7014865,148.984033 L79.0885314,148.984817 L79.0885314,156.427508 Z" id="D" fill="#6CA23E"></path>
                        <path d="M61.3609723,145.710033 L61.3609723,148.984817 L50.3717966,148.984033 L50.3717966,156.427033 L61.3609723,156.427508 L61.3609723,160 L47.4017966,160 L47.4017966,145.710033 L61.3609723,145.710033 Z" id="C" fill="#5FCB5C"></path>
                        <path d="M33.288179,160 L18.9607186,160 L18.9607186,145.710033 L22.2277598,145.710033 L22.2277598,156.427508 L30.0207186,156.427033 L30.0211378,145.710033 L33.288179,145.710033 L33.288179,160 Z" id="U" fill="#5FCB5C"></path>
                        <path d="M66.8258411,0 L133.651682,48.7337548 L133.651682,130.991366 L72.7659158,130.991366 L66.8258411,126.823459 L60.8857663,130.991366 L0,130.991366 L0,48.7337548 L66.8258411,0 Z" id="Bootom" fill="#5FCB5C"></path>
                        <path d="M96.3726532,42.7946814 C99.594198,38.330893 105.824392,37.3238556 110.28818,40.5454004 L121.940935,48.955269 C124.545667,50.8351203 126.088779,53.851809 126.088779,57.0640459 L126.088779,114.803811 C126.088779,120.326658 121.611626,124.803811 116.088779,124.803811 L104.487581,124.803811 C98.9647337,124.803811 94.4875812,120.326658 94.4875812,114.803811 L94.4875812,48.6278044 C94.4875812,46.5336841 95.1471412,44.4927569 96.3726532,42.7946814 Z M107.33871,52.3997361 C104.604442,52.3997361 102.387881,54.6162978 102.387881,57.3505652 L102.387881,109.61801 C102.387881,113.981224 105.924965,117.518309 110.28818,117.518309 C114.651395,117.518309 118.188479,113.981224 118.188479,109.61801 L118.188479,64.2674553 C118.188479,61.1012307 116.689018,58.1220643 114.146008,56.235777 L110.28818,53.3742185 C109.435023,52.7413862 108.400949,52.3997361 107.33871,52.3997361 Z" id="O" fill="#FFFFFF"></path>
                        <path d="M84.6949547,79.1902352 L97.0119322,79.1902352 C97.8866434,79.1902352 98.5957369,79.8993287 98.5957369,80.7740399 C98.5957369,81.6487511 97.8866434,82.3578446 97.0119322,82.3578446 L84.6949547,82.3578446 C83.8202435,82.3578446 83.11115,81.6487511 83.11115,80.7740399 C83.11115,79.8993287 83.8202435,79.1902352 84.6949547,79.1902352 Z M84.6949547,69.687407 L97.0119322,69.687407 C97.8866434,69.687407 98.5957369,70.3965005 98.5957369,71.2712117 C98.5957369,72.1459229 97.8866434,72.8550164 97.0119322,72.8550164 L84.6949547,72.8550164 C83.8202435,72.8550164 83.11115,72.1459229 83.11115,71.2712117 C83.11115,70.3965005 83.8202435,69.687407 84.6949547,69.687407 Z" id="化合键" fill="#FFFFFF"></path>
                        <path d="M60.8779283,124.803811 L72.4791261,124.803811 C78.0019736,124.803811 82.4791261,120.326658 82.4791261,114.803811 L82.4791261,102.756455 C82.4791261,100.567029 80.7042449,98.7921475 78.5148181,98.7921475 C76.3253913,98.7921475 74.5505101,100.567029 74.5505101,102.756455 L74.5505101,106.618006 C74.5505101,110.940108 71.0467539,114.443865 66.7246516,114.443865 L66.6502107,114.443865 C62.2884228,114.443865 58.752495,110.907937 58.752495,106.546149 C58.752495,106.545288 58.7524952,106.544427 58.7524955,106.543566 L58.7766586,32.6720916 C58.7776506,29.6394511 60.1547876,26.7711049 62.5206924,24.8738953 L62.7283775,24.7073534 C65.036574,22.8564197 68.3204804,22.8564197 70.6286769,24.7073534 L70.8276536,24.866912 C73.1985204,26.7681007 74.5761957,29.6442514 74.5716768,32.6832491 L74.556405,42.9535816 C74.5531542,45.1397528 76.3227608,46.9146301 78.508932,46.9178808 C78.510894,46.9178838 78.5128561,46.9178852 78.5148181,46.9178852 C80.7042449,46.9178852 82.4791261,45.1430041 82.4791261,42.9535773 L82.4791261,25.3879519 C82.4791261,22.1757149 80.9360139,19.1590262 78.3312826,17.2791749 L72.5306837,13.0928454 C69.0366998,10.5712147 64.3203546,10.5712147 60.8263707,13.0928454 L55.0257718,17.2791749 C52.4210405,19.1590262 50.8779283,22.1757149 50.8779283,25.3879519 L50.8779283,114.803811 C50.8779283,120.326658 55.3550808,124.803811 60.8779283,124.803811 Z" id="C" fill="#FFFFFF"></path>
                        <path d="M36.3451222,79.1902352 L52.4542434,79.1902352 C53.3289546,79.1902352 54.0380481,79.8993287 54.0380481,80.7740399 C54.0380481,81.6487511 53.3289546,82.3578446 52.4542434,82.3578446 L36.3451222,82.3578446 C35.470411,82.3578446 34.7613175,81.6487511 34.7613175,80.7740399 C34.7613175,79.8993287 35.470411,79.1902352 36.3451222,79.1902352 Z M36.3451222,69.687407 L52.4542434,69.687407 C53.3289546,69.687407 54.0380481,70.3965005 54.0380481,71.2712117 C54.0380481,72.1459229 53.3289546,72.8550164 52.4542434,72.8550164 L36.3451222,72.8550164 C35.470411,72.8550164 34.7613175,72.1459229 34.7613175,71.2712117 C34.7613175,70.3965005 35.470411,69.687407 36.3451222,69.687407 Z" id="化合键" fill="#FFFFFF"></path>
                        <path d="M28.9019973,38.6603284 C34.4068822,38.6603284 38.8694732,43.1229194 38.8694732,48.6278044 L38.8694732,114.803811 C38.8694732,120.326658 34.3923207,124.803811 28.8694732,124.803811 L17.2682755,124.803811 C11.745428,124.803811 7.26827548,120.326658 7.26827548,114.803811 L7.26827548,57.0640459 C7.26827548,53.851809 8.81138766,50.8351203 11.416119,48.955269 L23.0688743,40.5454004 C24.7669498,39.3198884 26.807877,38.6603284 28.9019973,38.6603284 Z M30.0588646,54.2829678 C28.4670474,52.0143199 25.3375222,51.4656403 23.0688743,53.0574576 L19.4248404,55.6143269 C16.7568747,57.4863291 15.1685749,60.5410533 15.1685749,63.8002608 L15.1685749,108.984488 C15.1685749,113.347703 18.7056594,116.884787 23.0688743,116.884787 C27.4320892,116.884787 30.9691738,113.347703 30.9691738,108.984488 L30.9691738,57.1652078 C30.9691738,56.1337369 30.6513142,55.127323 30.0588646,54.2829678 Z" id="O" fill="#FFFFFF"></path>
                    </g>
                </g>
            </g>
        </g>
    </g>
</svg>