<?xml version="1.0" encoding="UTF-8"?>
<svg width="200px" height="200px" viewBox="0 0 200 200" version="1.1" xmlns="http://www.w3.org/2000/svg" xmlns:xlink="http://www.w3.org/1999/xlink">
    <title>原版</title>
    <defs>
        <linearGradient x1="50%" y1="100%" x2="50%" y2="0%" id="linearGradient-1">
            <stop stop-color="#FFFFFF" offset="0%"></stop>
            <stop stop-color="#F8D2FF" offset="100%"></stop>
        </linearGradient>
        <path d="M68,0 C45.8333333,0 38.75,0 28.75,3.33333333 C16.9666672,7.5 7.5,16.9666672 3.33333333,28.75 C0,38.75 0,45.8333333 0,68 C0,110.666667 0,132 0,132 C0,154.166667 0,161.25 3.33333333,171.25 C7.50773112,183.033333 16.9666672,192.5 28.75,196.666667 C38.75,200 45.8333333,200 68,200 L132,200 C154.166667,200 161.25,200 171.25,196.666667 C183.033333,192.5 192.5,183.033333 196.666667,171.25 C200,161.25 200,154.166667 200,132 L200,68 C200,45.8333333 200,38.75 196.666667,28.75 C192.5,17.0833333 182.899996,7.5 171.23333,3.33333333 C161.23333,0 154.166667,0 132,0 L68,0 Z" id="path-2"></path>
    </defs>
    <g id="主页面" stroke="none" stroke-width="1" fill="none" fill-rule="evenodd">
        <g id="UCDT方形图标" transform="translate(-50, -200)">
            <g id="原版" transform="translate(50, 200)">
                <mask id="mask-3" fill="white">
                    <use xlink:href="#path-2" transform="translate(100, 100) scale(-1, -1) translate(-100, -100)"></use>
                </mask>
                <use id="iconbase" fill="url(#linearGradient-1)" transform="translate(100, 100) scale(-1, -1) translate(-100, -100)" xlink:href="#path-2"></use>
                <g id="Logo" mask="url(#mask-3)">
                    <g transform="translate(33, 20)">
                        <path d="M116.653766,145.710033 L116.653766,148.984817 L110.951241,148.984033 L110.952069,160 L107.379577,160 L107.379241,148.984033 L101.449241,148.984817 L101.449241,145.710033 L116.653766,145.710033 Z" id="T" fill="#48158D"></path>
                        <path d="M75.7034832,160 L75.7034832,145.710033 L89.6957428,145.710033 L89.6957428,160 L75.7034832,160 Z M79.275975,156.427508 L87.9094832,156.427033 L87.9094832,148.984033 L79.275975,148.984817 L79.275975,156.427508 Z" id="D" fill="#48158D"></path>
                        <path d="M61.5064007,145.710033 L61.5064007,148.984817 L50.4911411,148.984033 L50.4911411,156.427033 L61.5064007,156.427508 L61.5064007,160 L47.5141411,160 L47.5141411,145.710033 L61.5064007,145.710033 Z" id="C" fill="#9D27B0"></path>
                        <path d="M33.3670735,160 L19.0056564,160 L19.0056564,145.710033 L22.2804406,145.710033 L22.2804406,156.427508 L30.0916564,156.427033 L30.0922894,145.710033 L33.3670735,145.710033 L33.3670735,160 Z" id="U" fill="#9D27B0"></path>
                        <path d="M0,48.7337548 L133.968443,48.7337548 L133.968443,130.991366 L72.9383745,130.991366 L66.9842215,126.823459 L61.0300685,130.991366 L0,130.991366 L0,48.7337548 Z M66.9842215,0 L133.968443,48.7337548 L0,48.7337548 L66.9842215,0 Z" id="Bootom" fill="#9D27B0"></path>
                        <path d="M96.5955831,42.8169794 C99.8215905,38.3364136 106.069002,37.319393 110.549568,40.5454004 L122.230663,48.9557883 C124.840717,50.8350277 126.387615,53.8549342 126.387615,57.0711317 L126.387615,114.803811 C126.387615,120.326658 121.910463,124.803811 116.387615,124.803811 L104.711521,124.803811 C99.1886738,124.803811 94.7115213,120.326658 94.7115213,114.803811 L94.7115213,48.6581825 C94.7115213,46.5617268 95.3706141,44.5183252 96.5955831,42.8169794 Z M107.595939,52.4002163 C104.853627,52.4002163 102.630545,54.6232988 102.630545,57.3656101 L102.630545,109.599286 C102.630545,113.972841 106.176012,117.518309 110.549568,117.518309 C114.923124,117.518309 118.468592,113.972841 118.468592,109.599286 L118.468592,64.2745532 C118.468592,61.104341 116.965371,58.1219127 114.417022,56.2361342 L110.549568,53.3742185 C109.694729,52.7416374 108.659381,52.4002163 107.595939,52.4002163 Z" id="O" fill="#FFFFFF"></path>
                        <path d="M84.8919321,79.1902352 L97.2456088,79.1902352 C98.12032,79.1902352 98.8294135,79.8993287 98.8294135,80.7740399 C98.8294135,81.6487511 98.12032,82.3578446 97.2456088,82.3578446 L84.8919321,82.3578446 C84.0172209,82.3578446 83.3081274,81.6487511 83.3081274,80.7740399 C83.3081274,79.8993287 84.0172209,79.1902352 84.8919321,79.1902352 Z M84.8919321,69.687407 L97.2456088,69.687407 C98.12032,69.687407 98.8294135,70.3965005 98.8294135,71.2712117 C98.8294135,72.1459229 98.12032,72.8550164 97.2456088,72.8550164 L84.8919321,72.8550164 C84.0172209,72.8550164 83.3081274,72.1459229 83.3081274,71.2712117 C83.3081274,70.3965005 84.0172209,69.687407 84.8919321,69.687407 Z" id="化合键" fill="#FFFFFF"></path>
                        <path d="M60.9985115,124.803811 L72.6746055,124.803811 C78.197453,124.803811 82.6746055,120.326658 82.6746055,114.803811 L82.6746055,102.765851 C82.6746055,100.571235 80.8955179,98.7921475 78.700902,98.7921475 C76.5062861,98.7921475 74.7271984,100.571235 74.7271984,102.765851 L74.7271984,106.618006 C74.7271984,110.940108 71.2234422,114.443865 66.9013399,114.443865 L66.8081749,114.443865 C62.4360527,114.443865 58.8917474,110.899559 58.8917474,106.527437 C58.8917474,106.526572 58.8917475,106.525707 58.8917478,106.524842 L58.9159598,32.6791931 C58.9169555,29.6425057 60.2977542,26.7707874 62.6690088,24.8737837 L62.8770467,24.7073534 C65.1919163,22.8554577 68.4812007,22.8554577 70.7960703,24.7073534 L70.9953662,24.8667901 C73.3715999,26.7677771 74.7529403,29.6473227 74.7484046,32.6903833 L74.7331212,42.9441861 C74.729855,45.1355309 76.5036432,46.9146146 78.694988,46.9178808 C78.6969593,46.9178838 78.6989306,46.9178852 78.700902,46.9178852 C80.8955179,46.9178852 82.6746055,45.1387975 82.6746055,42.9441817 L82.6746055,25.3950376 C82.6746055,22.1788401 81.1277076,19.1589337 78.5176528,17.2796942 L72.6796058,13.0763004 C69.189501,10.5634249 64.483616,10.5634249 60.9935112,13.0763004 L55.1554642,17.2796942 C52.5454094,19.1589337 50.9985115,22.1788401 50.9985115,25.3950376 L50.9985115,114.803811 C50.9985115,120.326658 55.475664,124.803811 60.9985115,124.803811 Z" id="C" fill="#FFFFFF"></path>
                        <path d="M36.4275082,79.1902352 L52.5823162,79.1902352 C53.4570274,79.1902352 54.1661209,79.8993287 54.1661209,80.7740399 C54.1661209,81.6487511 53.4570274,82.3578446 52.5823162,82.3578446 L36.4275082,82.3578446 C35.552797,82.3578446 34.8437035,81.6487511 34.8437035,80.7740399 C34.8437035,79.8993287 35.552797,79.1902352 36.4275082,79.1902352 Z M36.4275082,69.687407 L52.5823162,69.687407 C53.4570274,69.687407 54.1661209,70.3965005 54.1661209,71.2712117 C54.1661209,72.1459229 53.4570274,72.8550164 52.5823162,72.8550164 L36.4275082,72.8550164 C35.552797,72.8550164 34.8437035,72.1459229 34.8437035,71.2712117 C34.8437035,70.3965005 35.552797,69.687407 36.4275082,69.687407 Z" id="化合键" fill="#FFFFFF"></path>
                        <path d="M28.9647518,38.6613386 C34.4858562,38.6613386 38.9615957,43.1370781 38.9615957,48.6581825 L38.9615957,114.803811 C38.9615957,120.326658 34.4844432,124.803811 28.9615957,124.803811 L17.2855016,124.803811 C11.7626541,124.803811 7.28550164,120.326658 7.28550164,114.803811 L7.28550164,57.0711317 C7.28550164,53.8549342 8.83239961,50.8350277 11.4424544,48.9557883 L23.1235487,40.5454004 C24.8248945,39.3204314 26.8682961,38.6613386 28.9647518,38.6613386 Z M30.1327909,54.2943827 C28.5388095,52.0172665 25.4006649,51.4634762 23.1235487,53.0574576 L19.4699017,55.6150105 C16.7966349,57.4862972 15.2045252,60.5441917 15.2045252,63.8073297 L15.2045252,108.965764 C15.2045252,113.33932 18.7499928,116.884787 23.1235487,116.884787 C27.4971046,116.884787 31.0425722,113.33932 31.0425722,108.965764 L31.0425722,57.1805412 C31.0425722,56.1479377 30.7249501,55.1403244 30.1327909,54.2943827 Z" id="O" fill="#FFFFFF"></path>
                    </g>
                </g>
            </g>
        </g>
    </g>
</svg>