<?xml version="1.0" encoding="UTF-8"?>
<svg width="200px" height="200px" viewBox="0 0 200 200" version="1.1" xmlns="http://www.w3.org/2000/svg" xmlns:xlink="http://www.w3.org/1999/xlink">
    <title>UCDT 蓝色</title>
    <defs>
        <linearGradient x1="50%" y1="100%" x2="50%" y2="0%" id="linearGradient-1">
            <stop stop-color="#FFFFFF" offset="0%"></stop>
            <stop stop-color="#D1EAFF" offset="100%"></stop>
        </linearGradient>
        <path d="M68,0 C45.8333333,0 38.75,0 28.75,3.33333333 C16.9666672,7.5 7.5,16.9666672 3.33333333,28.75 C0,38.75 0,45.8333333 0,68 C0,110.666667 0,132 0,132 C0,154.166667 0,161.25 3.33333333,171.25 C7.50773112,183.033333 16.9666672,192.5 28.75,196.666667 C38.75,200 45.8333333,200 68,200 L132,200 C154.166667,200 161.25,200 171.25,196.666667 C183.033333,192.5 192.5,183.033333 196.666667,171.25 C200,161.25 200,154.166667 200,132 L200,68 C200,45.8333333 200,38.75 196.666667,28.75 C192.5,17.0833333 182.899996,7.5 171.23333,3.33333333 C161.23333,0 154.166667,0 132,0 L68,0 Z" id="path-2"></path>
    </defs>
    <g id="主页面" stroke="none" stroke-width="1" fill="none" fill-rule="evenodd">
        <g id="UCDT方形图标" transform="translate(-50, -200)">
            <g id="UCDT-蓝色" transform="translate(50, 200)">
                <mask id="mask-3" fill="white">
                    <use xlink:href="#path-2" transform="translate(100, 100) scale(-1, -1) translate(-100, -100)"></use>
                </mask>
                <use id="iconbase" fill="url(#linearGradient-1)" transform="translate(100, 100) scale(-1, -1) translate(-100, -100)" xlink:href="#path-2"></use>
                <g id="Logo" mask="url(#mask-3)">
                    <g transform="translate(33, 20)">
                        <path d="M115.928144,145.628743 L115.928144,148.922156 L110.178802,148.921743 L110.179641,160 L106.577822,160 L106.577802,148.921743 L100.598802,148.922156 L100.598802,145.628743 L115.928144,145.628743 Z" id="T" fill="#063C7C"></path>
                        <path d="M74.7305389,160 L74.7305389,145.628743 L89.1017964,145.628743 L89.1017964,160 L74.7305389,160 Z M78.3997962,156.407186 L87.2665389,156.406743 L87.2665389,148.921743 L78.3997962,148.922156 L78.3997962,156.407186 Z" id="D" fill="#063C7C"></path>
                        <path d="M61.3173653,145.628743 L61.3173653,148.922156 L50.0031078,148.921743 L50.0031078,156.406743 L61.3173653,156.407186 L61.3173653,160 L46.9461078,160 L46.9461078,145.628743 L61.3173653,145.628743 Z" id="C" fill="#0091EA"></path>
                        <path d="M19.1616766,145.628743 L22.6571732,145.628743 L22.6571732,160 L19.1616766,160 Z M34.491018,160 L22.6571732,160 L22.6571732,156.407186 L30.9946766,156.406743 L30.9955214,145.628743 L34.491018,145.628743 L34.491018,160 Z" id="U" fill="#0091EA"></path>
                        <path d="M0,48.832761 L133.173653,48.832761 L133.173653,131.257485 L72.5056554,131.257485 L66.5868263,127.081111 L60.6679973,131.257485 L0,131.257485 L0,48.832761 Z M66.5868263,0 L133.173653,48.832761 L0,48.832761 L66.5868263,0 Z" id="Bootom" fill="#0091EA"></path>
                        <path d="M95.766236,43.1964078 C98.9175104,38.9165137 104.941663,38.0015867 109.221557,41.1528611 L120.480045,49.4424552 C123.039705,51.3271259 124.550898,54.3164539 124.550898,57.4951082 L124.550898,114.550898 C124.550898,120.073746 120.073746,124.550898 114.550898,124.550898 L103.892216,124.550898 C98.3693681,124.550898 93.8922156,120.073746 93.8922156,114.550898 L93.8922156,48.9022949 C93.8922156,46.8491186 94.5488777,44.8497594 95.766236,43.1964078 Z M106.33703,52.8822683 C103.69703,52.8822683 101.556886,55.0224117 101.556886,57.6624124 L101.556886,109.675119 C101.556886,113.9082 104.988476,117.33979 109.221557,117.33979 C113.454638,117.33979 116.886228,113.9082 116.886228,109.675119 L116.886228,64.6240383 C116.886228,61.4916147 115.418443,58.5401758 112.92062,56.6499484 L109.221557,53.8506825 C108.391196,53.2223069 107.378354,52.8822683 106.33703,52.8822683 Z" id="O" fill="#FFFFFF"></path>
                        <path d="M84.9101796,79.2814371 L97.1257485,79.2814371 C97.985593,79.2814371 98.6826347,79.9784788 98.6826347,80.8383234 C98.6826347,81.6981679 97.985593,82.3952096 97.1257485,82.3952096 L84.9101796,82.3952096 C84.0503351,82.3952096 83.3532934,81.6981679 83.3532934,80.8383234 C83.3532934,79.9784788 84.0503351,79.2814371 84.9101796,79.2814371 Z M84.9101796,69.9401198 L97.1257485,69.9401198 C97.985593,69.9401198 98.6826347,70.6371615 98.6826347,71.497006 C98.6826347,72.3568505 97.985593,73.0538922 97.1257485,73.0538922 L84.9101796,73.0538922 C84.0503351,73.0538922 83.3532934,72.3568505 83.3532934,71.497006 C83.3532934,70.6371615 84.0503351,69.9401198 84.9101796,69.9401198 Z" id="化合键" fill="#FFFFFF"></path>
                        <path d="M61.7365269,124.550898 L72.3952096,124.550898 C77.9180571,124.550898 82.3952096,120.073746 82.3952096,114.550898 L82.3952096,102.386733 C82.3952096,100.262607 80.6732648,98.5406622 78.5491383,98.5406622 C76.4250118,98.5406622 74.703067,100.262607 74.703067,102.386733 L74.703067,106.52685 C74.703067,110.759931 71.271477,114.191521 67.0383963,114.191521 C62.8066588,114.191521 59.3761577,110.761019 59.3761577,106.529282 C59.3761577,106.528471 59.3761579,106.527661 59.3761581,106.52685 L59.399704,32.3338627 C59.40065,29.3530215 60.7313388,26.5280029 63.0289843,24.6289926 L63.2335329,24.4599326 C65.4577431,22.6216168 68.6739934,22.6216168 70.8982036,24.4599326 L71.0944629,24.6221414 C73.3968571,26.5250765 74.7280427,29.3576133 74.7237333,32.3446122 L74.7086158,42.8231786 C74.7055557,44.9442406 76.4225355,46.6661818 78.5435975,46.6692419 C78.5454444,46.6692446 78.5472914,46.6692459 78.5491383,46.6692459 C80.6732648,46.6692459 82.3952096,44.9473011 82.3952096,42.8231746 L82.3952096,25.0502099 C82.3952096,21.8887471 80.9002302,18.9134787 78.3635945,17.026596 L73.0342532,13.0623523 C69.4916402,10.4271709 64.6400963,10.4271709 61.0974833,13.0623523 L55.768142,17.026596 C53.2315063,18.9134787 51.7365269,21.8887471 51.7365269,25.0502099 L51.7365269,114.550898 C51.7365269,120.073746 56.2136794,124.550898 61.7365269,124.550898 Z" id="C" fill="#FFFFFF"></path>
                        <path d="M35.0898204,79.2814371 L51.1377246,79.2814371 C51.9975691,79.2814371 52.6946108,79.9784788 52.6946108,80.8383234 C52.6946108,81.6981679 51.9975691,82.3952096 51.1377246,82.3952096 L35.0898204,82.3952096 C34.2299758,82.3952096 33.5329341,81.6981679 33.5329341,80.8383234 C33.5329341,79.9784788 34.2299758,79.2814371 35.0898204,79.2814371 Z M35.0898204,69.9401198 L51.1377246,69.9401198 C51.9975691,69.9401198 52.6946108,70.6371615 52.6946108,71.497006 C52.6946108,72.3568505 51.9975691,73.0538922 51.1377246,73.0538922 L35.0898204,73.0538922 C34.2299758,73.0538922 33.5329341,72.3568505 33.5329341,71.497006 C33.5329341,70.6371615 34.2299758,69.9401198 35.0898204,69.9401198 Z" id="化合键" fill="#FFFFFF"></path>
                        <path d="M29.6580011,39.2781702 C34.972878,39.2781702 39.2814371,43.5867293 39.2814371,48.9016063 L39.2814371,114.550898 C39.2814371,120.073746 34.8042846,124.550898 29.2814371,124.550898 L18.6227545,124.550898 C13.099907,124.550898 8.62275449,120.073746 8.62275449,114.550898 L8.62275449,57.4945204 C8.62275449,54.3158792 10.1339354,51.326562 12.6935778,49.4418895 L23.9520958,41.1522084 C25.6054496,39.934839 27.6048164,39.2781702 29.6580011,39.2781702 Z M30.7114479,54.6559688 C29.1540094,52.4803202 26.1277444,51.9791619 23.9520958,53.5366003 L20.4666228,56.0316768 C17.8435763,57.9093851 16.2874251,60.9371321 16.2874251,64.1629904 L16.2874251,109.048005 C16.2874251,113.281086 19.7190151,116.712675 23.9520958,116.712675 C28.1851765,116.712675 31.6167665,113.281086 31.6167665,109.048005 L31.6167665,57.4759606 C31.6167665,56.4645056 31.3001959,55.4784146 30.7114479,54.6559688 Z" id="O" fill="#FFFFFF"></path>
                    </g>
                </g>
            </g>
        </g>
    </g>
</svg>