<?xml version="1.0" encoding="UTF-8"?>
<svg width="1500px" height="285px" viewBox="0 0 1500 285" version="1.1" xmlns="http://www.w3.org/2000/svg" xmlns:xlink="http://www.w3.org/1999/xlink">
    <title>数字孪生文字</title>
    <g id="数字孪生文字" stroke="none" fill="none" fill-rule="evenodd" stroke-width="1">
        <g id="项目组" transform="translate(1149, 73)" fill="#0091EA">
            <path d="M70.5,99.3 L70.5,39 L41.7,39 L41.7,99.3 L34.05,99.3 L34.05,31.05 L52.05,31.05 L52.05,17.1 L32.7,17.1 L32.7,9.3 L79.2,9.3 L79.2,17.1 L59.85,17.1 L59.85,31.05 L78,31.05 L78,99.3 L70.5,99.3 Z M28.05,122.4 L2.55,128.85 L2.55,121.05 L11.25,118.95 L11.25,18.45 L3.3,18.45 L3.3,10.65 L27.15,10.65 L27.15,18.45 L19.2,18.45 L19.2,116.85 L28.05,114.6 L28.05,122.4 Z M52.2,97.35 L52.2,46.2 L59.7,46.2 L59.7,97.35 L79.8,145.8 L72.45,145.8 L55.95,106.2 L39.3,145.8 L31.35,145.8 L52.2,97.35 Z" id="形状" fill-rule="nonzero"></path>
            <path d="M150,8.7 L150,143.85 L97.35,143.85 L97.35,8.7 L150,8.7 Z M105.15,96.9 L105.15,136.05 L142.2,136.05 L142.2,96.9 L105.15,96.9 Z M142.2,56.7 L105.15,56.7 L105.15,89.1 L142.2,89.1 L142.2,56.7 Z M142.2,48.9 L142.2,16.5 L105.15,16.5 L105.15,48.9 L142.2,48.9 Z" id="形状" fill-rule="nonzero"></path>
            <path d="M244.65,144.15 L196.2,144.15 L196.2,136.35 L201.45,136.35 L201.45,9.45 L239.55,9.45 L239.55,136.35 L244.65,136.35 L244.65,144.15 Z M183,4.05 L190.8,4.05 L178.2,55.65 L183.45,55.65 L187.65,38.4 L195.45,38.4 L179.1,105.45 L194.4,105.45 L194.4,113.25 L169.5,113.25 L181.5,63.6 L168.6,63.6 L183,4.05 Z M231.75,101.1 L209.25,101.1 L209.25,136.35 L231.75,136.35 L231.75,101.1 Z M209.25,51.75 L231.75,51.75 L231.75,17.25 L209.25,17.25 L209.25,51.75 Z M231.75,59.55 L209.25,59.55 L209.25,93.15 L231.75,93.15 L231.75,59.55 Z M193.05,134.4 L167.7,144 L167.7,136.05 L193.05,126.6 L193.05,134.4 Z" id="形状" fill-rule="nonzero"></path>
        </g>
        <g id="城市碳•数字孪生AI" transform="translate(300, 73)" fill="#0091EA">
            <path d="M62.4,98.85 L57.45,105.15 L57.45,93.6 L61.65,88.35 L61.65,31.95 L38.4,31.95 L38.4,53.7 L54,53.7 L54,145.35 L46.05,145.35 L46.05,61.5 L38.4,61.5 L38.4,85.95 L34.95,145.35 L27.15,145.35 L30.6,85.8 L30.6,24 L61.65,24 L61.65,4.35 L69.45,4.35 L69.45,24 L79.65,24 L79.65,31.95 L69.45,31.95 L69.45,78.45 L79.2,66 L79.2,77.4 L69.45,89.85 L69.45,91.8 L78.45,145.35 L70.65,145.35 L62.4,98.85 Z M25.5,130.5 L2.7,140.25 L2.7,132.45 L10.2,129.15 L10.2,51.6 L2.7,51.6 L2.7,43.8 L10.2,43.8 L10.2,4.65 L18.15,4.65 L18.15,43.8 L25.5,43.8 L25.5,51.6 L18.15,51.6 L18.15,125.85 L25.5,122.7 L25.5,130.5 Z M72.6,18.9 L72.6,4.35 L78.6,4.35 L78.6,18.9 L72.6,18.9 Z" id="形状" fill-rule="nonzero"></path>
            <path d="M119.85,30 L88.35,30 L88.35,22.05 L159.15,22.05 L159.15,30 L127.8,30 L127.8,47.55 L152.85,47.55 L152.85,83.4 L142.5,125.25 L134.25,125.25 L145.05,83.25 L145.05,55.35 L127.8,55.35 L127.8,145.2 L119.85,145.2 L119.85,55.35 L102.45,55.35 L102.45,125.25 L94.65,125.25 L94.65,47.55 L119.85,47.55 L119.85,30 Z M119.85,17.7 L119.85,3.9 L127.8,3.9 L127.8,17.7 L119.85,17.7 Z" id="形状" fill-rule="nonzero"></path>
            <path d="M167.7,9.3 L192.75,9.3 L192.75,17.1 L182.85,17.1 L177.3,54.9 L191.4,54.9 L191.4,145.35 L168.9,145.35 L168.9,54.9 L174.75,17.1 L167.7,17.1 L167.7,9.3 Z M196.05,53.4 L202.65,53.4 L202.65,43.35 L210.45,43.35 L210.45,53.4 L244.65,53.4 L244.65,61.2 L210.45,61.2 L210.45,61.8 L202.35,145.65 L194.55,145.65 L202.65,61.65 L202.65,61.2 L196.05,61.2 L196.05,53.4 Z M230.55,67.5 L230.55,102 L244.8,145.65 L237,145.65 L226.8,113.85 L215.7,145.65 L207.75,145.65 L223.35,102 L223.35,67.5 L230.55,67.5 Z M206.25,12.15 L206.25,31.35 L217.05,31.35 L217.05,4.65 L224.85,4.65 L224.85,31.35 L235.8,31.35 L235.8,12.15 L243.6,12.15 L243.6,39.3 L198.45,39.3 L198.45,12.15 L206.25,12.15 Z M183.6,62.7 L176.7,62.7 L176.7,137.55 L183.6,137.55 L183.6,62.7 Z M234.6,104.4 L236.4,73.2 L243.45,73.2 L241.8,104.4 L234.6,104.4 Z M217.95,73.2 L219,104.4 L211.95,104.4 L210.9,73.2 L217.95,73.2 Z" id="形状" fill-rule="nonzero"></path>
            <polygon id="路径" fill-rule="nonzero" points="284.85 111 284.85 92.4 292.5 92.4 292.5 111"></polygon>
            <path d="M379.2,4.2 L387.15,4.2 L383.1,23.1 L409.8,23.1 L409.8,30.9 L404.55,30.9 L404.55,66.9 L395.7,97.65 L409.8,145.8 L402.75,145.8 L391.95,110.55 L381.9,145.8 L374.55,145.8 L388.2,97.8 L378.9,66.9 L378.9,30.9 L373.5,30.9 L379.2,4.2 Z M346.35,77.4 L369.15,77.4 L369.15,101.7 L357.75,119.4 L372.75,145.5 L364.2,145.5 L353.1,126.6 L340.95,145.5 L332.7,145.5 L348.9,119.4 L338.55,101.7 L338.55,85.2 L333.15,85.2 L333.15,77.4 L338.55,77.4 L338.55,69.6 L346.35,69.6 L346.35,77.4 Z M344.55,38.25 L341.1,66 L334.05,66 L337.5,38.25 L333.15,38.25 L333.15,30.45 L349.05,30.45 L349.05,4.8 L356.85,4.8 L356.85,30.45 L372.6,30.45 L372.6,38.25 L368.25,38.25 L371.85,66 L364.65,66 L361.35,38.25 L356.85,38.25 L356.85,66 L349.05,66 L349.05,38.25 L344.55,38.25 Z M386.7,66.6 L391.95,84.6 L397.05,66.6 L397.05,30.9 L386.7,30.9 L386.7,66.6 Z M361.35,99.3 L361.35,85.2 L346.35,85.2 L346.35,99.3 L353.55,111.9 L361.35,99.3 Z M337.35,25.65 L335.85,7.35 L343.05,7.35 L344.55,25.65 L337.35,25.65 Z M361.2,25.65 L363.3,7.35 L370.35,7.35 L368.4,25.65 L361.2,25.65 Z" id="形状" fill-rule="nonzero"></path>
            <path d="M452.25,81.15 L417.15,81.15 L417.15,73.35 L450.15,73.35 L464.25,49.8 L431.7,49.8 L431.7,42 L473.4,42 L473.4,49.8 L459.3,73.35 L490.35,73.35 L490.35,81.15 L460.05,81.15 L460.05,103.2 L443.4,145.2 L434.7,145.2 L452.25,101.55 L452.25,81.15 Z M449.4,18 L449.4,4.65 L457.2,4.65 L457.2,18 L486.45,18 L486.45,39.3 L478.5,39.3 L478.5,25.8 L428.1,25.8 L428.1,39.3 L420.3,39.3 L420.3,18 L449.4,18 Z" id="形状" fill-rule="nonzero"></path>
            <path d="M532.95,95.7 L499.5,95.7 L499.5,87.75 L533.55,87.75 L547.05,66.9 L513.6,66.9 L513.6,59.1 L555.75,59.1 L555.75,66.45 L541.95,87.75 L572.85,87.75 L572.85,95.7 L540.75,95.7 L540.75,110.1 L529.2,145.65 L521.4,145.65 L532.95,110.1 L532.95,95.7 Z M532.2,14.85 L532.2,4.2 L540.15,4.2 L540.15,14.85 L571.95,14.85 L571.95,22.65 L548.25,22.65 L548.25,53.55 L540.45,53.55 L540.45,22.65 L531.9,22.65 L531.9,53.55 L524.1,53.55 L524.1,22.65 L500.4,22.65 L500.4,14.85 L532.2,14.85 Z M560.1,53.55 L555.6,29.4 L563.55,29.4 L567.9,53.55 L560.1,53.55 Z M504.45,53.55 L508.8,29.4 L516.6,29.4 L512.25,53.55 L504.45,53.55 Z" id="形状" fill-rule="nonzero"></path>
            <polygon id="路径" fill-rule="nonzero" points="615.6 27.9 615.6 4.8 623.4 4.8 623.4 27.9 648.3 27.9 648.3 35.85 623.4 35.85 623.4 76.2 647.1 76.2 647.1 84.15 623.4 84.15 623.4 136.5 656.4 136.5 656.4 144.45 580.95 144.45 580.95 136.5 615.6 136.5 615.6 84.15 591.3 84.15 591.3 76.2 615.6 76.2 615.6 35.85 588.15 35.85 593.1 13.95 600.6 13.95 597.75 27.9"></polygon>
            <path d="M684.75,79.95 L670.95,145.95 L661.8,145.95 L690.45,12.15 L704.4,12.15 L732.9,145.95 L724.05,145.95 L710.1,79.95 L684.75,79.95 Z M686.55,72 L708.45,72 L697.5,20.1 L686.55,72 Z" id="形状" fill-rule="nonzero"></path>
            <polygon id="路径" fill-rule="nonzero" points="772.05 145.8 736.2 145.8 736.2 138 749.55 138 749.55 20.25 737.55 20.25 737.55 12.45 770.7 12.45 770.7 20.25 757.35 20.25 757.35 138 772.05 138"></polygon>
        </g>
        <g id="Logo" transform="translate(33, 7)">
            <path d="M199,248 L199,253.5 L189.25,253.499 L189.25,272 L183.140977,272 L183.14,253.499 L173,253.5 L173,248 L199,248 Z" id="T" fill="#063C7C"></path>
            <path d="M135.12766,272 L135.12766,266 L149.936,266 L149.936,253.499 L135.12766,253.5 L135.12766,248 L153,248 L153,253.5 L152.999,253.499 L152.999,266 L153,272 L135.12766,272 Z M129,248 L135.12766,248 L135.12766,272 L129,272 Z" id="D" fill="#063C7C"></path>
            <path d="M105,248 L105,253.5 L86.106,253.499 L86.106,266 L105,266 L105,272 L81,272 L81,248 L105,248 Z" id="C" fill="#0091EA"></path>
            <path d="M56,272 L32,272 L32,248 L37.4726368,248 L37.4726368,266 L50.527,266 L50.5273632,248 L56,248 L56,272 Z" id="U" fill="#0091EA"></path>
            <path d="M114,0 L228,82.5924171 L228,222 L124.133333,222 L114,214.936364 L103.866667,222 L0,222 L0,82.5924171 L114,0 Z" id="Bootom" fill="#0091EA"></path>
            <path d="M162.883261,62.6776312 C166.109216,58.19488 172.358357,57.1760454 176.841108,60.4020005 L210.841108,84.8696693 C213.452296,86.7487773 215,89.7693681 215,92.9864083 L215,202 C215,207.522847 210.522847,212 205,212 L171,212 C165.477153,212 161,207.522847 161,202 L161,68.5187396 C161,66.422438 161.658788,64.3791445 162.883261,62.6776312 Z M182.965811,88.6319144 C178.290273,88.6319144 174.5,92.4221871 174.5,97.0977254 L174.5,189.586256 C174.5,195.109104 178.977153,199.586256 184.5,199.586256 L191.5,199.586256 C197.022847,199.586256 201.5,195.109104 201.5,189.586256 L201.5,105.318074 C201.5,102.147014 199.995979,99.1638918 197.446493,97.2782227 L188,90.2913388 C186.542832,89.2135775 184.778243,88.6319144 182.965811,88.6319144 Z" id="O" fill="#FFFFFF"></path>
            <path d="M143.75,134.5 L165.25,134.5 C166.768783,134.5 168,135.731217 168,137.25 C168,138.768783 166.768783,140 165.25,140 L143.75,140 C142.231217,140 141,138.768783 141,137.25 C141,135.731217 142.231217,134.5 143.75,134.5 Z M143.75,118 L165.25,118 C166.768783,118 168,119.231217 168,120.75 C168,122.268783 166.768783,123.5 165.25,123.5 L143.75,123.5 C142.231217,123.5 141,122.268783 141,120.75 C141,119.231217 142.231217,118 143.75,118 Z" id="化合键" fill="#FFFFFF"></path>
            <path d="M97,212 L131,212 C136.522847,212 141,207.522847 141,202 L141,174.574258 C141,170.832974 137.96709,167.800064 134.225806,167.800064 C130.484523,167.800064 127.451613,170.832974 127.451613,174.574258 L127.451613,184.396014 C127.451613,189.918862 122.97446,194.396014 117.451613,194.396014 L110.451613,194.399303 C104.928765,194.399303 100.451613,189.92215 100.451613,184.399303 C100.451613,184.398207 100.451613,184.39711 100.451613,184.396014 L100.498417,52.1090427 C100.499417,49.066813 101.885238,46.1904798 104.263824,44.2937735 L107.765408,41.5015774 C111.412955,38.5929888 116.587045,38.5929888 120.234592,41.5015774 L123.727388,44.2867657 C126.110976,46.187461 127.497343,49.0716531 127.492785,52.1202778 L127.461743,72.8793016 C127.456157,76.6149909 130.480003,79.6478939 134.215692,79.6534801 C134.219063,79.6534851 134.222435,79.6534876 134.225806,79.6534876 C137.96709,79.6534876 141,76.6205779 141,72.8792941 L141,39.5090931 C141,36.2874729 139.447911,33.2631641 136.830565,31.3847774 L119.830565,19.1844131 C116.345792,16.6835008 111.654208,16.6835008 108.169435,19.1844131 L91.1694346,31.3847774 C88.5520886,33.2631641 87,36.2874729 87,39.5090931 L87,202 C87,207.522847 91.4771525,212 97,212 Z" id="C" fill="#FFFFFF"></path>
            <path d="M61.75,134.5 L88.25,134.5 C89.7687831,134.5 91,135.731217 91,137.25 C91,138.768783 89.7687831,140 88.25,140 L61.75,140 C60.2312169,140 59,138.768783 59,137.25 C59,135.731217 60.2312169,134.5 61.75,134.5 Z M61.75,118 L88.25,118 C89.7687831,118 91,119.231217 91,120.75 C91,122.268783 89.7687831,123.5 88.25,123.5 L61.75,123.5 C60.2312169,123.5 59,122.268783 59,120.75 C59,119.231217 60.2312169,118 61.75,118 Z" id="化合键" fill="#FFFFFF"></path>
            <path d="M57,58.5179895 C62.5228475,58.5179895 67,62.995142 67,68.5179895 L67,202 C67,207.522847 62.5228475,212 57,212 L23,212 C17.4771525,212 13,207.522847 13,202 L13,92.9857793 C13,89.7687474 14.5476961,86.7481633 17.1588726,84.869054 L51.1588726,60.4012641 C52.8603895,59.176783 54.9036904,58.5179895 57,58.5179895 Z M51.9500089,91.8627191 C49.2332385,87.9796818 43.8830373,87.0342356 40,89.751006 L30.7672967,96.2106747 C28.092913,98.0818096 26.5,101.140372 26.5,104.404338 L26.5,188.506734 C26.5,194.029581 30.9771525,198.506734 36.5,198.506734 L43.5,198.506734 C49.0228475,198.506734 53.5,194.029581 53.5,188.506734 L53.5,96.781867 C53.5,95.0220018 52.9588875,93.3046934 51.9500089,91.8627191 Z" id="O" fill="#FFFFFF"></path>
        </g>
    </g>
</svg>