<?xml version="1.0" encoding="utf-8"?>
<!-- Generator: Adobe Illustrator 28.1.0, SVG Export Plug-In . SVG Version: 6.00 Build 0)  -->
<svg version="1.1" id="图层_1" xmlns="http://www.w3.org/2000/svg" xmlns:xlink="http://www.w3.org/1999/xlink" x="0px" y="0px"
	 viewBox="0 0 1500 285" style="enable-background:new 0 0 1500 285;" xml:space="preserve">
<style type="text/css">
	.st0{fill-rule:evenodd;clip-rule:evenodd;fill:#FFFFFF;}
	.st1{fill:#9CCC64;}
	.st2{fill-rule:evenodd;clip-rule:evenodd;fill:#689F38;}
	.st3{enable-background:new    ;}
	.st4{fill:#689F38;}
	.st5{fill:none;stroke:#689F38;stroke-width:3;}
</style>
<g id="BEEBE文字改色">
	<g id="Logo" transform="translate(50, 57)">
		<path id="Bootom" class="st0" d="M73,0l73,52.92v89.33H79.49L73,137.72l-6.49,4.53H0V52.92L73,0z"/>
		
			<g id="路径" transform="translate(72.0701, 72.5189) scale(-1, 1) rotate(-180) translate(-72.0701, -72.5189)translate(7.4395, 9.2973)">
			<path class="st1" d="M0,79.35V0h56.73c-3.28,4.38-6.16,8.46-8.65,12.24c-7.2,10.65-10.1,20.77-9.94,30.7
				c0.11,6.83,1.8,13.59,5.16,20.28c2.4,4.78,6.1,8.9,9.91,12.71c4.59,4.6,8.39,6.2,11.39,6.2c2.7,0,7.66-2.51,12.27-6.92
				c4.41-4.21,8.4-10.59,10.51-14.98c2.12-4.4,3.51-9.18,3.78-14.2c0.23-4.26-0.04-6.39-0.58-10.67c-0.16-1.31-1.19-5.56-1.86-7.89
				c-0.54-1.85-1.65-5.3-3.33-10.35l-6.13,1.78c0.61,2.3,1.59,5.41,2.93,9.32c0.12,0.35,0.52,1.79,0.6,2.1
				c0.5,1.98,1.02,4.11,1.31,6.2c0.43,3.16,0.38,6.16,0.38,7.91c-0.08,3.14-0.77,7.35-2.28,11.21c-2.35,5.97-6.09,11.42-10.02,14.98
				c-2.75,2.5-5.36,3.4-7.57,3.22c-1.25-0.1-2.07-0.54-3.48-1.25c-3.19-1.39-7.6-6.04-10.63-12.35c-2.93-6.1-4.15-13.55-4.15-18.64
				c0-4.8,1.05-10.47,3.18-15.83c3.25-8.17,9.15-15.07,16.26-19.91c2.38-1.72,4.16-2.89,5.33-3.51C72.4,1.66,74.32,0.88,76.87,0
				h52.32l-0.16,40.77c0.09,8.5,0.15,15.6,0.19,21.29c0.06,7.66,0.04,13.42-0.03,17.28l-64.6,47.09L0,79.35z"/>
		</g>
		<path id="B" class="st2" d="M102.29,172v-14.88h14.88V172H102.29z M106.09,168.28l9.18,0v-2.48l-9.18,0V168.28z M106.09,162.7
			l9.18,0v-2.17l-9.18,0V162.7z"/>
		<path id="E" class="st2" d="M81.83,157.12v3.41l-11.71,0v2.17l6.33,0v3.1l-6.33,0v2.48l11.71,0V172H66.96v-14.88H81.83z"/>
		<path id="L" class="st2" d="M34.41,172v-14.88h3.41v11.16h11.47V172H34.41z"/>
	</g>
	<g class="st3">
		<path class="st4" d="M306.83,188.08h-14.25c-19.47,0-33.38-4.17-41.72-12.52c-4.87,5.33-10.78,9.39-17.73,12.17
			c-0.7,0-1.04-0.12-1.04-0.35c-0.23-0.23,0-0.47,0.7-0.7c6.02-3.94,10.66-9.27,13.91-15.99c-4.17-5.79-7.3-13.91-9.39-24.34
			c0.23-0.46,0.7-0.58,1.39-0.35c2.31,8.12,5.79,14.49,10.43,19.12c2.31-6.95,3.36-14.25,3.13-21.9h-6.61
			c-1.16,1.39-2.21,2.09-3.13,2.09c-0.47,0.23-0.93,0.12-1.39-0.35c-3.01-2.09-5.1-3.82-6.26-5.21c-0.47-0.46-0.47-0.92,0-1.39
			c0.46,0,1.62-0.58,3.48-1.74l9.04-22.25h-6.95c-1.86,0.23-3.6,0.35-5.21,0.35l-2.43-2.43c0.92,0.23,1.97,0.35,3.13,0.35h11.47
			c0.23-0.23,0.46-0.7,0.7-1.39c0.23-0.7,0.58-1.27,1.04-1.74c0.46-0.23,0.92-0.46,1.39-0.7c3.24,1.62,6.14,3.13,8.69,4.52
			c0.46,0.47,0.46,1.04,0,1.74c-1.62,1.16-2.67,1.86-3.13,2.09l-10.43,24.34h5.56c0.92-1.39,2.2-2.66,3.82-3.82
			c0.23,0,0.7,0.12,1.39,0.35c-0.47-0.46-0.35-0.46,0.35,0c1.85,0.93,3.94,2.21,6.26,3.82c0.23,0.7,0.23,1.28,0,1.74
			c-0.23,0.47-0.58,0.93-1.04,1.39c-0.7,0.7-1.16,1.28-1.39,1.74c-0.7,9.73-2.78,17.5-6.26,23.29c7.42,5.33,17.26,8,29.55,8h13.91
			c6.26,0,12.4-0.81,18.43-2.43c0.46,0.23,0.58,0.7,0.35,1.39c-3.48,1.16-5.1,4.29-4.87,9.39c-0.23,0.23-0.47,0.58-0.7,1.04
			C309.61,187.85,308.22,188.08,306.83,188.08z M277.28,174.52v-9.04h-9.73c-0.47,0.23-2.32,0.35-5.56,0.35l-2.09-2.43
			c0.92,0.23,1.85,0.35,2.78,0.35h14.6v-10.43h-6.26c-1.86,0.23-3.6,0.35-5.21,0.35l-2.43-2.43c0.92,0.23,1.97,0.35,3.13,0.35h10.78
			v-11.12h-6.95c-0.47,0.23-2.32,0.35-5.56,0.35l-2.09-2.43c0.92,0.23,1.85,0.35,2.78,0.35h11.82v-8.34h-12.52
			c-2.09,0-3.94,0-5.56,0l-2.09-2.43c0.92,0.23,1.85,0.35,2.78,0.35h17.38v-9.04h-8h-4.87l-1.74-2.43c0.92,0.23,1.85,0.35,2.78,0.35
			h11.82v-11.82c5.1,0,8.34,0.23,9.73,0.7c0.7,0.7,0.7,1.28,0,1.74c-0.47,0.7-0.93,1.04-1.39,1.04v8.34h8.34
			c0.23-0.23,0.7-0.81,1.39-1.74c0.92-1.16,1.62-1.74,2.09-1.74c3.01,0.7,6.02,2.32,9.04,4.87c0,0.47-0.58,1.16-1.74,2.09
			l-0.35,0.35v7.3h1.74c1.16-1.62,2.66-3.36,4.52-5.21c0.23-0.23,0.58-0.23,1.04,0c3.24,2.78,5.33,4.87,6.26,6.26
			c-0.23,0.47-0.47,0.81-0.7,1.04H304.4v12.86c-0.23,0.93-1.16,1.62-2.78,2.09c3.7,2.78,6.26,4.99,7.65,6.61
			c0.23,0.93,0.11,1.39-0.35,1.39h-23.29v10.43h12.17c1.62-2.55,3.36-4.63,5.21-6.26c0.23-0.23,0.58-0.23,1.04,0
			c3.01,1.86,5.68,4.06,8,6.61c0.23,0.7,0.11,1.16-0.35,1.39h-26.07v7.3C282.38,176.26,279.6,176.84,277.28,174.52z M285.62,119.25
			v9.04h9.39v-9.04H285.62z M285.62,130.37v8.34h9.39v-8.34H285.62z M285.62,140.45v11.12h9.39c0.7-1.39,2.31-3.36,4.87-5.91
			c-3.25,0.47-4.87-0.35-4.87-2.43v-2.78H285.62z"/>
		<path class="st4" d="M334.99,167.92v-25.73h-3.48c-0.47,0.23-2.43,0.35-5.91,0.35l-1.74-2.43c0.92,0.23,1.85,0.35,2.78,0.35h17.38
			c2.09-2.55,3.59-4.4,4.52-5.56c0.46,0,0.81,0,1.04,0c2.78,2.32,4.87,4.41,6.26,6.26c0,0.7-0.23,1.04-0.7,1.04h-9.39
			c0,0.47-0.23,0.81-0.7,1.04c-0.23,0.23-0.7,0.58-1.39,1.04l-0.7,0.7v21.55c0.92,0,1.85-0.11,2.78-0.35
			c3.7-0.92,6.49-1.5,8.34-1.74c0.23,0,0.46,0.23,0.7,0.7c0,0.47-0.12,0.81-0.35,1.04c-4.41,2.55-13.79,7.65-28.16,15.3
			c-0.7,0.23-1.16,0.23-1.39,0c-0.23-0.7-0.93-1.97-2.09-3.82c-0.93-2.31-1.62-4.29-2.09-5.91c-0.23-0.7,0-1.27,0.7-1.74
			C322.82,169.78,327.34,169.08,334.99,167.92z M340.21,120.98h-3.82c-3.71,5.33-8.12,10.66-13.21,15.99
			c-0.93,0.23-1.28-0.11-1.04-1.04c5.33-9.27,8.92-19.58,10.78-30.94c0-0.23,0.35-0.46,1.04-0.7c3.01,0.93,6.83,2.32,11.47,4.17
			c0.23,0.47,0.23,0.81,0,1.04c-0.7,0.7-1.62,1.28-2.78,1.74c-1.39,2.55-3.13,5.21-5.21,8h12.86c0.23,0,1.27-1.16,3.13-3.48
			c0.92-1.39,1.62-2.31,2.09-2.78h0.7c0.23,0,0.46,0,0.7,0c3.7,2.78,6.26,4.99,7.65,6.61c0.23,0.93,0.11,1.39-0.35,1.39h-19.82
			c3.48,1.39,5.68,3.48,6.61,6.26c0.7,3.01-0.23,5.21-2.78,6.61c-2.78,0.93-4.64,0-5.56-2.78c-0.47-1.16-0.47-2.31,0-3.48
			c0-0.23,0-0.46,0-0.7C342.87,125.74,342.06,123.77,340.21,120.98z M366.28,152.27v6.61c0.23,13.91-7.77,23.64-23.99,29.2
			c-1.16-0.47-1.39-1.16-0.7-2.09c10.66-5.8,16.11-14.83,16.34-27.12v-22.95c3.01,0.93,5.79,2.09,8.34,3.48h12.86
			c1.62-2.31,2.9-3.48,3.82-3.48c3.24,0.93,6.37,2.55,9.39,4.87c0,0.47-0.58,1.16-1.74,2.09l-1.04,1.39v30.59
			c0.23,2.09,1.16,3.13,2.78,3.13h3.13c2.78,0,5.56-4.63,8.34-13.91c0.46-0.7,1.16-0.58,2.09,0.35c-2.09,8.12-2.32,13.1-0.7,14.95
			c0.46,0.7,0.7,1.5,0.7,2.43c-0.23,2.78-2.9,4.29-8,4.52h-10.43c-3.94-0.7-6.03-2.55-6.26-5.56V141.5h-14.95v10.43
			c0.23-0.23,0.46-0.46,0.7-0.7c6.72,2.78,10.54,6.95,11.47,12.52c0,2.78-1.39,4.64-4.17,5.56c-3.01,0.23-4.75-1.04-5.21-3.82
			c0-0.23,0-0.7,0-1.39c0.23-0.7,0.35-1.39,0.35-2.09c0-3.24-0.93-6.37-2.78-9.39C366.4,152.62,366.28,152.51,366.28,152.27z
			 M377.41,119.94h-2.78c-2.78,4.41-6.95,9.16-12.52,14.25c-0.93,0.23-1.28-0.11-1.04-1.04c5.56-11.12,8.81-20.63,9.73-28.51
			c0-0.23,0.35-0.46,1.04-0.7c3.01,0.93,6.83,2.32,11.47,4.17c0.23,0.47,0.23,0.81,0,1.04c-0.7,0.7-1.62,1.28-2.78,1.74
			c-1.39,2.55-2.9,4.99-4.52,7.3h13.91c2.09-2.55,3.82-4.63,5.21-6.26c0.23-0.23,0.58-0.23,1.04,0c2.78,1.16,5.79,3.36,9.04,6.61
			c0.23,0.47,0.35,0.81,0.35,1.04c-0.23,0.23-0.47,0.35-0.7,0.35h-24.34c4.4,2.09,7.07,4.64,8,7.65c0.23,3.25-1.04,5.33-3.82,6.26
			c-3.01,0.7-4.75-0.46-5.21-3.48c-0.23-0.23-0.23-0.7,0-1.39c0.23-0.7,0.35-1.39,0.35-2.09
			C379.84,125.04,379.02,122.72,377.41,119.94z"/>
		<path class="st4" d="M459.11,129.33v-8.34h-15.64v10.08c-5.56,3.01-8.69,2.78-9.39-0.7v-9.39h-15.64
			c-1.86,0.23-3.71,0.35-5.56,0.35l-2.09-2.43c0.92,0.23,1.97,0.35,3.13,0.35h20.16V104.3c5.79,0.47,9.73,1.16,11.82,2.09
			c0.7,0.47,0.7,1.04,0,1.74c-0.93,0.93-1.74,1.51-2.43,1.74v9.39h15.64V104.3c5.79,0.47,9.73,1.16,11.82,2.09
			c0.7,0.47,0.7,1.04,0,1.74c-0.93,0.93-1.74,1.51-2.43,1.74v9.39h9.04c2.09-3.01,4.17-5.79,6.26-8.34c0.46,0,0.92,0,1.39,0
			c4.17,3.01,7.65,5.68,10.43,8c0.46,1.16,0.35,1.86-0.35,2.09h-26.77v9.39c-1.62,1.39-3.82,2.09-6.61,2.09
			C460.03,132.23,459.11,131.19,459.11,129.33z M451.8,185.65c-0.47,1.39-2.55,2.31-6.26,2.78c-3.01,0.23-4.52-0.47-4.52-2.09
			l0.35-41.37v-7.3h-20.16h-5.91l-2.09-2.09c0.92,0.23,2.43,0.35,4.52,0.35h57.02l0.35-0.7c1.85-2.78,3.01-4.17,3.48-4.17
			c4.17,1.62,7.88,3.6,11.12,5.91c0,0.7-0.7,1.62-2.09,2.78c-0.7,0.47-0.93,0.7-0.7,0.7v17.73c0.7,12.98-3.25,19.59-11.82,19.82
			c-0.23,0-0.81,0-1.74,0c-0.47-4.63-4.52-8.11-12.17-10.43c-0.93-0.92-0.81-1.62,0.35-2.09c10.66,2.78,15.64,0.58,14.95-6.61
			v-21.21h-22.6c0,0.7-0.81,1.62-2.43,2.78v4.52L451.8,185.65z"/>
		<path class="st4" d="M524.81,110.9l-13.91,13.91c1.62,0.23,4.63,0.47,9.04,0.7c4.4,0,8.11,0,11.12,0
			c-0.47-3.94-1.74-6.72-3.82-8.34c-0.47-0.46-0.35-0.81,0.35-1.04c7.88,1.16,12.74,4.29,14.6,9.39c0.46,3.71-0.58,6.49-3.13,8.34
			c-3.01,1.62-5.33,0.93-6.95-2.09c-0.47-0.46-0.81-1.5-1.04-3.13c0-0.7,0-1.27,0-1.74c-12.05,3.48-20.75,6.03-26.07,7.65
			c-0.93,0.47-1.51,0.23-1.74-0.7c-0.23-0.23-0.47-0.58-0.7-1.04c-1.62-3.48-2.43-5.79-2.43-6.95c-0.47-0.46-0.23-0.92,0.7-1.39
			c6.26-1.39,10.78-7.88,13.56-19.47c0-0.23,0.58-0.46,1.74-0.7c6.02,1.86,10.08,3.13,12.17,3.82c0,0.23,0.11,0.58,0.35,1.04
			c-0.7,0.47-1.28,0.81-1.74,1.04C525.74,110.44,525.04,110.67,524.81,110.9z M506.39,176.26v-31.29l-0.35-8
			c-0.23,0-0.12-0.11,0.35-0.35c4.17,1.86,6.95,3.13,8.34,3.82h11.12c0.92-1.16,2.09-2.31,3.48-3.48c0.46-0.23,0.92-0.23,1.39,0
			c1.39,0.47,3.82,1.74,7.3,3.82c-0.23-0.23,0.11-0.11,1.04,0.35c0.46,0.23,0.58,0.7,0.35,1.39c-0.23,0.23-0.58,0.58-1.04,1.04
			c-0.7,0.93-1.16,1.39-1.39,1.39l0.7,37.55c0,3.24-3.13,5.33-9.39,6.26c-0.7-0.23-1.04-0.58-1.04-1.04c-0.7-4.41-3.36-7.19-8-8.34
			c-0.47-0.93-0.35-1.39,0.35-1.39c5.79,0.46,8.81,0.35,9.04-0.35v-11.12h-13.91v18.08c-2.32,3.01-5.21,3.82-8.69,2.43
			c-0.23-0.93-0.23-2.67,0-5.21C506.04,179.97,506.15,178.11,506.39,176.26z M514.73,142.19v10.43h13.91v-10.43H514.73z
			 M514.73,154.36v10.08h13.91v-10.08H514.73z M553.67,124.11v5.21c-0.47,3.25,1.39,4.75,5.56,4.52h5.91
			c8.11,1.16,12.86-2.9,14.25-12.17c0.23-0.46,0.58-0.46,1.04,0c-0.93,4.87-0.7,8.46,0.7,10.78c0.7,1.39,1.04,2.55,1.04,3.48
			c-0.23,4.17-4.87,6.26-13.91,6.26h-11.12c-8.34,0.47-12.29-2.31-11.82-8.34V110.9l-0.35-5.56l0.7-0.35
			c4.4,0.7,7.76,1.62,10.08,2.78c0.23,0.47,0.23,0.93,0,1.39c-0.23,0.47-0.7,0.81-1.39,1.04c-0.23,0.23-0.47,0.47-0.7,0.7v11.12
			c4.4-2.78,9.27-6.72,14.6-11.82c0.23-0.23,0.7-0.23,1.39,0c4.63,3.71,7.53,6.03,8.69,6.95c0,0.23,0.11,0.58,0.35,1.04
			c-2.09,0-3.48,0.12-4.17,0.35c-3.48,1.16-8.58,2.55-15.3,4.17C556.68,123.42,554.83,123.88,553.67,124.11z M576.96,156.79
			l-21.55,7.3v8.69c-0.23,3.48,1.62,5.1,5.56,4.87h6.61c5.79,0.46,10.2-3.94,13.21-13.21c0.23-0.7,0.46-0.7,0.7,0
			c-1.39,5.1-1.16,9.27,0.7,12.52c0.46,0.7,0.81,1.04,1.04,1.04c-0.7,4.4-4.41,6.83-11.12,7.3h-12.17c-8.81,0-13.1-2.9-12.86-8.69
			v-32.33c1.85,0.23,3.94,0.47,6.26,0.7c2.09,0.47,3.48,0.81,4.17,1.04c0.23,0.47,0.23,1.04,0,1.74c-0.23,0.47-0.81,1.04-1.74,1.74
			l-0.35,0.35v12.52c3.48-3.24,8.34-8.22,14.6-14.95c0.46-0.46,0.92-0.58,1.39-0.35c0.46,0.47,1.74,1.62,3.82,3.48
			c2.55,2.32,4.52,3.82,5.91,4.52c0.23,0.7,0.23,1.16,0,1.39c-0.7,0.23-1.39,0.35-2.09,0.35
			C578.12,156.79,577.42,156.79,576.96,156.79z"/>
		<path class="st4" d="M598.52,164.79v-28.16H594c-1.62,0.23-3.25,0.35-4.87,0.35l-2.43-2.78c0.46,0.23,1.97,0.47,4.52,0.7h5.21
			c0.23,0,1.04-0.81,2.43-2.43c0.46-0.46,0.81-0.81,1.04-1.04c0.46-0.46,1.04-0.7,1.74-0.7c1.85,0.93,4.4,2.67,7.65,5.21
			c0.46,0.7,0.46,1.28,0,1.74c-0.47,0.47-1.16,0.93-2.09,1.39l-0.35,0.35v28.51c7.18-4.63,12.28-8.11,15.3-10.43
			c0.7,0.47,1.04,0.81,1.04,1.04c-1.62,1.86-4.17,4.87-7.65,9.04c-3.94,4.87-7.77,9.62-11.47,14.25c-0.93,0.92-1.62,1.04-2.09,0.35
			c-1.62-1.86-3.25-4.17-4.87-6.95c-0.47-0.7-0.47-1.5,0-2.43C598.05,171.17,598.52,168.5,598.52,164.79z M594.69,105.69
			c8.34,1.39,13.56,4.06,15.64,8c1.16,3.48,0.35,6.14-2.43,8c-3.48,1.86-5.8,1.16-6.95-2.09c-0.47-0.46-0.7-1.27-0.7-2.43
			c0-0.92,0-1.62,0-2.09c-0.47-2.31-2.43-4.98-5.91-8c-0.47-0.23-0.7-0.58-0.7-1.04C593.88,105.81,594.22,105.69,594.69,105.69z
			 M646.84,168.96c8.57,5.8,16.8,8.46,24.68,8c0.46,0.23,0.46,0.58,0,1.04c-3.25,0.46-6.38,3.36-9.39,8.69
			c-0.93,0.46-1.39,0.58-1.39,0.35c-8.34-3.25-15.07-7.42-20.16-12.52c-10.66,7.65-21.33,11.93-31.98,12.86
			c-0.7-0.47-0.93-0.93-0.7-1.39c11.82-4.17,21.32-9.85,28.51-17.04c-4.17-5.56-7.42-12.52-9.73-20.86h-4.87l-2.78-2.09
			c0.7,0,1.85,0.12,3.48,0.35c1.39,0,2.43,0,3.13,0h22.25c0.92-2.09,1.85-3.59,2.78-4.52c0.46-0.23,0.92-0.35,1.39-0.35
			c0.23,0.23,0.7,0.58,1.39,1.04c4.87,2.55,8.11,4.52,9.73,5.91l-0.7,1.74c-1.62,0.23-3.01,0.7-4.17,1.39
			C655.76,158.07,651.94,163.87,646.84,168.96z M625.29,118.55v-3.82l-0.35-8c0.23-0.46,0.46-0.7,0.7-0.7
			c1.39,0.47,3.48,1.62,6.26,3.48c0.23,0,0.46,0,0.7,0h11.82c1.85-2.31,3.24-3.59,4.17-3.82c0.23-0.23,0.81-0.23,1.74,0
			c0,0.23,0.23,0.47,0.7,0.7c3.7,2.09,6.14,3.6,7.3,4.52c0.23,0.47,0.11,0.81-0.35,1.04c-0.47,0.7-1.28,1.28-2.43,1.74h-0.35v11.12
			c-0.23,2.09,1.62,3.01,5.56,2.78h1.39c0.23,0,1.39-0.23,3.48-0.7c1.16-0.46,1.97-0.81,2.43-1.04c3.7,1.16,5.56,3.48,5.56,6.95
			c-0.93,2.32-5.45,3.36-13.56,3.13h-4.52c-6.49,0-9.73-1.39-9.73-4.17v-20.51h-12.17v7.3c-0.93,12.29-7.3,20.16-19.12,23.64
			c-1.16-0.23-1.39-0.7-0.7-1.39C620.77,136.63,624.59,129.21,625.29,118.55z M649.62,148.1h-21.55c2.55,5.8,6.72,11.12,12.52,15.99
			C644.29,159.46,647.3,154.13,649.62,148.1z"/>
		<path class="st4" d="M690.99,167.22v-30.59h-6.26h-6.26l-1.39-2.09c0.46,0.23,1.74,0.35,3.82,0.35h8c1.62-2.31,2.9-3.48,3.82-3.48
			c4.17,1.39,7.3,3.01,9.39,4.87c0,0.23-0.58,0.81-1.74,1.74c-1.16,0.93-1.62,1.39-1.39,1.39V170c8.81-6.26,14.25-10.08,16.34-11.47
			c0.7,0,1.04,0.35,1.04,1.04c-8.34,9.73-14.95,18.08-19.82,25.03c-0.23,0-0.7,0.11-1.39,0.35c-2.32-3.01-4.17-5.45-5.56-7.3
			c-0.47-0.7-0.47-1.39,0-2.09C690.3,173.71,690.76,170.93,690.99,167.22z M685.43,108.82c7.65-0.23,12.52,1.74,14.6,5.91
			c1.16,3.25,0.46,6.03-2.09,8.34c-2.32,1.86-4.64,1.51-6.95-1.04c-0.7-0.7-1.16-1.74-1.39-3.13c-0.47-3.71-2.09-6.61-4.87-8.69
			C684.27,109.75,684.5,109.28,685.43,108.82z M725.76,185.3l0.7-43.8h-13.91c-2.32,0-4.29,0-5.91,0l-1.74-2.43
			c0.92,0.23,1.85,0.35,2.78,0.35h18.77l0.35-19.47v-9.04l-0.35-5.56l0.7-0.35c5.33,0.93,9.04,1.86,11.12,2.78
			c0.23,0.47,0.23,0.93,0,1.39c-0.23,0.47-0.81,1.04-1.74,1.74h-0.35v28.51h8.34c3.01-4.4,5.1-7.07,6.26-8h1.39
			c4.17,3.01,7.65,5.68,10.43,8c0.46,0.93,0.35,1.62-0.35,2.09h-26.07v42.76c-0.47,1.85-2.55,3.13-6.26,3.82
			C727.15,188.31,725.76,187.39,725.76,185.3z"/>
		<path class="st4" d="M820.67,150.54h-22.95c0.92,0.47,1.74,0.81,2.43,1.04c-0.23,0.23-0.35,0.7-0.35,1.39l-3.13,1.39
			c-7.19,9.27-17.5,17.04-30.94,23.29c-0.47,0.23-0.7-0.11-0.7-1.04c9.5-6.49,16.8-15.18,21.9-26.07h-14.25c-2.09,0-4.06,0-5.91,0
			l-1.74-2.43c0.92,0.23,1.97,0.35,3.13,0.35h19.82v-27.46h-11.47c-0.47,0.23-2.43,0.35-5.91,0.35l-1.74-2.43
			c0.92,0.23,1.85,0.35,2.78,0.35h16.34v-8.34l-0.35-4.52l0.35-0.35c2.31,0.23,4.4,0.47,6.26,0.7c1.85,0.23,3.36,0.47,4.52,0.7
			c0.23,0.23,0.23,0.7,0,1.39l-0.35,0.35c-0.7,0.93-1.39,1.51-2.09,1.74v8.34h20.51v-8.34l-0.35-4.52l0.35-0.35
			c2.09,0.23,4.05,0.47,5.91,0.7c1.85,0.23,3.48,0.47,4.87,0.7c0.23,0.23,0.23,0.7,0,1.39c-0.93,0.93-1.74,1.62-2.43,2.09v8.34h6.61
			c1.62-2.55,3.36-4.63,5.21-6.26c0.23-0.23,0.58-0.23,1.04,0c3.01,1.86,5.68,4.06,8,6.61c0.23,0.7,0.11,1.16-0.35,1.39h-20.51
			v27.46h10.08c0.23-0.23,1.16-1.27,2.78-3.13c1.39-1.62,2.31-2.66,2.78-3.13c-0.23,0,0.11,0,1.04,0c3.94,2.32,6.95,4.52,9.04,6.61
			c0.46,0.93,0.23,1.51-0.7,1.74h-28.16c5.56,8.58,15.06,12.86,28.51,12.86c0.46,0.47,0.58,0.81,0.35,1.04
			c-4.41,2.32-7.19,5.21-8.34,8.69c-0.47,0.47-0.81,0.7-1.04,0.7C830.63,169.43,823.68,161.66,820.67,150.54z M802.94,184.26v-13.21
			h-9.73c-0.47,0.23-2.43,0.35-5.91,0.35l-1.74-2.43c0.92,0.23,1.85,0.35,2.78,0.35h14.6v-12.17l-0.35-4.52l0.35-0.35
			c0.92,0.23,1.85,0.35,2.78,0.35c3.94,0.23,6.61,0.58,8,1.04c0.23,0.47,0.23,0.93,0,1.39c-0.47,0.7-1.28,1.39-2.43,2.09v12.17h7.3
			c0-0.23,0.23-0.46,0.7-0.7c1.85-2.55,3.24-4.17,4.17-4.87c0.23,0,0.46,0,0.7,0c2.78,2.32,4.87,4.41,6.26,6.26
			c0.23,0.7,0,1.04-0.7,1.04h-18.43v13.21h15.64c2.31-3.25,4.17-5.33,5.56-6.26c-0.23,0,0.11,0,1.04,0
			c3.24,2.09,5.79,4.29,7.65,6.61c0.46,0.7,0.35,1.16-0.35,1.39H779.3c-0.47,0-2.43,0.11-5.91,0.35l-1.74-2.43
			c0.92,0,1.85,0.11,2.78,0.35H802.94z M816.84,128.98v-8h-20.51v8H816.84z M816.84,138.71v-8h-20.51v8H816.84z M816.84,148.45v-8
			h-20.51v8H816.84z"/>
		<path class="st4" d="M868.99,140.45h6.26c0.92-1.39,1.74-2.31,2.43-2.78c0.23-0.23,0.58-0.23,1.04,0c2.55,1.39,4.87,2.9,6.95,4.52
			c0,0.23,0,0.47,0,0.7c0,0.23-0.47,0.58-1.39,1.04l-0.7,0.35l1.04,32.33c-4.64,2.55-7.42,2.55-8.34,0V170h-7.3v8.69
			c-2.55,3.94-5.1,4.29-7.65,1.04l1.04-34.42c-2.09,3.01-4.29,5.68-6.61,8c-0.7,0.7-1.16,0.47-1.39-0.7
			c5.1-8.57,9.27-20.39,12.52-35.46h-4.17c-0.47,0.23-2.43,0.35-5.91,0.35l-1.74-2.43c0.92,0.23,1.85,0.35,2.78,0.35h16.34
			c2.31-3.01,4.17-5.1,5.56-6.26c-0.23,0,0.11,0,1.04,0c2.78,1.62,5.33,3.82,7.65,6.61c0.46,0.93,0.35,1.39-0.35,1.39h-9.04
			c0.23,1.16-0.7,2.21-2.78,3.13c-3.01,6.49-6.38,12.86-10.08,19.12C866.91,139.88,867.83,140.22,868.99,140.45z M868.99,142.19
			v26.07h7.3v-26.07H868.99z M908.97,182.52v-36.5H897.5c-0.47,0.93-0.93,1.51-1.39,1.74c-0.7,0.47-1.16,0.47-1.39,0
			c-0.47,0-1.51-0.7-3.13-2.09c-1.86-1.39-2.9-2.2-3.13-2.43c-0.23-0.7-0.23-1.16,0-1.39l2.43-2.43v-20.16l-0.35-5.56l0.35-0.35
			c3.48,0.47,6.61,1.16,9.39,2.09c0.23,0.47,0.23,0.81,0,1.04c-0.23,0.47-0.58,0.93-1.04,1.39l-0.7,0.35v26.07h10.43V110.9
			l-0.7-5.56l0.35-0.35c3.94,0.23,7.07,0.81,9.39,1.74c0.46,0.23,0.58,0.7,0.35,1.39c-0.7,0.7-1.39,1.28-2.09,1.74v34.42h10.78
			V118.2l-0.35-4.17c0-0.23,0.23-0.35,0.7-0.35c2.55,0.47,5.91,1.39,10.08,2.78c0,0.23,0,0.47,0,0.7c-0.23,0.23-0.93,0.81-2.09,1.74
			l0.7,27.12c-4.41,3.71-7.42,3.71-9.04,0h-10.78v36.5h12.86v-25.38c-0.23-0.23-0.47-0.81-0.7-1.74c-0.23-0.7-0.35-1.27-0.35-1.74
			c0-0.46,0.35-0.81,1.04-1.04c3.01,0.47,6.14,1.04,9.39,1.74c0.46,0.47,0.58,0.81,0.35,1.04c-0.23,0.47-0.58,0.81-1.04,1.04
			c-0.47,0.47-0.58,1.04-0.35,1.74l0.7,26.07c-0.7,1.39-2.67,2.2-5.91,2.43c-2.09,0-3.13-0.81-3.13-2.43h-33.38
			c-0.47,0.7-0.93,1.39-1.39,2.09c-0.7,0.46-1.28,0.46-1.74,0l-6.26-4.52c-0.23-0.23-0.35-0.58-0.35-1.04
			c0-0.23,0.11-0.35,0.35-0.35l2.78-1.74v-20.51l-0.35-5.56c-0.23,0-0.12-0.11,0.35-0.35c3.48,0.47,6.61,1.16,9.39,2.09v1.04
			c-0.23,0.47-0.81,1.04-1.74,1.74h-0.35v25.38H908.97z"/>
		<path class="st4" d="M953.82,156.1h-2.09c-0.47,0.23-2.43,0.35-5.91,0.35l-1.74-2.43c0.92,0.23,1.85,0.35,2.78,0.35h7.65
			c2.55-4.87,4.29-8.34,5.21-10.43c0.23-0.46,0.81-0.58,1.74-0.35c0.7,0.47,1.62,0.81,2.78,1.04c-0.7-0.23-0.93-0.7-0.7-1.39v-8.34
			c-7.42,6.95-13.56,11.71-18.43,14.25c-0.7-0.23-0.93-0.58-0.7-1.04c5.33-5.33,9.96-12.17,13.91-20.51h-5.91c-1.86,0-3.71,0-5.56,0
			l-1.74-2.43c-0.23,0.23,0.7,0.35,2.78,0.35h15.64V104.3c0.23-0.23,0.46-0.46,0.7-0.7c5.79,1.16,9.15,1.97,10.08,2.43
			c0.23,0.23,0.23,0.7,0,1.39c-0.93,0.47-1.74,1.04-2.43,1.74v16.34h8c0.46-0.46,1.04-1.04,1.74-1.74c1.39-1.85,2.43-3.01,3.13-3.48
			c0.23-0.23,0.46-0.23,0.7,0c2.78,2.32,4.75,4.29,5.91,5.91c0,0.23,0,0.47,0,0.7c0,0.47-0.12,0.7-0.35,0.7H971.9v14.6
			c-1.39,2.09-3.71,3.01-6.95,2.78c1.62,0.7,3.13,1.39,4.52,2.09c0.23,0.47,0.35,0.81,0.35,1.04c-0.23,0.47-0.7,0.81-1.39,1.04
			c-0.93,0.23-1.39,0.47-1.39,0.7l-2.43,4.52h9.73c0.23-0.92,0.92-1.97,2.09-3.13c0.46,0,0.81,0,1.04,0
			c3.94,2.09,6.72,3.82,8.34,5.21c0,0.23,0.11,0.7,0.35,1.39c-0.47,0-1.39,0.47-2.78,1.39h-0.35c-1.39,3.48-3.48,6.72-6.26,9.73
			c0.92,0.23,1.74,0.47,2.43,0.7c5.33,3.01,6.72,6.38,4.17,10.08c-3.01,2.55-6.61,1.5-10.78-3.13c-0.23-0.23-0.81-0.81-1.74-1.74
			c-7.19,5.33-15.64,9.04-25.38,11.12c-0.23-0.23-0.35-0.47-0.35-0.7c7.88-3.94,14.72-8.69,20.51-14.25c-2.32-0.92-4.99-1.85-8-2.78
			c-4.17,1.62-7.07,1.39-8.69-0.7c-0.47-0.7-0.58-1.16-0.35-1.39C950.22,162.7,951.96,159.35,953.82,156.1z M950.34,108.12
			c4.63,1.16,7.88,3.6,9.73,7.3c1.39,3.71,0.81,6.38-1.74,8c-3.25,0.93-5.1-0.58-5.56-4.52c-0.23-1.85-0.47-3.71-0.7-5.56
			c-0.7-1.62-1.51-3.01-2.43-4.17C949.42,108.94,949.65,108.59,950.34,108.12z M975.03,156.1h-11.47l-5.56,10.78
			c3.71-0.23,7.42-0.11,11.12,0.35C971.43,163.75,973.4,160.04,975.03,156.1z M985.8,134.54c3.24,2.78,3.82,5.56,1.74,8.34
			c-3.25,2.32-5.8,1.51-7.65-2.43c-0.23-0.23-0.47-0.58-0.7-1.04c-0.47-1.39-0.81-2.43-1.04-3.13c-1.39-1.62-3.13-3.01-5.21-4.17
			c-0.47-0.23-0.47-0.58,0-1.04C977.81,131.07,982.09,132.23,985.8,134.54z M980.24,106.38c4.87,2.09,7.65,3.48,8.34,4.17
			c0,0.93-0.12,1.28-0.35,1.04c-0.47,0.47-1.28,0.7-2.43,0.7c-2.32,2.09-6.03,6.03-11.12,11.82c-0.47,0.47-0.93,0.58-1.39,0.35
			c-0.47,0-0.47-0.35,0-1.04c0.46-1.85,2.43-7.53,5.91-17.04C979.66,106.38,980.01,106.38,980.24,106.38z M1008.75,166.53h-0.35
			c3.71,3.94,10.2,7.42,19.47,10.43c0.23,0.47,0.23,0.81,0,1.04c-3.48,1.16-6.26,3.71-8.34,7.65c-0.47,0.46-0.93,0.58-1.39,0.35
			c-6.03-3.94-10.78-8.22-14.25-12.86c-6.72,7.42-15.76,12.52-27.12,15.3c-0.93-0.23-1.16-0.7-0.7-1.39
			c10.43-3.94,18.43-10.54,23.99-19.82c-3.71-7.18-5.68-15.87-5.91-26.07c-2.32,3.94-4.64,7.42-6.95,10.43
			c-0.93,0-1.28-0.35-1.04-1.04c6.02-11.35,9.73-26.54,11.12-45.54c0.23-0.46,0.58-0.7,1.04-0.7c4.4,1.16,8.46,2.43,12.17,3.82
			c0.46,0.93,0.58,1.39,0.35,1.39c-0.7,0.7-1.74,1.39-3.13,2.09c-2.32,6.49-4.75,12.4-7.3,17.73h15.64c2.55-3.24,4.4-5.33,5.56-6.26
			c0.23,0,0.58,0,1.04,0c4.17,3.25,6.72,5.45,7.65,6.61v1.39h-17.38c4.17,1.39,6.83,2.43,8,3.13c0.23,0.47,0.23,0.93,0,1.39
			c-0.93,0.23-1.86,0.81-2.78,1.74C1016.05,149.14,1012.92,158.88,1008.75,166.53z M995.19,139.06h0.35
			c1.62,9.27,4.17,16.46,7.65,21.55c3.24-7.88,5.33-17.73,6.26-29.55h-10.08C998.2,133.85,996.81,136.51,995.19,139.06z"/>
		<path class="st4" d="M1062.29,142.19c-1.39,0.93-2.78,1.74-4.17,2.43c-2.55,1.62-4.41,2.78-5.56,3.48l0.7,29.55
			c0.46,6.02-2.9,9.62-10.08,10.78c-0.93-0.47-1.39-0.81-1.39-1.04c-0.23-4.64-3.13-7.77-8.69-9.39c-0.93-0.46-0.81-1.04,0.35-1.74
			c7.42,1.16,11.01,0.47,10.78-2.09v-20.51c-2.55,1.86-4.99,3.48-7.3,4.87c-0.93,0.7-1.39,0.7-1.39,0
			c-0.93-3.24-1.86-6.61-2.78-10.08c0-0.46,0.35-0.81,1.04-1.04c3.01-0.7,6.49-1.39,10.43-2.09v-14.95h-3.48c-2.32,0-4.29,0-5.91,0
			l-1.74-2.43c0.92,0.23,1.85,0.35,2.78,0.35h8.34v-18.43l-0.7-4.52c0,0.23,0.11,0.12,0.35-0.35c4.17,0.7,7.65,1.51,10.43,2.43
			c0.23,0.23,0.23,0.7,0,1.39c-0.23,0.23-0.93,0.58-2.09,1.04v18.43c0.23-0.23,0.58-0.58,1.04-1.04c1.39-1.85,2.43-3.01,3.13-3.48
			c0.23-0.23,0.58-0.23,1.04,0c1.16,1.16,3.13,2.9,5.91,5.21c0.23,0.7,0,1.16-0.7,1.39h-10.43v3.48l0.35,9.73
			c3.01-0.92,6.14-1.74,9.39-2.43C1062.4,141.62,1062.52,141.96,1062.29,142.19z M1072.37,185.3l0.35-22.6v-5.56
			c3.24,0.93,6.02,2.21,8.34,3.82h4.52c0-1.39,0-3.13,0-5.21c0.23-1.85,0.35-4.52,0.35-8h-11.12h-2.43
			c-1.62,15.76-7.53,28.86-17.73,39.29c-0.47,0.23-0.93,0.23-1.39,0c-0.23-0.23-0.23-0.58,0-1.04c7.18-9.27,10.66-24.56,10.43-45.89
			v-24.68c-0.23-2.31-0.58-4.29-1.04-5.91c-0.23-1.39-0.23-2.2,0-2.43c2.31,0.7,5.68,2.21,10.08,4.52h26.77
			c0.23,0,0.81-0.58,1.74-1.74c0.7-1.16,1.27-1.85,1.74-2.09c0.46,0,0.92,0,1.39,0c2.78,1.39,5.56,3.25,8.34,5.56
			c0.23,0.23,0.23,0.58,0,1.04l-2.78,2.09l0.35,14.6c-4.87,4.64-8.12,4.75-9.73,0.35v-0.35h-27.81v8.34c0,2.55-0.12,4.75-0.35,6.61
			h13.56c0-2.31,0-5.44,0-9.39c0-1.39,0-2.66,0-3.82c-0.23-0.23,0-0.58,0.7-1.04c3.24,0.7,6.49,1.62,9.73,2.78
			c0.46,0.93,0.58,1.51,0.35,1.74c-0.47,0.47-1.04,0.93-1.74,1.39l-0.7,0.35c-0.47,2.78-0.58,5.45-0.35,8h9.39
			c2.09-2.78,3.82-4.87,5.21-6.26h0.7c0.23,0,0.46,0,0.7,0c3.01,2.09,5.56,4.29,7.65,6.61c0.23,0.93,0.11,1.39-0.35,1.39h-23.29
			c0,4.41,0,8.81,0,13.21h6.61c0.92-1.39,1.97-2.66,3.13-3.82c0.23-0.23,0.58-0.35,1.04-0.35c1.39,0.93,3.59,2.43,6.61,4.52
			c0.46,0.47,1.04,0.81,1.74,1.04c0.23,0.23,0.23,0.58,0,1.04c-0.47,0.47-1.04,0.93-1.74,1.39l-0.7,0.35l0.7,19.12
			c-0.47,1.85-2.43,3.13-5.91,3.82c-2.55,0.23-3.82-0.7-3.82-2.78v-3.82h-20.51v2.78c-0.47,1.85-2.21,3.13-5.21,3.82
			C1073.29,188.31,1072.14,187.39,1072.37,185.3z M1072.72,113.68v15.64h27.81v-15.64H1072.72z M1081.06,162.7v17.04h20.51V162.7
			H1081.06z"/>
		<path class="st4" d="M1171.11,127.59v-17.73c-0.23-0.7-0.47-1.62-0.7-2.78c-0.47-1.62-0.58-2.55-0.35-2.78
			c6.49,0.23,10.89,1.28,13.21,3.13c0,0.47-0.58,1.16-1.74,2.09l-0.35,0.35v17.73h5.91v-0.35c2.78-3.71,4.75-6.02,5.91-6.95
			c0.23-0.23,0.58-0.23,1.04,0c5.79,3.48,9.15,6.03,10.08,7.65c0.23,0.93,0,1.39-0.7,1.39h-22.25v26.77h8.34
			c3.01-4.4,5.1-7.07,6.26-8h1.39c4.17,3.01,7.65,5.68,10.43,8c0.46,0.93,0.35,1.62-0.35,2.09h-78.57c-2.09,0-4.06,0-5.91,0
			l-1.74-2.43c0.92,0.23,1.97,0.35,3.13,0.35h21.9v-26.77h-14.6c-2.09,0.23-4.06,0.35-5.91,0.35l-1.74-2.43
			c0.92,0.23,1.97,0.35,3.13,0.35h19.12v-17.73c-0.23-0.7-0.47-1.62-0.7-2.78c-0.47-1.62-0.58-2.55-0.35-2.78
			c6.49,0.23,10.89,1.28,13.21,3.13c0,0.47-0.58,1.16-1.74,2.09l-0.35,0.35v17.73H1171.11z M1150.94,160.96
			c0.92,0.47,3.36,1.86,7.3,4.17c1.85,0.93,3.24,1.62,4.17,2.09c0,0.47,0,0.81,0,1.04c-1.16,0.7-2.32,1.16-3.48,1.39
			c-0.93,0-1.51,0.35-1.74,1.04c-12.05,8.81-23.41,14.25-34.07,16.34c-0.47-0.47-0.58-0.7-0.35-0.7
			c10.2-5.33,19.12-13.67,26.77-25.03C1149.78,160.85,1150.25,160.74,1150.94,160.96z M1171.11,156.1v-26.77h-14.95v26.77H1171.11z
			 M1170.41,163.05c13.67,1.86,23.17,5.91,28.51,12.17c2.09,2.78,2.43,5.56,1.04,8.34c-2.09,3.48-4.41,4.4-6.95,2.78
			c-1.39-1.16-3.36-3.6-5.91-7.3c-5.8-7.88-11.47-12.98-17.04-15.3C1169.13,163.52,1169.25,163.28,1170.41,163.05z"/>
		<path class="st4" d="M1258.37,160.96v5.56h20.51v-0.35c2.78-3.71,4.75-6.02,5.91-6.95c0.23-0.23,0.58-0.23,1.04,0
			c5.79,3.48,9.15,6.03,10.08,7.65c0.23,0.93,0,1.39-0.7,1.39h-36.85v5.91c0,1.16,0,2.9,0,5.21c0.23,2.31,0.35,3.82,0.35,4.52
			c-1.16,2.55-4.99,4.29-11.47,5.21c-0.47,0-0.93-0.35-1.39-1.04c-2.32-4.64-6.03-7.65-11.12-9.04c-0.47-0.23-0.7-0.58-0.7-1.04
			c0.23,0,0.58,0,1.04,0c7.18,1.16,11.47,1.16,12.86,0v-9.73h-28.51c-1.86,0.23-3.71,0.35-5.56,0.35l-2.09-2.43
			c0.92,0.23,1.97,0.35,3.13,0.35h33.03v-6.61c-0.23-0.23-0.47-0.81-0.7-1.74c-0.23-0.92-0.35-1.62-0.35-2.09
			c0-0.46,0.23-0.81,0.7-1.04c2.09,0.23,5.33,0.81,9.73,1.74c0.92,0,1.62,0,2.09,0c1.62-1.62,3.36-3.36,5.21-5.21h-34.07
			c-1.86,0.23-3.71,0.35-5.56,0.35l-2.09-2.43c0.92,0.23,1.97,0.35,3.13,0.35h38.59c0.7-0.92,2.09-2.2,4.17-3.82
			c-1.62-0.23-2.43-1.16-2.43-2.78v-1.04h-27.46v2.09c-4.64,3.25-7.77,3.25-9.39,0v-13.91c-0.23-2.55-0.58-4.63-1.04-6.26
			c-0.23-1.39-0.23-2.2,0-2.43c2.31,0.7,5.79,2.32,10.43,4.87h26.77c1.85-2.31,3.13-3.59,3.82-3.82c5.56,1.86,9.04,3.82,10.43,5.91
			c-0.23,0.47-1.04,1.16-2.43,2.09l-0.7,0.35v12.17c-0.47,1.62-2.55,2.67-6.26,3.13c2.09,0.93,6.02,3.25,11.82,6.95l-0.35,1.04
			c-0.93,0.23-2.32,0.35-4.17,0.35c-1.86,0.23-3.13,0.35-3.82,0.35c-4.64,0.93-9.85,2.55-15.64,4.87
			C1258.13,160.39,1258.13,160.74,1258.37,160.96z M1215.95,118.2h61.54c1.85-3.01,4.05-5.79,6.61-8.34c0.23,0,0.58,0,1.04,0
			c5.1,3.48,8.57,6.14,10.43,8c0.46,1.16,0.35,1.86-0.35,2.09h-74.75c-2.09,0.23-4.06,0.35-5.91,0.35l-1.74-2.43
			C1213.75,118.09,1214.79,118.2,1215.95,118.2z M1238.9,128.29v12.17h27.46v-12.17H1238.9z M1242.72,102.91
			c9.73,0.23,15.3,2.9,16.69,8c0.23,3.01-1.04,5.21-3.82,6.61c-3.25,1.16-5.45,0.58-6.61-1.74c-0.47-0.46-0.81-1.39-1.04-2.78
			c-0.93-4.17-2.78-7.07-5.56-8.69C1241.91,103.6,1242.03,103.14,1242.72,102.91z"/>
		<path class="st4" d="M1335.89,170.7v-14.6h-28.16c-0.47,0.23-2.43,0.35-5.91,0.35l-1.74-2.43c0.92,0.23,1.85,0.35,2.78,0.35h33.03
			v-39.98h-23.64c-2.09,0.23-4.06,0.35-5.91,0.35l-1.74-2.43c0.92,0.23,1.97,0.35,3.13,0.35h54.58v-0.35
			c2.78-3.71,4.75-6.02,5.91-6.95c0.23,0,0.58,0,1.04,0c5.79,3.48,9.15,6.03,10.08,7.65c0.23,0.93,0,1.39-0.7,1.39h-30.25
			c-0.23,1.16-0.93,2.09-2.09,2.78v37.2h22.6v-0.35c2.78-3.71,4.75-6.02,5.91-6.95h1.04c5.79,3.48,9.15,6.03,10.08,7.65
			c0.23,0.93,0,1.39-0.7,1.39h-38.94v12.52c0,4.41,0,9.73,0,15.99c-0.23,1.16-1.74,2.09-4.52,2.78c-3.48,0.7-5.45,0.7-5.91,0
			c-0.47-1.16-0.58-4.29-0.35-9.39C1335.55,176.15,1335.66,173.71,1335.89,170.7z M1311.91,125.5c9.27,3.01,14.48,7.77,15.64,14.25
			c0.23,3.71-1.28,6.38-4.52,8c-3.71,1.39-6.26,0.47-7.65-2.78c-0.7-0.7-0.81-2.43-0.35-5.21c0.46-5.56-0.7-9.96-3.48-13.21
			C1311.09,126.32,1311.21,125.97,1311.91,125.5z M1364.4,124.11c2.09,1.16,5.91,3.25,11.47,6.26c0,0.23,0,0.58,0,1.04
			c-0.47,0.23-1.16,0.47-2.09,0.7c-0.93,0.23-1.51,0.35-1.74,0.35c-8.12,7.42-14.83,13.21-20.16,17.38c-0.7-0.23-0.93-0.46-0.7-0.7
			c4.87-8.81,8.69-17.15,11.47-25.03C1362.89,123.88,1363.47,123.88,1364.4,124.11z"/>
		<path class="st4" d="M1407.51,133.85l47.28-3.13c-2.09-2.55-5.56-5.21-10.43-8c-0.7,0-1.04-0.35-1.04-1.04
			c0.23-0.46,0.81-0.7,1.74-0.7c9.27,1.39,16.57,4.17,21.9,8.34c4.87,4.87,5.33,9.62,1.39,14.25c-4.41,2.78-7.88,0.58-10.43-6.61
			c-0.23,0-0.47-0.23-0.7-0.7c-0.23-1.16-0.47-1.97-0.7-2.43c-2.32,0.47-4.52,0.93-6.61,1.39c-23.41,3.94-40.56,7.3-51.45,10.08
			c-0.93,0.47-1.39,0.23-1.39-0.7c-0.47-0.7-1.16-1.97-2.09-3.82c-1.62-3.48-2.55-5.68-2.78-6.61c-0.23-0.7-0.12-1.16,0.35-1.39
			c9.27-1.16,19.12-10.78,29.55-28.86c0.23-0.46,0.58-0.7,1.04-0.7c3.01,1.39,7.53,3.48,13.56,6.26c0.23,0.7,0.23,1.28,0,1.74
			c-1.16,0.47-2.21,0.81-3.13,1.04c-1.62,0.23-2.67,0.47-3.13,0.7C1419.79,123.65,1412.15,130.6,1407.51,133.85z M1404.73,186.34
			V156.1c0-0.46-0.12-1.27-0.35-2.43c0-1.39,0-2.55,0-3.48c0-0.23,0.35-0.46,1.04-0.7c0.23,0.23,0.58,0.47,1.04,0.7
			c2.31,1.39,4.4,2.43,6.26,3.13h33.72c1.39-1.62,2.43-2.78,3.13-3.48c0.23-0.23,0.7-0.23,1.39,0c2.31,1.16,5.33,2.9,9.04,5.21
			c0.23,0.23,0.58,0.35,1.04,0.35c0,0.7,0.11,1.04,0.35,1.04c-0.47,0.47-1.16,0.93-2.09,1.39c-0.47,0.23-0.81,0.35-1.04,0.35
			l0.7,28.16c-6.49,3.48-10.08,3.48-10.78,0v-5.91h-34.07v4.87c-0.93,1.39-3.01,2.31-6.26,2.78
			C1405.77,188.31,1404.73,187.73,1404.73,186.34z M1414.12,155.4v23.29h34.07V155.4H1414.12z"/>
	</g>
	<g class="st3">
		<path class="st5" d="M306.83,188.08h-14.25c-19.47,0-33.38-4.17-41.72-12.52c-4.87,5.33-10.78,9.39-17.73,12.17
			c-0.7,0-1.04-0.12-1.04-0.35c-0.23-0.23,0-0.47,0.7-0.7c6.02-3.94,10.66-9.27,13.91-15.99c-4.17-5.79-7.3-13.91-9.39-24.34
			c0.23-0.46,0.7-0.58,1.39-0.35c2.31,8.12,5.79,14.49,10.43,19.12c2.31-6.95,3.36-14.25,3.13-21.9h-6.61
			c-1.16,1.39-2.21,2.09-3.13,2.09c-0.47,0.23-0.93,0.12-1.39-0.35c-3.01-2.09-5.1-3.82-6.26-5.21c-0.47-0.46-0.47-0.92,0-1.39
			c0.46,0,1.62-0.58,3.48-1.74l9.04-22.25h-6.95c-1.86,0.23-3.6,0.35-5.21,0.35l-2.43-2.43c0.92,0.23,1.97,0.35,3.13,0.35h11.47
			c0.23-0.23,0.46-0.7,0.7-1.39c0.23-0.7,0.58-1.27,1.04-1.74c0.46-0.23,0.92-0.46,1.39-0.7c3.24,1.62,6.14,3.13,8.69,4.52
			c0.46,0.47,0.46,1.04,0,1.74c-1.62,1.16-2.67,1.86-3.13,2.09l-10.43,24.34h5.56c0.92-1.39,2.2-2.66,3.82-3.82
			c0.23,0,0.7,0.12,1.39,0.35c-0.47-0.46-0.35-0.46,0.35,0c1.85,0.93,3.94,2.21,6.26,3.82c0.23,0.7,0.23,1.28,0,1.74
			c-0.23,0.47-0.58,0.93-1.04,1.39c-0.7,0.7-1.16,1.28-1.39,1.74c-0.7,9.73-2.78,17.5-6.26,23.29c7.42,5.33,17.26,8,29.55,8h13.91
			c6.26,0,12.4-0.81,18.43-2.43c0.46,0.23,0.58,0.7,0.35,1.39c-3.48,1.16-5.1,4.29-4.87,9.39c-0.23,0.23-0.47,0.58-0.7,1.04
			C309.61,187.85,308.22,188.08,306.83,188.08z M277.28,174.52v-9.04h-9.73c-0.47,0.23-2.32,0.35-5.56,0.35l-2.09-2.43
			c0.92,0.23,1.85,0.35,2.78,0.35h14.6v-10.43h-6.26c-1.86,0.23-3.6,0.35-5.21,0.35l-2.43-2.43c0.92,0.23,1.97,0.35,3.13,0.35h10.78
			v-11.12h-6.95c-0.47,0.23-2.32,0.35-5.56,0.35l-2.09-2.43c0.92,0.23,1.85,0.35,2.78,0.35h11.82v-8.34h-12.52
			c-2.09,0-3.94,0-5.56,0l-2.09-2.43c0.92,0.23,1.85,0.35,2.78,0.35h17.38v-9.04h-8h-4.87l-1.74-2.43c0.92,0.23,1.85,0.35,2.78,0.35
			h11.82v-11.82c5.1,0,8.34,0.23,9.73,0.7c0.7,0.7,0.7,1.28,0,1.74c-0.47,0.7-0.93,1.04-1.39,1.04v8.34h8.34
			c0.23-0.23,0.7-0.81,1.39-1.74c0.92-1.16,1.62-1.74,2.09-1.74c3.01,0.7,6.02,2.32,9.04,4.87c0,0.47-0.58,1.16-1.74,2.09
			l-0.35,0.35v7.3h1.74c1.16-1.62,2.66-3.36,4.52-5.21c0.23-0.23,0.58-0.23,1.04,0c3.24,2.78,5.33,4.87,6.26,6.26
			c-0.23,0.47-0.47,0.81-0.7,1.04H304.4v12.86c-0.23,0.93-1.16,1.62-2.78,2.09c3.7,2.78,6.26,4.99,7.65,6.61
			c0.23,0.93,0.11,1.39-0.35,1.39h-23.29v10.43h12.17c1.62-2.55,3.36-4.63,5.21-6.26c0.23-0.23,0.58-0.23,1.04,0
			c3.01,1.86,5.68,4.06,8,6.61c0.23,0.7,0.11,1.16-0.35,1.39h-26.07v7.3C282.38,176.26,279.6,176.84,277.28,174.52z M285.62,119.25
			v9.04h9.39v-9.04H285.62z M285.62,130.37v8.34h9.39v-8.34H285.62z M285.62,140.45v11.12h9.39c0.7-1.39,2.31-3.36,4.87-5.91
			c-3.25,0.47-4.87-0.35-4.87-2.43v-2.78H285.62z"/>
		<path class="st5" d="M334.99,167.92v-25.73h-3.48c-0.47,0.23-2.43,0.35-5.91,0.35l-1.74-2.43c0.92,0.23,1.85,0.35,2.78,0.35h17.38
			c2.09-2.55,3.59-4.4,4.52-5.56c0.46,0,0.81,0,1.04,0c2.78,2.32,4.87,4.41,6.26,6.26c0,0.7-0.23,1.04-0.7,1.04h-9.39
			c0,0.47-0.23,0.81-0.7,1.04c-0.23,0.23-0.7,0.58-1.39,1.04l-0.7,0.7v21.55c0.92,0,1.85-0.11,2.78-0.35
			c3.7-0.92,6.49-1.5,8.34-1.74c0.23,0,0.46,0.23,0.7,0.7c0,0.47-0.12,0.81-0.35,1.04c-4.41,2.55-13.79,7.65-28.16,15.3
			c-0.7,0.23-1.16,0.23-1.39,0c-0.23-0.7-0.93-1.97-2.09-3.82c-0.93-2.31-1.62-4.29-2.09-5.91c-0.23-0.7,0-1.27,0.7-1.74
			C322.82,169.78,327.34,169.08,334.99,167.92z M340.21,120.98h-3.82c-3.71,5.33-8.12,10.66-13.21,15.99
			c-0.93,0.23-1.28-0.11-1.04-1.04c5.33-9.27,8.92-19.58,10.78-30.94c0-0.23,0.35-0.46,1.04-0.7c3.01,0.93,6.83,2.32,11.47,4.17
			c0.23,0.47,0.23,0.81,0,1.04c-0.7,0.7-1.62,1.28-2.78,1.74c-1.39,2.55-3.13,5.21-5.21,8h12.86c0.23,0,1.27-1.16,3.13-3.48
			c0.92-1.39,1.62-2.31,2.09-2.78h0.7c0.23,0,0.46,0,0.7,0c3.7,2.78,6.26,4.99,7.65,6.61c0.23,0.93,0.11,1.39-0.35,1.39h-19.82
			c3.48,1.39,5.68,3.48,6.61,6.26c0.7,3.01-0.23,5.21-2.78,6.61c-2.78,0.93-4.64,0-5.56-2.78c-0.47-1.16-0.47-2.31,0-3.48
			c0-0.23,0-0.46,0-0.7C342.87,125.74,342.06,123.77,340.21,120.98z M366.28,152.27v6.61c0.23,13.91-7.77,23.64-23.99,29.2
			c-1.16-0.47-1.39-1.16-0.7-2.09c10.66-5.8,16.11-14.83,16.34-27.12v-22.95c3.01,0.93,5.79,2.09,8.34,3.48h12.86
			c1.62-2.31,2.9-3.48,3.82-3.48c3.24,0.93,6.37,2.55,9.39,4.87c0,0.47-0.58,1.16-1.74,2.09l-1.04,1.39v30.59
			c0.23,2.09,1.16,3.13,2.78,3.13h3.13c2.78,0,5.56-4.63,8.34-13.91c0.46-0.7,1.16-0.58,2.09,0.35c-2.09,8.12-2.32,13.1-0.7,14.95
			c0.46,0.7,0.7,1.5,0.7,2.43c-0.23,2.78-2.9,4.29-8,4.52h-10.43c-3.94-0.7-6.03-2.55-6.26-5.56V141.5h-14.95v10.43
			c0.23-0.23,0.46-0.46,0.7-0.7c6.72,2.78,10.54,6.95,11.47,12.52c0,2.78-1.39,4.64-4.17,5.56c-3.01,0.23-4.75-1.04-5.21-3.82
			c0-0.23,0-0.7,0-1.39c0.23-0.7,0.35-1.39,0.35-2.09c0-3.24-0.93-6.37-2.78-9.39C366.4,152.62,366.28,152.51,366.28,152.27z
			 M377.41,119.94h-2.78c-2.78,4.41-6.95,9.16-12.52,14.25c-0.93,0.23-1.28-0.11-1.04-1.04c5.56-11.12,8.81-20.63,9.73-28.51
			c0-0.23,0.35-0.46,1.04-0.7c3.01,0.93,6.83,2.32,11.47,4.17c0.23,0.47,0.23,0.81,0,1.04c-0.7,0.7-1.62,1.28-2.78,1.74
			c-1.39,2.55-2.9,4.99-4.52,7.3h13.91c2.09-2.55,3.82-4.63,5.21-6.26c0.23-0.23,0.58-0.23,1.04,0c2.78,1.16,5.79,3.36,9.04,6.61
			c0.23,0.47,0.35,0.81,0.35,1.04c-0.23,0.23-0.47,0.35-0.7,0.35h-24.34c4.4,2.09,7.07,4.64,8,7.65c0.23,3.25-1.04,5.33-3.82,6.26
			c-3.01,0.7-4.75-0.46-5.21-3.48c-0.23-0.23-0.23-0.7,0-1.39c0.23-0.7,0.35-1.39,0.35-2.09
			C379.84,125.04,379.02,122.72,377.41,119.94z"/>
		<path class="st5" d="M459.11,129.33v-8.34h-15.64v10.08c-5.56,3.01-8.69,2.78-9.39-0.7v-9.39h-15.64
			c-1.86,0.23-3.71,0.35-5.56,0.35l-2.09-2.43c0.92,0.23,1.97,0.35,3.13,0.35h20.16V104.3c5.79,0.47,9.73,1.16,11.82,2.09
			c0.7,0.47,0.7,1.04,0,1.74c-0.93,0.93-1.74,1.51-2.43,1.74v9.39h15.64V104.3c5.79,0.47,9.73,1.16,11.82,2.09
			c0.7,0.47,0.7,1.04,0,1.74c-0.93,0.93-1.74,1.51-2.43,1.74v9.39h9.04c2.09-3.01,4.17-5.79,6.26-8.34c0.46,0,0.92,0,1.39,0
			c4.17,3.01,7.65,5.68,10.43,8c0.46,1.16,0.35,1.86-0.35,2.09h-26.77v9.39c-1.62,1.39-3.82,2.09-6.61,2.09
			C460.03,132.23,459.11,131.19,459.11,129.33z M451.8,185.65c-0.47,1.39-2.55,2.31-6.26,2.78c-3.01,0.23-4.52-0.47-4.52-2.09
			l0.35-41.37v-7.3h-20.16h-5.91l-2.09-2.09c0.92,0.23,2.43,0.35,4.52,0.35h57.02l0.35-0.7c1.85-2.78,3.01-4.17,3.48-4.17
			c4.17,1.62,7.88,3.6,11.12,5.91c0,0.7-0.7,1.62-2.09,2.78c-0.7,0.47-0.93,0.7-0.7,0.7v17.73c0.7,12.98-3.25,19.59-11.82,19.82
			c-0.23,0-0.81,0-1.74,0c-0.47-4.63-4.52-8.11-12.17-10.43c-0.93-0.92-0.81-1.62,0.35-2.09c10.66,2.78,15.64,0.58,14.95-6.61
			v-21.21h-22.6c0,0.7-0.81,1.62-2.43,2.78v4.52L451.8,185.65z"/>
		<path class="st5" d="M524.81,110.9l-13.91,13.91c1.62,0.23,4.63,0.47,9.04,0.7c4.4,0,8.11,0,11.12,0
			c-0.47-3.94-1.74-6.72-3.82-8.34c-0.47-0.46-0.35-0.81,0.35-1.04c7.88,1.16,12.74,4.29,14.6,9.39c0.46,3.71-0.58,6.49-3.13,8.34
			c-3.01,1.62-5.33,0.93-6.95-2.09c-0.47-0.46-0.81-1.5-1.04-3.13c0-0.7,0-1.27,0-1.74c-12.05,3.48-20.75,6.03-26.07,7.65
			c-0.93,0.47-1.51,0.23-1.74-0.7c-0.23-0.23-0.47-0.58-0.7-1.04c-1.62-3.48-2.43-5.79-2.43-6.95c-0.47-0.46-0.23-0.92,0.7-1.39
			c6.26-1.39,10.78-7.88,13.56-19.47c0-0.23,0.58-0.46,1.74-0.7c6.02,1.86,10.08,3.13,12.17,3.82c0,0.23,0.11,0.58,0.35,1.04
			c-0.7,0.47-1.28,0.81-1.74,1.04C525.74,110.44,525.04,110.67,524.81,110.9z M506.39,176.26v-31.29l-0.35-8
			c-0.23,0-0.12-0.11,0.35-0.35c4.17,1.86,6.95,3.13,8.34,3.82h11.12c0.92-1.16,2.09-2.31,3.48-3.48c0.46-0.23,0.92-0.23,1.39,0
			c1.39,0.47,3.82,1.74,7.3,3.82c-0.23-0.23,0.11-0.11,1.04,0.35c0.46,0.23,0.58,0.7,0.35,1.39c-0.23,0.23-0.58,0.58-1.04,1.04
			c-0.7,0.93-1.16,1.39-1.39,1.39l0.7,37.55c0,3.24-3.13,5.33-9.39,6.26c-0.7-0.23-1.04-0.58-1.04-1.04c-0.7-4.41-3.36-7.19-8-8.34
			c-0.47-0.93-0.35-1.39,0.35-1.39c5.79,0.46,8.81,0.35,9.04-0.35v-11.12h-13.91v18.08c-2.32,3.01-5.21,3.82-8.69,2.43
			c-0.23-0.93-0.23-2.67,0-5.21C506.04,179.97,506.15,178.11,506.39,176.26z M514.73,142.19v10.43h13.91v-10.43H514.73z
			 M514.73,154.36v10.08h13.91v-10.08H514.73z M553.67,124.11v5.21c-0.47,3.25,1.39,4.75,5.56,4.52h5.91
			c8.11,1.16,12.86-2.9,14.25-12.17c0.23-0.46,0.58-0.46,1.04,0c-0.93,4.87-0.7,8.46,0.7,10.78c0.7,1.39,1.04,2.55,1.04,3.48
			c-0.23,4.17-4.87,6.26-13.91,6.26h-11.12c-8.34,0.47-12.29-2.31-11.82-8.34V110.9l-0.35-5.56l0.7-0.35
			c4.4,0.7,7.76,1.62,10.08,2.78c0.23,0.47,0.23,0.93,0,1.39c-0.23,0.47-0.7,0.81-1.39,1.04c-0.23,0.23-0.47,0.47-0.7,0.7v11.12
			c4.4-2.78,9.27-6.72,14.6-11.82c0.23-0.23,0.7-0.23,1.39,0c4.63,3.71,7.53,6.03,8.69,6.95c0,0.23,0.11,0.58,0.35,1.04
			c-2.09,0-3.48,0.12-4.17,0.35c-3.48,1.16-8.58,2.55-15.3,4.17C556.68,123.42,554.83,123.88,553.67,124.11z M576.96,156.79
			l-21.55,7.3v8.69c-0.23,3.48,1.62,5.1,5.56,4.87h6.61c5.79,0.46,10.2-3.94,13.21-13.21c0.23-0.7,0.46-0.7,0.7,0
			c-1.39,5.1-1.16,9.27,0.7,12.52c0.46,0.7,0.81,1.04,1.04,1.04c-0.7,4.4-4.41,6.83-11.12,7.3h-12.17c-8.81,0-13.1-2.9-12.86-8.69
			v-32.33c1.85,0.23,3.94,0.47,6.26,0.7c2.09,0.47,3.48,0.81,4.17,1.04c0.23,0.47,0.23,1.04,0,1.74c-0.23,0.47-0.81,1.04-1.74,1.74
			l-0.35,0.35v12.52c3.48-3.24,8.34-8.22,14.6-14.95c0.46-0.46,0.92-0.58,1.39-0.35c0.46,0.47,1.74,1.62,3.82,3.48
			c2.55,2.32,4.52,3.82,5.91,4.52c0.23,0.7,0.23,1.16,0,1.39c-0.7,0.23-1.39,0.35-2.09,0.35
			C578.12,156.79,577.42,156.79,576.96,156.79z"/>
		<path class="st5" d="M598.52,164.79v-28.16H594c-1.62,0.23-3.25,0.35-4.87,0.35l-2.43-2.78c0.46,0.23,1.97,0.47,4.52,0.7h5.21
			c0.23,0,1.04-0.81,2.43-2.43c0.46-0.46,0.81-0.81,1.04-1.04c0.46-0.46,1.04-0.7,1.74-0.7c1.85,0.93,4.4,2.67,7.65,5.21
			c0.46,0.7,0.46,1.28,0,1.74c-0.47,0.47-1.16,0.93-2.09,1.39l-0.35,0.35v28.51c7.18-4.63,12.28-8.11,15.3-10.43
			c0.7,0.47,1.04,0.81,1.04,1.04c-1.62,1.86-4.17,4.87-7.65,9.04c-3.94,4.87-7.77,9.62-11.47,14.25c-0.93,0.92-1.62,1.04-2.09,0.35
			c-1.62-1.86-3.25-4.17-4.87-6.95c-0.47-0.7-0.47-1.5,0-2.43C598.05,171.17,598.52,168.5,598.52,164.79z M594.69,105.69
			c8.34,1.39,13.56,4.06,15.64,8c1.16,3.48,0.35,6.14-2.43,8c-3.48,1.86-5.8,1.16-6.95-2.09c-0.47-0.46-0.7-1.27-0.7-2.43
			c0-0.92,0-1.62,0-2.09c-0.47-2.31-2.43-4.98-5.91-8c-0.47-0.23-0.7-0.58-0.7-1.04C593.88,105.81,594.22,105.69,594.69,105.69z
			 M646.84,168.96c8.57,5.8,16.8,8.46,24.68,8c0.46,0.23,0.46,0.58,0,1.04c-3.25,0.46-6.38,3.36-9.39,8.69
			c-0.93,0.46-1.39,0.58-1.39,0.35c-8.34-3.25-15.07-7.42-20.16-12.52c-10.66,7.65-21.33,11.93-31.98,12.86
			c-0.7-0.47-0.93-0.93-0.7-1.39c11.82-4.17,21.32-9.85,28.51-17.04c-4.17-5.56-7.42-12.52-9.73-20.86h-4.87l-2.78-2.09
			c0.7,0,1.85,0.12,3.48,0.35c1.39,0,2.43,0,3.13,0h22.25c0.92-2.09,1.85-3.59,2.78-4.52c0.46-0.23,0.92-0.35,1.39-0.35
			c0.23,0.23,0.7,0.58,1.39,1.04c4.87,2.55,8.11,4.52,9.73,5.91l-0.7,1.74c-1.62,0.23-3.01,0.7-4.17,1.39
			C655.76,158.07,651.94,163.87,646.84,168.96z M625.29,118.55v-3.82l-0.35-8c0.23-0.46,0.46-0.7,0.7-0.7
			c1.39,0.47,3.48,1.62,6.26,3.48c0.23,0,0.46,0,0.7,0h11.82c1.85-2.31,3.24-3.59,4.17-3.82c0.23-0.23,0.81-0.23,1.74,0
			c0,0.23,0.23,0.47,0.7,0.7c3.7,2.09,6.14,3.6,7.3,4.52c0.23,0.47,0.11,0.81-0.35,1.04c-0.47,0.7-1.28,1.28-2.43,1.74h-0.35v11.12
			c-0.23,2.09,1.62,3.01,5.56,2.78h1.39c0.23,0,1.39-0.23,3.48-0.7c1.16-0.46,1.97-0.81,2.43-1.04c3.7,1.16,5.56,3.48,5.56,6.95
			c-0.93,2.32-5.45,3.36-13.56,3.13h-4.52c-6.49,0-9.73-1.39-9.73-4.17v-20.51h-12.17v7.3c-0.93,12.29-7.3,20.16-19.12,23.64
			c-1.16-0.23-1.39-0.7-0.7-1.39C620.77,136.63,624.59,129.21,625.29,118.55z M649.62,148.1h-21.55c2.55,5.8,6.72,11.12,12.52,15.99
			C644.29,159.46,647.3,154.13,649.62,148.1z"/>
		<path class="st5" d="M690.99,167.22v-30.59h-6.26h-6.26l-1.39-2.09c0.46,0.23,1.74,0.35,3.82,0.35h8c1.62-2.31,2.9-3.48,3.82-3.48
			c4.17,1.39,7.3,3.01,9.39,4.87c0,0.23-0.58,0.81-1.74,1.74c-1.16,0.93-1.62,1.39-1.39,1.39V170c8.81-6.26,14.25-10.08,16.34-11.47
			c0.7,0,1.04,0.35,1.04,1.04c-8.34,9.73-14.95,18.08-19.82,25.03c-0.23,0-0.7,0.11-1.39,0.35c-2.32-3.01-4.17-5.45-5.56-7.3
			c-0.47-0.7-0.47-1.39,0-2.09C690.3,173.71,690.76,170.93,690.99,167.22z M685.43,108.82c7.65-0.23,12.52,1.74,14.6,5.91
			c1.16,3.25,0.46,6.03-2.09,8.34c-2.32,1.86-4.64,1.51-6.95-1.04c-0.7-0.7-1.16-1.74-1.39-3.13c-0.47-3.71-2.09-6.61-4.87-8.69
			C684.27,109.75,684.5,109.28,685.43,108.82z M725.76,185.3l0.7-43.8h-13.91c-2.32,0-4.29,0-5.91,0l-1.74-2.43
			c0.92,0.23,1.85,0.35,2.78,0.35h18.77l0.35-19.47v-9.04l-0.35-5.56l0.7-0.35c5.33,0.93,9.04,1.86,11.12,2.78
			c0.23,0.47,0.23,0.93,0,1.39c-0.23,0.47-0.81,1.04-1.74,1.74h-0.35v28.51h8.34c3.01-4.4,5.1-7.07,6.26-8h1.39
			c4.17,3.01,7.65,5.68,10.43,8c0.46,0.93,0.35,1.62-0.35,2.09h-26.07v42.76c-0.47,1.85-2.55,3.13-6.26,3.82
			C727.15,188.31,725.76,187.39,725.76,185.3z"/>
		<path class="st5" d="M820.67,150.54h-22.95c0.92,0.47,1.74,0.81,2.43,1.04c-0.23,0.23-0.35,0.7-0.35,1.39l-3.13,1.39
			c-7.19,9.27-17.5,17.04-30.94,23.29c-0.47,0.23-0.7-0.11-0.7-1.04c9.5-6.49,16.8-15.18,21.9-26.07h-14.25c-2.09,0-4.06,0-5.91,0
			l-1.74-2.43c0.92,0.23,1.97,0.35,3.13,0.35h19.82v-27.46h-11.47c-0.47,0.23-2.43,0.35-5.91,0.35l-1.74-2.43
			c0.92,0.23,1.85,0.35,2.78,0.35h16.34v-8.34l-0.35-4.52l0.35-0.35c2.31,0.23,4.4,0.47,6.26,0.7c1.85,0.23,3.36,0.47,4.52,0.7
			c0.23,0.23,0.23,0.7,0,1.39l-0.35,0.35c-0.7,0.93-1.39,1.51-2.09,1.74v8.34h20.51v-8.34l-0.35-4.52l0.35-0.35
			c2.09,0.23,4.05,0.47,5.91,0.7c1.85,0.23,3.48,0.47,4.87,0.7c0.23,0.23,0.23,0.7,0,1.39c-0.93,0.93-1.74,1.62-2.43,2.09v8.34h6.61
			c1.62-2.55,3.36-4.63,5.21-6.26c0.23-0.23,0.58-0.23,1.04,0c3.01,1.86,5.68,4.06,8,6.61c0.23,0.7,0.11,1.16-0.35,1.39h-20.51
			v27.46h10.08c0.23-0.23,1.16-1.27,2.78-3.13c1.39-1.62,2.31-2.66,2.78-3.13c-0.23,0,0.11,0,1.04,0c3.94,2.32,6.95,4.52,9.04,6.61
			c0.46,0.93,0.23,1.51-0.7,1.74h-28.16c5.56,8.58,15.06,12.86,28.51,12.86c0.46,0.47,0.58,0.81,0.35,1.04
			c-4.41,2.32-7.19,5.21-8.34,8.69c-0.47,0.47-0.81,0.7-1.04,0.7C830.63,169.43,823.68,161.66,820.67,150.54z M802.94,184.26v-13.21
			h-9.73c-0.47,0.23-2.43,0.35-5.91,0.35l-1.74-2.43c0.92,0.23,1.85,0.35,2.78,0.35h14.6v-12.17l-0.35-4.52l0.35-0.35
			c0.92,0.23,1.85,0.35,2.78,0.35c3.94,0.23,6.61,0.58,8,1.04c0.23,0.47,0.23,0.93,0,1.39c-0.47,0.7-1.28,1.39-2.43,2.09v12.17h7.3
			c0-0.23,0.23-0.46,0.7-0.7c1.85-2.55,3.24-4.17,4.17-4.87c0.23,0,0.46,0,0.7,0c2.78,2.32,4.87,4.41,6.26,6.26
			c0.23,0.7,0,1.04-0.7,1.04h-18.43v13.21h15.64c2.31-3.25,4.17-5.33,5.56-6.26c-0.23,0,0.11,0,1.04,0
			c3.24,2.09,5.79,4.29,7.65,6.61c0.46,0.7,0.35,1.16-0.35,1.39H779.3c-0.47,0-2.43,0.11-5.91,0.35l-1.74-2.43
			c0.92,0,1.85,0.11,2.78,0.35H802.94z M816.84,128.98v-8h-20.51v8H816.84z M816.84,138.71v-8h-20.51v8H816.84z M816.84,148.45v-8
			h-20.51v8H816.84z"/>
		<path class="st5" d="M868.99,140.45h6.26c0.92-1.39,1.74-2.31,2.43-2.78c0.23-0.23,0.58-0.23,1.04,0c2.55,1.39,4.87,2.9,6.95,4.52
			c0,0.23,0,0.47,0,0.7c0,0.23-0.47,0.58-1.39,1.04l-0.7,0.35l1.04,32.33c-4.64,2.55-7.42,2.55-8.34,0V170h-7.3v8.69
			c-2.55,3.94-5.1,4.29-7.65,1.04l1.04-34.42c-2.09,3.01-4.29,5.68-6.61,8c-0.7,0.7-1.16,0.47-1.39-0.7
			c5.1-8.57,9.27-20.39,12.52-35.46h-4.17c-0.47,0.23-2.43,0.35-5.91,0.35l-1.74-2.43c0.92,0.23,1.85,0.35,2.78,0.35h16.34
			c2.31-3.01,4.17-5.1,5.56-6.26c-0.23,0,0.11,0,1.04,0c2.78,1.62,5.33,3.82,7.65,6.61c0.46,0.93,0.35,1.39-0.35,1.39h-9.04
			c0.23,1.16-0.7,2.21-2.78,3.13c-3.01,6.49-6.38,12.86-10.08,19.12C866.91,139.88,867.83,140.22,868.99,140.45z M868.99,142.19
			v26.07h7.3v-26.07H868.99z M908.97,182.52v-36.5H897.5c-0.47,0.93-0.93,1.51-1.39,1.74c-0.7,0.47-1.16,0.47-1.39,0
			c-0.47,0-1.51-0.7-3.13-2.09c-1.86-1.39-2.9-2.2-3.13-2.43c-0.23-0.7-0.23-1.16,0-1.39l2.43-2.43v-20.16l-0.35-5.56l0.35-0.35
			c3.48,0.47,6.61,1.16,9.39,2.09c0.23,0.47,0.23,0.81,0,1.04c-0.23,0.47-0.58,0.93-1.04,1.39l-0.7,0.35v26.07h10.43V110.9
			l-0.7-5.56l0.35-0.35c3.94,0.23,7.07,0.81,9.39,1.74c0.46,0.23,0.58,0.7,0.35,1.39c-0.7,0.7-1.39,1.28-2.09,1.74v34.42h10.78
			V118.2l-0.35-4.17c0-0.23,0.23-0.35,0.7-0.35c2.55,0.47,5.91,1.39,10.08,2.78c0,0.23,0,0.47,0,0.7c-0.23,0.23-0.93,0.81-2.09,1.74
			l0.7,27.12c-4.41,3.71-7.42,3.71-9.04,0h-10.78v36.5h12.86v-25.38c-0.23-0.23-0.47-0.81-0.7-1.74c-0.23-0.7-0.35-1.27-0.35-1.74
			c0-0.46,0.35-0.81,1.04-1.04c3.01,0.47,6.14,1.04,9.39,1.74c0.46,0.47,0.58,0.81,0.35,1.04c-0.23,0.47-0.58,0.81-1.04,1.04
			c-0.47,0.47-0.58,1.04-0.35,1.74l0.7,26.07c-0.7,1.39-2.67,2.2-5.91,2.43c-2.09,0-3.13-0.81-3.13-2.43h-33.38
			c-0.47,0.7-0.93,1.39-1.39,2.09c-0.7,0.46-1.28,0.46-1.74,0l-6.26-4.52c-0.23-0.23-0.35-0.58-0.35-1.04
			c0-0.23,0.11-0.35,0.35-0.35l2.78-1.74v-20.51l-0.35-5.56c-0.23,0-0.12-0.11,0.35-0.35c3.48,0.47,6.61,1.16,9.39,2.09v1.04
			c-0.23,0.47-0.81,1.04-1.74,1.74h-0.35v25.38H908.97z"/>
		<path class="st5" d="M953.82,156.1h-2.09c-0.47,0.23-2.43,0.35-5.91,0.35l-1.74-2.43c0.92,0.23,1.85,0.35,2.78,0.35h7.65
			c2.55-4.87,4.29-8.34,5.21-10.43c0.23-0.46,0.81-0.58,1.74-0.35c0.7,0.47,1.62,0.81,2.78,1.04c-0.7-0.23-0.93-0.7-0.7-1.39v-8.34
			c-7.42,6.95-13.56,11.71-18.43,14.25c-0.7-0.23-0.93-0.58-0.7-1.04c5.33-5.33,9.96-12.17,13.91-20.51h-5.91c-1.86,0-3.71,0-5.56,0
			l-1.74-2.43c-0.23,0.23,0.7,0.35,2.78,0.35h15.64V104.3c0.23-0.23,0.46-0.46,0.7-0.7c5.79,1.16,9.15,1.97,10.08,2.43
			c0.23,0.23,0.23,0.7,0,1.39c-0.93,0.47-1.74,1.04-2.43,1.74v16.34h8c0.46-0.46,1.04-1.04,1.74-1.74c1.39-1.85,2.43-3.01,3.13-3.48
			c0.23-0.23,0.46-0.23,0.7,0c2.78,2.32,4.75,4.29,5.91,5.91c0,0.23,0,0.47,0,0.7c0,0.47-0.12,0.7-0.35,0.7H971.9v14.6
			c-1.39,2.09-3.71,3.01-6.95,2.78c1.62,0.7,3.13,1.39,4.52,2.09c0.23,0.47,0.35,0.81,0.35,1.04c-0.23,0.47-0.7,0.81-1.39,1.04
			c-0.93,0.23-1.39,0.47-1.39,0.7l-2.43,4.52h9.73c0.23-0.92,0.92-1.97,2.09-3.13c0.46,0,0.81,0,1.04,0
			c3.94,2.09,6.72,3.82,8.34,5.21c0,0.23,0.11,0.7,0.35,1.39c-0.47,0-1.39,0.47-2.78,1.39h-0.35c-1.39,3.48-3.48,6.72-6.26,9.73
			c0.92,0.23,1.74,0.47,2.43,0.7c5.33,3.01,6.72,6.38,4.17,10.08c-3.01,2.55-6.61,1.5-10.78-3.13c-0.23-0.23-0.81-0.81-1.74-1.74
			c-7.19,5.33-15.64,9.04-25.38,11.12c-0.23-0.23-0.35-0.47-0.35-0.7c7.88-3.94,14.72-8.69,20.51-14.25c-2.32-0.92-4.99-1.85-8-2.78
			c-4.17,1.62-7.07,1.39-8.69-0.7c-0.47-0.7-0.58-1.16-0.35-1.39C950.22,162.7,951.96,159.35,953.82,156.1z M950.34,108.12
			c4.63,1.16,7.88,3.6,9.73,7.3c1.39,3.71,0.81,6.38-1.74,8c-3.25,0.93-5.1-0.58-5.56-4.52c-0.23-1.85-0.47-3.71-0.7-5.56
			c-0.7-1.62-1.51-3.01-2.43-4.17C949.42,108.94,949.65,108.59,950.34,108.12z M975.03,156.1h-11.47l-5.56,10.78
			c3.71-0.23,7.42-0.11,11.12,0.35C971.43,163.75,973.4,160.04,975.03,156.1z M985.8,134.54c3.24,2.78,3.82,5.56,1.74,8.34
			c-3.25,2.32-5.8,1.51-7.65-2.43c-0.23-0.23-0.47-0.58-0.7-1.04c-0.47-1.39-0.81-2.43-1.04-3.13c-1.39-1.62-3.13-3.01-5.21-4.17
			c-0.47-0.23-0.47-0.58,0-1.04C977.81,131.07,982.09,132.23,985.8,134.54z M980.24,106.38c4.87,2.09,7.65,3.48,8.34,4.17
			c0,0.93-0.12,1.28-0.35,1.04c-0.47,0.47-1.28,0.7-2.43,0.7c-2.32,2.09-6.03,6.03-11.12,11.82c-0.47,0.47-0.93,0.58-1.39,0.35
			c-0.47,0-0.47-0.35,0-1.04c0.46-1.85,2.43-7.53,5.91-17.04C979.66,106.38,980.01,106.38,980.24,106.38z M1008.75,166.53h-0.35
			c3.71,3.94,10.2,7.42,19.47,10.43c0.23,0.47,0.23,0.81,0,1.04c-3.48,1.16-6.26,3.71-8.34,7.65c-0.47,0.46-0.93,0.58-1.39,0.35
			c-6.03-3.94-10.78-8.22-14.25-12.86c-6.72,7.42-15.76,12.52-27.12,15.3c-0.93-0.23-1.16-0.7-0.7-1.39
			c10.43-3.94,18.43-10.54,23.99-19.82c-3.71-7.18-5.68-15.87-5.91-26.07c-2.32,3.94-4.64,7.42-6.95,10.43
			c-0.93,0-1.28-0.35-1.04-1.04c6.02-11.35,9.73-26.54,11.12-45.54c0.23-0.46,0.58-0.7,1.04-0.7c4.4,1.16,8.46,2.43,12.17,3.82
			c0.46,0.93,0.58,1.39,0.35,1.39c-0.7,0.7-1.74,1.39-3.13,2.09c-2.32,6.49-4.75,12.4-7.3,17.73h15.64c2.55-3.24,4.4-5.33,5.56-6.26
			c0.23,0,0.58,0,1.04,0c4.17,3.25,6.72,5.45,7.65,6.61v1.39h-17.38c4.17,1.39,6.83,2.43,8,3.13c0.23,0.47,0.23,0.93,0,1.39
			c-0.93,0.23-1.86,0.81-2.78,1.74C1016.05,149.14,1012.92,158.88,1008.75,166.53z M995.19,139.06h0.35
			c1.62,9.27,4.17,16.46,7.65,21.55c3.24-7.88,5.33-17.73,6.26-29.55h-10.08C998.2,133.85,996.81,136.51,995.19,139.06z"/>
		<path class="st5" d="M1062.29,142.19c-1.39,0.93-2.78,1.74-4.17,2.43c-2.55,1.62-4.41,2.78-5.56,3.48l0.7,29.55
			c0.46,6.02-2.9,9.62-10.08,10.78c-0.93-0.47-1.39-0.81-1.39-1.04c-0.23-4.64-3.13-7.77-8.69-9.39c-0.93-0.46-0.81-1.04,0.35-1.74
			c7.42,1.16,11.01,0.47,10.78-2.09v-20.51c-2.55,1.86-4.99,3.48-7.3,4.87c-0.93,0.7-1.39,0.7-1.39,0
			c-0.93-3.24-1.86-6.61-2.78-10.08c0-0.46,0.35-0.81,1.04-1.04c3.01-0.7,6.49-1.39,10.43-2.09v-14.95h-3.48c-2.32,0-4.29,0-5.91,0
			l-1.74-2.43c0.92,0.23,1.85,0.35,2.78,0.35h8.34v-18.43l-0.7-4.52c0,0.23,0.11,0.12,0.35-0.35c4.17,0.7,7.65,1.51,10.43,2.43
			c0.23,0.23,0.23,0.7,0,1.39c-0.23,0.23-0.93,0.58-2.09,1.04v18.43c0.23-0.23,0.58-0.58,1.04-1.04c1.39-1.85,2.43-3.01,3.13-3.48
			c0.23-0.23,0.58-0.23,1.04,0c1.16,1.16,3.13,2.9,5.91,5.21c0.23,0.7,0,1.16-0.7,1.39h-10.43v3.48l0.35,9.73
			c3.01-0.92,6.14-1.74,9.39-2.43C1062.4,141.62,1062.52,141.96,1062.29,142.19z M1072.37,185.3l0.35-22.6v-5.56
			c3.24,0.93,6.02,2.21,8.34,3.82h4.52c0-1.39,0-3.13,0-5.21c0.23-1.85,0.35-4.52,0.35-8h-11.12h-2.43
			c-1.62,15.76-7.53,28.86-17.73,39.29c-0.47,0.23-0.93,0.23-1.39,0c-0.23-0.23-0.23-0.58,0-1.04c7.18-9.27,10.66-24.56,10.43-45.89
			v-24.68c-0.23-2.31-0.58-4.29-1.04-5.91c-0.23-1.39-0.23-2.2,0-2.43c2.31,0.7,5.68,2.21,10.08,4.52h26.77
			c0.23,0,0.81-0.58,1.74-1.74c0.7-1.16,1.27-1.85,1.74-2.09c0.46,0,0.92,0,1.39,0c2.78,1.39,5.56,3.25,8.34,5.56
			c0.23,0.23,0.23,0.58,0,1.04l-2.78,2.09l0.35,14.6c-4.87,4.64-8.12,4.75-9.73,0.35v-0.35h-27.81v8.34c0,2.55-0.12,4.75-0.35,6.61
			h13.56c0-2.31,0-5.44,0-9.39c0-1.39,0-2.66,0-3.82c-0.23-0.23,0-0.58,0.7-1.04c3.24,0.7,6.49,1.62,9.73,2.78
			c0.46,0.93,0.58,1.51,0.35,1.74c-0.47,0.47-1.04,0.93-1.74,1.39l-0.7,0.35c-0.47,2.78-0.58,5.45-0.35,8h9.39
			c2.09-2.78,3.82-4.87,5.21-6.26h0.7c0.23,0,0.46,0,0.7,0c3.01,2.09,5.56,4.29,7.65,6.61c0.23,0.93,0.11,1.39-0.35,1.39h-23.29
			c0,4.41,0,8.81,0,13.21h6.61c0.92-1.39,1.97-2.66,3.13-3.82c0.23-0.23,0.58-0.35,1.04-0.35c1.39,0.93,3.59,2.43,6.61,4.52
			c0.46,0.47,1.04,0.81,1.74,1.04c0.23,0.23,0.23,0.58,0,1.04c-0.47,0.47-1.04,0.93-1.74,1.39l-0.7,0.35l0.7,19.12
			c-0.47,1.85-2.43,3.13-5.91,3.82c-2.55,0.23-3.82-0.7-3.82-2.78v-3.82h-20.51v2.78c-0.47,1.85-2.21,3.13-5.21,3.82
			C1073.29,188.31,1072.14,187.39,1072.37,185.3z M1072.72,113.68v15.64h27.81v-15.64H1072.72z M1081.06,162.7v17.04h20.51V162.7
			H1081.06z"/>
		<path class="st5" d="M1171.11,127.59v-17.73c-0.23-0.7-0.47-1.62-0.7-2.78c-0.47-1.62-0.58-2.55-0.35-2.78
			c6.49,0.23,10.89,1.28,13.21,3.13c0,0.47-0.58,1.16-1.74,2.09l-0.35,0.35v17.73h5.91v-0.35c2.78-3.71,4.75-6.02,5.91-6.95
			c0.23-0.23,0.58-0.23,1.04,0c5.79,3.48,9.15,6.03,10.08,7.65c0.23,0.93,0,1.39-0.7,1.39h-22.25v26.77h8.34
			c3.01-4.4,5.1-7.07,6.26-8h1.39c4.17,3.01,7.65,5.68,10.43,8c0.46,0.93,0.35,1.62-0.35,2.09h-78.57c-2.09,0-4.06,0-5.91,0
			l-1.74-2.43c0.92,0.23,1.97,0.35,3.13,0.35h21.9v-26.77h-14.6c-2.09,0.23-4.06,0.35-5.91,0.35l-1.74-2.43
			c0.92,0.23,1.97,0.35,3.13,0.35h19.12v-17.73c-0.23-0.7-0.47-1.62-0.7-2.78c-0.47-1.62-0.58-2.55-0.35-2.78
			c6.49,0.23,10.89,1.28,13.21,3.13c0,0.47-0.58,1.16-1.74,2.09l-0.35,0.35v17.73H1171.11z M1150.94,160.96
			c0.92,0.47,3.36,1.86,7.3,4.17c1.85,0.93,3.24,1.62,4.17,2.09c0,0.47,0,0.81,0,1.04c-1.16,0.7-2.32,1.16-3.48,1.39
			c-0.93,0-1.51,0.35-1.74,1.04c-12.05,8.81-23.41,14.25-34.07,16.34c-0.47-0.47-0.58-0.7-0.35-0.7
			c10.2-5.33,19.12-13.67,26.77-25.03C1149.78,160.85,1150.25,160.74,1150.94,160.96z M1171.11,156.1v-26.77h-14.95v26.77H1171.11z
			 M1170.41,163.05c13.67,1.86,23.17,5.91,28.51,12.17c2.09,2.78,2.43,5.56,1.04,8.34c-2.09,3.48-4.41,4.4-6.95,2.78
			c-1.39-1.16-3.36-3.6-5.91-7.3c-5.8-7.88-11.47-12.98-17.04-15.3C1169.13,163.52,1169.25,163.28,1170.41,163.05z"/>
		<path class="st5" d="M1258.37,160.96v5.56h20.51v-0.35c2.78-3.71,4.75-6.02,5.91-6.95c0.23-0.23,0.58-0.23,1.04,0
			c5.79,3.48,9.15,6.03,10.08,7.65c0.23,0.93,0,1.39-0.7,1.39h-36.85v5.91c0,1.16,0,2.9,0,5.21c0.23,2.31,0.35,3.82,0.35,4.52
			c-1.16,2.55-4.99,4.29-11.47,5.21c-0.47,0-0.93-0.35-1.39-1.04c-2.32-4.64-6.03-7.65-11.12-9.04c-0.47-0.23-0.7-0.58-0.7-1.04
			c0.23,0,0.58,0,1.04,0c7.18,1.16,11.47,1.16,12.86,0v-9.73h-28.51c-1.86,0.23-3.71,0.35-5.56,0.35l-2.09-2.43
			c0.92,0.23,1.97,0.35,3.13,0.35h33.03v-6.61c-0.23-0.23-0.47-0.81-0.7-1.74c-0.23-0.92-0.35-1.62-0.35-2.09
			c0-0.46,0.23-0.81,0.7-1.04c2.09,0.23,5.33,0.81,9.73,1.74c0.92,0,1.62,0,2.09,0c1.62-1.62,3.36-3.36,5.21-5.21h-34.07
			c-1.86,0.23-3.71,0.35-5.56,0.35l-2.09-2.43c0.92,0.23,1.97,0.35,3.13,0.35h38.59c0.7-0.92,2.09-2.2,4.17-3.82
			c-1.62-0.23-2.43-1.16-2.43-2.78v-1.04h-27.46v2.09c-4.64,3.25-7.77,3.25-9.39,0v-13.91c-0.23-2.55-0.58-4.63-1.04-6.26
			c-0.23-1.39-0.23-2.2,0-2.43c2.31,0.7,5.79,2.32,10.43,4.87h26.77c1.85-2.31,3.13-3.59,3.82-3.82c5.56,1.86,9.04,3.82,10.43,5.91
			c-0.23,0.47-1.04,1.16-2.43,2.09l-0.7,0.35v12.17c-0.47,1.62-2.55,2.67-6.26,3.13c2.09,0.93,6.02,3.25,11.82,6.95l-0.35,1.04
			c-0.93,0.23-2.32,0.35-4.17,0.35c-1.86,0.23-3.13,0.35-3.82,0.35c-4.64,0.93-9.85,2.55-15.64,4.87
			C1258.13,160.39,1258.13,160.74,1258.37,160.96z M1215.95,118.2h61.54c1.85-3.01,4.05-5.79,6.61-8.34c0.23,0,0.58,0,1.04,0
			c5.1,3.48,8.57,6.14,10.43,8c0.46,1.16,0.35,1.86-0.35,2.09h-74.75c-2.09,0.23-4.06,0.35-5.91,0.35l-1.74-2.43
			C1213.75,118.09,1214.79,118.2,1215.95,118.2z M1238.9,128.29v12.17h27.46v-12.17H1238.9z M1242.72,102.91
			c9.73,0.23,15.3,2.9,16.69,8c0.23,3.01-1.04,5.21-3.82,6.61c-3.25,1.16-5.45,0.58-6.61-1.74c-0.47-0.46-0.81-1.39-1.04-2.78
			c-0.93-4.17-2.78-7.07-5.56-8.69C1241.91,103.6,1242.03,103.14,1242.72,102.91z"/>
		<path class="st5" d="M1335.89,170.7v-14.6h-28.16c-0.47,0.23-2.43,0.35-5.91,0.35l-1.74-2.43c0.92,0.23,1.85,0.35,2.78,0.35h33.03
			v-39.98h-23.64c-2.09,0.23-4.06,0.35-5.91,0.35l-1.74-2.43c0.92,0.23,1.97,0.35,3.13,0.35h54.58v-0.35
			c2.78-3.71,4.75-6.02,5.91-6.95c0.23,0,0.58,0,1.04,0c5.79,3.48,9.15,6.03,10.08,7.65c0.23,0.93,0,1.39-0.7,1.39h-30.25
			c-0.23,1.16-0.93,2.09-2.09,2.78v37.2h22.6v-0.35c2.78-3.71,4.75-6.02,5.91-6.95h1.04c5.79,3.48,9.15,6.03,10.08,7.65
			c0.23,0.93,0,1.39-0.7,1.39h-38.94v12.52c0,4.41,0,9.73,0,15.99c-0.23,1.16-1.74,2.09-4.52,2.78c-3.48,0.7-5.45,0.7-5.91,0
			c-0.47-1.16-0.58-4.29-0.35-9.39C1335.55,176.15,1335.66,173.71,1335.89,170.7z M1311.91,125.5c9.27,3.01,14.48,7.77,15.64,14.25
			c0.23,3.71-1.28,6.38-4.52,8c-3.71,1.39-6.26,0.47-7.65-2.78c-0.7-0.7-0.81-2.43-0.35-5.21c0.46-5.56-0.7-9.96-3.48-13.21
			C1311.09,126.32,1311.21,125.97,1311.91,125.5z M1364.4,124.11c2.09,1.16,5.91,3.25,11.47,6.26c0,0.23,0,0.58,0,1.04
			c-0.47,0.23-1.16,0.47-2.09,0.7c-0.93,0.23-1.51,0.35-1.74,0.35c-8.12,7.42-14.83,13.21-20.16,17.38c-0.7-0.23-0.93-0.46-0.7-0.7
			c4.87-8.81,8.69-17.15,11.47-25.03C1362.89,123.88,1363.47,123.88,1364.4,124.11z"/>
		<path class="st5" d="M1407.51,133.85l47.28-3.13c-2.09-2.55-5.56-5.21-10.43-8c-0.7,0-1.04-0.35-1.04-1.04
			c0.23-0.46,0.81-0.7,1.74-0.7c9.27,1.39,16.57,4.17,21.9,8.34c4.87,4.87,5.33,9.62,1.39,14.25c-4.41,2.78-7.88,0.58-10.43-6.61
			c-0.23,0-0.47-0.23-0.7-0.7c-0.23-1.16-0.47-1.97-0.7-2.43c-2.32,0.47-4.52,0.93-6.61,1.39c-23.41,3.94-40.56,7.3-51.45,10.08
			c-0.93,0.47-1.39,0.23-1.39-0.7c-0.47-0.7-1.16-1.97-2.09-3.82c-1.62-3.48-2.55-5.68-2.78-6.61c-0.23-0.7-0.12-1.16,0.35-1.39
			c9.27-1.16,19.12-10.78,29.55-28.86c0.23-0.46,0.58-0.7,1.04-0.7c3.01,1.39,7.53,3.48,13.56,6.26c0.23,0.7,0.23,1.28,0,1.74
			c-1.16,0.47-2.21,0.81-3.13,1.04c-1.62,0.23-2.67,0.47-3.13,0.7C1419.79,123.65,1412.15,130.6,1407.51,133.85z M1404.73,186.34
			V156.1c0-0.46-0.12-1.27-0.35-2.43c0-1.39,0-2.55,0-3.48c0-0.23,0.35-0.46,1.04-0.7c0.23,0.23,0.58,0.47,1.04,0.7
			c2.31,1.39,4.4,2.43,6.26,3.13h33.72c1.39-1.62,2.43-2.78,3.13-3.48c0.23-0.23,0.7-0.23,1.39,0c2.31,1.16,5.33,2.9,9.04,5.21
			c0.23,0.23,0.58,0.35,1.04,0.35c0,0.7,0.11,1.04,0.35,1.04c-0.47,0.47-1.16,0.93-2.09,1.39c-0.47,0.23-0.81,0.35-1.04,0.35
			l0.7,28.16c-6.49,3.48-10.08,3.48-10.78,0v-5.91h-34.07v4.87c-0.93,1.39-3.01,2.31-6.26,2.78
			C1405.77,188.31,1404.73,187.73,1404.73,186.34z M1414.12,155.4v23.29h34.07V155.4H1414.12z"/>
	</g>
</g>
</svg>
